<svg width="580" height="580">
  <path fill="param(fill)" fill-opacity="param(fill-opacity)" stroke-width="param(outline-width)" stroke="param(outline)" stroke-opacity="param(outline-opacity)" d="M 66.273438 1.769531 C 24.941406 1.769531 1.703125 23.140625 1.703125 66.804688 L 1.703125 516.925781 C 1.703125 557.769531 22.597656 579.15625 63.894531 579.15625 L 515.921875 579.15625 C 557.226562 579.15625 578.148438 558.839844 578.148438 516.925781 L 578.148438 66.804688 C 578.148438 24.203125 557.226562 1.769531 514.628906 1.769531 C 514.625 1.769531 66.132812 1.625 66.273438 1.769531 Z M 66.273438 1.769531 "/>
  <path fill="param(fill)" fill-opacity="param(fill-opacity)" d="M 553.246094 273.269531 C 550.0625 264.96875 531.328125 256.066406 519.890625 257.414062 C 511.226562 258.4375 510.007812 257.089844 507.734375 243.996094 C 493.367188 161.269531 419.734375 87.300781 337.742188 70.4375 C 324.105469 67.636719 321.546875 67.402344 313.671875 66.628906 C 313.574219 43.355469 311.382812 29.332031 288.410156 28.53125 C 259.347656 27.53125 260.996094 48.734375 259.1875 67.742188 C 245.503906 70.792969 244.570312 68.46875 232.414062 71.480469 C 192.40625 81.394531 164.691406 98.027344 131.582031 131.152344 C 99.277344 163.46875 83.320312 190.902344 72.570312 232.609375 L 66.132812 257.605469 L 52.484375 258.425781 C 34.269531 259.523438 24.289062 269.023438 24.289062 285.257812 C 24.289062 303.121094 36.019531 314.949219 53.742188 314.949219 C 59.40625 314.949219 62.371094 315.15625 67.734375 315.570312 C 85.316406 403.554688 157.765625 488.464844 239.679688 504.582031 L 260.789062 508.734375 L 260.789062 522.816406 C 260.789062 532.042969 263.296875 539.402344 268.066406 544.171875 C 277.417969 553.519531 300.980469 554.042969 309.078125 545.082031 C 312.242188 541.578125 315.359375 532.214844 316.007812 524.269531 L 317.1875 509.820312 L 344.476562 502.246094 C 397.476562 487.53125 443.128906 455.441406 472.414062 412.316406 C 489.027344 387.851562 503.910156 353.792969 507.703125 331.550781 C 510.125 317.347656 510.851562 316.683594 526.171875 314.625 C 549.570312 311.484375 561.132812 293.820312 553.246094 273.269531 Z M 424.964844 191.238281 C 426.539062 191.238281 435.558594 202.933594 441.503906 216.191406 C 447.386719 229.3125 450.203125 243.964844 450.792969 248.753906 C 451.800781 256.960938 451.371094 257.042969 405.417969 257.792969 C 379.902344 258.210938 359.027344 257.699219 359.027344 256.65625 C 359.027344 254.042969 422.332031 191.238281 424.964844 191.238281 Z M 316.175781 171.226562 L 317.1875 123.925781 L 326.28125 125.0625 C 331.285156 125.6875 346.894531 127.820312 360.484375 134.199219 L 384.789062 149.394531 L 315.164062 218.527344 Z M 250.78125 124.226562 L 260.789062 121.96875 L 260.789062 169.339844 C 260.789062 195.390625 260.34375 216.707031 259.804688 216.707031 C 257.355469 216.707031 195.851562 152.511719 195.296875 150.042969 C 194.410156 146.109375 232.546875 125.027344 250.78125 124.226562 Z M 144.878906 203.128906 L 152.640625 190.570312 L 184.882812 222.664062 C 202.617188 240.316406 217.128906 255.613281 217.128906 256.652344 C 217.128906 257.695312 196.660156 258.550781 171.644531 258.550781 C 132.097656 258.550781 128.164062 258.980469 125.765625 258.640625 C 130.566406 232.476562 136.160156 217.238281 144.878906 203.128906 Z M 151.914062 379.574219 C 148.367188 381.007812 130.644531 343.136719 127.820312 328.097656 L 125.355469 314.949219 L 221.707031 314.949219 L 187.992188 346.785156 C 169.449219 364.292969 153.214844 379.050781 151.914062 379.574219 Z M 225.703125 442.140625 C 206.363281 434.1875 198.632812 425.5 194.230469 422.277344 C 197.804688 417.121094 207.410156 406.617188 224.429688 389.511719 C 241.335938 372.515625 256.433594 358.609375 257.980469 358.609375 C 259.523438 358.609375 260.789062 379.078125 260.789062 404.089844 C 260.789062 432.628906 260.367188 444.03125 261.378906 451.632812 C 255.265625 450.710938 241.910156 448.800781 225.703125 442.140625 Z M 301.71875 319.324219 C 288.539062 326.140625 272.03125 321.082031 261.832031 309.144531 C 252.9375 298.734375 249.105469 278.238281 264.769531 263.480469 C 280.820312 248.355469 299.613281 248.449219 314.078125 264.3125 C 323.152344 274.257812 326.105469 286.492188 321.277344 298.050781 C 318.246094 305.304688 307.976562 316.089844 301.71875 319.324219 Z M 370.058594 433.59375 C 357.164062 439.625 341.296875 445.621094 334.792969 446.921875 L 315.367188 450.480469 L 315.367188 404.546875 C 315.367188 379.28125 316.628906 358.609375 318.171875 358.609375 C 319.714844 358.609375 335.582031 373.285156 353.4375 391.21875 L 385.894531 423.828125 Z M 451.507812 326.953125 C 450.265625 332.457031 447.789062 342.792969 442.097656 355.300781 C 436.402344 367.808594 427.195312 380.441406 425.546875 380.441406 C 423.898438 380.441406 407.882812 365.703125 389.953125 347.695312 L 357.359375 314.949219 L 453.765625 314.949219 Z M 451.507812 326.953125 " stroke="param(outline)" stroke-opacity="param(outline-opacity)" stroke-width="param(outline-width)"/>
</svg>
