<svg width="580" height="580">
  <path fill="param(fill)" fill-opacity="param(fill-opacity)" d="M 66.273438 1.769531 C 24.941406 1.769531 1.703125 23.140625 1.703125 66.804688 L 1.703125 516.925781 C 1.703125 557.769531 22.597656 579.152344 63.894531 579.152344 L 515.914062 579.152344 C 557.222656 579.152344 578.144531 558.839844 578.144531 516.925781 L 578.144531 66.804688 C 578.144531 24.203125 557.222656 1.769531 514.625 1.769531 C 514.621094 1.769531 66.125 1.625 66.273438 1.769531 Z M 289.996094 84.328125 L 521.875 284.707031 L 475.5 284.707031 L 475.5 495.675781 L 339.550781 495.675781 L 339.550781 342.9375 L 243.617188 342.9375 L 243.617188 495.675781 L 104.488281 495.675781 L 104.488281 284.707031 L 58.113281 284.707031 L 289.992188 84.328125 Z M 289.996094 84.328125 " stroke="param(outline)" stroke-opacity="param(outline-opacity)" stroke-width="param(outline-width)"/>
</svg>
