<svg width="580" height="580">
  <path fill="param(fill)" fill-opacity="param(fill-opacity)" d="M 66.273438 1.769531 C 24.941406 1.769531 1.703125 23.140625 1.703125 66.804688 L 1.703125 516.925781 C 1.703125 557.769531 22.597656 579.152344 63.894531 579.152344 L 515.914062 579.152344 C 557.222656 579.152344 578.144531 558.839844 578.144531 516.925781 L 578.144531 66.804688 C 578.144531 24.203125 557.222656 1.769531 514.625 1.769531 C 514.621094 1.769531 66.125 1.625 66.273438 1.769531 Z M 263.09375 58.605469 L 291.464844 112.40625 L 318.675781 60.996094 L 341.902344 73.292969 L 306.300781 140.550781 L 496.472656 501.230469 L 507.398438 520.515625 L 506.6875 520.523438 L 506.757812 520.652344 L 485.011719 520.691406 L 393.242188 521.398438 L 392.949219 520.84375 L 190.351562 521.179688 L 190.234375 521.398438 L 166.824219 521.21875 L 72.589844 521.371094 L 83.027344 501.96875 C 154.363281 369.410156 260.359375 171.230469 275.859375 139.148438 L 239.851562 70.855469 L 263.097656 58.601562 Z M 291.738281 286.863281 C 270.03125 360.027344 224.203125 454.5625 203.90625 494.875 L 379.425781 494.585938 C 359.054688 454.113281 313.390625 359.84375 291.738281 286.863281 Z M 291.738281 286.863281 " stroke="param(outline)" stroke-opacity="param(outline-opacity)" stroke-width="param(outline-width)"/>
</svg>
