<svg xmlns="http://www.w3.org/2000/svg" width="580" height="580">
  <path fill="param(fill)" fill-opacity="param(fill-opacity)" d="M185.984 194.891C185.977 194.891 185.965 194.891 185.953 194.891 181.668 194.891 178.184 198.359 178.168 202.648L177.84 286.047C177.82 290.348 181.293 293.848 185.594 293.863 185.605 293.863 185.613 293.863 185.625 293.863 189.91 293.863 193.395 290.398 193.41 286.105L193.742 202.711C193.758 198.41 190.285 194.91 185.984 194.891ZM205.23 293.188C206.328 293.723 207.492 293.977 208.637 293.977 211.52 293.977 214.293 292.371 215.641 289.602L242.012 235.543C243.898 231.68 242.293 227.016 238.43 225.129 234.563 223.242 229.902 224.852 228.016 228.715L201.645 282.773C199.758 286.641 201.363 291.305 205.23 293.188ZM262.473 247.664 230.168 280.625C227.16 283.695 227.211 288.629 230.281 291.637 231.797 293.121 233.762 293.863 235.73 293.863 237.75 293.863 239.766 293.082 241.293 291.527L273.598 258.563C276.605 255.492 276.555 250.563 273.484 247.551 270.414 244.543 265.48 244.594 262.473 247.664ZM147.879 226.91C146.27 222.922 141.734 220.992 137.746 222.602 133.758 224.211 131.828 228.746 133.438 232.734L156.184 289.105C157.406 292.137 160.324 293.98 163.406 293.98 164.379 293.98 165.363 293.797 166.316 293.41 170.305 291.805 172.234 287.266 170.625 283.277ZM109.848 248.598C106.809 245.555 101.879 245.555 98.836 248.598 95.797 251.637 95.797 256.566 98.836 259.609L130.813 291.582C132.332 293.105 134.324 293.863 136.316 293.863 138.313 293.863 140.305 293.102 141.824 291.582 144.863 288.543 144.863 283.609 141.824 280.57ZM385.984 98.891C385.977 98.891 385.965 98.891 385.953 98.891 381.668 98.891 378.184 102.359 378.168 106.648L377.84 190.047C377.82 194.348 381.293 197.848 385.594 197.863 385.605 197.863 385.613 197.863 385.625 197.863 389.91 197.863 393.395 194.398 393.41 190.105L393.742 106.711C393.758 102.41 390.285 98.91 385.984 98.891ZM438.43 129.133C434.563 127.242 429.902 128.852 428.016 132.715L401.645 186.777C399.762 190.641 401.363 195.301 405.23 197.188 406.328 197.723 407.492 197.977 408.637 197.977 411.523 197.977 414.293 196.367 415.641 193.602L442.012 139.543C443.898 135.68 442.293 131.016 438.43 129.133ZM473.484 151.551C470.41 148.539 465.48 148.594 462.473 151.664L430.168 184.625C427.156 187.695 427.207 192.629 430.277 195.637 431.793 197.121 433.762 197.863 435.727 197.863 437.746 197.863 439.766 197.082 441.289 195.527L473.594 162.563C476.605 159.492 476.555 154.563 473.484 151.551ZM356.184 193.105C357.406 196.137 360.324 197.98 363.406 197.98 364.379 197.98 365.363 197.797 366.32 197.41 370.305 195.801 372.234 191.266 370.625 187.277L347.883 130.91C346.273 126.922 341.734 124.992 337.746 126.602 333.758 128.211 331.828 132.746 333.438 136.734ZM336.316 197.863C338.309 197.863 340.301 197.102 341.824 195.582 344.863 192.539 344.863 187.609 341.824 184.57L309.848 152.594C306.809 149.555 301.879 149.555 298.836 152.594 295.797 155.637 295.797 160.566 298.836 163.605L330.813 195.582C332.332 197.102 334.324 197.863 336.316 197.863ZM289.984 344.895C289.977 344.895 289.965 344.891 289.953 344.891 285.668 344.891 282.184 348.359 282.168 352.648L281.84 436.047C281.82 440.348 285.293 443.848 289.594 443.863 289.605 443.863 289.613 443.863 289.625 443.863 293.91 443.863 297.395 440.398 297.41 436.109L297.742 352.711C297.758 348.41 294.285 344.91 289.984 344.895ZM342.43 375.133C338.559 373.246 333.898 374.852 332.016 378.715L305.645 432.777C303.762 436.641 305.363 441.305 309.23 443.188 310.328 443.723 311.492 443.977 312.637 443.977 315.523 443.977 318.293 442.371 319.641 439.605L346.012 385.543C347.898 381.68 346.293 377.016 342.43 375.133ZM366.473 397.664 334.168 430.629C331.156 433.699 331.207 438.629 334.277 441.641 335.797 443.125 337.762 443.863 339.727 443.863 341.746 443.863 343.766 443.086 345.289 441.527L377.598 408.563C380.605 405.492 380.555 400.563 377.484 397.551 374.41 394.539 369.48 394.594 366.473 397.664ZM251.879 376.906C250.27 372.922 245.734 370.988 241.746 372.602 237.758 374.211 235.828 378.746 237.438 382.734L260.184 439.102C261.406 442.137 264.324 443.977 267.406 443.977 268.379 443.977 269.363 443.797 270.316 443.41 274.305 441.801 276.234 437.266 274.625 433.273ZM213.848 398.598C210.809 395.555 205.879 395.555 202.836 398.598 199.797 401.637 199.797 406.566 202.836 409.609L234.813 441.586C236.332 443.105 238.324 443.863 240.316 443.863 242.313 443.863 244.305 443.105 245.824 441.586 248.863 438.543 248.863 433.613 245.824 430.57ZM213.848 398.598" stroke="param(outline)" stroke-opacity="param(outline-opacity)" stroke-width="param(outline-width)"/>
</svg>
