<svg width="580" height="580">
  <path fill="param(fill)" fill-opacity="param(fill-opacity)" stroke-width="param(outline-width)" stroke="param(outline)" stroke-opacity="param(outline-opacity)" d="M 66.273438 1.769531 C 24.941406 1.769531 1.703125 23.140625 1.703125 66.804688 L 1.703125 516.925781 C 1.703125 557.769531 22.597656 579.15625 63.894531 579.15625 L 515.921875 579.15625 C 557.226562 579.15625 578.148438 558.839844 578.148438 516.925781 L 578.148438 66.804688 C 578.148438 24.203125 557.226562 1.769531 514.628906 1.769531 C 514.625 1.769531 66.132812 1.625 66.273438 1.769531 Z M 66.273438 1.769531 "/>
  <path fill="param(fill)" fill-opacity="param(fill-opacity)" d="M 287.652344 86.949219 L 305.523438 105.769531 L 323.089844 89.980469 C 332.75 81.296875 341.542969 72.34375 342.628906 70.085938 C 343.710938 67.828125 335.78125 57.273438 325.003906 46.628906 L 305.40625 27.277344 L 286.570312 44.898438 C 276.207031 54.589844 268.191406 63.78125 268.757812 65.324219 C 269.320312 66.867188 277.824219 76.601562 287.652344 86.949219 Z M 287.652344 86.949219 " stroke="param(outline)" stroke-opacity="param(outline-opacity)" stroke-width="param(outline-width)"/>
  <path fill="param(fill)" fill-opacity="param(fill-opacity)" d="M 254.492188 152.90625 C 262.921875 158.707031 277.261719 166.054688 286.359375 169.238281 C 309.191406 177.226562 337.550781 176.761719 360.929688 168.011719 C 382.550781 159.925781 420.71875 128.058594 416.113281 121.941406 C 411.332031 115.601562 372.1875 83.390625 369.257812 83.390625 C 367.742188 83.390625 363.246094 87.53125 359.269531 92.59375 C 346.351562 109.011719 320.941406 121.242188 299.835938 121.195312 C 276.285156 121.144531 258.464844 113.863281 239.132812 96.398438 C 224.546875 83.21875 224.03125 83.066406 214.8125 89.105469 C 209.632812 92.5 205.394531 97.183594 205.394531 99.515625 C 205.390625 106.238281 237.65625 141.324219 254.492188 152.90625 Z M 254.492188 152.90625 " stroke="param(outline)" stroke-opacity="param(outline-opacity)" stroke-width="param(outline-width)"/>
  <path fill="param(fill)" fill-opacity="param(fill-opacity)" d="M 539.375 307.832031 C 537.496094 249.09375 529.789062 222.480469 508.265625 200.4375 C 491.960938 183.738281 476.074219 177.929688 447.816406 178.332031 C 409.960938 178.867188 381.71875 201.347656 371.058594 239.425781 C 366.589844 255.382812 365.785156 256.09375 349.4375 258.546875 C 326.761719 261.945312 312.800781 268.121094 292.164062 283.875 C 273.273438 298.292969 266.199219 298.179688 271.761719 283.546875 C 276.984375 269.808594 276.066406 241.839844 269.6875 220.355469 C 261.863281 194.015625 244.03125 172.179688 220.042969 159.566406 C 200.957031 149.527344 197.898438 149.035156 163.082031 150.398438 C 125.117188 151.878906 102.371094 159.078125 102.371094 169.605469 C 102.371094 175.746094 123.34375 223.207031 126.058594 223.207031 C 127.109375 223.207031 140.304688 219.066406 155.375 214.007812 C 186.328125 203.617188 211.867188 202.261719 227.207031 210.191406 C 239.121094 216.351562 242.1875 222.421875 242.1875 239.824219 C 242.1875 266.566406 227.089844 284.84375 191.597656 301.070312 C 178.949219 306.855469 168.601562 313.898438 168.601562 316.722656 C 168.601562 326.375 190.355469 370.382812 195.121094 370.367188 C 203.046875 370.347656 222.6875 356.808594 238.625 340.386719 L 253.695312 324.859375 L 262.609375 335.664062 C 287.695312 366.0625 302.128906 417.421875 293.9375 447.144531 C 287.582031 470.191406 266.460938 491.445312 244.324219 497.066406 C 170.09375 515.914062 93.789062 439.371094 69.429688 321.628906 C 64.757812 299.035156 59.25 295.363281 45.316406 305.554688 C 38.515625 310.527344 38.527344 311.4375 45.914062 348.785156 C 58.863281 414.269531 80.730469 458.261719 120.765625 499.363281 C 145.902344 525.171875 172.632812 541.324219 203.554688 549.390625 C 227.320312 555.59375 271.257812 552.800781 291.617188 543.796875 C 356.265625 515.199219 366.890625 430.597656 315.589844 352.902344 L 307.691406 340.941406 L 327.371094 331.78125 C 351.375 320.605469 356.824219 320.382812 365.703125 330.1875 C 371.4375 336.527344 373.003906 346.089844 374.882812 386.300781 C 377.804688 448.890625 384.519531 466.367188 409.980469 477.628906 C 440.148438 490.972656 478.816406 480.625 503.398438 452.628906 C 531.914062 420.152344 541.707031 380.742188 539.375 307.832031 Z M 469.464844 418.207031 C 451.429688 429.199219 428.679688 428.105469 418.984375 415.773438 C 408.808594 402.839844 408.246094 399.289062 406.882812 339.105469 C 405.910156 296.242188 404.527344 285.601562 398.644531 275.734375 L 391.570312 263.878906 L 400.585938 254.230469 C 420.875 232.511719 451.828125 227.601562 474.363281 242.523438 C 491.007812 253.542969 507.179688 286.289062 509.699219 314.070312 C 513.550781 356.574219 495.988281 402.035156 469.464844 418.207031 Z M 469.464844 418.207031 " stroke="param(outline)" stroke-opacity="param(outline-opacity)" stroke-width="param(outline-width)"/>
</svg>
