<svg width="580" height="580">
  <path fill="param(fill)" fill-opacity="param(fill-opacity)" d="M 426.851562 174.8125 C 454.203125 164.589844 488.886719 141.414062 488.886719 133.359375 C 482.824219 114.289062 464.496094 100.878906 453.921875 84.453125 C 453.144531 83.414062 444.6875 88.824219 435.167969 96.492188 C 391.851562 131.316406 352.195312 138.945312 313.070312 120.019531 C 291.304688 106.625 270.964844 87.433594 261.046875 65.914062 C 252.601562 65.914062 260.355469 106.042969 272.957031 127.542969 C 313 186.617188 359.105469 194.339844 426.851562 174.8125 Z M 426.851562 174.8125 " stroke="param(outline)" stroke-opacity="param(outline-opacity)" stroke-width="param(outline-width)"/>
  <path fill="param(fill)" fill-opacity="param(fill-opacity)" d="M352.195312 120.441406C371.371094 109.566406 383.496094 88.121094 400.273438 74.300781L351.207031 28.921875 307.078125 77.84375C314.480469 96.121094 337.074219 109.269531 352.195312 120.441406ZM476.515625 205.054688C460.617188 193.914062 452.863281 191.625 431.082031 191.660156 384.269531 191.730469 364.144531 207.449219 333.125 268.183594 310.671875 312.082031 291.921875 322.65625 261.1875 308.769531L243.085938 300.628906 256.199219 292.34375C271.371094 282.722656 291.039062 248.390625 295.394531 223.875 301.828125 187.621094 277.714844 144.621094 244.882812 133.78125 208.84375 121.882812 145.5 135.789062 109.019531 163.617188L94.445312 174.722656 129.183594 232.933594C198.003906 196.523438 231.980469 190.953125 250.910156 212.964844 264.042969 228.210938 264.289062 234.007812 252.496094 248.988281 239.96875 264.9375 215.785156 272.023438 183.78125 269.117188L157.1875 266.703125C165.453125 316.277344 191.394531 344.191406 191.394531 344.191406 233.691406 338.625 256.410156 346.695312 266.4375 370.875 279.390625 402.175781 267.300781 434.320312 237.5 447.855469 199.257812 465.234375 132.867188 454.199219 106.0625 426.003906 89.917969 409.011719 73.210938 374.328125 63.410156 337.390625 58.953125 320.539062 53.664062 306.742188 51.691406 306.742188 45.734375 306.742188 47.761719 357.058594 54.953125 387.476562 70.761719 454.554688 110.695312 503.476562 165.699219 523.109375 185.527344 530.195312 221.621094 531.003906 243.792969 524.835938 266.542969 518.492188 295.023438 492.621094 307.363281 467.03125 321.285156 438.09375 321.917969 390.542969 308.734375 361.289062L299.535156 340.808594 328.015625 340.808594C353.464844 340.808594 358.011719 339.363281 370.738281 327.167969 378.5625 319.695312 391.039062 302.953125 398.441406 290.015625 419.871094 252.566406 435.171875 238.570312 454.625 238.570312 463.792969 238.570312 475 240.5625 479.511719 242.976562 501.222656 254.589844 509.683594 320.332031 493.894531 354.449219 473.097656 399.355469 420.542969 423.148438 383.921875 404.21875 369.011719 396.5 352.761719 373.273438 352.269531 358.996094 352.019531 351.207031 351.28125 351.558594 347.296875 361.289062 338.980469 381.519531 345.5 427.554688 359.984375 450.746094 376.480469 477.21875 397.171875 488.496094 429.316406 488.496094 487.867188 488.496094 527.027344 438.339844 533.019531 355.683594 537.773438 290.40625 516.167969 232.847656 476.515625 205.054688ZM476.515625 205.054688" stroke="param(outline)" stroke-opacity="param(outline-opacity)" stroke-width="param(outline-width)"/>
</svg>
