<svg xmlns="http://www.w3.org/2000/svg" width="580" height="580">
  <path fill="param(fill)" fill-opacity="param(fill-opacity)" d="M 66.273438 1.769531 C 24.941406 1.769531 1.703125 23.140625 1.703125 66.804688 L 1.703125 516.925781 C 1.703125 557.769531 22.597656 579.152344 63.894531 579.152344 L 515.914062 579.152344 C 557.222656 579.152344 578.144531 558.835938 578.144531 516.925781 L 578.144531 66.804688 C 578.144531 24.203125 557.222656 1.769531 514.625 1.769531 C 514.621094 1.769531 66.132812 1.625 66.273438 1.769531 Z M 74.875 127.828125 L 327.984375 147.765625 L 325.15625 183.699219 L 254.835938 178.160156 L 258.8125 222.371094 L 261.160156 220.726562 L 360.121094 362.015625 L 446.429688 362.003906 L 446.433594 380.023438 L 337.632812 380.042969 L 331.671875 384.21875 L 328.75 380.042969 L 73.328125 380.085938 L 73.324219 362.0625 L 92.140625 362.0625 L 92.109375 165.339844 L 72.050781 163.761719 L 74.882812 127.824219 Z M 128.148438 168.183594 L 128.175781 362.0625 L 164.222656 362.058594 L 164.195312 171.027344 L 128.148438 168.1875 Z M 200.238281 173.859375 L 200.265625 362.050781 L 235.175781 362.042969 L 218.386719 175.292969 L 200.238281 173.863281 Z M 264.777344 288.71875 L 271.367188 362.03125 L 316.121094 362.027344 Z M 55.257812 398.03125 L 504.488281 398.03125 L 504.488281 416.054688 L 55.257812 416.054688 Z M 37.546875 434.140625 L 542.457031 434.140625 L 542.457031 452.160156 L 37.546875 452.160156 Z M 37.546875 434.140625 " stroke="param(outline)" stroke-opacity="param(outline-opacity)" stroke-width="param(outline-width)"/>
</svg>
