<svg width="580" height="580">
  <path fill="param(fill)" fill-opacity="param(fill-opacity)" stroke-width="param(outline-width)" stroke="param(outline)" stroke-opacity="param(outline-opacity)" d="M 66.273438 1.769531 C 24.941406 1.769531 1.703125 23.140625 1.703125 66.804688 L 1.703125 516.925781 C 1.703125 557.769531 22.597656 579.15625 63.894531 579.15625 L 515.921875 579.15625 C 557.226562 579.15625 578.148438 558.839844 578.148438 516.925781 L 578.148438 66.804688 C 578.148438 24.203125 557.226562 1.769531 514.628906 1.769531 C 514.625 1.769531 66.132812 1.625 66.273438 1.769531 Z M 66.273438 1.769531 "/>
  <path fill="param(fill)" fill-opacity="param(fill-opacity)" d="M55.257812 398.035156 504.492188 398.035156 504.492188 416.058594 55.257812 416.058594ZM37.546875 434.140625 542.453125 434.140625 542.453125 452.164062 37.546875 452.164062ZM92.132812 362.066406 73.316406 362.070312 73.320312 380.09375 328.746094 380.050781 331.667969 384.222656 337.628906 380.050781 446.433594 380.03125 446.429688 362.007812 360.125 362.023438 261.160156 220.730469 258.8125 222.371094 254.839844 178.164062 325.15625 183.703125 327.988281 147.769531 74.875 127.832031 72.042969 163.765625 92.105469 165.347656ZM128.148438 168.183594 164.195312 171.023438 164.222656 362.054688 128.175781 362.0625ZM200.242188 173.863281 218.386719 175.292969 235.175781 362.042969 200.265625 362.050781ZM264.777344 288.726562 316.121094 362.03125 271.367188 362.039062ZM264.777344 288.726562" stroke="param(outline)" stroke-opacity="param(outline-opacity)" stroke-width="param(outline-width)"/>
</svg>
