<svg width="580" height="580">
  <path fill="param(fill)" fill-opacity="param(fill-opacity)" d="M 537.34375 251.464844 C 537.222656 251.460938 537.105469 251.460938 536.984375 251.460938 C 527.257812 251.460938 519.273438 259.253906 519.082031 269.023438 L 517.796875 334.550781 L 63.683594 331.523438 L 65.460938 192.828125 C 65.585938 182.9375 57.667969 174.8125 47.777344 174.6875 C 47.699219 174.683594 47.621094 174.683594 47.542969 174.683594 C 37.757812 174.683594 29.761719 182.554688 29.632812 192.371094 L 26.433594 441.890625 C 26.308594 451.785156 34.226562 459.90625 44.117188 460.035156 C 44.195312 460.035156 44.273438 460.035156 44.351562 460.035156 C 54.140625 460.035156 62.136719 452.164062 62.261719 442.351562 L 63.222656 367.347656 L 517.09375 370.375 L 515.882812 432.171875 C 515.6875 442.066406 523.550781 450.242188 533.441406 450.4375 C 533.5625 450.4375 533.683594 450.441406 533.800781 450.441406 C 543.53125 450.441406 551.515625 442.648438 551.703125 432.878906 L 554.902344 269.726562 C 555.097656 259.835938 547.234375 251.65625 537.34375 251.464844 Z M 537.34375 251.464844 " stroke="param(outline)" stroke-opacity="param(outline-opacity)" stroke-width="param(outline-width)"/>
  <path fill="param(fill)" fill-opacity="param(fill-opacity)" d="M255.484375 323.566406 463.421875 323.566406C487.128906 323.566406 506.414062 304.277344 506.414062 280.570312 506.414062 256.863281 487.128906 237.578125 463.421875 237.578125L255.484375 237.578125C231.777344 237.578125 212.488281 256.863281 212.488281 280.570312 212.488281 304.277344 231.777344 323.566406 255.484375 323.566406ZM161.910156 230.539062 161.925781 230.539062C171.527344 230.535156 180.5625 227.214844 187.363281 221.1875 194.199219 215.128906 197.964844 207.0625 197.960938 198.449219 197.953125 180.78125 181.78125 166.410156 161.898438 166.410156 152.292969 166.414062 143.261719 169.734375 136.460938 175.757812 129.621094 181.820312 125.855469 189.886719 125.859375 198.5 125.867188 216.164062 142.039062 230.539062 161.910156 230.539062ZM94.730469 319.277344 184.304688 319.277344C196.386719 319.277344 206.21875 309.449219 206.21875 297.367188 206.21875 285.28125 196.386719 275.453125 184.304688 275.453125L94.730469 275.453125C82.648438 275.453125 72.816406 285.28125 72.816406 297.367188 72.816406 309.449219 82.648438 319.277344 94.730469 319.277344ZM94.730469 319.277344" stroke="param(outline)" stroke-opacity="param(outline-opacity)" stroke-width="param(outline-width)"/>
</svg>
