<svg xmlns="http://www.w3.org/2000/svg" width="580" height="580">
  <path fill="param(fill)" fill-opacity="param(fill-opacity)" d="M549.546875 532.210938 238.121094 532.210938C235.382812 532.210938 233.160156 534.898438 233.160156 538.210938 233.160156 541.523438 235.382812 544.210938 238.121094 544.210938L549.546875 544.210938C552.285156 544.210938 554.507812 541.523438 554.507812 538.210938 554.507812 534.898438 552.285156 532.210938 549.546875 532.210938ZM369.699219 37.050781 31.652344 37.050781C25.050781 37.050781 19.699219 39.738281 19.699219 43.050781 19.699219 46.363281 25.050781 49.050781 31.652344 49.050781L369.699219 49.050781C376.296875 49.050781 381.652344 46.363281 381.652344 43.050781 381.652344 39.738281 376.300781 37.050781 369.699219 37.050781ZM448.140625 284.632812 149.742188 284.632812C143.914062 284.632812 139.1875 287.320312 139.1875 290.632812 139.1875 293.945312 143.914062 296.632812 149.742188 296.632812L448.140625 296.632812C453.96875 296.632812 458.695312 293.945312 458.695312 290.632812 458.695312 287.320312 453.96875 284.632812 448.140625 284.632812ZM448.140625 284.632812" stroke="param(outline)" stroke-opacity="param(outline-opacity)" stroke-width="param(outline-width)"/>
</svg>
