<svg xmlns="http://www.w3.org/2000/svg" width="580" height="580">
  <path fill="param(fill)" fill-opacity="param(fill-opacity)" d="M184.594 135.512C183.453 127.082 176.445 122.215 170.816 118.301 169.668 117.5 168.578 116.746 167.594 116 167.281 115.766 166.941 115.574 166.582 115.43 165.258 114.898 163.527 114.359 161.598 114.586 161.414 114.605 161.23 114.641 161.055 114.684 159.211 115.137 156.934 115.176 154.762 115.176L152.598 115.172C147.668 115.172 140.215 115.172 135.332 121.371 134.93 121.883 134.648 122.477 134.504 123.113 133.457 127.793 134.734 132.82 138.004 136.902 141.297 141.016 146.145 143.473 150.965 143.473 152.16 143.473 153.352 143.324 154.512 143.031 156.199 143.113 157.984 143.301 159.863 143.5 162.59 143.789 165.406 144.09 168.258 144.09 172.16 144.09 177.938 143.609 183.027 139.469 184.203 138.512 184.797 137.012 184.594 135.512ZM168.258 135.391C165.867 135.391 163.281 135.113 160.781 134.848 158.598 134.617 156.336 134.379 154.137 134.309 154.09 134.309 154.047 134.309 154 134.309 153.559 134.309 153.121 134.375 152.703 134.504 150.02 135.344 146.895 134.09 144.797 131.465 143.457 129.793 142.77 127.816 142.859 126.004 144.813 124.223 147.793 123.871 152.598 123.871L154.762 123.875C157.301 123.875 159.988 123.824 162.613 123.25 162.672 123.266 162.75 123.289 162.863 123.324 163.84 124.047 164.859 124.754 165.852 125.445 169.633 128.074 173.52 130.773 175.191 134.168 173.336 135.004 171.098 135.391 168.258 135.391ZM221.816 306.301C220.668 305.5 219.578 304.746 218.594 304 218.281 303.766 217.941 303.574 217.582 303.43 216.258 302.902 214.523 302.363 212.598 302.586 212.414 302.605 212.23 302.641 212.055 302.684 210.211 303.137 207.934 303.176 205.762 303.176L203.602 303.172C198.668 303.172 191.215 303.172 186.332 309.371 185.93 309.883 185.648 310.477 185.504 311.113 184.457 315.793 185.734 320.816 189.004 324.902 192.301 329.016 197.145 331.469 201.965 331.469 203.16 331.469 204.352 331.32 205.512 331.031 207.199 331.109 208.984 331.301 210.863 331.5 213.59 331.789 216.406 332.09 219.258 332.09 223.16 332.09 228.938 331.609 234.027 327.469 235.203 326.512 235.797 325.012 235.594 323.512 234.453 315.082 227.445 310.215 221.816 306.301ZM219.258 323.391C216.867 323.391 214.281 323.113 211.781 322.848 209.598 322.617 207.336 322.379 205.137 322.309 205.09 322.309 205.047 322.309 205 322.309 204.559 322.309 204.121 322.371 203.703 322.504 201.02 323.34 197.895 322.09 195.797 319.465 194.457 317.793 193.77 315.816 193.859 314.004 195.813 312.223 198.797 311.871 203.602 311.871L205.758 311.875C208.297 311.875 210.984 311.824 213.613 311.25 213.672 311.266 213.75 311.289 213.863 311.324 214.84 312.047 215.859 312.754 216.852 313.445 220.633 316.07 224.52 318.773 226.191 322.168 224.336 323.004 222.098 323.391 219.258 323.391ZM336.605 236.57C338.141 235.441 338.766 233.441 338.141 231.641 335.156 223.012 326.508 218.246 320.785 215.094 320.324 214.844 319.824 214.676 319.309 214.602 319.047 214.539 318.652 214.469 318.176 214.469 317.449 214.469 316.746 214.633 316.113 214.941 314.809 215.168 313.395 215.199 312.258 215.199 311.508 215.199 310.75 215.184 309.992 215.168 309.18 215.152 308.363 215.137 307.555 215.137 302.91 215.137 297.605 215.711 293.473 219.969 292.828 220.629 292.414 221.477 292.285 222.387 291.695 226.539 292.953 230.648 295.828 233.957 298.859 237.449 303.344 239.535 307.824 239.535 309.074 239.535 310.309 239.375 311.508 239.059 313.063 239.137 314.723 239.328 316.473 239.527 319.008 239.816 321.629 240.113 324.285 240.113 329.324 240.117 333.355 238.957 336.605 236.57ZM311.094 230.34C311.055 230.34 311.012 230.336 310.969 230.336 310.508 230.336 310.051 230.41 309.609 230.555 307.219 231.34 304.215 230.348 302.398 228.258 301.871 227.648 301.098 226.539 300.898 225.078 302.547 224.063 304.68 223.836 307.559 223.836 308.309 223.836 309.063 223.852 309.82 223.867 310.633 223.883 311.449 223.898 312.258 223.898 313.844 223.898 315.863 223.844 317.922 223.457 321.973 225.734 325.691 228.105 328.016 231.066 326.938 231.305 325.711 231.414 324.285 231.414 322.129 231.414 319.754 231.145 317.457 230.887 315.363 230.645 313.203 230.398 311.094 230.34ZM187.785 224.449C188.773 224.398 189.703 224.352 190.605 224.352 192.105 224.352 193.207 224.488 194.168 224.797 194.258 224.824 194.348 224.852 194.438 224.875 195.59 225.164 196.492 225.301 197.281 225.301 200.152 225.301 201.684 223.441 202.117 221.848 203.168 218.004 199.168 215.488 197.617 214.566 194.434 212.352 191.047 212.063 188.438 212.063 187.398 212.063 186.383 212.113 185.398 212.164 183.535 212.258 181.805 212.305 180.59 212.109 180.52 212.102 180.449 212.09 180.379 212.082 180.027 212.043 179.691 212.027 179.375 212.027 175.699 212.027 173.594 214.305 173.137 216.566 172.711 218.672 173.527 221.688 177.234 223.254 179.992 224.426 182.727 224.563 184.547 224.563 185.656 224.563 186.738 224.504 187.785 224.449ZM380.145 348.523C381.02 335.691 369.461 328.633 361.023 323.48L359.594 322.609C359.262 322.402 358.902 322.242 358.523 322.133 356.766 321.625 355.082 321.43 353.438 321.57 353.32 321.582 353.203 321.598 353.086 321.617 350.988 321.973 348.52 322.035 345.906 322.105 338.035 322.313 328.238 322.57 323.188 331.781 323.031 332.063 322.906 332.363 322.816 332.676 321.195 338.34 322.484 344.535 326.359 349.68 330.547 355.238 336.883 358.555 343.305 358.555 344.652 358.555 345.988 358.406 347.293 358.113 348.363 358.203 349.473 358.32 350.609 358.438 353.723 358.762 356.941 359.098 360.238 359.098 360.246 359.098 360.254 359.098 360.262 359.098 363.566 359.098 373.52 359.074 379.367 350.719 379.824 350.07 380.094 349.313 380.145 348.523ZM360.238 350.395C357.395 350.395 354.402 350.086 351.508 349.785 350.047 349.633 348.625 349.484 347.273 349.383 347.16 349.371 347.051 349.367 346.938 349.367 346.551 349.367 346.16 349.422 345.785 349.523 341.523 350.695 336.406 348.555 333.309 344.445 331.207 341.656 330.402 338.438 331.063 335.543 333.609 331.434 338.504 331.004 346.137 330.805 348.863 330.734 351.676 330.656 354.32 330.23 354.715 330.215 355.129 330.258 355.594 330.359L356.488 330.91C364.742 335.945 371.137 340.363 371.477 346.695 369.176 349.246 365.645 350.395 360.238 350.395ZM284.398 287.164C282.539 287.258 280.805 287.305 279.594 287.109 279.523 287.102 279.449 287.09 279.383 287.082 279.027 287.043 278.691 287.027 278.375 287.027 274.699 287.027 272.594 289.305 272.137 291.566 271.711 293.672 272.527 296.688 276.234 298.254 278.992 299.426 281.727 299.563 283.547 299.563 284.656 299.563 285.738 299.508 286.785 299.453 287.773 299.402 288.703 299.352 289.605 299.352 291.105 299.352 292.207 299.488 293.168 299.801 293.258 299.828 293.348 299.852 293.438 299.875 294.59 300.164 295.496 300.301 296.281 300.301 299.156 300.301 300.684 298.441 301.121 296.848 302.172 293.004 298.172 290.488 296.617 289.566 293.434 287.352 290.047 287.066 287.438 287.066 286.398 287.063 285.383 287.113 284.398 287.164ZM103.594 269.59C105.008 269.59 106.457 269.438 107.824 269.148 108.953 269.203 110.309 269.395 111.738 269.598 113.805 269.887 115.945 270.188 118.035 270.188 120.66 270.188 122.766 269.691 124.477 268.676 125.578 268.02 126.332 266.91 126.539 265.648 126.75 264.387 126.395 263.098 125.563 262.121 122.426 258.43 117.43 253.859 111.438 253.035 110.906 252.961 110.367 252.988 109.844 253.109 108.695 253.383 106.77 253.313 104.684 253.172 103.527 253.098 102.336 253.016 101.117 253.016 98.52 253.016 94.711 253.352 91.625 256.227 90.523 257.254 90.031 258.781 90.328 260.258 91.477 266.012 96.559 269.59 103.594 269.59ZM126.438 399.035C125.906 398.961 125.367 398.988 124.848 399.109 123.695 399.383 121.77 399.313 119.684 399.172 118.527 399.094 117.336 399.016 116.121 399.016 113.52 399.016 109.711 399.348 106.625 402.227 105.523 403.254 105.031 404.781 105.328 406.258 106.477 412.012 111.559 415.59 118.594 415.59 120.008 415.59 121.457 415.438 122.824 415.148 123.953 415.203 125.313 415.395 126.738 415.598 128.809 415.887 130.945 416.188 133.035 416.188 135.66 416.188 137.766 415.695 139.477 414.676 140.574 414.02 141.328 412.91 141.539 411.648 141.75 410.387 141.391 409.098 140.563 408.121 137.426 404.43 132.43 399.859 126.438 399.035ZM89.816 509.301C88.668 508.5 87.578 507.746 86.594 507 86.281 506.766 85.941 506.574 85.582 506.43 84.258 505.902 82.523 505.363 80.598 505.586 80.414 505.605 80.23 505.641 80.055 505.684 78.211 506.137 75.934 506.176 73.762 506.176L71.602 506.172C66.668 506.172 59.215 506.172 54.332 512.371 53.93 512.883 53.648 513.477 53.504 514.113 52.457 518.793 53.734 523.816 57.004 527.902 60.301 532.016 65.145 534.469 69.965 534.469 71.16 534.469 72.352 534.32 73.512 534.031 75.199 534.109 76.984 534.301 78.863 534.5 81.59 534.789 84.406 535.09 87.258 535.09 91.16 535.09 96.938 534.609 102.027 530.469 103.203 529.512 103.797 528.012 103.594 526.512 102.453 518.082 95.445 513.215 89.816 509.301ZM87.258 526.391C84.867 526.391 82.281 526.113 79.781 525.848 77.598 525.617 75.336 525.379 73.137 525.309 73.09 525.309 73.047 525.309 73 525.309 72.559 525.309 72.121 525.371 71.703 525.504 69.02 526.34 65.898 525.09 63.797 522.465 62.457 520.793 61.77 518.816 61.859 517.004 63.813 515.223 66.797 514.871 71.602 514.871L73.758 514.875C76.297 514.875 78.984 514.824 81.613 514.25 81.672 514.266 81.75 514.289 81.863 514.324 82.84 515.047 83.859 515.754 84.852 516.445 88.633 519.07 92.52 521.773 94.191 525.168 92.336 526.004 90.098 526.391 87.258 526.391ZM202.617 490.563C199.434 488.352 196.047 488.063 193.438 488.063 192.398 488.063 191.383 488.113 190.398 488.164 188.539 488.262 186.805 488.305 185.594 488.109 185.523 488.098 185.449 488.09 185.383 488.082 185.027 488.043 184.691 488.027 184.375 488.027 180.699 488.027 178.594 490.305 178.137 492.566 177.711 494.672 178.527 497.688 182.234 499.254 184.992 500.426 187.727 500.563 189.547 500.563 190.656 500.563 191.738 500.504 192.785 500.449 193.773 500.398 194.703 500.352 195.605 500.352 197.105 500.352 198.207 500.488 199.168 500.797 199.258 500.824 199.348 500.852 199.438 500.875 200.59 501.164 201.492 501.301 202.281 501.301 205.156 501.301 206.684 499.441 207.117 497.844 208.168 494.004 204.168 491.488 202.617 490.563ZM61.285 339.391C60.699 343.539 61.953 347.652 64.828 350.961 67.859 354.453 72.348 356.535 76.824 356.535 78.074 356.535 79.313 356.379 80.508 356.063 82.063 356.141 83.727 356.328 85.473 356.527 88.012 356.816 90.633 357.117 93.285 357.117 98.324 357.117 102.355 355.957 105.605 353.57 107.145 352.441 107.766 350.441 107.145 348.641 104.16 340.008 95.512 335.246 89.785 332.094 89.328 331.84 88.824 331.676 88.309 331.602 88.051 331.539 87.656 331.469 87.18 331.469 86.453 331.469 85.75 331.633 85.117 331.941 83.813 332.168 82.395 332.199 81.258 332.199 80.508 332.199 79.754 332.184 78.996 332.172 78.184 332.152 77.367 332.137 76.559 332.137 71.91 332.137 66.605 332.711 62.473 336.973 61.832 337.633 61.414 338.477 61.285 339.391ZM76.559 340.836C77.309 340.836 78.063 340.852 78.82 340.867 79.633 340.887 80.449 340.898 81.258 340.898 82.844 340.898 84.863 340.844 86.922 340.457 90.973 342.734 94.691 345.105 97.016 348.066 95.938 348.301 94.711 348.414 93.285 348.414 91.125 348.414 88.754 348.145 86.457 347.887 84.367 347.648 82.203 347.402 80.094 347.34 80.055 347.34 80.012 347.34 79.969 347.34 79.508 347.34 79.051 347.41 78.609 347.555 76.219 348.34 73.215 347.348 71.398 345.258 70.871 344.648 70.098 343.539 69.898 342.078 71.547 341.063 73.68 340.836 76.559 340.836ZM489.594 298.512C488.453 290.082 481.445 285.215 475.82 281.301 474.668 280.504 473.578 279.746 472.594 279 472.281 278.766 471.941 278.574 471.582 278.43 470.258 277.902 468.52 277.363 466.598 277.586 466.41 277.605 466.23 277.641 466.051 277.684 464.211 278.141 461.934 278.176 459.762 278.176L457.598 278.172C452.664 278.172 445.215 278.172 440.332 284.371 439.93 284.883 439.648 285.48 439.504 286.113 438.457 290.793 439.734 295.82 443.004 299.906 446.301 304.016 451.145 306.473 455.965 306.473 457.16 306.473 458.352 306.324 459.512 306.031 461.199 306.113 462.984 306.305 464.863 306.504 467.59 306.789 470.406 307.09 473.258 307.09 477.16 307.09 482.941 306.613 488.027 302.469 489.203 301.512 489.797 300.012 489.594 298.512ZM473.258 298.391C470.867 298.391 468.281 298.113 465.781 297.848 463.594 297.617 461.336 297.379 459.137 297.309 459.09 297.309 459.043 297.309 459 297.309 458.559 297.309 458.121 297.371 457.699 297.504 455.02 298.34 451.895 297.09 449.797 294.465 448.457 292.793 447.77 290.816 447.859 289.004 449.813 287.223 452.793 286.871 457.598 286.871L459.762 286.875C462.297 286.875 464.984 286.824 467.609 286.254 467.668 286.266 467.75 286.289 467.863 286.324 468.836 287.047 469.859 287.758 470.852 288.445 474.633 291.074 478.516 293.773 480.188 297.168 478.336 298.004 476.098 298.391 473.258 298.391ZM53.273 185.098C56.586 185.098 66.527 185.07 72.367 176.723 72.824 176.074 73.09 175.313 73.145 174.523 74.02 161.691 62.461 154.637 54.02 149.48L52.594 148.609C52.262 148.402 51.902 148.242 51.523 148.133 49.766 147.625 48.082 147.43 46.441 147.57 46.32 147.582 46.203 147.598 46.086 147.617 43.988 147.973 41.523 148.035 38.91 148.105 31.035 148.313 21.238 148.57 16.188 157.781 16.031 158.066 15.91 158.363 15.82 158.676 14.195 164.34 15.484 170.535 19.359 175.68 23.551 181.234 29.883 184.555 36.305 184.555 37.652 184.555 38.992 184.406 40.297 184.109 41.363 184.203 42.477 184.316 43.609 184.438 46.727 184.762 49.945 185.094 53.238 185.094 53.25 185.098 53.262 185.098 53.273 185.098ZM40.273 175.383C40.16 175.371 40.051 175.367 39.938 175.367 39.547 175.367 39.16 175.422 38.785 175.523 34.52 176.695 29.406 174.555 26.309 170.445 24.207 167.656 23.398 164.441 24.059 161.547 26.609 157.434 31.504 157.004 39.137 156.805 41.859 156.734 44.676 156.66 47.316 156.234 47.711 156.215 48.125 156.262 48.594 156.363L49.488 156.91C57.738 161.945 64.137 166.363 64.477 172.699 62.176 175.246 58.645 176.398 53.238 176.398 50.395 176.398 47.402 176.086 44.508 175.785 43.047 175.633 41.625 175.484 40.273 175.383ZM528.02 502.48 526.594 501.609C526.262 501.402 525.902 501.242 525.523 501.133 523.762 500.621 522.082 500.43 520.438 500.57 520.32 500.582 520.203 500.598 520.086 500.617 517.988 500.973 515.52 501.035 512.906 501.105 505.035 501.313 495.238 501.57 490.184 510.781 490.031 511.063 489.906 511.363 489.816 511.676 488.191 517.34 489.484 523.535 493.359 528.68 497.547 534.238 503.883 537.555 510.305 537.555 511.652 537.555 512.988 537.406 514.293 537.113 515.363 537.203 516.473 537.32 517.609 537.438 520.734 537.762 523.953 538.141 527.277 538.098 530.598 538.098 540.527 538.063 546.367 529.719 546.82 529.07 547.09 528.313 547.145 527.523 548.02 514.691 536.461 507.637 528.02 502.48ZM527.242 529.395C527.242 529.395 527.242 529.395 527.238 529.395 524.395 529.395 521.402 529.086 518.512 528.785 517.047 528.633 515.625 528.484 514.273 528.383 514.16 528.371 514.051 528.367 513.938 528.367 513.551 528.367 513.16 528.422 512.785 528.523 508.527 529.695 503.406 527.555 500.309 523.445 498.207 520.652 497.402 517.438 498.063 514.543 500.609 510.434 505.508 510.004 513.137 509.805 515.863 509.73 518.676 509.656 521.32 509.23 521.711 509.219 522.129 509.258 522.594 509.359L523.488 509.91C531.742 514.945 538.137 519.363 538.477 525.695 536.176 528.246 532.645 529.395 527.242 529.395ZM505.438 455.063C504.398 455.063 503.383 455.113 502.398 455.164 500.543 455.262 498.809 455.305 497.594 455.109 497.523 455.098 497.449 455.09 497.383 455.082 497.027 455.043 496.691 455.027 496.375 455.027 492.699 455.027 490.594 457.305 490.137 459.566 489.711 461.672 490.531 464.688 494.234 466.254 496.992 467.426 499.727 467.563 501.547 467.563 502.656 467.563 503.738 467.504 504.785 467.449 505.773 467.398 506.707 467.352 507.605 467.352 509.109 467.352 510.207 467.488 511.168 467.797 511.258 467.824 511.348 467.852 511.438 467.875 512.59 468.164 513.496 468.301 514.281 468.301 517.156 468.301 518.684 466.438 519.121 464.844 520.172 461.004 516.172 458.488 514.617 457.566 511.434 455.352 508.047 455.063 505.438 455.063ZM398.438 510.035C397.902 509.961 397.367 509.984 396.844 510.109 395.691 510.383 393.77 510.313 391.68 510.172 390.527 510.094 389.336 510.016 388.117 510.016 385.52 510.016 381.711 510.348 378.625 513.227 377.523 514.254 377.031 515.781 377.328 517.258 378.477 523.016 383.559 526.59 390.594 526.59 392.008 526.59 393.457 526.438 394.824 526.148 395.953 526.203 397.309 526.395 398.734 526.598 400.805 526.887 402.941 527.188 405.035 527.191 407.66 527.191 409.766 526.695 411.477 525.676 412.578 525.02 413.332 523.91 413.539 522.648 413.75 521.387 413.395 520.098 412.563 519.121 409.426 515.43 404.43 510.859 398.438 510.035ZM410.785 414.098C410.324 413.844 409.824 413.676 409.309 413.602 409.047 413.539 408.652 413.469 408.176 413.469 407.449 413.469 406.746 413.633 406.113 413.941 404.813 414.168 403.395 414.199 402.258 414.199 401.508 414.199 400.75 414.184 399.992 414.172 399.18 414.152 398.363 414.141 397.555 414.141 392.91 414.141 387.605 414.715 383.473 418.973 382.828 419.633 382.414 420.48 382.285 421.391 381.695 425.543 382.953 429.652 385.828 432.961 388.859 436.453 393.344 438.539 397.824 438.539 399.074 438.539 400.309 438.379 401.508 438.063 403.059 438.141 404.723 438.332 406.469 438.527 409.008 438.816 411.629 439.117 414.281 439.117 419.32 439.117 423.352 437.957 426.605 435.57 428.141 434.441 428.766 432.445 428.141 430.641 425.156 422.012 416.508 417.246 410.785 414.098ZM414.285 430.414C412.125 430.414 409.75 430.145 407.453 429.887 405.363 429.648 403.203 429.402 401.098 429.34 401.055 429.34 401.012 429.34 400.969 429.34 400.508 429.34 400.051 429.41 399.609 429.555 397.219 430.34 394.215 429.348 392.398 427.258 391.871 426.648 391.098 425.539 390.898 424.078 392.547 423.063 394.68 422.836 397.559 422.836 398.309 422.836 399.063 422.852 399.82 422.867 400.633 422.887 401.449 422.898 402.258 422.898 403.844 422.898 405.863 422.844 407.922 422.457 411.973 424.734 415.691 427.105 418.016 430.063 416.938 430.305 415.707 430.414 414.285 430.414ZM292.816 450.301C291.668 449.5 290.578 448.746 289.594 448 289.281 447.766 288.941 447.574 288.582 447.43 287.258 446.902 285.523 446.363 283.598 446.586 283.414 446.605 283.23 446.641 283.055 446.684 281.211 447.137 278.934 447.176 276.762 447.176L274.602 447.172C269.668 447.172 262.215 447.172 257.332 453.371 256.93 453.883 256.648 454.477 256.504 455.113 255.457 459.793 256.734 464.816 260.004 468.902 263.301 473.016 268.145 475.469 272.965 475.469 274.16 475.469 275.352 475.32 276.512 475.031 278.199 475.109 279.984 475.301 281.863 475.5 284.59 475.789 287.406 476.09 290.258 476.09 294.16 476.09 299.938 475.609 305.027 471.469 306.203 470.512 306.797 469.012 306.59 467.512 305.453 459.082 298.445 454.215 292.816 450.301ZM290.258 467.391C287.867 467.391 285.281 467.113 282.781 466.848 280.598 466.617 278.336 466.379 276.137 466.309 276.09 466.309 276.047 466.309 276 466.309 275.559 466.309 275.121 466.371 274.703 466.504 272.02 467.34 268.898 466.09 266.797 463.465 265.457 461.793 264.77 459.816 264.859 458.004 266.813 456.223 269.797 455.871 274.602 455.871L276.758 455.875C279.297 455.875 281.984 455.824 284.613 455.25 284.672 455.266 284.75 455.289 284.863 455.324 285.84 456.047 286.859 456.754 287.852 457.445 291.633 460.07 295.52 462.773 297.191 466.168 295.336 467.004 293.098 467.391 290.258 467.391ZM472.332 136.371C471.93 136.883 471.648 137.477 471.504 138.113 470.457 142.793 471.734 147.82 475.004 151.902 478.301 156.016 483.145 158.473 487.965 158.473 489.16 158.473 490.352 158.324 491.512 158.031 493.199 158.113 494.984 158.301 496.863 158.5 499.59 158.789 502.406 159.09 505.258 159.09 509.16 159.09 514.938 158.609 520.027 154.469 521.203 153.512 521.797 152.012 521.594 150.512 520.453 142.082 513.449 137.211 507.82 133.301 506.668 132.5 505.582 131.742 504.594 130.996 504.281 130.766 503.945 130.57 503.582 130.43 502.473 129.984 501.121 129.531 499.523 129.531 499.215 129.531 498.906 129.547 498.598 129.586 498.41 129.605 498.23 129.637 498.051 129.684 496.211 130.137 493.934 130.176 491.762 130.176L489.598 130.172C484.664 130.172 477.215 130.172 472.332 136.371ZM489.598 138.871 491.762 138.875C494.301 138.875 496.988 138.824 499.613 138.254 499.672 138.266 499.754 138.289 499.863 138.324 500.84 139.047 501.859 139.758 502.855 140.445 506.633 143.074 510.52 145.773 512.191 149.168 510.336 150.004 508.098 150.391 505.258 150.391 502.867 150.391 500.281 150.113 497.781 149.848 495.598 149.617 493.336 149.379 491.137 149.309 491.09 149.309 491.047 149.309 491 149.309 490.563 149.309 490.121 149.375 489.703 149.504 487.02 150.344 483.895 149.09 481.797 146.465 480.457 144.793 479.77 142.816 479.859 141.004 481.813 139.223 484.793 138.871 489.598 138.871ZM454.234 96.254C456.992 97.426 459.727 97.563 461.547 97.563 462.656 97.563 463.738 97.504 464.785 97.449 465.773 97.398 466.703 97.348 467.605 97.348 469.105 97.348 470.207 97.488 471.168 97.797 471.258 97.824 471.348 97.852 471.438 97.871 472.59 98.164 473.492 98.301 474.281 98.301 477.156 98.301 478.684 96.438 479.117 94.844 480.172 91.004 476.172 88.488 474.617 87.563 471.434 85.352 468.047 85.063 465.438 85.063 464.398 85.063 463.383 85.113 462.398 85.164 460.539 85.258 458.805 85.305 457.59 85.109 457.52 85.098 457.449 85.09 457.379 85.082 457.027 85.043 456.691 85.023 456.375 85.023 452.699 85.023 450.594 87.305 450.137 89.566 449.711 91.672 450.531 94.688 454.234 96.254ZM380.594 186.59C382.008 186.59 383.457 186.438 384.824 186.148 385.953 186.203 387.313 186.395 388.738 186.598 390.805 186.887 392.945 187.188 395.035 187.188 395.035 187.188 395.035 187.188 395.039 187.188 397.66 187.188 399.766 186.691 401.477 185.676 402.578 185.02 403.332 183.91 403.539 182.648 403.75 181.387 403.395 180.098 402.563 179.121 399.426 175.43 394.43 170.859 388.434 170.035 387.902 169.961 387.363 169.988 386.844 170.109 385.695 170.383 383.77 170.313 381.68 170.172 380.527 170.098 379.332 170.016 378.117 170.016 375.52 170.016 371.707 170.352 368.625 173.227 367.523 174.254 367.031 175.781 367.324 177.258 368.477 183.012 373.559 186.59 380.594 186.59ZM267.367 46.723C267.824 46.074 268.09 45.313 268.145 44.523 269.02 31.691 257.461 24.637 249.02 19.48L247.594 18.609C247.262 18.402 246.902 18.242 246.523 18.133 244.766 17.625 243.082 17.43 241.441 17.57 241.32 17.582 241.203 17.598 241.086 17.617 238.988 17.973 236.523 18.035 233.91 18.105 226.035 18.313 216.238 18.57 211.188 27.781 211.031 28.066 210.91 28.363 210.82 28.676 209.195 34.34 210.484 40.535 214.359 45.68 218.551 51.234 224.883 54.555 231.305 54.555 232.652 54.555 233.992 54.406 235.297 54.109 236.363 54.203 237.477 54.316 238.609 54.438 241.727 54.762 244.945 55.094 248.238 55.094 248.25 55.094 248.262 55.094 248.273 55.094 251.586 55.098 261.527 55.07 267.367 46.723ZM248.238 46.398C245.395 46.398 242.402 46.086 239.508 45.785 238.047 45.633 236.625 45.484 235.273 45.383 235.16 45.371 235.051 45.367 234.938 45.367 234.547 45.367 234.16 45.422 233.785 45.523 229.52 46.699 224.406 44.555 221.309 40.445 219.207 37.656 218.398 34.441 219.059 31.547 221.609 27.434 226.504 27.004 234.137 26.805 236.859 26.734 239.676 26.66 242.316 26.234 242.711 26.219 243.125 26.262 243.594 26.363L244.488 26.91C252.738 31.945 259.137 36.363 259.477 42.699 257.176 45.246 253.645 46.398 248.238 46.398ZM264.137 73.566C263.711 75.672 264.531 78.688 268.234 80.254 270.992 81.426 273.727 81.563 275.547 81.563 276.656 81.563 277.738 81.508 278.785 81.449 279.773 81.398 280.703 81.352 281.605 81.352 283.105 81.352 284.207 81.488 285.168 81.797 285.258 81.824 285.348 81.852 285.438 81.875 286.59 82.164 287.492 82.301 288.281 82.301 291.152 82.301 292.684 80.441 293.117 78.848 294.168 75.004 290.168 72.488 288.617 71.566 285.434 69.352 282.047 69.063 279.438 69.063 278.398 69.063 277.383 69.113 276.398 69.164 274.535 69.258 272.805 69.305 271.59 69.109 271.52 69.102 271.449 69.09 271.379 69.082 271.027 69.043 270.691 69.027 270.375 69.027 266.699 69.027 264.594 71.305 264.137 73.566ZM156.594 62.59C158.008 62.59 159.457 62.438 160.824 62.148 161.953 62.203 163.309 62.395 164.738 62.598 166.805 62.887 168.945 63.188 171.035 63.188 173.66 63.188 175.766 62.691 177.477 61.676 178.578 61.02 179.332 59.91 179.539 58.648 179.75 57.387 179.395 56.098 178.563 55.121 175.426 51.43 170.43 46.859 164.438 46.035 163.906 45.961 163.367 45.988 162.844 46.109 161.695 46.383 159.77 46.313 157.684 46.172 156.527 46.098 155.336 46.016 154.117 46.016 151.52 46.016 147.711 46.352 144.625 49.227 143.523 50.254 143.031 51.781 143.328 53.258 144.477 59.012 149.559 62.59 156.594 62.59ZM568.563 176.121C565.426 172.43 560.43 167.859 554.438 167.035 553.902 166.961 553.363 166.988 552.844 167.109 551.695 167.383 549.77 167.313 547.68 167.172 546.527 167.094 545.336 167.016 544.117 167.016 541.52 167.016 537.711 167.348 534.625 170.227 533.523 171.254 533.031 172.781 533.328 174.258 534.477 180.012 539.559 183.59 546.594 183.59 548.004 183.59 549.453 183.438 550.824 183.148 551.953 183.203 553.309 183.395 554.738 183.598 556.805 183.887 558.941 184.188 561.035 184.188 563.66 184.188 565.766 183.691 567.477 182.676 568.574 182.02 569.328 180.91 569.539 179.648 569.75 178.387 569.395 177.098 568.563 176.121ZM568.563 176.121" stroke="param(outline)" stroke-opacity="param(outline-opacity)" stroke-width="param(outline-width)"/>
</svg>
