<svg width="580" height="580">
  <path fill="param(fill)" stroke-width="param(outline-width)" stroke-linecap="round" stroke-linejoin="round" stroke="param(outline)" stroke-opacity="param(outline-opacity)" d="M 12.755856 3.366011 C 12.756266 3.953351 12.280261 4.429618 11.692838 4.429585 C 11.105677 4.429732 10.629591 3.953464 10.629886 3.366221 C 10.629739 2.77906 11.105744 2.302794 11.692904 2.302647 C 12.280328 2.302679 12.756152 2.778768 12.755856 3.366011 Z M 12.755856 3.366011 " transform="matrix(-6.929659, -10.133922, 10.133922, -6.929659, 160.579719, 621.592166)" fill-opacity="param(fill-opacity)"/>
  <path fill="param(fill)" fill-opacity="param(fill-opacity)" d="M160.714844 530.292969C161.203125 536.683594 156.421875 542.257812 150.03125 542.746094 143.640625 543.234375 138.066406 538.449219 137.582031 532.058594 137.089844 525.671875 141.875 520.09375 148.265625 519.605469 154.652344 519.117188 160.226562 523.902344 160.714844 530.292969ZM61.648438 484.628906C62.136719 491.015625 57.355469 496.59375 50.964844 497.082031 44.574219 497.570312 39 492.785156 38.515625 486.394531 38.027344 480.003906 42.808594 474.429688 49.199219 473.941406 55.589844 473.453125 61.164062 478.238281 61.648438 484.628906ZM126.796875 408.460938C127.285156 414.851562 122.503906 420.425781 116.113281 420.914062 109.722656 421.402344 104.148438 416.617188 103.664062 410.226562 103.175781 403.835938 107.957031 398.261719 114.347656 397.773438 120.738281 397.285156 126.3125 402.070312 126.796875 408.460938ZM126.796875 408.460938" stroke="param(outline)" stroke-opacity="param(outline-opacity)" stroke-width="param(outline-width)"/>
  <path fill="param(fill)" fill-opacity="param(fill-opacity)" stroke-width="param(outline-width)" stroke-linecap="round" stroke-linejoin="round" stroke="param(outline)" stroke-opacity="param(outline-opacity)" d="M 6.745717 1071.396926 C 6.745717 1071.396926 6.994617 1069.891116 7.100095 1068.916754 C 7.205573 1067.942392 7.379064 1067.499479 7.379064 1066.790722 C 7.379064 1066.082204 6.745717 1066.082204 6.745717 1066.082204 C 6.745717 1066.082204 6.11237 1066.082204 6.11237 1066.790722 C 6.11237 1067.499479 6.28586 1067.942392 6.391338 1068.916754 C 6.497055 1069.891116 6.745717 1071.396926 6.745717 1071.396926 Z M 6.745717 1071.396926 " transform="matrix(16.368889, 0, 0, 16.368889, 86.009802, -16994.83491)"/>
  <path fill="param(fill)" stroke-width="param(outline-width)" stroke-linecap="round" stroke-linejoin="round" stroke="param(outline)" stroke-opacity="param(outline-opacity)" d="M 12.756043 3.36605 C 12.756011 3.953473 12.280185 4.429477 11.693025 4.429624 C 11.105602 4.429592 10.629778 3.953503 10.62981 3.36608 C 10.629663 2.77892 11.105668 2.302654 11.693091 2.302686 C 12.280072 2.302802 12.756159 2.77907 12.756043 3.36605 Z M 12.756043 3.36605 " transform="matrix(-6.929659, -10.133922, 10.133922, -6.929659, 455.545463, 459.707613)" fill-opacity="param(fill-opacity)"/>
  <path fill="param(fill)" fill-opacity="param(fill-opacity)" d="M455.679688 368.410156C456.167969 374.796875 451.386719 380.375 444.996094 380.863281 438.605469 381.351562 433.03125 376.566406 432.546875 370.175781 432.058594 363.785156 436.839844 358.210938 443.230469 357.722656 449.621094 357.234375 455.195312 362.019531 455.679688 368.410156ZM356.613281 322.742188C357.105469 329.132812 352.320312 334.707031 345.929688 335.195312 339.542969 335.683594 333.96875 330.898438 333.480469 324.507812 332.992188 318.121094 337.777344 312.542969 344.164062 312.054688 350.554688 311.570312 356.128906 316.355469 356.613281 322.742188ZM421.761719 246.574219C422.253906 252.964844 417.46875 258.542969 411.078125 259.027344 404.691406 259.515625 399.113281 254.730469 398.628906 248.339844 398.140625 241.953125 402.921875 236.375 409.3125 235.886719 415.703125 235.402344 421.277344 240.1875 421.761719 246.574219ZM421.761719 246.574219" stroke="param(outline)" stroke-opacity="param(outline-opacity)" stroke-width="param(outline-width)"/>
  <path fill="param(fill)" fill-opacity="param(fill-opacity)" stroke-width="param(outline-width)" stroke-linecap="round" stroke-linejoin="round" stroke="param(outline)" stroke-opacity="param(outline-opacity)" d="M 6.745662 1071.397032 C 6.745662 1071.397032 6.994562 1069.891222 7.10004 1068.916622 C 7.205518 1067.94226 7.379009 1067.499346 7.379009 1066.79059 C 7.379009 1066.082071 6.745662 1066.082071 6.745662 1066.082071 C 6.745662 1066.082071 6.112553 1066.082071 6.112553 1066.79059 C 6.112553 1067.499346 6.285805 1067.94226 6.391522 1068.916622 C 6.497 1069.891222 6.745662 1071.397032 6.745662 1071.397032 Z M 6.745662 1071.397032 " transform="matrix(16.368889, 0, 0, 16.368889, 380.975546, -17156.719464)"/>
  <path fill="param(fill)" stroke-width="param(outline-width)" stroke-linecap="round" stroke-linejoin="round" stroke="param(outline)" stroke-opacity="param(outline-opacity)" d="M 12.755786 3.366232 C 12.756196 3.953572 12.28037 4.429576 11.692947 4.429543 C 11.105524 4.429511 10.6297 3.953423 10.629995 3.366179 C 10.629586 2.778839 11.105591 2.302573 11.693014 2.302605 C 12.279995 2.302721 12.756082 2.778989 12.755786 3.366232 Z M 12.755786 3.366232 " transform="matrix(-6.929659, -10.133922, 10.133922, -6.929659, 218.182464, 280.940645)" fill-opacity="param(fill-opacity)"/>
  <path fill="param(fill)" fill-opacity="param(fill-opacity)" d="M218.316406 189.640625C218.804688 196.03125 214.023438 201.609375 207.632812 202.09375 201.242188 202.582031 195.667969 197.796875 195.183594 191.40625 194.695312 185.019531 199.476562 179.441406 205.867188 178.953125 212.257812 178.46875 217.832031 183.253906 218.316406 189.640625ZM119.25 143.976562C119.742188 150.367188 114.957031 155.941406 108.566406 156.429688 102.179688 156.917969 96.605469 152.132812 96.117188 145.742188 95.628906 139.351562 100.414062 133.777344 106.800781 133.289062 113.191406 132.800781 118.765625 137.585938 119.25 143.976562ZM184.398438 67.808594C184.890625 74.199219 180.105469 79.773438 173.714844 80.261719 167.328125 80.75 161.753906 75.964844 161.265625 69.574219 160.777344 63.183594 165.558594 57.609375 171.949219 57.121094 178.339844 56.632812 183.914062 61.417969 184.398438 67.808594ZM184.398438 67.808594" stroke="param(outline)" stroke-opacity="param(outline-opacity)" stroke-width="param(outline-width)"/>
  <path fill="param(fill)" fill-opacity="param(fill-opacity)" stroke-width="param(outline-width)" stroke-linecap="round" stroke-linejoin="round" stroke="param(outline)" stroke-opacity="param(outline-opacity)" d="M 6.745644 1071.397114 C 6.745644 1071.397114 6.994545 1069.891304 7.100023 1068.916704 C 7.20574 1067.942342 7.378991 1067.499428 7.378991 1066.790672 C 7.378991 1066.082153 6.745644 1066.082153 6.745644 1066.082153 C 6.745644 1066.082153 6.112536 1066.082153 6.112536 1066.790672 C 6.112536 1067.499428 6.285788 1067.942342 6.391505 1068.916704 C 6.496983 1069.891304 6.745644 1071.397114 6.745644 1071.397114 Z M 6.745644 1071.397114 " transform="matrix(16.368889, 0, 0, 16.368889, 143.612546, -17335.486432)"/>
</svg>
