<svg xmlns="http://www.w3.org/2000/svg" width="580" height="580">
  <path fill="param(fill)" fill-opacity="param(fill-opacity)" d="M518.418 488.707C509.637 492.563 500.234 495.523 483.285 495.578 472 495.578 464.023 494.18 457.398 492.199 447.516 489.238 440.176 484.504 429.641 479.762 419.164 475.047 405.895 471.156 386.57 471.211 373.691 471.203 363.551 472.855 355.055 475.441 342.293 479.344 333.766 484.879 325.047 488.707 316.27 492.563 306.871 495.523 289.934 495.578 278.66 495.578 270.68 494.18 264.059 492.199 254.176 489.238 246.844 484.504 236.313 479.766 225.844 475.051 212.566 471.156 193.262 471.211 180.375 471.203 170.238 472.855 161.746 475.441 148.977 479.344 140.457 484.879 131.734 488.707 122.953 492.566 113.559 495.523 96.621 495.582 85.348 495.582 77.379 494.184 70.766 492.199 60.902 489.238 53.559 484.508 43.039 479.766 32.563 475.051 19.309 471.16.004 471.211L.004 490.711C11.273 490.719 19.254 492.098 25.859 494.102 35.746 497.051 43.074 501.785 53.594 506.527 64.059 511.25 77.324 515.141 96.621 515.078 109.512 515.098 119.66 513.426 128.133 510.855 140.91 506.957 149.422 501.398 158.152 497.582 166.945 493.727 176.332 490.766 193.258 490.711 204.543 490.719 212.52 492.098 219.133 494.098 229.02 497.051 236.355 501.785 246.887 506.535 257.363 511.25 270.625 515.141 289.934 515.078 302.824 515.098 312.977 513.426 321.449 510.855 334.223 506.957 342.738 501.398 351.469 497.582 360.254 493.727 369.641 490.766 386.57 490.711 397.863 490.719 405.84 492.098 412.473 494.098 422.348 497.051 429.707 501.793 440.23 506.535 450.703 511.25 463.977 515.141 483.285 515.078 496.176 515.098 506.328 513.426 514.816 510.855 527.598 506.957 536.113 501.41 544.859 497.582 553.648 493.727 563.039 490.766 580 490.711L580 471.211C567.098 471.203 556.945 472.855 548.469 475.441 535.676 479.34 527.16 484.879 518.418 488.707ZM518.418 353.277C509.637 357.133 500.234 360.094 483.285 360.148 472 360.148 464.023 358.75 457.398 356.77 447.516 353.809 440.176 349.074 429.641 344.332 419.164 339.617 405.895 335.727 386.57 335.781 373.691 335.77 363.551 337.426 355.055 340.012 342.293 343.914 333.766 349.449 325.047 353.277 316.27 357.133 306.871 360.094 289.934 360.148 278.66 360.148 270.68 358.75 264.059 356.77 254.176 353.809 246.844 349.074 236.313 344.332 225.844 339.617 212.566 335.727 193.262 335.781 180.375 335.77 170.238 337.426 161.746 340.012 148.977 343.914 140.457 349.449 131.734 353.277 122.953 357.133 113.559 360.094 96.621 360.148 85.348 360.148 77.379 358.75 70.766 356.77 60.902 353.809 53.559 349.074 43.039 344.332 32.563 339.617 19.309 335.727.004 335.781L.004 355.277C11.273 355.289 19.254 356.668 25.859 358.668 35.746 361.617 43.074 366.352 53.594 371.094 64.059 375.82 77.324 379.711 96.621 379.648 109.512 379.664 119.66 377.992 128.133 375.426 140.91 371.523 149.422 365.969 158.152 362.152 166.945 358.297 176.332 355.332 193.258 355.281 204.543 355.289 212.52 356.668 219.133 358.668 229.02 361.621 236.355 366.355 246.887 371.105 257.363 375.82 270.625 379.711 289.934 379.648 302.824 379.668 312.977 377.996 321.449 375.426 334.223 371.527 342.738 365.973 351.469 362.152 360.254 358.297 369.641 355.336 386.57 355.281 397.863 355.289 405.84 356.668 412.473 358.672 422.348 361.621 429.707 366.363 440.23 371.105 450.703 375.82 463.977 379.715 483.285 379.648 496.176 379.668 506.328 377.996 514.816 375.43 527.598 371.527 536.113 365.98 544.859 362.152 553.648 358.297 563.039 355.336 580 355.281L580 335.785C567.098 335.773 556.945 337.43 548.469 340.016 535.676 343.914 527.16 349.449 518.418 353.277ZM518.418 217.848C509.637 221.703 500.234 224.664 483.285 224.719 472 224.719 464.023 223.324 457.398 221.34 447.516 218.379 440.176 213.645 429.641 208.902 419.164 204.188 405.895 200.297 386.57 200.352 373.691 200.344 363.551 201.996 355.055 204.582 342.293 208.484 333.766 214.02 325.047 217.848 316.27 221.703 306.871 224.664 289.934 224.719 278.66 224.719 270.68 223.324 264.059 221.34 254.176 218.379 246.844 213.645 236.313 208.902 225.844 204.188 212.566 200.297 193.262 200.352 180.375 200.344 170.238 201.996 161.746 204.582 148.977 208.484 140.457 214.02 131.734 217.848 122.953 221.703 113.559 224.664 96.621 224.719 85.348 224.719 77.379 223.324 70.766 221.34 60.902 218.379 53.559 213.645 43.039 208.902 32.563 204.188 19.309 200.297.004 200.352L.004 219.852C11.273 219.859 19.254 221.238 25.859 223.238 35.746 226.191 43.074 230.922 53.594 235.664 64.059 240.391 77.324 244.281 96.621 244.219 109.512 244.238 119.66 242.566 128.133 239.996 140.91 236.094 149.422 230.539 158.152 226.723 166.945 222.863 176.332 219.902 193.258 219.848 204.543 219.859 212.52 221.238 219.133 223.238 229.02 226.191 236.355 230.922 246.887 235.676 257.363 240.391 270.625 244.281 289.934 244.219 302.824 244.238 312.977 242.566 321.449 239.996 334.223 236.094 342.738 230.539 351.469 226.723 360.254 222.863 369.641 219.902 386.57 219.848 397.863 219.859 405.84 221.238 412.473 223.238 422.348 226.191 429.707 230.934 440.23 235.676 450.703 240.391 463.977 244.281 483.285 244.219 496.176 244.238 506.328 242.566 514.816 239.996 527.598 236.094 536.113 230.551 544.859 226.723 553.648 222.863 563.039 219.902 580 219.848L580 200.352C567.098 200.34 556.945 201.996 548.469 204.582 535.676 208.484 527.16 214.02 518.418 217.848ZM548.469 69.152C535.676 73.055 527.16 78.59 518.418 82.422 509.637 86.277 500.234 89.234 483.285 89.293 472 89.293 464.023 87.895 457.398 85.91 447.516 82.949 440.176 78.219 429.641 73.473 419.164 68.758 405.895 64.867 386.57 64.922 373.691 64.914 363.551 66.566 355.055 69.152 342.293 73.055 333.766 78.59 325.047 82.422 316.27 86.277 306.871 89.234 289.934 89.293 278.66 89.293 270.68 87.895 264.059 85.91 254.176 82.949 246.844 78.219 236.313 73.473 225.844 68.758 212.566 64.867 193.262 64.922 180.375 64.914 170.238 66.566 161.746 69.152 148.977 73.055 140.457 78.59 131.734 82.422 122.953 86.277 113.559 89.234 96.621 89.293 85.348 89.293 77.379 87.895 70.766 85.91 60.902 82.949 53.559 78.219 43.039 73.473 32.559 68.762 19.305 64.867 0 64.922L0 84.422C11.27 84.43 19.25 85.809 25.859 87.809 35.742 90.762 43.07 95.496 53.594 100.234 64.055 104.961 77.324 108.852 96.617 108.789 109.512 108.805 119.656 107.133 128.133 104.566 140.91 100.664 149.422 95.109 158.152 91.289 166.941 87.434 176.328 84.473 193.254 84.418 204.539 84.43 212.516 85.809 219.133 87.809 229.016 90.762 236.355 95.492 246.887 100.246 257.359 104.961 270.625 108.852 289.93 108.789 302.82 108.805 312.973 107.133 321.445 104.566 334.219 100.664 342.734 95.109 351.465 91.289 360.254 87.434 369.641 84.473 386.566 84.418 397.859 84.43 405.836 85.809 412.469 87.809 422.348 90.762 429.703 95.5 440.23 100.246 450.699 104.961 463.977 108.852 483.281 108.789 496.176 108.805 506.324 107.133 514.813 104.566 527.598 100.664 536.113 95.117 544.855 91.289 553.645 87.434 563.039 84.473 579.996 84.418L579.996 64.922C567.098 64.914 556.949 66.566 548.469 69.152ZM548.469 69.152" stroke="param(outline)" stroke-opacity="param(outline-opacity)" stroke-width="param(outline-width)"/>
</svg>
