<svg width="580" height="580">
  <path fill="param(fill)" fill-opacity="param(fill-opacity)" d="M 538.792969 221.929688 C 493.800781 176.941406 420.179688 177.367188 374.675781 222.871094 C 374.507812 223.042969 374.347656 223.21875 374.179688 223.386719 C 366.789062 211.320312 357.582031 200.332031 346.761719 190.90625 C 323.511719 170.648438 293.671875 160.777344 262.738281 163.097656 C 231.855469 165.417969 203.578125 179.632812 183.117188 203.121094 C 173.601562 214.042969 166.714844 226.882812 162.914062 240.675781 C 155.421875 239.433594 147.734375 238.777344 139.898438 238.777344 C 76.285156 238.777344 24.53125 291.132812 24.53125 355.488281 C 24.53125 407.992188 66.765625 450.707031 118.679688 450.707031 C 161.234375 450.707031 195.855469 415.703125 195.855469 372.675781 C 195.855469 337.234375 167.328125 308.398438 132.261719 308.398438 C 103.1875 308.398438 79.53125 332.296875 79.53125 361.675781 C 79.53125 366.796875 83.683594 370.945312 88.804688 370.945312 C 93.925781 370.945312 98.074219 366.796875 98.074219 361.675781 C 98.074219 342.523438 113.410156 326.941406 132.261719 326.941406 C 157.101562 326.941406 177.3125 347.457031 177.3125 372.675781 C 177.3125 405.476562 151.007812 432.164062 118.679688 432.164062 C 76.988281 432.164062 43.074219 397.769531 43.074219 355.488281 C 43.074219 301.359375 86.507812 257.320312 139.898438 257.320312 C 207.917969 257.320312 263.25 313.40625 263.25 382.347656 C 263.25 418.894531 292.984375 448.628906 329.53125 448.628906 C 334.65625 448.628906 338.804688 444.476562 338.804688 439.355469 C 338.804688 434.238281 334.65625 430.085938 329.53125 430.085938 C 303.210938 430.085938 281.792969 408.667969 281.792969 382.347656 C 281.792969 370.164062 280.28125 358.335938 277.445312 347.035156 C 286.34375 342.480469 294.382812 336.21875 301.007812 328.621094 C 324.277344 301.894531 321.710938 261.410156 295.277344 238.375 C 279.246094 224.414062 256.464844 221.527344 237.234375 231.023438 C 232.644531 233.289062 230.757812 238.851562 233.027344 243.441406 C 235.292969 248.03125 240.855469 249.917969 245.445312 247.648438 C 257.945312 241.476562 272.726562 243.324219 283.097656 252.355469 C 301.820312 268.675781 303.582031 297.425781 287.023438 316.4375 C 282.625 321.488281 277.402344 325.746094 271.65625 329.0625 C 255.71875 288.863281 222.308594 257.59375 180.984375 244.921875 C 184.085938 234.058594 189.570312 223.941406 197.097656 215.304688 C 214.335938 195.515625 238.140625 183.542969 264.132812 181.589844 C 290.074219 179.640625 315.097656 187.914062 334.582031 204.890625 C 360.347656 227.332031 375.625 259.949219 376.5 294.371094 C 376.539062 295.988281 376.585938 306.984375 376.574219 350.175781 C 376.5625 376.472656 386.796875 401.195312 405.390625 419.792969 C 423.980469 438.386719 448.699219 448.628906 474.992188 448.628906 C 480.113281 448.628906 484.265625 444.480469 484.265625 439.359375 C 484.265625 434.238281 480.113281 430.085938 474.992188 430.085938 C 453.652344 430.085938 433.589844 421.773438 418.503906 406.683594 C 409.027344 397.203125 402.230469 385.761719 398.484375 373.273438 C 407.992188 377.269531 418.105469 379.265625 428.21875 379.265625 C 448.296875 379.265625 468.371094 371.472656 483.671875 356.171875 C 508.734375 331.121094 508.957031 290.558594 484.160156 265.746094 C 463.59375 245.195312 429.964844 245.371094 409.195312 266.140625 C 405.574219 269.761719 405.574219 275.632812 409.195312 279.253906 C 412.816406 282.875 418.683594 282.875 422.304688 279.253906 C 435.847656 265.710938 457.714844 265.535156 471.046875 278.859375 C 488.613281 296.433594 488.394531 325.230469 470.558594 343.054688 C 450.027344 363.589844 418.289062 366.429688 395.121094 350.386719 C 395.121094 350.320312 395.117188 350.25 395.117188 350.183594 C 395.132812 297.683594 395.0625 294.835938 395.039062 293.898438 C 394.570312 275.457031 390.5 257.464844 383.292969 240.890625 C 384.714844 239.207031 386.210938 237.5625 387.789062 235.984375 C 426.0625 197.707031 487.921875 197.285156 525.679688 235.042969 C 548.960938 258.320312 561.664062 289.394531 561.453125 322.546875 C 561.421875 327.667969 565.546875 331.84375 570.667969 331.875 C 570.6875 331.875 570.707031 331.875 570.726562 331.875 C 575.820312 331.875 579.964844 327.761719 579.996094 322.664062 C 580.238281 284.515625 565.601562 248.742188 538.792969 221.929688 Z M 538.792969 221.929688 " stroke="param(outline)" stroke-opacity="param(outline-opacity)" stroke-width="param(outline-width)"/>
  <path fill="param(fill)" fill-opacity="param(fill-opacity)" d="M130.160156 223.027344C133.074219 223.027344 136.023438 223.128906 138.917969 223.332031 144.015625 223.691406 148.457031 219.835938 148.808594 214.726562 149.164062 209.617188 145.3125 205.191406 140.203125 204.835938 136.882812 204.605469 133.503906 204.488281 130.160156 204.488281 75.078125 204.488281 24.335938 236.710938.882812 286.578125-1.296875 291.214844.695312 296.734375 5.328125 298.914062 6.605469 299.515625 7.945312 299.796875 9.269531 299.796875 12.75 299.796875 16.085938 297.828125 17.664062 294.46875 38.070312 251.070312 82.226562 223.027344 130.160156 223.027344ZM177.785156 186.917969C180.15625 186.917969 182.53125 186.015625 184.34375 184.203125 191.980469 176.5625 200.546875 169.960938 209.796875 164.582031 214.222656 162.007812 215.722656 156.332031 213.148438 151.90625 210.574219 147.476562 204.898438 145.976562 200.472656 148.550781 189.839844 154.734375 180 162.320312 171.230469 171.089844 167.609375 174.710938 167.609375 180.582031 171.230469 184.203125 173.042969 186.015625 175.414062 186.917969 177.785156 186.917969ZM253.730469 149.183594C292.566406 143.378906 332.3125 156.476562 360.042969 184.203125 362.101562 186.265625 364.113281 188.417969 366.019531 190.609375 367.851562 192.714844 370.425781 193.796875 373.015625 193.796875 375.175781 193.796875 377.34375 193.046875 379.097656 191.519531 382.960938 188.160156 383.367188 182.300781 380.007812 178.441406 377.820312 175.925781 375.515625 173.457031 373.152344 171.09375 341.285156 139.226562 295.621094 124.183594 250.992188 130.847656 245.925781 131.605469 242.433594 136.320312 243.191406 141.386719 243.945312 146.449219 248.667969 149.929688 253.730469 149.183594ZM253.730469 149.183594" stroke="param(outline)" stroke-opacity="param(outline-opacity)" stroke-width="param(outline-width)"/>
</svg>
