<svg width="580" height="580">
  <path fill="param(fill)" fill-opacity="param(fill-opacity)" d="M 64.96875 0.0664062 C 23.378906 0.0664062 0 21.527344 0 65.386719 L 0 517.496094 C 0 558.519531 21.023438 580 62.574219 580 L 517.386719 580 C 558.949219 580 580 559.59375 580 517.496094 L 580 65.386719 C 580 22.597656 558.949219 0.0664062 516.085938 0.0664062 C 516.085938 0.0664062 64.824219 -0.078125 64.976562 0.0664062 Z M 60.902344 61.285156 L 307.632812 61.285156 C 342.882812 61.285156 448.625 87.679688 448.625 193.238281 L 448.625 281.203125 C 448.625 351.574219 466.25 386.765625 466.25 386.765625 C 431.003906 386.765625 378.132812 351.578125 378.132812 281.203125 L 378.132812 193.238281 C 378.132812 142.214844 346.160156 131.660156 307.636719 131.660156 C 320.007812 147.210938 347.699219 161.066406 346.40625 193.238281 L 342.882812 281.203125 C 342.882812 351.574219 360.507812 386.765625 360.507812 386.765625 C 325.261719 386.765625 272.390625 351.578125 272.390625 281.203125 L 272.390625 193.238281 C 272.390625 142.214844 240.417969 131.660156 201.855469 131.660156 C 214.265625 147.210938 237.140625 161.039062 237.140625 193.238281 L 237.140625 281.203125 C 237.140625 351.574219 254.765625 386.765625 254.765625 386.765625 C 219.515625 386.765625 166.644531 351.578125 166.644531 281.203125 L 166.679688 193.238281 C 166.679688 142.214844 134.710938 131.660156 96.148438 131.660156 L 60.917969 131.660156 L 60.898438 61.285156 Z M 96.152344 413.152344 C 118.746094 413.152344 160.621094 448.339844 180.746094 448.339844 C 199.605469 448.339844 244.015625 413.152344 265.339844 413.152344 C 286.664062 413.152344 331.113281 448.339844 349.9375 448.339844 C 372.566406 448.339844 414.261719 413.152344 434.496094 413.152344 C 457.085938 412.132812 501.535156 448.339844 519.089844 448.339844 L 519.089844 518.714844 C 497.800781 518.714844 454.585938 483.527344 434.496094 483.527344 C 414.4375 483.527344 371.226562 518.714844 349.9375 518.714844 C 329.703125 518.714844 286.664062 483.527344 265.339844 483.527344 C 243.875 483.527344 200.871094 518.714844 180.746094 518.714844 C 158.1875 518.714844 117.511719 483.527344 96.152344 483.527344 Z M 96.152344 413.152344 " stroke="param(outline)" stroke-opacity="param(outline-opacity)" stroke-width="param(outline-width)"/>
</svg>
