<svg width="580" height="580">
  <path fill="param(fill)" fill-opacity="param(fill-opacity)" d="M187.167969 261.605469C209.007812 261.605469 195.898438 84.359375 181.917969 77.140625 178.417969 75.332031 181.070312 101.667969 181.773438 116.824219 182.773438 138.214844 181.378906 146.902344 181.738281 194.707031L181.734375 194.707031C178.082031 243.019531 179.589844 261.605469 187.167969 261.605469ZM224.132812 261.605469C229.027344 261.605469 233.03125 249.859375 233.03125 235.496094 233.03125 201.136719 241.15625 179.835938 251.28125 151.390625 261.707031 122.09375 285.78125 101.347656 262.972656 120.222656 229.484375 147.9375 198.261719 261.605469 224.132812 261.605469ZM259.71875 261.605469C264.613281 261.605469 268.613281 254.367188 268.613281 245.515625 268.613281 236.664062 270.429688 222.199219 276.171875 206.257812 283.496094 185.925781 298.714844 180.789062 282.582031 186.980469 275.585938 189.667969 263.609375 203.757812 258.375 218.773438 246.550781 252.691406 248.390625 261.605469 259.71875 261.605469ZM319.226562 319.597656C305.855469 316.667969 291.957031 317.210938 278.328125 317.359375 266.597656 317.84375 254.632812 317.75 243.132812 320.121094 240.246094 321.792969 241.941406 326.375 245.136719 326.300781 262.636719 330.328125 280.886719 329.058594 298.75 329.046875 306.410156 328.699219 314.40625 328.542969 321.601562 325.847656 324.460938 323.941406 322.515625 319.378906 319.226562 319.597656ZM136.707031 235.496094C136.707031 249.859375 140.710938 261.605469 145.601562 261.605469 171.476562 261.605469 140.25 147.9375 106.765625 120.222656 83.957031 101.347656 108.03125 122.09375 118.457031 151.386719 128.578125 179.835938 136.707031 201.136719 136.707031 235.496094ZM87.15625 186.980469C71.023438 180.789062 86.238281 185.921875 93.566406 206.257812 99.308594 222.199219 101.121094 236.664062 101.121094 245.515625 101.121094 254.363281 105.125 261.605469 110.019531 261.605469 121.34375 261.605469 123.183594 252.6875 111.363281 218.773438 106.128906 203.757812 94.152344 189.667969 87.15625 186.980469ZM308.8125 289.171875C306.84375 285.292969 301.246094 286.585938 297.71875 285.820312 273.117188 283.917969 248.421875 283.9375 223.765625 283.992188 194.996094 284.414062 166.117188 284.503906 137.449219 286.601562 134.746094 287.035156 133.398438 291.050781 136.359375 292.1875 150.6875 295.40625 165.652344 294.722656 180.296875 295.480469 220.523438 296.335938 260.851562 296.734375 301.007812 293.878906 303.84375 293.3125 309.421875 293.25 308.8125 289.171875ZM308.8125 289.171875" stroke="param(outline)" stroke-opacity="param(outline-opacity)" stroke-width="param(outline-width)"/>
</svg>
