<?xml version="1.0" encoding="UTF-8" standalone="yes"?>
<!-- Created with qrencode 4.1.1 (https://fukuchi.org/works/qrencode/index.html) -->
<svg width="1.85cm" height="1.85cm" viewBox="0 0 73 73" preserveAspectRatio="none" version="1.1" xmlns="http://www.w3.org/2000/svg">
	<g id="QRcode">
		<rect x="0" y="0" width="73" height="73" fill="#ffffff" fill-opacity="0.000000"/>
		<path style="stroke:#346751" transform="translate(4,4.5)" d="M0,0h7M9,0h11M21,0h1M23,0h5M29,0h1M31,0h1M33,0h1M36,0h1M40,0h1M42,0h4M48,0h1M50,0h3M55,0h1M58,0h7M0,1h1M6,1h1M8,1h1M10,1h1M13,1h2M16,1h4M21,1h1M25,1h2M30,1h1M35,1h1M37,1h6M46,1h3M53,1h1M56,1h1M58,1h1M64,1h1M0,2h1M2,2h3M6,2h1M9,2h1M14,2h4M19,2h4M25,2h1M30,2h2M33,2h1M35,2h2M41,2h1M43,2h2M47,2h3M51,2h1M53,2h2M56,2h1M58,2h1M60,2h3M64,2h1M0,3h1M2,3h3M6,3h1M11,3h2M15,3h1M18,3h1M20,3h1M23,3h7M31,3h2M34,3h1M37,3h5M46,3h2M52,3h1M54,3h2M58,3h1M60,3h3M64,3h1M0,4h1M2,4h3M6,4h1M9,4h4M14,4h1M16,4h1M18,4h2M21,4h1M23,4h1M25,4h1M27,4h1M29,4h6M36,4h2M40,4h1M43,4h1M47,4h1M50,4h1M53,4h1M56,4h1M58,4h1M60,4h3M64,4h1M0,5h1M6,5h1M8,5h1M10,5h1M13,5h3M18,5h2M22,5h1M24,5h1M26,5h1M29,5h2M34,5h2M38,5h2M41,5h1M44,5h1M46,5h1M48,5h2M54,5h1M58,5h1M64,5h1M0,6h7M8,6h1M10,6h1M12,6h1M14,6h1M16,6h1M18,6h1M20,6h1M22,6h1M24,6h1M26,6h1M28,6h1M30,6h1M32,6h1M34,6h1M36,6h1M38,6h1M40,6h1M42,6h1M44,6h1M46,6h1M48,6h1M50,6h1M52,6h1M54,6h1M56,6h1M58,6h7M8,7h2M11,7h1M17,7h2M20,7h1M23,7h4M28,7h1M30,7h1M34,7h1M37,7h4M43,7h1M45,7h2M49,7h3M54,7h2M4,8h4M9,8h2M12,8h1M14,8h1M16,8h2M20,8h2M25,8h4M30,8h8M41,8h1M43,8h2M46,8h3M51,8h1M55,8h1M58,8h2M63,8h1M2,9h2M5,9h1M9,9h1M15,9h1M18,9h3M24,9h1M26,9h1M29,9h1M31,9h5M39,9h4M44,9h1M47,9h1M50,9h1M52,9h3M56,9h2M62,9h3M0,10h3M6,10h1M8,10h3M12,10h2M15,10h1M19,10h2M22,10h2M25,10h1M28,10h3M32,10h1M34,10h3M38,10h1M42,10h1M45,10h1M49,10h9M59,10h1M64,10h1M0,11h2M4,11h2M10,11h3M15,11h2M18,11h2M22,11h1M25,11h1M30,11h2M34,11h2M44,11h1M47,11h2M52,11h2M55,11h5M61,11h1M64,11h1M3,12h6M11,12h2M19,12h7M28,12h1M30,12h2M38,12h2M42,12h1M44,12h2M47,12h2M50,12h2M53,12h1M55,12h1M60,12h2M63,12h1M0,13h3M7,13h1M10,13h2M14,13h2M18,13h4M23,13h3M27,13h4M32,13h1M36,13h1M44,13h2M48,13h3M53,13h2M56,13h2M59,13h6M0,14h3M4,14h1M6,14h1M8,14h2M12,14h1M14,14h1M16,14h1M18,14h1M20,14h2M23,14h2M26,14h1M31,14h2M34,14h1M39,14h2M42,14h4M49,14h1M51,14h2M54,14h3M60,14h1M64,14h1M2,15h3M8,15h1M16,15h1M22,15h1M25,15h1M27,15h1M29,15h2M34,15h1M36,15h2M39,15h2M44,15h1M47,15h3M53,15h1M55,15h3M60,15h2M64,15h1M0,16h3M5,16h4M11,16h2M14,16h1M16,16h6M24,16h5M30,16h1M34,16h1M39,16h4M44,16h1M46,16h6M54,16h1M58,16h5M0,17h5M8,17h1M10,17h1M12,17h1M14,17h3M18,17h5M25,17h2M28,17h3M32,17h6M45,17h2M50,17h2M53,17h2M56,17h1M59,17h5M1,18h1M4,18h4M10,18h1M12,18h2M19,18h2M22,18h1M28,18h2M31,18h1M33,18h4M38,18h1M43,18h5M50,18h1M52,18h2M55,18h3M59,18h1M62,18h2M2,19h1M4,19h1M7,19h1M9,19h3M17,19h3M23,19h5M29,19h1M31,19h3M37,19h1M40,19h1M43,19h2M48,19h2M51,19h1M53,19h1M55,19h2M58,19h1M60,19h2M63,19h2M1,20h1M3,20h1M5,20h2M10,20h1M15,20h2M18,20h4M26,20h5M33,20h2M36,20h1M38,20h4M44,20h1M47,20h2M50,20h2M54,20h1M57,20h1M59,20h2M62,20h1M1,21h2M4,21h1M9,21h3M13,21h2M17,21h1M19,21h1M21,21h1M27,21h2M30,21h1M32,21h5M38,21h1M41,21h4M47,21h1M50,21h5M56,21h2M62,21h1M64,21h1M1,22h2M4,22h3M9,22h4M14,22h1M16,22h3M21,22h3M25,22h2M28,22h3M32,22h1M34,22h4M39,22h5M45,22h1M47,22h1M50,22h1M53,22h4M59,22h1M62,22h1M64,22h1M1,23h1M5,23h1M11,23h1M13,23h1M16,23h3M20,23h1M24,23h3M28,23h1M30,23h1M32,23h2M35,23h1M38,23h2M42,23h1M46,23h6M57,23h5M64,23h1M0,24h7M8,24h3M12,24h2M18,24h2M21,24h1M23,24h1M25,24h1M28,24h2M32,24h2M37,24h1M39,24h1M41,24h2M47,24h3M51,24h1M53,24h3M59,24h3M63,24h2M0,25h3M4,25h2M9,25h1M13,25h2M16,25h2M21,25h1M26,25h2M29,25h1M32,25h1M34,25h8M43,25h1M45,25h1M47,25h2M50,25h1M53,25h5M59,25h4M64,25h1M2,26h3M6,26h2M9,26h1M11,26h5M18,26h1M23,26h1M25,26h4M33,26h2M36,26h1M38,26h4M43,26h2M47,26h1M49,26h7M57,26h1M60,26h5M1,27h2M5,27h1M8,27h3M12,27h1M14,27h1M23,27h3M28,27h1M30,27h3M36,27h3M40,27h1M42,27h1M44,27h2M49,27h1M53,27h1M58,27h3M64,27h1M1,28h1M3,28h2M6,28h1M8,28h1M10,28h4M15,28h1M17,28h2M20,28h2M24,28h1M26,28h5M32,28h2M37,28h1M39,28h1M43,28h3M48,28h2M51,28h1M54,28h4M60,28h5M0,29h4M5,29h1M8,29h1M10,29h2M13,29h5M19,29h3M24,29h4M30,29h1M32,29h1M38,29h4M43,29h3M47,29h2M50,29h2M54,29h1M56,29h2M59,29h6M0,30h3M4,30h7M12,30h1M14,30h4M19,30h1M23,30h2M26,30h2M30,30h11M45,30h1M47,30h1M50,30h5M56,30h5M64,30h1M0,31h5M8,31h2M13,31h1M15,31h1M17,31h1M19,31h1M21,31h4M28,31h1M30,31h1M34,31h1M37,31h3M41,31h2M44,31h2M47,31h3M51,31h6M60,31h2M63,31h2M2,32h3M6,32h1M8,32h1M11,32h1M14,32h1M17,32h1M22,32h1M24,32h1M26,32h1M28,32h1M30,32h1M32,32h1M34,32h1M36,32h1M41,32h2M44,32h2M48,32h1M50,32h7M58,32h1M60,32h1M63,32h1M3,33h2M8,33h1M10,33h1M13,33h3M17,33h1M21,33h5M27,33h2M30,33h1M34,33h1M39,33h4M45,33h1M48,33h1M50,33h1M52,33h3M56,33h1M60,33h1M63,33h2M0,34h2M4,34h6M11,34h1M14,34h1M16,34h1M18,34h1M20,34h2M23,34h3M30,34h5M37,34h2M45,34h1M48,34h2M53,34h2M56,34h7M64,34h1M0,35h4M8,35h1M11,35h3M16,35h1M21,35h1M25,35h1M28,35h2M31,35h2M37,35h1M42,35h10M55,35h1M57,35h1M59,35h1M61,35h1M63,35h2M1,36h1M3,36h2M6,36h1M8,36h3M13,36h5M19,36h1M21,36h2M25,36h1M29,36h1M31,36h1M38,36h1M41,36h2M44,36h5M53,36h4M63,36h1M0,37h6M7,37h2M12,37h5M19,37h1M23,37h1M26,37h3M32,37h5M38,37h4M43,37h2M47,37h2M50,37h1M52,37h5M59,37h5M0,38h1M2,38h1M6,38h1M8,38h1M10,38h1M12,38h8M21,38h1M23,38h4M28,38h2M31,38h1M34,38h1M36,38h4M41,38h2M44,38h2M50,38h2M54,38h1M57,38h2M60,38h2M64,38h1M0,39h5M8,39h2M11,39h1M13,39h1M15,39h1M17,39h2M20,39h1M25,39h1M29,39h1M31,39h1M33,39h2M38,39h3M42,39h7M53,39h3M57,39h1M61,39h1M63,39h2M3,40h1M6,40h1M8,40h4M16,40h1M20,40h7M28,40h5M35,40h1M37,40h3M41,40h1M44,40h1M48,40h1M50,40h2M55,40h1M59,40h1M2,41h2M7,41h2M10,41h3M16,41h2M21,41h3M27,41h2M30,41h3M34,41h2M37,41h1M39,41h1M48,41h1M50,41h2M53,41h3M57,41h1M59,41h5M0,42h1M2,42h1M4,42h3M8,42h3M16,42h1M19,42h4M25,42h4M31,42h5M37,42h1M42,42h1M45,42h1M47,42h1M49,42h3M53,42h4M58,42h2M61,42h2M64,42h1M2,43h3M8,43h3M12,43h1M14,43h1M16,43h1M22,43h1M24,43h1M26,43h2M29,43h1M32,43h2M36,43h2M39,43h2M42,43h1M44,43h2M48,43h2M51,43h1M55,43h2M59,43h1M61,43h1M1,44h2M6,44h1M9,44h1M11,44h3M16,44h1M20,44h1M23,44h1M27,44h1M31,44h1M33,44h3M37,44h1M39,44h1M43,44h3M47,44h5M53,44h1M55,44h1M59,44h1M61,44h2M7,45h4M13,45h1M15,45h1M19,45h5M27,45h2M32,45h1M34,45h3M38,45h2M41,45h2M44,45h2M49,45h3M53,45h2M57,45h4M62,45h1M64,45h1M3,46h1M6,46h2M9,46h3M13,46h1M17,46h1M19,46h3M26,46h3M32,46h2M36,46h1M40,46h5M47,46h1M50,46h1M52,46h4M57,46h2M60,46h1M63,46h2M0,47h2M4,47h1M7,47h1M9,47h3M15,47h2M18,47h1M22,47h3M29,47h2M32,47h3M41,47h1M43,47h1M45,47h2M48,47h1M50,47h2M54,47h6M61,47h1M63,47h1M0,48h1M2,48h3M6,48h1M8,48h1M10,48h1M15,48h1M19,48h2M25,48h1M27,48h3M32,48h4M38,48h1M40,48h3M44,48h1M47,48h4M55,48h1M57,48h1M59,48h1M61,48h1M63,48h2M0,49h4M9,49h1M12,49h1M15,49h1M17,49h2M20,49h1M23,49h1M26,49h1M28,49h1M30,49h2M33,49h2M38,49h1M40,49h2M43,49h3M48,49h1M50,49h7M60,49h1M62,49h3M0,50h1M2,50h1M4,50h1M6,50h4M11,50h1M14,50h2M19,50h1M24,50h1M26,50h1M28,50h1M30,50h5M37,50h1M39,50h2M45,50h1M48,50h9M58,50h1M60,50h1M64,50h1M0,51h6M8,51h2M12,51h3M16,51h1M18,51h3M22,51h1M25,51h1M29,51h3M33,51h2M37,51h1M39,51h1M41,51h1M44,51h1M47,51h1M51,51h1M55,51h3M59,51h1M61,51h1M64,51h1M1,52h4M6,52h2M10,52h1M14,52h1M18,52h3M30,52h3M38,52h1M40,52h3M44,52h1M46,52h3M51,52h1M53,52h1M55,52h2M58,52h6M1,53h2M4,53h2M7,53h3M12,53h1M15,53h3M20,53h2M24,53h3M31,53h2M34,53h2M38,53h1M40,53h1M42,53h1M45,53h1M47,53h1M50,53h2M54,53h3M58,53h3M64,53h1M2,54h2M5,54h3M10,54h2M23,54h1M27,54h2M32,54h2M37,54h1M39,54h7M47,54h1M50,54h1M53,54h1M58,54h5M64,54h1M0,55h1M3,55h1M7,55h1M9,55h3M14,55h4M24,55h3M29,55h2M32,55h5M38,55h7M48,55h4M53,55h1M55,55h1M58,55h4M64,55h1M1,56h2M4,56h1M6,56h1M8,56h1M12,56h3M16,56h3M20,56h2M25,56h1M27,56h2M30,56h6M37,56h1M39,56h1M44,56h1M46,56h4M54,56h7M63,56h1M8,57h1M10,57h1M17,57h4M22,57h1M25,57h2M30,57h1M34,57h1M36,57h3M42,57h2M45,57h1M47,57h2M51,57h1M53,57h2M56,57h1M60,57h1M62,57h1M64,57h1M0,58h7M8,58h3M12,58h1M15,58h2M18,58h2M22,58h1M24,58h1M29,58h2M32,58h1M34,58h1M36,58h3M40,58h1M42,58h1M47,58h1M53,58h4M58,58h1M60,58h1M64,58h1M0,59h1M6,59h1M8,59h6M21,59h1M23,59h1M25,59h1M27,59h1M29,59h2M34,59h1M36,59h2M39,59h2M42,59h1M44,59h3M48,59h1M50,59h2M54,59h3M60,59h2M63,59h2M0,60h1M2,60h3M6,60h1M8,60h1M10,60h2M13,60h3M17,60h2M20,60h2M24,60h11M37,60h3M41,60h1M44,60h2M47,60h2M50,60h2M53,60h1M56,60h6M63,60h1M0,61h1M2,61h3M6,61h1M10,61h1M12,61h1M14,61h2M17,61h4M23,61h1M25,61h3M32,61h1M35,61h2M38,61h3M43,61h1M48,61h1M50,61h1M53,61h3M58,61h2M62,61h1M0,62h1M2,62h3M6,62h1M9,62h4M14,62h3M18,62h9M29,62h2M32,62h2M36,62h4M42,62h1M46,62h1M50,62h1M54,62h2M58,62h1M63,62h2M0,63h1M6,63h1M11,63h1M13,63h3M20,63h1M24,63h3M28,63h2M31,63h1M33,63h2M36,63h1M39,63h2M42,63h1M45,63h2M49,63h3M53,63h1M56,63h1M58,63h1M61,63h1M63,63h2M0,64h7M9,64h1M12,64h2M15,64h1M20,64h2M24,64h3M33,64h1M35,64h3M39,64h3M44,64h1M47,64h3M51,64h1M53,64h1M55,64h2M58,64h1M60,64h4"/>
	</g>
</svg>
