<svg xmlns="http://www.w3.org/2000/svg" width="580" height="580">
  <path fill="param(fill)" fill-opacity="param(fill-opacity)" d="M98.602 551C98.602 554.203 96.004 556.801 92.801 556.801 89.598 556.801 87 554.203 87 551 87 547.797 89.598 545.199 92.801 545.199 96.004 545.199 98.602 547.797 98.602 551ZM498.801 464C498.801 467.203 496.203 469.801 493 469.801 489.797 469.801 487.199 467.203 487.199 464 487.199 460.797 489.797 458.199 493 458.199 496.203 458.199 498.801 460.797 498.801 464ZM139.199 255.199C139.199 258.402 136.602 261 133.398 261 130.195 261 127.602 258.402 127.602 255.199 127.602 251.996 130.195 249.398 133.398 249.398 136.602 249.398 139.199 251.996 139.199 255.199ZM110.199 284.199C110.199 287.402 107.602 290 104.398 290 101.195 290 98.602 287.402 98.602 284.199 98.602 280.996 101.195 278.398 104.398 278.398 107.602 278.398 110.199 280.996 110.199 284.199ZM46.398 255.199C46.398 258.402 43.805 261 40.602 261 37.398 261 34.801 258.402 34.801 255.199 34.801 251.996 37.398 249.398 40.602 249.398 43.805 249.398 46.398 251.996 46.398 255.199ZM23.199 377C23.199 380.203 20.602 382.801 17.398 382.801 14.195 382.801 11.602 380.203 11.602 377 11.602 373.797 14.195 371.199 17.398 371.199 20.602 371.199 23.199 373.797 23.199 377ZM46.398 353.801C46.398 357.004 43.805 359.602 40.602 359.602 37.398 359.602 34.801 357.004 34.801 353.801 34.801 350.598 37.398 348 40.602 348 43.805 348 46.398 350.598 46.398 353.801ZM174 330.602C174 333.805 171.402 336.398 168.199 336.398 164.996 336.398 162.398 333.805 162.398 330.602 162.398 327.398 164.996 324.801 168.199 324.801 171.402 324.801 174 327.398 174 330.602ZM92.801 104.398C92.801 107.602 90.203 110.199 87 110.199 83.797 110.199 81.199 107.602 81.199 104.398 81.199 101.195 83.797 98.602 87 98.602 90.203 98.602 92.801 101.195 92.801 104.398ZM406 87C406 90.203 403.402 92.801 400.199 92.801 396.996 92.801 394.398 90.203 394.398 87 394.398 83.797 396.996 81.199 400.199 81.199 403.402 81.199 406 83.797 406 87ZM139.199 63.801C139.199 67.004 136.602 69.602 133.398 69.602 130.195 69.602 127.602 67.004 127.602 63.801 127.602 60.598 130.195 58 133.398 58 136.602 58 139.199 60.598 139.199 63.801ZM46.398 104.398C46.398 107.602 43.805 110.199 40.602 110.199 37.398 110.199 34.801 107.602 34.801 104.398 34.801 101.195 37.398 98.602 40.602 98.602 43.805 98.602 46.398 101.195 46.398 104.398ZM504.602 87C504.602 90.203 502.004 92.801 498.801 92.801 495.598 92.801 493 90.203 493 87 493 83.797 495.598 81.199 498.801 81.199 502.004 81.199 504.602 83.797 504.602 87ZM551 110.199C551 113.402 548.402 116 545.199 116 541.996 116 539.398 113.402 539.398 110.199 539.398 106.996 541.996 104.398 545.199 104.398 548.402 104.398 551 106.996 551 110.199ZM301.602 104.398C301.602 107.602 299.004 110.199 295.801 110.199 292.598 110.199 290 107.602 290 104.398 290 101.195 292.598 98.602 295.801 98.602 299.004 98.602 301.602 101.195 301.602 104.398ZM162.398 34.801C162.398 38.004 159.805 40.602 156.602 40.602 153.398 40.602 150.801 38.004 150.801 34.801 150.801 31.598 153.398 29 156.602 29 159.805 29 162.398 31.598 162.398 34.801ZM249.398 40.602C249.398 43.805 246.805 46.398 243.602 46.398 240.398 46.398 237.801 43.805 237.801 40.602 237.801 37.398 240.398 34.801 243.602 34.801 246.805 34.801 249.398 37.398 249.398 40.602ZM458.199 40.602C458.199 43.805 455.602 46.398 452.398 46.398 449.195 46.398 446.602 43.805 446.602 40.602 446.602 37.398 449.195 34.801 452.398 34.801 455.602 34.801 458.199 37.398 458.199 40.602ZM203 75.398C203 78.602 200.402 81.199 197.199 81.199 193.996 81.199 191.398 78.602 191.398 75.398 191.398 72.195 193.996 69.602 197.199 69.602 200.402 69.602 203 72.195 203 75.398ZM150.801 156.602C150.801 159.805 148.203 162.398 145 162.398 141.797 162.398 139.199 159.805 139.199 156.602 139.199 153.398 141.797 150.801 145 150.801 148.203 150.801 150.801 153.398 150.801 156.602ZM487.199 197.199C487.199 200.402 484.602 203 481.398 203 478.195 203 475.602 200.402 475.602 197.199 475.602 193.996 478.195 191.398 481.398 191.398 484.602 191.398 487.199 193.996 487.199 197.199ZM454.977 227.488C454.977 230.691 452.383 233.289 449.18 233.289 445.973 233.289 443.379 230.691 443.379 227.488 443.379 224.285 445.973 221.688 449.18 221.688 452.383 221.688 454.977 224.285 454.977 227.488ZM110.199 353.801C110.199 357.004 107.602 359.602 104.398 359.602 101.195 359.602 98.602 357.004 98.602 353.801 98.602 350.598 101.195 348 104.398 348 107.602 348 110.199 350.598 110.199 353.801ZM179.801 400.199C179.801 403.402 177.203 406 174 406 170.797 406 168.199 403.402 168.199 400.199 168.199 396.996 170.797 394.398 174 394.398 177.203 394.398 179.801 396.996 179.801 400.199ZM150.801 458.199C150.801 461.402 148.203 464 145 464 141.797 464 139.199 461.402 139.199 458.199 139.199 454.996 141.797 452.398 145 452.398 148.203 452.398 150.801 454.996 150.801 458.199ZM34.801 516.199C34.801 519.402 32.203 522 29 522 25.797 522 23.199 519.402 23.199 516.199 23.199 512.996 25.797 510.398 29 510.398 32.203 510.398 34.801 512.996 34.801 516.199ZM435 435C435 438.203 432.402 440.801 429.199 440.801 425.996 440.801 423.398 438.203 423.398 435 423.398 431.797 425.996 429.199 429.199 429.199 432.402 429.199 435 431.797 435 435ZM388.602 446.602C388.602 449.805 386.004 452.398 382.801 452.398 379.598 452.398 377 449.805 377 446.602 377 443.398 379.598 440.801 382.801 440.801 386.004 440.801 388.602 443.398 388.602 446.602ZM556.801 417.602C556.801 420.805 554.203 423.398 551 423.398 547.797 423.398 545.199 420.805 545.199 417.602 545.199 414.398 547.797 411.801 551 411.801 554.203 411.801 556.801 414.398 556.801 417.602ZM510.398 382.801C510.398 386.004 507.805 388.602 504.602 388.602 501.398 388.602 498.801 386.004 498.801 382.801 498.801 379.598 501.398 377 504.602 377 507.805 377 510.398 379.598 510.398 382.801ZM23.199 423.398C23.199 426.602 20.602 429.199 17.398 429.199 14.195 429.199 11.602 426.602 11.602 423.398 11.602 420.195 14.195 417.602 17.398 417.602 20.602 417.602 23.199 420.195 23.199 423.398ZM23.199 284.199C23.199 287.402 20.602 290 17.398 290 14.195 290 11.602 287.402 11.602 284.199 11.602 280.996 14.195 278.398 17.398 278.398 20.602 278.398 23.199 280.996 23.199 284.199ZM533.602 185.602C533.602 188.805 531.004 191.398 527.801 191.398 524.598 191.398 522 188.805 522 185.602 522 182.398 524.598 179.801 527.801 179.801 531.004 179.801 533.602 182.398 533.602 185.602ZM133.398 342.199C133.398 345.402 130.805 348 127.602 348 124.398 348 121.801 345.402 121.801 342.199 121.801 338.996 124.398 336.398 127.602 336.398 130.805 336.398 133.398 338.996 133.398 342.199ZM69.602 394.398C69.602 397.602 67.004 400.199 63.801 400.199 60.598 400.199 58 397.602 58 394.398 58 391.195 60.598 388.602 63.801 388.602 67.004 388.602 69.602 391.195 69.602 394.398ZM46.398 469.801C46.398 473.004 43.805 475.602 40.602 475.602 37.398 475.602 34.801 473.004 34.801 469.801 34.801 466.598 37.398 464 40.602 464 43.805 464 46.398 466.598 46.398 469.801ZM145 551C145 554.203 142.402 556.801 139.199 556.801 135.996 556.801 133.398 554.203 133.398 551 133.398 547.797 135.996 545.199 139.199 545.199 142.402 545.199 145 547.797 145 551ZM336.398 545.199C336.398 548.402 333.805 551 330.602 551 327.398 551 324.801 548.402 324.801 545.199 324.801 541.996 327.398 539.398 330.602 539.398 333.805 539.398 336.398 541.996 336.398 545.199ZM272.602 551C272.602 554.203 270.004 556.801 266.801 556.801 263.598 556.801 261 554.203 261 551 261 547.797 263.598 545.199 266.801 545.199 270.004 545.199 272.602 547.797 272.602 551ZM203 551C203 554.203 200.402 556.801 197.199 556.801 193.996 556.801 191.398 554.203 191.398 551 191.398 547.797 193.996 545.199 197.199 545.199 200.402 545.199 203 547.797 203 551ZM562.602 539.398C562.602 542.602 560.004 545.199 556.801 545.199 553.598 545.199 551 542.602 551 539.398 551 536.195 553.598 533.602 556.801 533.602 560.004 533.602 562.602 536.195 562.602 539.398ZM435 493C435 496.203 432.402 498.801 429.199 498.801 425.996 498.801 423.398 496.203 423.398 493 423.398 489.797 425.996 487.199 429.199 487.199 432.402 487.199 435 489.797 435 493ZM516.199 435C516.199 438.203 513.602 440.801 510.398 440.801 507.195 440.801 504.602 438.203 504.602 435 504.602 431.797 507.195 429.199 510.398 429.199 513.602 429.199 516.199 431.797 516.199 435ZM110.199 458.199C110.199 461.402 107.602 464 104.398 464 101.195 464 98.602 461.402 98.602 458.199 98.602 454.996 101.195 452.398 104.398 452.398 107.602 452.398 110.199 454.996 110.199 458.199ZM75.398 435C75.398 438.203 72.805 440.801 69.602 440.801 66.398 440.801 63.801 438.203 63.801 435 63.801 431.797 66.398 429.199 69.602 429.199 72.805 429.199 75.398 431.797 75.398 435ZM127.602 382.801C127.602 386.004 125.004 388.602 121.801 388.602 118.598 388.602 116 386.004 116 382.801 116 379.598 118.598 377 121.801 377 125.004 377 127.602 379.598 127.602 382.801ZM116 423.398C116 426.602 113.402 429.199 110.199 429.199 106.996 429.199 104.398 426.602 104.398 423.398 104.398 420.195 106.996 417.602 110.199 417.602 113.402 417.602 116 420.195 116 423.398ZM23.199 232C23.199 235.203 20.602 237.801 17.398 237.801 14.195 237.801 11.602 235.203 11.602 232 11.602 228.797 14.195 226.199 17.398 226.199 20.602 226.199 23.199 228.797 23.199 232ZM464 168.199C464 171.402 461.402 174 458.199 174 454.996 174 452.398 171.402 452.398 168.199 452.398 164.996 454.996 162.398 458.199 162.398 461.402 162.398 464 164.996 464 168.199ZM100.277 138.813C100.277 142.016 97.68 144.613 94.477 144.613 91.273 144.613 88.676 142.016 88.676 138.813 88.676 135.609 91.273 133.012 94.477 133.012 97.68 133.012 100.277 135.609 100.277 138.813ZM435 121.801C435 125.004 432.402 127.602 429.199 127.602 425.996 127.602 423.398 125.004 423.398 121.801 423.398 118.598 425.996 116 429.199 116 432.402 116 435 118.598 435 121.801ZM359.602 92.801C359.602 96.004 357.004 98.602 353.801 98.602 350.598 98.602 348 96.004 348 92.801 348 89.598 350.598 87 353.801 87 357.004 87 359.602 89.598 359.602 92.801ZM23.199 133.398C23.199 136.602 20.602 139.199 17.398 139.199 14.195 139.199 11.602 136.602 11.602 133.398 11.602 130.195 14.195 127.602 17.398 127.602 20.602 127.602 23.199 130.195 23.199 133.398ZM17.398 191.398C17.398 194.602 14.805 197.199 11.602 197.199 8.398 197.199 5.801 194.602 5.801 191.398 5.801 188.195 8.398 185.602 11.602 185.602 14.805 185.602 17.398 188.195 17.398 191.398ZM551 156.602C551 159.805 548.402 162.398 545.199 162.398 541.996 162.398 539.398 159.805 539.398 156.602 539.398 153.398 541.996 150.801 545.199 150.801 548.402 150.801 551 153.398 551 156.602ZM510.398 133.398C510.398 136.602 507.805 139.199 504.602 139.199 501.398 139.199 498.801 136.602 498.801 133.398 498.801 130.195 501.398 127.602 504.602 127.602 507.805 127.602 510.398 130.195 510.398 133.398ZM284.199 156.602C284.199 159.805 281.602 162.398 278.398 162.398 275.195 162.398 272.602 159.805 272.602 156.602 272.602 153.398 275.195 150.801 278.398 150.801 281.602 150.801 284.199 153.398 284.199 156.602ZM220.398 156.602C220.398 159.805 217.805 162.398 214.602 162.398 211.398 162.398 208.801 159.805 208.801 156.602 208.801 153.398 211.398 150.801 214.602 150.801 217.805 150.801 220.398 153.398 220.398 156.602ZM464 87C464 90.203 461.402 92.801 458.199 92.801 454.996 92.801 452.398 90.203 452.398 87 452.398 83.797 454.996 81.199 458.199 81.199 461.402 81.199 464 83.797 464 87ZM11.602 94.477C11.602 97.68 9.004 100.277 5.801 100.277 2.598 100.277 0 97.68 0 94.477 0 91.273 2.598 88.676 5.801 88.676 9.004 88.676 11.602 91.273 11.602 94.477ZM104.398 46.398C104.398 49.602 101.805 52.199 98.602 52.199 95.398 52.199 92.801 49.602 92.801 46.398 92.801 43.195 95.398 40.602 98.602 40.602 101.805 40.602 104.398 43.195 104.398 46.398ZM100.277 5.801C100.277 9.004 97.68 11.602 94.477 11.602 91.273 11.602 88.676 9.004 88.676 5.801 88.676 2.598 91.273 0 94.477 0 97.68 0 100.277 2.598 100.277 5.801ZM139.199 11.602C139.199 14.805 136.602 17.398 133.398 17.398 130.195 17.398 127.602 14.805 127.602 11.602 127.602 8.398 130.195 5.801 133.398 5.801 136.602 5.801 139.199 8.398 139.199 11.602ZM188.949 5.801C188.949 9.004 186.355 11.602 183.152 11.602 179.949 11.602 177.352 9.004 177.352 5.801 177.352 2.598 179.949 0 183.152 0 186.355 0 188.949 2.598 188.949 5.801ZM220.398 23.199C220.398 26.402 217.805 29 214.602 29 211.398 29 208.801 26.402 208.801 23.199 208.801 19.996 211.398 17.398 214.602 17.398 217.805 17.398 220.398 19.996 220.398 23.199ZM284.199 29C284.199 32.203 281.602 34.801 278.398 34.801 275.195 34.801 272.602 32.203 272.602 29 272.602 25.797 275.195 23.199 278.398 23.199 281.602 23.199 284.199 25.797 284.199 29ZM336.398 11.602C336.398 14.805 333.805 17.398 330.602 17.398 327.398 17.398 324.801 14.805 324.801 11.602 324.801 8.398 327.398 5.801 330.602 5.801 333.805 5.801 336.398 8.398 336.398 11.602ZM382.801 11.602C382.801 14.805 380.203 17.398 377 17.398 373.797 17.398 371.199 14.805 371.199 11.602 371.199 8.398 373.797 5.801 377 5.801 380.203 5.801 382.801 8.398 382.801 11.602ZM423.398 17.398C423.398 20.602 420.805 23.199 417.602 23.199 414.398 23.199 411.801 20.602 411.801 17.398 411.801 14.195 414.398 11.602 417.602 11.602 420.805 11.602 423.398 14.195 423.398 17.398ZM454.977 5.801C454.977 9.004 452.383 11.602 449.18 11.602 445.973 11.602 443.379 9.004 443.379 5.801 443.379 2.598 445.973 0 449.18 0 452.383 0 454.977 2.598 454.977 5.801ZM499.316 5.801C499.316 9.004 496.719 11.602 493.516 11.602 490.313 11.602 487.715 9.004 487.715 5.801 487.715 2.598 490.313 0 493.516 0 496.719 0 499.316 2.598 499.316 5.801ZM551 17.398C551 20.602 548.402 23.199 545.199 23.199 541.996 23.199 539.398 20.602 539.398 17.398 539.398 14.195 541.996 11.602 545.199 11.602 548.402 11.602 551 14.195 551 17.398ZM284.199 63.801C284.199 67.004 281.602 69.602 278.398 69.602 275.195 69.602 272.602 67.004 272.602 63.801 272.602 60.598 275.195 58 278.398 58 281.602 58 284.199 60.598 284.199 63.801ZM516.199 40.602C516.199 43.805 513.602 46.398 510.398 46.398 507.195 46.398 504.602 43.805 504.602 40.602 504.602 37.398 507.195 34.801 510.398 34.801 513.602 34.801 516.199 37.398 516.199 40.602ZM556.801 69.602C556.801 72.805 554.203 75.398 551 75.398 547.797 75.398 545.199 72.805 545.199 69.602 545.199 66.398 547.797 63.801 551 63.801 554.203 63.801 556.801 66.398 556.801 69.602ZM69.602 156.602C69.602 159.805 67.004 162.398 63.801 162.398 60.598 162.398 58 159.805 58 156.602 58 153.398 60.598 150.801 63.801 150.801 67.004 150.801 69.602 153.398 69.602 156.602ZM110.199 191.398C110.199 194.602 107.602 197.199 104.398 197.199 101.195 197.199 98.602 194.602 98.602 191.398 98.602 188.195 101.195 185.602 104.398 185.602 107.602 185.602 110.199 188.195 110.199 191.398ZM46.398 214.602C46.398 217.805 43.805 220.398 40.602 220.398 37.398 220.398 34.801 217.805 34.801 214.602 34.801 211.398 37.398 208.801 40.602 208.801 43.805 208.801 46.398 211.398 46.398 214.602ZM493 249.398C493 252.602 490.402 255.199 487.199 255.199 483.996 255.199 481.398 252.602 481.398 249.398 481.398 246.195 483.996 243.602 487.199 243.602 490.402 243.602 493 246.195 493 249.398ZM243.602 423.398C243.602 426.602 241.004 429.199 237.801 429.199 234.598 429.199 232 426.602 232 423.398 232 420.195 234.598 417.602 237.801 417.602 241.004 417.602 243.602 420.195 243.602 423.398ZM23.199 551C23.199 554.203 20.602 556.801 17.398 556.801 14.195 556.801 11.602 554.203 11.602 551 11.602 547.797 14.195 545.199 17.398 545.199 20.602 545.199 23.199 547.797 23.199 551ZM452.398 556.801C452.398 560.004 449.805 562.602 446.602 562.602 443.398 562.602 440.801 560.004 440.801 556.801 440.801 553.598 443.398 551 446.602 551 449.805 551 452.398 553.598 452.398 556.801ZM498.801 545.199C498.801 548.402 496.203 551 493 551 489.797 551 487.199 548.402 487.199 545.199 487.199 541.996 489.797 539.398 493 539.398 496.203 539.398 498.801 541.996 498.801 545.199ZM255.199 400.199C255.199 403.402 252.602 406 249.398 406 246.195 406 243.602 403.402 243.602 400.199 243.602 396.996 246.195 394.398 249.398 394.398 252.602 394.398 255.199 396.996 255.199 400.199ZM23.199 40.602C23.199 43.805 20.602 46.398 17.398 46.398 14.195 46.398 11.602 43.805 11.602 40.602 11.602 37.398 14.195 34.801 17.398 34.801 20.602 34.801 23.199 37.398 23.199 40.602ZM58 17.398C58 20.602 55.402 23.199 52.199 23.199 48.996 23.199 46.398 20.602 46.398 17.398 46.398 14.195 48.996 11.602 52.199 11.602 55.402 11.602 58 14.195 58 17.398ZM319 63.801C319 67.004 316.402 69.602 313.199 69.602 309.996 69.602 307.398 67.004 307.398 63.801 307.398 60.598 309.996 58 313.199 58 316.402 58 319 60.598 319 63.801ZM214.602 110.199C214.602 113.402 212.004 116 208.801 116 205.598 116 203 113.402 203 110.199 203 106.996 205.598 104.398 208.801 104.398 212.004 104.398 214.602 106.996 214.602 110.199ZM162.398 116C162.398 119.203 159.805 121.801 156.602 121.801 153.398 121.801 150.801 119.203 150.801 116 150.801 112.797 153.398 110.199 156.602 110.199 159.805 110.199 162.398 112.797 162.398 116ZM174 197.199C174 200.402 171.402 203 168.199 203 164.996 203 162.398 200.402 162.398 197.199 162.398 193.996 164.996 191.398 168.199 191.398 171.402 191.398 174 193.996 174 197.199ZM92.801 232C92.801 235.203 90.203 237.801 87 237.801 83.797 237.801 81.199 235.203 81.199 232 81.199 228.797 83.797 226.199 87 226.199 90.203 226.199 92.801 228.797 92.801 232ZM551 237.801C551 241.004 548.402 243.602 545.199 243.602 541.996 243.602 539.398 241.004 539.398 237.801 539.398 234.598 541.996 232 545.199 232 548.402 232 551 234.598 551 237.801ZM481.398 319C481.398 322.203 478.805 324.801 475.602 324.801 472.398 324.801 469.801 322.203 469.801 319 469.801 315.797 472.398 313.199 475.602 313.199 478.805 313.199 481.398 315.797 481.398 319ZM168.199 435C168.199 438.203 165.602 440.801 162.398 440.801 159.195 440.801 156.602 438.203 156.602 435 156.602 431.797 159.195 429.199 162.398 429.199 165.602 429.199 168.199 431.797 168.199 435ZM81.199 487.199C81.199 490.402 78.602 493 75.398 493 72.195 493 69.602 490.402 69.602 487.199 69.602 483.996 72.195 481.398 75.398 481.398 78.602 481.398 81.199 483.996 81.199 487.199ZM75.398 527.801C75.398 531.004 72.805 533.602 69.602 533.602 66.398 533.602 63.801 531.004 63.801 527.801 63.801 524.598 66.398 522 69.602 522 72.805 522 75.398 524.598 75.398 527.801ZM533.602 493C533.602 496.203 531.004 498.801 527.801 498.801 524.598 498.801 522 496.203 522 493 522 489.797 524.598 487.199 527.801 487.199 531.004 487.199 533.602 489.797 533.602 493ZM336.398 440.801C336.398 444.004 333.805 446.602 330.602 446.602 327.398 446.602 324.801 444.004 324.801 440.801 324.801 437.598 327.398 435 330.602 435 333.805 435 336.398 437.598 336.398 440.801ZM278.398 458.199C278.398 461.402 275.805 464 272.602 464 269.398 464 266.801 461.402 266.801 458.199 266.801 454.996 269.398 452.398 272.602 452.398 275.805 452.398 278.398 454.996 278.398 458.199ZM464 400.199C464 403.402 461.402 406 458.199 406 454.996 406 452.398 403.402 452.398 400.199 452.398 396.996 454.996 394.398 458.199 394.398 461.402 394.398 464 396.996 464 400.199ZM261 110.199C261 113.402 258.402 116 255.199 116 251.996 116 249.398 113.402 249.398 110.199 249.398 106.996 251.996 104.398 255.199 104.398 258.402 104.398 261 106.996 261 110.199ZM58 69.602C58 72.805 55.402 75.398 52.199 75.398 48.996 75.398 46.398 72.805 46.398 69.602 46.398 66.398 48.996 63.801 52.199 63.801 55.402 63.801 58 66.398 58 69.602ZM11.602 5.801C11.602 9.004 9.004 11.602 5.801 11.602 2.598 11.602 0 9.004 0 5.801 0 2.598 2.598 0 5.801 0 9.004 0 11.602 2.598 11.602 5.801ZM377 40.602C377 43.805 374.402 46.398 371.199 46.398 367.996 46.398 365.398 43.805 365.398 40.602 365.398 37.398 367.996 34.801 371.199 34.801 374.402 34.801 377 37.398 377 40.602ZM406 156.602C406 159.805 403.402 162.398 400.199 162.398 396.996 162.398 394.398 159.805 394.398 156.602 394.398 153.398 396.996 150.801 400.199 150.801 403.402 150.801 406 153.398 406 156.602ZM366.301 138.813C366.301 142.016 363.707 144.613 360.504 144.613 357.301 144.613 354.703 142.016 354.703 138.813 354.703 135.609 357.301 133.012 360.504 133.012 363.707 133.012 366.301 135.609 366.301 138.813ZM330.602 133.398C330.602 136.602 328.004 139.199 324.801 139.199 321.598 139.199 319 136.602 319 133.398 319 130.195 321.598 127.602 324.801 127.602 328.004 127.602 330.602 130.195 330.602 133.398ZM23.199 319C23.199 322.203 20.602 324.801 17.398 324.801 14.195 324.801 11.602 322.203 11.602 319 11.602 315.797 14.195 313.199 17.398 313.199 20.602 313.199 23.199 315.797 23.199 319ZM522 284.199C522 287.402 519.402 290 516.199 290 512.996 290 510.398 287.402 510.398 284.199 510.398 280.996 512.996 278.398 516.199 278.398 519.402 278.398 522 280.996 522 284.199ZM156.602 307.398C156.602 310.602 154.004 313.199 150.801 313.199 147.598 313.199 145 310.602 145 307.398 145 304.195 147.598 301.602 150.801 301.602 154.004 301.602 156.602 304.195 156.602 307.398ZM100.277 316.164C100.277 319.367 97.68 321.965 94.477 321.965 91.273 321.965 88.676 319.367 88.676 316.164 88.676 312.961 91.273 310.363 94.477 310.363 97.68 310.363 100.277 312.961 100.277 316.164ZM556.801 301.602C556.801 304.805 554.203 307.398 551 307.398 547.797 307.398 545.199 304.805 545.199 301.602 545.199 298.398 547.797 295.801 551 295.801 554.203 295.801 556.801 298.398 556.801 301.602ZM556.801 365.398C556.801 368.602 554.203 371.199 551 371.199 547.797 371.199 545.199 368.602 545.199 365.398 545.199 362.195 547.797 359.602 551 359.602 554.203 359.602 556.801 362.195 556.801 365.398ZM522 336.398C522 339.602 519.402 342.199 516.199 342.199 512.996 342.199 510.398 339.602 510.398 336.398 510.398 333.195 512.996 330.602 516.199 330.602 519.402 330.602 522 333.195 522 336.398ZM307.398 411.801C307.398 415.004 304.805 417.602 301.602 417.602 298.398 417.602 295.801 415.004 295.801 411.801 295.801 408.598 298.398 406 301.602 406 304.805 406 307.398 408.598 307.398 411.801ZM417.602 400.199C417.602 403.402 415.004 406 411.801 406 408.598 406 406 403.402 406 400.199 406 396.996 408.598 394.398 411.801 394.398 415.004 394.398 417.602 396.996 417.602 400.199ZM220.398 452.398C220.398 455.602 217.805 458.199 214.602 458.199 211.398 458.199 208.801 455.602 208.801 452.398 208.801 449.195 211.398 446.602 214.602 446.602 217.805 446.602 220.398 449.195 220.398 452.398ZM481.398 504.602C481.398 507.805 478.805 510.398 475.602 510.398 472.398 510.398 469.801 507.805 469.801 504.602 469.801 501.398 472.398 498.801 475.602 498.801 478.805 498.801 481.398 501.398 481.398 504.602ZM371.199 475.602C371.199 478.805 368.602 481.398 365.398 481.398 362.195 481.398 359.602 478.805 359.602 475.602 359.602 472.398 362.195 469.801 365.398 469.801 368.602 469.801 371.199 472.398 371.199 475.602ZM400.199 516.199C400.199 519.402 397.602 522 394.398 522 391.195 522 388.602 519.402 388.602 516.199 388.602 512.996 391.195 510.398 394.398 510.398 397.602 510.398 400.199 512.996 400.199 516.199ZM321.965 493.516C321.965 496.719 319.367 499.316 316.164 499.316 312.961 499.316 310.363 496.719 310.363 493.516 310.363 490.313 312.961 487.715 316.164 487.715 319.367 487.715 321.965 490.313 321.965 493.516ZM290 504.602C290 507.805 287.402 510.398 284.199 510.398 280.996 510.398 278.398 507.805 278.398 504.602 278.398 501.398 280.996 498.801 284.199 498.801 287.402 498.801 290 501.398 290 504.602ZM243.602 487.199C243.602 490.402 241.004 493 237.801 493 234.598 493 232 490.402 232 487.199 232 483.996 234.598 481.398 237.801 481.398 241.004 481.398 243.602 483.996 243.602 487.199ZM179.801 493C179.801 496.203 177.203 498.801 174 498.801 170.797 498.801 168.199 496.203 168.199 493 168.199 489.797 170.797 487.199 174 487.199 177.203 487.199 179.801 489.797 179.801 493ZM127.602 516.199C127.602 519.402 125.004 522 121.801 522 118.598 522 116 519.402 116 516.199 116 512.996 118.598 510.398 121.801 510.398 125.004 510.398 127.602 512.996 127.602 516.199ZM264.504 328.59C264.504 336.598 258.016 343.09 250.004 343.09 241.996 343.09 235.504 336.598 235.504 328.59 235.504 320.582 241.996 314.09 250.004 314.09 258.016 314.09 264.504 320.582 264.504 328.59ZM247.652 287.859C247.652 295.867 241.16 302.359 233.152 302.359 225.145 302.359 218.652 295.867 218.652 287.859 218.652 279.852 225.145 273.359 233.152 273.359 241.16 273.359 247.652 279.852 247.652 287.859ZM254.676 238.699C254.676 246.707 248.184 253.199 240.176 253.199 232.168 253.199 225.676 246.707 225.676 238.699 225.676 230.691 232.168 224.199 240.176 224.199 248.184 224.199 254.676 230.691 254.676 238.699ZM305.238 235.891C305.238 243.898 298.746 250.391 290.738 250.391 282.73 250.391 276.238 243.898 276.238 235.891 276.238 227.883 282.73 221.391 290.738 221.391 298.746 221.391 305.238 227.883 305.238 235.891ZM357.203 234.488C357.203 242.496 350.711 248.988 342.703 248.988 334.695 248.988 328.203 242.496 328.203 234.488 328.203 226.477 334.695 219.988 342.703 219.988 350.711 219.988 357.203 226.477 357.203 234.488ZM316.473 328.59C316.473 336.598 309.98 343.09 301.973 343.09 293.965 343.09 287.473 336.598 287.473 328.59 287.473 320.582 293.965 314.09 301.973 314.09 309.98 314.09 316.473 320.582 316.473 328.59ZM206.922 321.566C206.922 329.574 200.43 336.066 192.422 336.066 184.414 336.066 177.922 329.574 177.922 321.566 177.922 313.559 184.414 307.066 192.422 307.066 200.43 307.066 206.922 313.559 206.922 321.566ZM292.504 285.051C292.504 291.457 287.313 296.648 280.906 296.648 274.5 296.648 269.305 291.457 269.305 285.051 269.305 278.645 274.5 273.449 280.906 273.449 287.313 273.449 292.504 278.645 292.504 285.051ZM196.996 271.004C196.996 277.41 191.805 282.605 185.398 282.605 178.992 282.605 173.797 277.41 173.797 271.004 173.797 264.598 178.992 259.402 185.398 259.402 191.805 259.402 196.996 264.598 196.996 271.004ZM201.211 213.418C201.211 219.824 196.02 225.02 189.609 225.02 183.203 225.02 178.012 219.824 178.012 213.418 178.012 207.012 183.203 201.82 189.609 201.82 196.02 201.82 201.211 207.012 201.211 213.418ZM257.391 189.543C257.391 195.949 252.199 201.141 245.793 201.141 239.387 201.141 234.191 195.949 234.191 189.543 234.191 183.137 239.387 177.941 245.793 177.941 252.199 177.941 257.391 183.137 257.391 189.543ZM331.832 188.137C331.832 194.543 326.641 199.738 320.23 199.738 313.824 199.738 308.633 194.543 308.633 188.137 308.633 181.73 313.824 176.535 320.23 176.535 326.641 176.535 331.832 181.73 331.832 188.137ZM399.25 242.914C399.25 249.32 394.055 254.512 387.648 254.512 381.242 254.512 376.051 249.32 376.051 242.914 376.051 236.508 381.242 231.313 387.648 231.313 394.055 231.313 399.25 236.508 399.25 242.914ZM399.25 286.453C399.25 292.859 394.055 298.055 387.648 298.055 381.242 298.055 376.051 292.859 376.051 286.453 376.051 280.047 381.242 274.855 387.648 274.855 394.055 274.855 399.25 280.047 399.25 286.453ZM348.688 280.836C348.688 287.242 343.492 292.438 337.086 292.438 330.68 292.438 325.488 287.242 325.488 280.836 325.488 274.43 330.68 269.234 337.086 269.234 343.492 269.234 348.688 274.43 348.688 280.836ZM368.352 325.781C368.352 332.188 363.156 337.379 356.75 337.379 350.344 337.379 345.148 332.188 345.148 325.781 345.148 319.375 350.344 314.18 356.75 314.18 363.156 314.18 368.352 319.375 368.352 325.781ZM344.473 367.918C344.473 374.324 339.281 379.516 332.871 379.516 326.465 379.516 321.273 374.324 321.273 367.918 321.273 361.512 326.465 356.316 332.871 356.316 339.281 356.316 344.473 361.512 344.473 367.918ZM288.293 374.938C288.293 381.344 283.098 386.539 276.691 386.539 270.285 386.539 265.094 381.344 265.094 374.938 265.094 368.531 270.285 363.34 276.691 363.34 283.098 363.34 288.293 368.531 288.293 374.938ZM229.301 367.918C229.301 374.324 224.109 379.516 217.703 379.516 211.297 379.516 206.102 374.324 206.102 367.918 206.102 361.512 211.297 356.316 217.703 356.316 224.109 356.316 229.301 361.512 229.301 367.918ZM413.293 335.613C413.293 342.02 408.102 347.211 401.695 347.211 395.289 347.211 390.094 342.02 390.094 335.613 390.094 329.207 395.289 324.012 401.695 324.012 408.102 324.012 413.293 329.207 413.293 335.613ZM448.406 280.836C448.406 287.242 443.215 292.438 436.809 292.438 430.402 292.438 425.207 287.242 425.207 280.836 425.207 274.43 430.402 269.234 436.809 269.234 443.215 269.234 448.406 274.43 448.406 280.836ZM448.406 280.836" stroke="param(outline)" stroke-opacity="param(outline-opacity)" stroke-width="param(outline-width)"/>
  <path fill="param(fill)" fill-opacity="param(fill-opacity)" d="M314.977 404.434C314.977 410.84 309.785 416.035 303.379 416.035 296.973 416.035 291.777 410.84 291.777 404.434 291.777 398.027 296.973 392.836 303.379 392.836 309.785 392.836 314.977 398.027 314.977 404.434ZM392.227 376.344C392.227 382.75 387.035 387.945 380.625 387.945 374.219 387.945 369.027 382.75 369.027 376.344 369.027 369.938 374.219 364.742 380.625 364.742 387.035 364.742 392.227 369.938 392.227 376.344ZM409.02 199.625C409.02 202.828 406.422 205.422 403.219 205.422 400.016 205.422 397.418 202.828 397.418 199.625 397.418 196.422 400.016 193.824 403.219 193.824 406.422 193.824 409.02 196.422 409.02 199.625ZM409.02 199.625" stroke="param(outline)" stroke-opacity="param(outline-opacity)" stroke-width="param(outline-width)"/>
</svg>
