<svg width="580" height="580">
  <path fill="param(fill)" fill-opacity="param(fill-opacity)" d="M 560.742188 254.949219 L 541.234375 256.175781 C 535.265625 211.4375 517.683594 170.488281 491.550781 136.277344 L 506.21875 123.328125 C 514.058594 116.40625 514.433594 104.308594 507.046875 96.921875 L 483.078125 72.953125 C 475.679688 65.554688 463.582031 65.941406 456.671875 73.78125 L 443.722656 88.4375 C 409.511719 62.316406 368.5625 44.734375 323.835938 38.753906 L 325.050781 19.257812 C 325.707031 8.824219 317.414062 0 306.957031 0 L 273.042969 0 C 262.585938 0 254.304688 8.824219 254.949219 19.257812 L 256.175781 38.765625 C 211.4375 44.734375 170.488281 62.316406 136.289062 88.449219 L 123.339844 73.78125 C 116.417969 65.941406 104.320312 65.566406 96.933594 72.953125 L 72.953125 96.921875 C 65.554688 104.320312 65.941406 116.417969 73.78125 123.328125 L 88.449219 136.277344 C 62.328125 170.488281 44.746094 211.4375 38.765625 256.175781 L 19.257812 254.949219 C 8.824219 254.292969 0 262.585938 0 273.042969 L 0 306.957031 C 0 317.414062 8.824219 325.695312 19.257812 325.050781 L 38.765625 323.824219 C 44.734375 368.5625 62.316406 409.511719 88.449219 443.710938 L 73.78125 456.660156 C 65.941406 463.582031 65.566406 475.679688 72.953125 483.066406 L 96.933594 507.046875 C 104.332031 514.445312 116.429688 514.058594 123.339844 506.21875 L 136.289062 491.550781 C 170.5 517.671875 211.449219 535.253906 256.1875 541.234375 L 254.949219 560.742188 C 254.292969 571.175781 262.585938 580 273.042969 580 L 306.957031 580 C 317.414062 580 325.695312 571.175781 325.050781 560.742188 L 323.824219 541.234375 C 368.5625 535.265625 409.511719 517.683594 443.722656 491.550781 L 456.671875 506.21875 C 463.59375 514.058594 475.691406 514.433594 483.078125 507.046875 L 507.058594 483.066406 C 514.457031 475.667969 514.070312 463.570312 506.230469 456.660156 L 491.5625 443.710938 C 517.683594 409.5 535.265625 368.550781 541.246094 323.824219 L 560.753906 325.050781 C 571.1875 325.707031 580.011719 317.414062 580.011719 306.957031 L 580.011719 273.042969 C 580 262.585938 571.175781 254.304688 560.742188 254.949219 Z M 319.273438 111.707031 C 347.375 116.316406 373.226562 127.179688 395.429688 143.175781 L 347.148438 197.878906 C 337.261719 191.71875 326.398438 187.074219 314.730469 184.34375 Z M 260.726562 111.707031 L 265.269531 184.34375 C 253.613281 187.074219 242.738281 191.730469 232.847656 197.878906 L 184.570312 143.175781 C 206.773438 127.179688 232.621094 116.316406 260.726562 111.707031 Z M 143.175781 184.582031 L 197.890625 232.851562 C 191.726562 242.738281 187.082031 253.613281 184.34375 265.269531 L 111.707031 260.726562 C 116.316406 232.625 127.179688 206.785156 143.175781 184.582031 Z M 111.707031 319.273438 L 184.34375 314.730469 C 187.074219 326.386719 191.726562 337.261719 197.878906 347.152344 L 143.175781 395.429688 C 127.179688 373.226562 116.316406 347.378906 111.707031 319.273438 Z M 260.726562 468.292969 C 232.621094 463.683594 206.773438 452.820312 184.570312 436.824219 L 232.839844 382.109375 C 242.726562 388.273438 253.601562 392.914062 265.257812 395.65625 Z M 290 326.25 C 269.984375 326.25 253.75 310.015625 253.75 290 C 253.75 269.984375 269.984375 253.75 290 253.75 C 310.015625 253.75 326.25 269.984375 326.25 290 C 326.25 310.015625 310.015625 326.25 290 326.25 Z M 319.273438 468.292969 L 314.730469 395.65625 C 326.386719 392.925781 337.261719 388.273438 347.148438 382.109375 L 395.417969 436.824219 C 373.214844 452.820312 347.375 463.683594 319.273438 468.292969 Z M 436.824219 395.417969 L 382.121094 347.140625 C 388.28125 337.25 392.925781 326.386719 395.65625 314.71875 L 468.292969 319.261719 C 463.683594 347.375 452.820312 373.226562 436.824219 395.417969 Z M 395.65625 265.269531 C 392.925781 253.613281 388.273438 242.738281 382.109375 232.851562 L 436.824219 184.582031 C 452.820312 206.785156 463.683594 232.632812 468.292969 260.738281 Z M 395.65625 265.269531 " stroke="param(outline)" stroke-opacity="param(outline-opacity)" stroke-width="param(outline-width)"/>
</svg>
