<svg width="580" height="580">
  <path fill="param(fill)" fill-opacity="param(fill-opacity)" d="M 290 201.1875 C 162.574219 201.1875 58.902344 303.253906 58.902344 430.679688 C 58.902344 433.855469 61.484375 436.4375 64.660156 436.4375 L 216.203125 436.4375 C 217.792969 436.4375 219.078125 435.148438 219.078125 433.558594 L 219.078125 332.828125 C 219.078125 331.238281 220.375 329.949219 221.957031 329.949219 L 358.042969 329.949219 C 359.625 329.949219 360.921875 331.238281 360.921875 332.828125 L 360.921875 433.558594 C 360.921875 435.148438 362.203125 436.4375 363.800781 436.4375 L 515.339844 436.4375 C 518.515625 436.4375 521.097656 433.855469 521.097656 430.679688 C 521.09375 303.253906 417.425781 201.1875 290 201.1875 Z M 495.058594 228.5 C 440.289062 173.726562 367.457031 143.5625 290 143.5625 C 212.539062 143.5625 139.714844 173.726562 84.9375 228.5 C 30.164062 283.277344 0 356.097656 0 433.558594 C 0 435.148438 1.289062 436.4375 2.878906 436.4375 L 31.644531 436.4375 C 33.238281 436.4375 34.523438 435.148438 34.523438 433.558594 C 34.523438 292.6875 149.128906 178.085938 290 178.085938 C 430.867188 178.085938 545.476562 292.6875 545.476562 433.558594 C 545.476562 435.148438 546.765625 436.4375 548.355469 436.4375 L 577.121094 436.4375 C 578.707031 436.4375 580 435.148438 580 433.558594 C 579.996094 356.097656 549.832031 283.277344 495.058594 228.5 Z M 495.058594 228.5 " stroke="param(outline)" stroke-opacity="param(outline-opacity)" stroke-width="param(outline-width)"/>
</svg>
