<svg width="580" height="580">
  <path fill="param(fill)" fill-opacity="param(fill-opacity)" d="M53.554688 414.503906 502.789062 414.503906 502.789062 432.527344 53.554688 432.527344ZM35.84375 450.613281 540.75 450.613281 540.75 468.636719 35.84375 468.636719ZM90.429688 378.539062 71.613281 378.539062 71.617188 396.5625 327.039062 396.523438 329.964844 400.695312 335.925781 396.519531 444.730469 396.503906 444.726562 378.480469 358.421875 378.492188 259.457031 237.199219 257.109375 238.84375 253.136719 194.636719 323.453125 200.175781 326.285156 164.242188 73.171875 144.300781 70.339844 180.234375 90.402344 181.816406ZM126.445312 184.65625 162.492188 187.496094 162.519531 378.527344 126.476562 378.53125ZM198.539062 190.335938 216.6875 191.765625 233.476562 378.515625 198.566406 378.519531ZM263.074219 305.195312 314.417969 378.5 269.664062 378.507812ZM263.074219 305.195312" stroke="param(outline)" stroke-opacity="param(outline-opacity)" stroke-width="param(outline-width)"/>
</svg>
