<svg xmlns="http://www.w3.org/2000/svg" width="580" height="580">
  <path fill="param(fill)" fill-opacity="param(fill-opacity)" d="M 511.363281 478.765625 L 68.636719 478.765625 C 64.742188 478.765625 61.585938 481.453125 61.585938 484.765625 C 61.585938 488.078125 64.742188 490.765625 68.636719 490.765625 L 511.363281 490.765625 C 515.257812 490.765625 518.414062 488.078125 518.414062 484.765625 C 518.414062 481.453125 515.257812 478.765625 511.363281 478.765625 Z M 511.363281 478.765625 " stroke="param(outline)" stroke-opacity="param(outline-opacity)" stroke-width="param(outline-width)"/>
  <path fill="param(fill)" fill-opacity="param(fill-opacity)" d="M407.063 487.063C408.582 488.582 410.574 489.34 412.566 489.34 414.559 489.34 416.551 488.582 418.074 487.063 421.113 484.02 421.113 479.09 418.074 476.047L386.098 444.074C383.059 441.031 378.125 441.031 375.086 444.074 372.043 447.113 372.043 452.043 375.086 455.086ZM432.434 484.582C433.656 487.617 436.574 489.457 439.656 489.457 440.625 489.457 441.613 489.273 442.566 488.891 446.555 487.281 448.484 482.742 446.875 478.754L424.129 422.387C422.52 418.398 417.984 416.469 413.996 418.078 410.008 419.688 408.078 424.227 409.688 428.215ZM506.527 487.117C508.043 488.602 510.012 489.34 511.977 489.34 513.996 489.34 516.012 488.563 517.539 487.004L549.844 454.043C552.855 450.973 552.805 446.043 549.734 443.031 546.66 440.02 541.73 440.074 538.723 443.145L506.418 476.105C503.406 479.176 503.457 484.105 506.527 487.117ZM481.477 488.664C482.578 489.203 483.742 489.457 484.887 489.457 487.77 489.457 490.539 487.848 491.891 485.082L518.258 431.02C520.145 427.156 518.539 422.496 514.676 420.609 510.809 418.723 506.148 420.328 504.262 424.195L477.895 478.254C476.008 482.117 477.613 486.781 481.477 488.664ZM461.844 489.34C461.855 489.34 461.863 489.34 461.875 489.34 466.16 489.34 469.645 485.875 469.66 481.586L469.988 398.188C470.008 393.887 466.535 390.387 462.234 390.371 462.223 390.371 462.215 390.371 462.203 390.371 457.918 390.371 454.434 393.836 454.418 398.125L454.086 481.523C454.07 485.824 457.543 489.324 461.844 489.34ZM509.031 111.656 67.602 111.656C58.98 111.656 51.988 114.344 51.988 117.656 51.988 120.969 58.98 123.656 67.602 123.656L509.031 123.656C517.648 123.656 524.641 120.969 524.641 117.656 524.641 114.344 517.652 111.656 509.031 111.656ZM434.648 283.891 136.25 283.891C130.422 283.891 125.695 286.578 125.695 289.891 125.695 293.203 130.422 295.891 136.25 295.891L434.648 295.891C440.477 295.891 445.203 293.203 445.203 289.891 445.203 286.578 440.48 283.891 434.648 283.891ZM434.648 283.891" stroke="param(outline)" stroke-opacity="param(outline-opacity)" stroke-width="param(outline-width)"/>
</svg>
