<svg xmlns="http://www.w3.org/2000/svg" width="580" height="580">
  <path fill="param(fill)" fill-opacity="param(fill-opacity)" d="M 290.003906 0 C 195.171875 0 117.449219 77.488281 117.449219 172.0625 C 117.449219 208.707031 129.15625 242.765625 148.960938 270.753906 L 268.945312 478.179688 C 285.75 500.132812 296.917969 495.964844 310.890625 477.019531 L 443.234375 251.808594 C 445.902344 246.96875 448.003906 241.820312 449.832031 236.558594 C 458.230469 216.09375 462.546875 194.183594 462.542969 172.0625 C 462.550781 77.488281 384.851562 0 290.003906 0 Z M 290.003906 80.621094 C 341.082031 80.621094 381.691406 121.140625 381.691406 172.0625 C 381.691406 222.988281 341.082031 263.488281 290.003906 263.488281 C 238.9375 263.488281 198.308594 222.992188 198.308594 172.0625 C 198.308594 121.140625 238.9375 80.625 290.003906 80.625 Z M 290.003906 80.621094 " stroke="param(outline)" stroke-opacity="param(outline-opacity)" stroke-width="param(outline-width)"/>
  <path fill="param(fill)" fill-opacity="param(fill-opacity)" d="M399.695 283.668 399.418 284.398C399.504 284.176 399.574 283.949 399.66 283.73ZM197.234 400.531C115.305 412.105 58 439.801 58 480.57 58 535.484 153.746 580 290 580 426.254 580 522 535.484 522 480.57 522 439.801 464.703 412.105 382.777 400.531L371.426 419.855C433.172 428.422 475.602 446.426 475.602 467.316 475.602 496.609 392.504 520.348 290 520.348 187.496 520.348 104.398 496.609 104.398 467.316 104.395 446.496 146.543 428.512 208.48 419.91 204.738 413.445 200.977 406.996 197.23 400.531ZM197.234 400.531" stroke="param(outline)" stroke-opacity="param(outline-opacity)" stroke-width="param(outline-width)"/>
</svg>
