<svg xmlns="http://www.w3.org/2000/svg" width="580" height="580">
  <path fill="param(fill)" fill-opacity="param(fill-opacity)" d="M514.77 287.387C514.57 282.574 513.563 277.516 512.52 273.52 526.922 272.34 541.82 262.141 545.906 250.023 546.945 246.898 545.262 243.539 542.086 242.492 538.961 241.445 535.539 243.129 534.512 246.258 531.75 254.414 519.996 261.863 509.824 261.863L494.43 261.863C484.824 258.965 472.34 251.613 465.859 232.914 464.785 229.801 461.359 228.133 458.234 229.215 455.094 230.277 453.426 233.652 454.5 236.762 458.484 248.305 464.504 256.246 470.801 261.863L451.422 261.863C434.953 261.863 410.102 247.848 410.102 226.742 410.102 223.449 407.422 220.781 404.102 220.781 400.777 220.781 398.082 223.449 398.082 226.742 398.082 255.871 429.152 273.75 451.422 273.75L506.371 273.75C507.41 277.547 508.551 282.707 508.801 287.387 491.156 287.387 470.934 287.387 464.586 287.387 463.891 304.105 492.746 310.113 492.746 310.113L459.129 359.531C459.129 359.531 328.715 359.531 321.738 359.531 314.793 359.531 309.371 361.871 306.742 364.656 304.078 367.453 274.563 397.941 274.563 397.941L285.363 410.453 286.09 427.563 298.125 444.672 272.598 470.938 272.598 577.758 289.91 577.758 289.91 488.539 305.633 476.633 349.188 577.758 367.723 577.758 330.387 469.953 340.16 448.094C366.547 448.094 426.371 448.094 447.887 448.094L423.512 577.758 440.527 577.758 463.18 467.891 494.664 578.02 513.23 578.02 476.82 445.41C485.965 439.105 493.008 422.469 496.316 413.859 501.195 401.086 529.32 331.285 529.32 331.285L580 300.633 580 287.387C580 287.387 539.738 287.387 514.77 287.387M165.203 348.004C159.516 329.535 144.004 306.445 127.934 286.848 138.711 292.84 151.195 296.441 165.203 296.441 179.207 296.441 191.676 292.84 202.457 286.848 186.398 306.445 170.875 329.535 165.203 348.004ZM330.387 115.008C330.387 80.281 306.891 40.656 243.297 40.656 240.039 40.656 236.863 40.82 233.707 41.113 226.547 15.867 203.363 0 165.203 0 127.023 0 103.875 15.867 96.68 41.113 93.539 40.82 90.332 40.656 87.09 40.656 23.465 40.656 0 80.281 0 115.008 0 132.66 7.227 148.852 19.281 161.59 7.227 174.344 0 190.555 0 208.207 0 249.27 38.973 282.559 87.09 282.559 89.207 282.559 91.207 282.23 93.273 282.117 108.949 303.188 129.141 333.398 137.16 355.945L137.16 580 193.246 580 193.246 355.945C201.266 333.398 221.438 303.188 237.098 282.117 239.18 282.23 241.18 282.559 243.297 282.559 291.383 282.559 330.387 249.27 330.387 208.207 330.387 190.555 323.16 174.344 311.125 161.59 323.16 148.852 330.387 132.66 330.387 115.008" stroke="param(outline)" stroke-opacity="param(outline-opacity)" stroke-width="param(outline-width)"/>
</svg>
