<svg width="580" height="580">
  <path fill="param(fill)" fill-opacity="param(fill-opacity)" d="M204.730469 139.378906 377.355469 139.378906C378.285156 139.378906 379.136719 138.875 379.585938 138.0625 380.035156 137.253906 380.011719 136.261719 379.519531 135.476562L356.207031 98.148438C355.742188 97.402344 354.925781 96.949219 354.042969 96.949219L230.304688 96.949219C229.464844 96.949219 228.679688 97.363281 228.203125 98.058594L202.628906 135.386719C202.09375 136.167969 202.035156 137.179688 202.476562 138.015625 202.917969 138.851562 203.785156 139.378906 204.730469 139.378906ZM315.363281 106.507812 315.363281 130.652344 268.59375 130.652344 268.59375 106.507812ZM428.699219 139.132812 496.914062 139.132812C497.757812 139.132812 498.542969 138.714844 499.019531 138.023438 499.492188 137.328125 499.59375 136.441406 499.289062 135.660156L491.027344 114.363281C490.648438 113.382812 489.703125 112.738281 488.648438 112.738281L437.75 112.738281C436.726562 112.738281 435.804688 113.347656 435.402344 114.289062L426.351562 135.585938C426.019531 136.371094 426.101562 137.277344 426.574219 137.988281 427.046875 138.703125 427.84375 139.132812 428.699219 139.132812ZM101.109375 138.984375 146.992188 138.984375C147.769531 138.984375 148.507812 138.628906 148.988281 138.019531 149.472656 137.410156 149.652344 136.617188 149.476562 135.859375L146.28125 122.039062C146.011719 120.882812 144.984375 120.0625 143.796875 120.0625L105.535156 120.0625C104.425781 120.0625 103.445312 120.777344 103.105469 121.835938L98.679688 135.65625C98.429688 136.429688 98.566406 137.277344 99.046875 137.9375 99.527344 138.59375 100.292969 138.984375 101.109375 138.984375ZM504.8125 148.84375 78.25 148.84375C53.597656 148.84375 33.75 168.691406 33.75 193.34375L33.75 431.15625C33.75 455.808594 53.597656 475.65625 78.25 475.65625L504.8125 475.65625C529.464844 475.65625 549.3125 455.808594 549.3125 431.15625L549.3125 193.34375C549.3125 168.691406 529.464844 148.84375 504.8125 148.84375ZM338.5 428.09375C273.25 428.09375 220.34375 375.191406 220.34375 309.9375 220.34375 244.6875 273.25 191.8125 338.5 191.8125 403.75 191.8125 456.65625 244.6875 456.65625 309.9375 456.65625 375.191406 403.75 428.09375 338.5 428.09375ZM338.5 428.09375" stroke="param(outline)" stroke-opacity="param(outline-opacity)" stroke-width="param(outline-width)"/>
  <path fill="param(fill)" fill-opacity="param(fill-opacity)" d="M 338.476562 239.34375 C 299.492188 239.355469 267.902344 270.964844 267.914062 309.945312 C 267.914062 309.960938 267.914062 309.976562 267.914062 309.992188 C 267.929688 348.972656 299.539062 380.5625 338.519531 380.550781 C 377.5 380.539062 409.09375 348.929688 409.078125 309.945312 C 409.078125 309.929688 409.078125 309.917969 409.078125 309.902344 C 409.066406 270.921875 377.457031 239.328125 338.476562 239.34375 Z M 338.476562 239.34375 " stroke="param(outline)" stroke-opacity="param(outline-opacity)" stroke-width="param(outline-width)"/>
</svg>
