<svg width="580" height="580">
  <path fill="param(fill)" fill-opacity="param(fill-opacity)" d="M 244.210938 122.105469 C 227.300781 122.105469 221.25 137.503906 213.683594 152.632812 L 198.421875 183.15625 L 137.367188 183.15625 C 112 183.15625 91.578125 203.578125 91.578125 228.949219 L 91.578125 381.578125 C 91.578125 406.945312 112 427.367188 137.367188 427.367188 L 442.632812 427.367188 C 468 427.367188 488.421875 406.945312 488.421875 381.578125 L 488.421875 228.949219 C 488.421875 203.578125 468 183.15625 442.632812 183.15625 L 381.578125 183.15625 L 366.316406 152.632812 C 358.683594 137.367188 352.699219 122.105469 335.789062 122.105469 Z M 137.367188 213.683594 C 145.796875 213.683594 152.632812 220.519531 152.632812 228.949219 C 152.632812 237.375 145.796875 244.210938 137.367188 244.210938 C 128.941406 244.210938 122.105469 237.375 122.105469 228.949219 C 122.105469 220.519531 128.941406 213.683594 137.367188 213.683594 Z M 290 213.683594 C 340.578125 213.683594 381.578125 254.683594 381.578125 305.261719 C 381.578125 355.84375 340.578125 396.84375 290 396.84375 C 239.421875 396.84375 198.421875 355.84375 198.421875 305.261719 C 198.421875 254.683594 239.421875 213.683594 290 213.683594 Z M 290 259.472656 C 264.710938 259.472656 244.210938 279.976562 244.210938 305.261719 C 244.210938 330.550781 264.710938 351.050781 290 351.050781 C 315.289062 351.050781 335.789062 330.550781 335.789062 305.261719 C 335.789062 279.976562 315.289062 259.472656 290 259.472656 Z M 290 259.472656 " stroke="param(outline)" stroke-opacity="param(outline-opacity)" stroke-width="param(outline-width)"/>
</svg>
