<svg width="580" height="580">
  <path fill="param(fill)" fill-opacity="param(fill-opacity)" d="M 463.976562 106.84375 C 463.976562 106.84375 421.53125 105.585938 404.59375 122.105469 C 388.308594 137.984375 381.578125 150.121094 381.578125 183.15625 L 97.660156 183.15625 L 140.230469 330.125 C 140.335938 330.347656 140.53125 330.5625 140.648438 330.78125 C 147.804688 350.847656 166.507812 365.296875 188.820312 366.136719 C 188.914062 366.175781 189.238281 366.316406 189.238281 366.316406 L 387.660156 366.316406 L 387.660156 372.398438 C 387.660156 372.398438 387.683594 381.589844 381.578125 393.800781 C 375.472656 406.011719 372.433594 412.105469 348.011719 412.105469 L 149.589844 412.105469 C 119.066406 412.105469 119.066406 457.894531 149.589844 457.894531 L 344.972656 457.894531 C 381.601562 457.894531 409.027344 436.515625 418.1875 415.144531 C 427.34375 393.777344 427.367188 375.496094 427.367188 375.496094 L 427.367188 183.15625 C 427.367188 167.175781 434.347656 152.632812 448.714844 152.632812 L 465.527344 152.632812 C 478.171875 152.632812 488.421875 142.378906 488.421875 129.738281 C 488.421875 117.09375 478.171875 106.84375 465.527344 106.84375 Z M 341.871094 457.894531 C 323.554688 457.894531 311.34375 470.105469 311.34375 488.421875 C 311.34375 506.738281 323.554688 518.949219 341.871094 518.949219 C 360.1875 518.949219 372.398438 506.738281 372.398438 488.421875 C 372.398438 470.105469 360.1875 457.894531 341.871094 457.894531 Z M 189.238281 457.894531 C 170.921875 457.894531 158.714844 470.105469 158.714844 488.421875 C 158.714844 506.738281 170.921875 518.949219 189.238281 518.949219 C 207.554688 518.949219 219.765625 506.738281 219.765625 488.421875 C 219.765625 470.105469 207.554688 457.894531 189.238281 457.894531 Z M 189.238281 457.894531 " stroke="param(outline)" stroke-opacity="param(outline-opacity)" stroke-width="param(outline-width)"/>
</svg>
