<svg width="580" height="580">
  <path fill="param(fill)" fill-opacity="param(fill-opacity)" d="M 541.332031 222.332031 C 541.769531 195.796875 526.648438 171.453125 502.667969 160.078125 C 500.636719 134.96875 479.519531 115.714844 454.332031 116 C 450.511719 116.304688 446.746094 117.085938 443.121094 118.320312 C 440.773438 92.800781 418.183594 74.015625 392.667969 76.363281 C 382.664062 77.28125 373.234375 81.425781 365.785156 88.160156 C 365.785156 61.464844 344.148438 39.828125 317.453125 39.828125 C 290.757812 39.828125 269.121094 61.464844 269.121094 88.160156 C 269.121094 88.160156 270.667969 88.933594 270.667969 90.09375 C 250.890625 73.128906 221.113281 75.410156 204.148438 95.191406 C 198.421875 101.867188 194.675781 110.011719 193.332031 118.707031 C 187.210938 116.753906 180.808594 115.839844 174.386719 116 C 142.355469 115.734375 116.171875 141.480469 115.902344 173.511719 C 115.835938 181.238281 117.320312 188.894531 120.253906 196.039062 C 89.609375 204.605469 71.710938 236.390625 80.277344 267.035156 C 85.695312 286.433594 100.855469 301.59375 120.253906 307.011719 C 130.046875 337.285156 162.53125 353.890625 192.804688 344.09375 C 213.5 337.398438 228.664062 319.613281 232 298.121094 C 239.074219 304.273438 247.828125 308.175781 257.132812 309.332031 L 257.132812 502.667969 L 193.332031 541.332031 L 386.667969 541.332031 L 324.800781 502.667969 L 324.800781 425.332031 C 353.339844 390.863281 390.203125 364.242188 431.90625 348 C 462.886719 355.265625 493.890625 336.042969 501.15625 305.070312 C 502.253906 300.386719 502.761719 295.582031 502.667969 290.773438 C 502.777344 288.710938 502.777344 286.648438 502.667969 284.585938 C 526.648438 273.214844 541.769531 248.871094 541.332031 222.332031 Z M 324.800781 396.71875 L 324.800781 263.707031 C 335.25 282.292969 354.902344 293.816406 376.226562 293.867188 L 387.054688 293.867188 C 387.65625 310.84375 395.722656 326.695312 409.09375 337.171875 C 377.554688 351.632812 348.96875 371.828125 324.800781 396.71875 Z M 324.800781 396.71875 " stroke="param(outline)" stroke-opacity="param(outline-opacity)" stroke-width="param(outline-width)"/>
</svg>
