<svg width="580" height="580">
  <path fill="param(fill)" fill-opacity="param(fill-opacity)" d="M 249.582031 188.53125 C 246.617188 185.566406 241.804688 185.566406 238.839844 188.53125 L 104.523438 322.847656 C 102.402344 325.03125 101.785156 328.269531 102.953125 331.085938 C 104.121094 333.898438 106.847656 335.746094 109.894531 335.789062 L 152.632812 335.789062 L 152.632812 480.820312 C 152.632812 485.019531 156.035156 488.421875 160.234375 488.421875 L 267.074219 488.421875 C 271.273438 488.453125 274.703125 485.078125 274.738281 480.882812 L 274.738281 315.125 C 274.738281 313.109375 275.539062 311.175781 276.964844 309.75 L 320.527344 259.472656 Z M 244.210938 427.367188 L 213.683594 427.367188 L 213.683594 396.84375 L 244.210938 396.84375 Z M 244.210938 366.316406 L 213.683594 366.316406 L 213.683594 335.789062 L 244.210938 335.789062 Z M 450.261719 244.210938 L 435 244.210938 C 430.785156 244.210938 427.367188 247.628906 427.367188 251.84375 L 427.367188 305.261719 L 386.953125 249.582031 C 383.984375 246.617188 379.175781 246.617188 376.207031 249.582031 L 306.972656 333.714844 C 305.867188 335.054688 305.265625 336.738281 305.261719 338.476562 L 305.261719 480.726562 C 305.210938 484.925781 308.574219 488.371094 312.773438 488.421875 L 358.5625 488.421875 C 362.828125 488.4375 366.300781 484.992188 366.316406 480.726562 L 366.316406 427.367188 L 396.84375 427.367188 L 396.84375 480.699219 C 396.84375 484.964844 400.300781 488.421875 404.566406 488.421875 L 450.355469 488.421875 C 454.523438 488.371094 457.878906 484.988281 457.894531 480.820312 L 457.894531 251.84375 C 457.894531 247.628906 454.476562 244.210938 450.261719 244.210938 Z M 366.316406 396.84375 L 335.789062 396.84375 L 335.789062 366.316406 L 366.316406 366.316406 Z M 427.367188 396.84375 L 396.84375 396.84375 L 396.84375 366.316406 L 427.367188 366.316406 Z M 427.367188 396.84375 " stroke="param(outline)" stroke-opacity="param(outline-opacity)" stroke-width="param(outline-width)"/>
</svg>
