<svg xmlns="http://www.w3.org/2000/svg" width="580" height="580">
  <path fill="param(fill)" fill-opacity="param(fill-opacity)" d="M186.09 179.551C184.926 177.258 181.613 178.023 179.527 177.57 164.984 176.445 150.379 176.457 135.801 176.488 118.789 176.738 101.715 176.789 84.762 178.031 83.164 178.289 82.367 180.66 84.117 181.332 92.59 183.238 101.438 182.832 110.098 183.281 133.883 183.785 157.73 184.023 181.473 182.336 183.152 182 186.449 181.961 186.09 179.551ZM55.02 119.125C45.48 115.465 54.477 118.5 58.809 130.523 62.207 139.949 63.277 148.504 63.277 153.734 63.277 158.969 65.645 163.25 68.539 163.25 75.234 163.25 76.324 157.977 69.332 137.922 66.238 129.043 59.156 120.715 55.02 119.125ZM84.32 147.813C84.32 156.305 86.688 163.25 89.582 163.25 104.879 163.25 86.414 96.035 66.613 79.648 53.129 68.488 67.363 80.754 73.527 98.078 79.516 114.898 84.32 127.496 84.32 147.813ZM192.25 197.539C184.344 195.809 176.125 196.129 168.066 196.215 161.129 196.504 154.055 196.449 147.254 197.852 145.547 198.84 146.551 201.547 148.438 201.504 158.785 203.887 169.578 203.137 180.141 203.129 184.672 202.922 189.398 202.828 193.656 201.234 195.344 200.109 194.195 197.41 192.25 197.539ZM157.063 163.25C159.957 163.25 162.32 158.969 162.32 153.734 162.32 148.504 163.395 139.949 166.789 130.523 171.121 118.5 180.121 115.465 170.582 119.125 166.441 120.715 159.363 129.043 156.266 137.926 149.277 157.98 150.363 163.25 157.063 163.25ZM136.02 163.25C138.914 163.25 141.281 156.305 141.281 147.813 141.281 127.496 146.086 114.898 152.07 98.078 158.238 80.758 172.473 68.488 158.984 79.652 139.184 96.035 120.723 163.25 136.02 163.25ZM114.16 163.25C127.074 163.25 119.324 58.441 111.059 54.18 108.988 53.109 110.555 68.684 110.973 77.645 111.563 90.293 110.738 95.43 110.953 123.695L110.949 123.695C108.789 152.266 109.68 163.258 114.16 163.258ZM492.441 227.398C491.273 225.109 487.965 225.871 485.879 225.422 471.332 224.293 456.73 224.309 442.148 224.34 425.141 224.586 408.063 224.641 391.113 225.879 389.512 226.137 388.715 228.512 390.469 229.184 398.938 231.086 407.789 230.684 416.445 231.133 440.234 231.637 464.082 231.871 487.824 230.184 489.5 229.852 492.797 229.813 492.438 227.398ZM361.371 166.977C351.828 163.313 360.828 166.348 365.16 178.371 368.555 187.801 369.629 196.352 369.629 201.586 369.629 206.82 371.996 211.102 374.887 211.102 381.586 211.102 382.676 205.828 375.684 185.773 372.586 176.895 365.508 168.563 361.371 166.973ZM390.672 195.664C390.672 204.152 393.035 211.102 395.93 211.102 411.23 211.102 392.766 143.887 372.965 127.5 359.477 116.34 373.715 128.605 379.879 145.93 385.863 162.75 390.672 175.344 390.672 195.66ZM498.602 245.391C490.691 243.66 482.477 243.98 474.414 244.066 467.48 244.352 460.402 244.301 453.605 245.703 451.898 246.688 452.902 249.398 454.789 249.355 465.137 251.738 475.926 250.984 486.492 250.977 491.02 250.773 495.75 250.68 500.004 249.086 501.691 247.961 500.543 245.262 498.602 245.391ZM463.41 211.102C466.305 211.102 468.672 206.82 468.672 201.586 468.672 196.352 469.746 187.801 473.141 178.371 477.473 166.352 486.469 163.316 476.93 166.977 472.793 168.563 465.711 176.895 462.617 185.773 455.625 205.828 456.715 211.102 463.414 211.102ZM442.371 211.102C445.262 211.102 447.629 204.152 447.629 195.664 447.629 175.348 452.438 162.75 458.422 145.93 464.586 128.605 478.82 116.34 465.336 127.5 445.535 143.887 427.07 211.102 442.371 211.102ZM420.512 211.102C433.426 211.102 425.672 106.289 417.406 102.031 415.336 100.961 416.906 116.531 417.324 125.496 417.914 138.145 417.086 143.281 417.301 171.547 415.141 200.113 416.031 211.105 420.512 211.105ZM342.699 486.359C341.535 484.066 338.227 484.832 336.141 484.379 321.594 483.254 306.988 483.266 292.41 483.297 275.398 483.547 258.324 483.602 241.371 484.84 239.773 485.098 238.977 487.473 240.727 488.145 249.199 490.047 258.047 489.641 266.707 490.09 290.496 490.598 314.34 490.832 338.082 489.145 339.762 488.809 343.059 488.773 342.699 486.359ZM211.629 425.934C202.09 422.273 211.09 425.309 215.418 437.332 218.816 446.758 219.887 455.313 219.887 460.547 219.887 465.777 222.254 470.059 225.148 470.059 231.848 470.059 232.934 464.789 225.941 444.734 222.848 435.855 215.766 427.523 211.629 425.934ZM240.93 454.621C240.93 463.113 243.297 470.063 246.191 470.063 261.488 470.063 243.027 402.848 223.227 386.461 209.738 375.301 223.973 387.566 230.137 404.887 236.125 421.711 240.93 434.305 240.93 454.621ZM348.859 504.352C340.953 502.621 332.734 502.941 324.676 503.027 317.738 503.313 310.664 503.258 303.863 504.66 302.16 505.648 303.16 508.359 305.051 508.313 315.395 510.695 326.188 509.945 336.75 509.938 341.281 509.73 346.008 509.641 350.266 508.047 351.953 506.922 350.805 504.223 348.859 504.352ZM313.672 470.063C316.566 470.063 318.934 465.781 318.934 460.547 318.934 455.313 320.004 446.762 323.402 437.332 327.73 425.309 336.73 422.273 327.191 425.938 323.055 427.523 315.973 435.855 312.879 444.734 305.887 464.789 306.973 470.063 313.672 470.063ZM292.629 470.063C295.523 470.063 297.891 463.113 297.891 454.621 297.891 434.305 302.695 421.711 308.684 404.891 314.848 387.566 329.082 375.301 315.594 386.461 295.797 402.848 277.332 470.063 292.629 470.063ZM270.77 470.063C283.684 470.063 275.934 365.25 267.668 360.992 265.598 359.922 267.164 375.492 267.582 384.453 268.176 397.105 267.348 402.238 267.563 430.508L267.559 430.508C265.398 459.074 266.289 470.066 270.77 470.066ZM270.77 470.063" stroke="param(outline)" stroke-opacity="param(outline-opacity)" stroke-width="param(outline-width)"/>
</svg>
