<svg xmlns="http://www.w3.org/2000/svg" width="580" height="580">
  <path fill="param(fill)" fill-opacity="param(fill-opacity)" d="M549.547 532.211 238.121 532.211C235.383 532.211 233.16 534.898 233.16 538.211 233.16 541.523 235.383 544.211 238.121 544.211L549.547 544.211C552.285 544.211 554.508 541.523 554.508 538.211 554.508 534.898 552.285 532.211 549.547 532.211ZM369.699 37.051 31.652 37.051C25.051 37.051 19.699 39.738 19.699 43.051 19.699 46.363 25.051 49.051 31.652 49.051L369.699 49.051C376.297 49.051 381.652 46.363 381.652 43.051 381.652 39.738 376.301 37.051 369.699 37.051ZM448.141 284.633 149.742 284.633C143.914 284.633 139.188 287.32 139.188 290.633 139.188 293.945 143.914 296.633 149.742 296.633L448.141 296.633C453.969 296.633 458.695 293.945 458.695 290.633 458.695 287.32 453.969 284.633 448.141 284.633ZM448.141 284.633" stroke="param(outline)" stroke-opacity="param(outline-opacity)" stroke-width="param(outline-width)"/>
</svg>
