<svg xmlns="http://www.w3.org/2000/svg" width="580" height="580">
  <path fill="param(fill)" fill-opacity="param(fill-opacity)" d="M98.601562 551C98.601562 554.203125 96.003906 556.800781 92.800781 556.800781 89.597656 556.800781 87 554.203125 87 551 87 547.796875 89.597656 545.199219 92.800781 545.199219 96.003906 545.199219 98.601562 547.796875 98.601562 551ZM498.800781 464C498.800781 467.203125 496.203125 469.800781 493 469.800781 489.796875 469.800781 487.199219 467.203125 487.199219 464 487.199219 460.796875 489.796875 458.199219 493 458.199219 496.203125 458.199219 498.800781 460.796875 498.800781 464ZM139.199219 255.199219C139.199219 258.402344 136.601562 261 133.398438 261 130.195312 261 127.601562 258.402344 127.601562 255.199219 127.601562 251.996094 130.195312 249.398438 133.398438 249.398438 136.601562 249.398438 139.199219 251.996094 139.199219 255.199219ZM110.199219 284.199219C110.199219 287.402344 107.601562 290 104.398438 290 101.195312 290 98.601562 287.402344 98.601562 284.199219 98.601562 280.996094 101.195312 278.398438 104.398438 278.398438 107.601562 278.398438 110.199219 280.996094 110.199219 284.199219ZM46.398438 255.199219C46.398438 258.402344 43.804688 261 40.601562 261 37.398438 261 34.800781 258.402344 34.800781 255.199219 34.800781 251.996094 37.398438 249.398438 40.601562 249.398438 43.804688 249.398438 46.398438 251.996094 46.398438 255.199219ZM23.199219 377C23.199219 380.203125 20.601562 382.800781 17.398438 382.800781 14.195312 382.800781 11.601562 380.203125 11.601562 377 11.601562 373.796875 14.195312 371.199219 17.398438 371.199219 20.601562 371.199219 23.199219 373.796875 23.199219 377ZM46.398438 353.800781C46.398438 357.003906 43.804688 359.601562 40.601562 359.601562 37.398438 359.601562 34.800781 357.003906 34.800781 353.800781 34.800781 350.597656 37.398438 348 40.601562 348 43.804688 348 46.398438 350.597656 46.398438 353.800781ZM174 330.601562C174 333.804688 171.402344 336.398438 168.199219 336.398438 164.996094 336.398438 162.398438 333.804688 162.398438 330.601562 162.398438 327.398438 164.996094 324.800781 168.199219 324.800781 171.402344 324.800781 174 327.398438 174 330.601562ZM92.800781 104.398438C92.800781 107.601562 90.203125 110.199219 87 110.199219 83.796875 110.199219 81.199219 107.601562 81.199219 104.398438 81.199219 101.195312 83.796875 98.601562 87 98.601562 90.203125 98.601562 92.800781 101.195312 92.800781 104.398438ZM406 87C406 90.203125 403.402344 92.800781 400.199219 92.800781 396.996094 92.800781 394.398438 90.203125 394.398438 87 394.398438 83.796875 396.996094 81.199219 400.199219 81.199219 403.402344 81.199219 406 83.796875 406 87ZM139.199219 63.800781C139.199219 67.003906 136.601562 69.601562 133.398438 69.601562 130.195312 69.601562 127.601562 67.003906 127.601562 63.800781 127.601562 60.597656 130.195312 58 133.398438 58 136.601562 58 139.199219 60.597656 139.199219 63.800781ZM46.398438 104.398438C46.398438 107.601562 43.804688 110.199219 40.601562 110.199219 37.398438 110.199219 34.800781 107.601562 34.800781 104.398438 34.800781 101.195312 37.398438 98.601562 40.601562 98.601562 43.804688 98.601562 46.398438 101.195312 46.398438 104.398438ZM504.601562 87C504.601562 90.203125 502.003906 92.800781 498.800781 92.800781 495.597656 92.800781 493 90.203125 493 87 493 83.796875 495.597656 81.199219 498.800781 81.199219 502.003906 81.199219 504.601562 83.796875 504.601562 87ZM551 110.199219C551 113.402344 548.402344 116 545.199219 116 541.996094 116 539.398438 113.402344 539.398438 110.199219 539.398438 106.996094 541.996094 104.398438 545.199219 104.398438 548.402344 104.398438 551 106.996094 551 110.199219ZM301.601562 104.398438C301.601562 107.601562 299.003906 110.199219 295.800781 110.199219 292.597656 110.199219 290 107.601562 290 104.398438 290 101.195312 292.597656 98.601562 295.800781 98.601562 299.003906 98.601562 301.601562 101.195312 301.601562 104.398438ZM162.398438 34.800781C162.398438 38.003906 159.804688 40.601562 156.601562 40.601562 153.398438 40.601562 150.800781 38.003906 150.800781 34.800781 150.800781 31.597656 153.398438 29 156.601562 29 159.804688 29 162.398438 31.597656 162.398438 34.800781ZM249.398438 40.601562C249.398438 43.804688 246.804688 46.398438 243.601562 46.398438 240.398438 46.398438 237.800781 43.804688 237.800781 40.601562 237.800781 37.398438 240.398438 34.800781 243.601562 34.800781 246.804688 34.800781 249.398438 37.398438 249.398438 40.601562ZM458.199219 40.601562C458.199219 43.804688 455.601562 46.398438 452.398438 46.398438 449.195312 46.398438 446.601562 43.804688 446.601562 40.601562 446.601562 37.398438 449.195312 34.800781 452.398438 34.800781 455.601562 34.800781 458.199219 37.398438 458.199219 40.601562ZM203 75.398438C203 78.601562 200.402344 81.199219 197.199219 81.199219 193.996094 81.199219 191.398438 78.601562 191.398438 75.398438 191.398438 72.195312 193.996094 69.601562 197.199219 69.601562 200.402344 69.601562 203 72.195312 203 75.398438ZM150.800781 156.601562C150.800781 159.804688 148.203125 162.398438 145 162.398438 141.796875 162.398438 139.199219 159.804688 139.199219 156.601562 139.199219 153.398438 141.796875 150.800781 145 150.800781 148.203125 150.800781 150.800781 153.398438 150.800781 156.601562ZM487.199219 197.199219C487.199219 200.402344 484.601562 203 481.398438 203 478.195312 203 475.601562 200.402344 475.601562 197.199219 475.601562 193.996094 478.195312 191.398438 481.398438 191.398438 484.601562 191.398438 487.199219 193.996094 487.199219 197.199219ZM454.976562 227.488281C454.976562 230.691406 452.382812 233.289062 449.179688 233.289062 445.972656 233.289062 443.378906 230.691406 443.378906 227.488281 443.378906 224.285156 445.972656 221.6875 449.179688 221.6875 452.382812 221.6875 454.976562 224.285156 454.976562 227.488281ZM110.199219 353.800781C110.199219 357.003906 107.601562 359.601562 104.398438 359.601562 101.195312 359.601562 98.601562 357.003906 98.601562 353.800781 98.601562 350.597656 101.195312 348 104.398438 348 107.601562 348 110.199219 350.597656 110.199219 353.800781ZM179.800781 400.199219C179.800781 403.402344 177.203125 406 174 406 170.796875 406 168.199219 403.402344 168.199219 400.199219 168.199219 396.996094 170.796875 394.398438 174 394.398438 177.203125 394.398438 179.800781 396.996094 179.800781 400.199219ZM150.800781 458.199219C150.800781 461.402344 148.203125 464 145 464 141.796875 464 139.199219 461.402344 139.199219 458.199219 139.199219 454.996094 141.796875 452.398438 145 452.398438 148.203125 452.398438 150.800781 454.996094 150.800781 458.199219ZM34.800781 516.199219C34.800781 519.402344 32.203125 522 29 522 25.796875 522 23.199219 519.402344 23.199219 516.199219 23.199219 512.996094 25.796875 510.398438 29 510.398438 32.203125 510.398438 34.800781 512.996094 34.800781 516.199219ZM435 435C435 438.203125 432.402344 440.800781 429.199219 440.800781 425.996094 440.800781 423.398438 438.203125 423.398438 435 423.398438 431.796875 425.996094 429.199219 429.199219 429.199219 432.402344 429.199219 435 431.796875 435 435ZM388.601562 446.601562C388.601562 449.804688 386.003906 452.398438 382.800781 452.398438 379.597656 452.398438 377 449.804688 377 446.601562 377 443.398438 379.597656 440.800781 382.800781 440.800781 386.003906 440.800781 388.601562 443.398438 388.601562 446.601562ZM556.800781 417.601562C556.800781 420.804688 554.203125 423.398438 551 423.398438 547.796875 423.398438 545.199219 420.804688 545.199219 417.601562 545.199219 414.398438 547.796875 411.800781 551 411.800781 554.203125 411.800781 556.800781 414.398438 556.800781 417.601562ZM510.398438 382.800781C510.398438 386.003906 507.804688 388.601562 504.601562 388.601562 501.398438 388.601562 498.800781 386.003906 498.800781 382.800781 498.800781 379.597656 501.398438 377 504.601562 377 507.804688 377 510.398438 379.597656 510.398438 382.800781ZM23.199219 423.398438C23.199219 426.601562 20.601562 429.199219 17.398438 429.199219 14.195312 429.199219 11.601562 426.601562 11.601562 423.398438 11.601562 420.195312 14.195312 417.601562 17.398438 417.601562 20.601562 417.601562 23.199219 420.195312 23.199219 423.398438ZM23.199219 284.199219C23.199219 287.402344 20.601562 290 17.398438 290 14.195312 290 11.601562 287.402344 11.601562 284.199219 11.601562 280.996094 14.195312 278.398438 17.398438 278.398438 20.601562 278.398438 23.199219 280.996094 23.199219 284.199219ZM533.601562 185.601562C533.601562 188.804688 531.003906 191.398438 527.800781 191.398438 524.597656 191.398438 522 188.804688 522 185.601562 522 182.398438 524.597656 179.800781 527.800781 179.800781 531.003906 179.800781 533.601562 182.398438 533.601562 185.601562ZM133.398438 342.199219C133.398438 345.402344 130.804688 348 127.601562 348 124.398438 348 121.800781 345.402344 121.800781 342.199219 121.800781 338.996094 124.398438 336.398438 127.601562 336.398438 130.804688 336.398438 133.398438 338.996094 133.398438 342.199219ZM69.601562 394.398438C69.601562 397.601562 67.003906 400.199219 63.800781 400.199219 60.597656 400.199219 58 397.601562 58 394.398438 58 391.195312 60.597656 388.601562 63.800781 388.601562 67.003906 388.601562 69.601562 391.195312 69.601562 394.398438ZM46.398438 469.800781C46.398438 473.003906 43.804688 475.601562 40.601562 475.601562 37.398438 475.601562 34.800781 473.003906 34.800781 469.800781 34.800781 466.597656 37.398438 464 40.601562 464 43.804688 464 46.398438 466.597656 46.398438 469.800781ZM145 551C145 554.203125 142.402344 556.800781 139.199219 556.800781 135.996094 556.800781 133.398438 554.203125 133.398438 551 133.398438 547.796875 135.996094 545.199219 139.199219 545.199219 142.402344 545.199219 145 547.796875 145 551ZM336.398438 545.199219C336.398438 548.402344 333.804688 551 330.601562 551 327.398438 551 324.800781 548.402344 324.800781 545.199219 324.800781 541.996094 327.398438 539.398438 330.601562 539.398438 333.804688 539.398438 336.398438 541.996094 336.398438 545.199219ZM272.601562 551C272.601562 554.203125 270.003906 556.800781 266.800781 556.800781 263.597656 556.800781 261 554.203125 261 551 261 547.796875 263.597656 545.199219 266.800781 545.199219 270.003906 545.199219 272.601562 547.796875 272.601562 551ZM203 551C203 554.203125 200.402344 556.800781 197.199219 556.800781 193.996094 556.800781 191.398438 554.203125 191.398438 551 191.398438 547.796875 193.996094 545.199219 197.199219 545.199219 200.402344 545.199219 203 547.796875 203 551ZM562.601562 539.398438C562.601562 542.601562 560.003906 545.199219 556.800781 545.199219 553.597656 545.199219 551 542.601562 551 539.398438 551 536.195312 553.597656 533.601562 556.800781 533.601562 560.003906 533.601562 562.601562 536.195312 562.601562 539.398438ZM435 493C435 496.203125 432.402344 498.800781 429.199219 498.800781 425.996094 498.800781 423.398438 496.203125 423.398438 493 423.398438 489.796875 425.996094 487.199219 429.199219 487.199219 432.402344 487.199219 435 489.796875 435 493ZM516.199219 435C516.199219 438.203125 513.601562 440.800781 510.398438 440.800781 507.195312 440.800781 504.601562 438.203125 504.601562 435 504.601562 431.796875 507.195312 429.199219 510.398438 429.199219 513.601562 429.199219 516.199219 431.796875 516.199219 435ZM110.199219 458.199219C110.199219 461.402344 107.601562 464 104.398438 464 101.195312 464 98.601562 461.402344 98.601562 458.199219 98.601562 454.996094 101.195312 452.398438 104.398438 452.398438 107.601562 452.398438 110.199219 454.996094 110.199219 458.199219ZM75.398438 435C75.398438 438.203125 72.804688 440.800781 69.601562 440.800781 66.398438 440.800781 63.800781 438.203125 63.800781 435 63.800781 431.796875 66.398438 429.199219 69.601562 429.199219 72.804688 429.199219 75.398438 431.796875 75.398438 435ZM127.601562 382.800781C127.601562 386.003906 125.003906 388.601562 121.800781 388.601562 118.597656 388.601562 116 386.003906 116 382.800781 116 379.597656 118.597656 377 121.800781 377 125.003906 377 127.601562 379.597656 127.601562 382.800781ZM116 423.398438C116 426.601562 113.402344 429.199219 110.199219 429.199219 106.996094 429.199219 104.398438 426.601562 104.398438 423.398438 104.398438 420.195312 106.996094 417.601562 110.199219 417.601562 113.402344 417.601562 116 420.195312 116 423.398438ZM23.199219 232C23.199219 235.203125 20.601562 237.800781 17.398438 237.800781 14.195312 237.800781 11.601562 235.203125 11.601562 232 11.601562 228.796875 14.195312 226.199219 17.398438 226.199219 20.601562 226.199219 23.199219 228.796875 23.199219 232ZM464 168.199219C464 171.402344 461.402344 174 458.199219 174 454.996094 174 452.398438 171.402344 452.398438 168.199219 452.398438 164.996094 454.996094 162.398438 458.199219 162.398438 461.402344 162.398438 464 164.996094 464 168.199219ZM100.277344 138.8125C100.277344 142.015625 97.679688 144.613281 94.476562 144.613281 91.273438 144.613281 88.675781 142.015625 88.675781 138.8125 88.675781 135.609375 91.273438 133.011719 94.476562 133.011719 97.679688 133.011719 100.277344 135.609375 100.277344 138.8125ZM435 121.800781C435 125.003906 432.402344 127.601562 429.199219 127.601562 425.996094 127.601562 423.398438 125.003906 423.398438 121.800781 423.398438 118.597656 425.996094 116 429.199219 116 432.402344 116 435 118.597656 435 121.800781ZM359.601562 92.800781C359.601562 96.003906 357.003906 98.601562 353.800781 98.601562 350.597656 98.601562 348 96.003906 348 92.800781 348 89.597656 350.597656 87 353.800781 87 357.003906 87 359.601562 89.597656 359.601562 92.800781ZM23.199219 133.398438C23.199219 136.601562 20.601562 139.199219 17.398438 139.199219 14.195312 139.199219 11.601562 136.601562 11.601562 133.398438 11.601562 130.195312 14.195312 127.601562 17.398438 127.601562 20.601562 127.601562 23.199219 130.195312 23.199219 133.398438ZM17.398438 191.398438C17.398438 194.601562 14.804688 197.199219 11.601562 197.199219 8.398438 197.199219 5.800781 194.601562 5.800781 191.398438 5.800781 188.195312 8.398438 185.601562 11.601562 185.601562 14.804688 185.601562 17.398438 188.195312 17.398438 191.398438ZM551 156.601562C551 159.804688 548.402344 162.398438 545.199219 162.398438 541.996094 162.398438 539.398438 159.804688 539.398438 156.601562 539.398438 153.398438 541.996094 150.800781 545.199219 150.800781 548.402344 150.800781 551 153.398438 551 156.601562ZM510.398438 133.398438C510.398438 136.601562 507.804688 139.199219 504.601562 139.199219 501.398438 139.199219 498.800781 136.601562 498.800781 133.398438 498.800781 130.195312 501.398438 127.601562 504.601562 127.601562 507.804688 127.601562 510.398438 130.195312 510.398438 133.398438ZM284.199219 156.601562C284.199219 159.804688 281.601562 162.398438 278.398438 162.398438 275.195312 162.398438 272.601562 159.804688 272.601562 156.601562 272.601562 153.398438 275.195312 150.800781 278.398438 150.800781 281.601562 150.800781 284.199219 153.398438 284.199219 156.601562ZM220.398438 156.601562C220.398438 159.804688 217.804688 162.398438 214.601562 162.398438 211.398438 162.398438 208.800781 159.804688 208.800781 156.601562 208.800781 153.398438 211.398438 150.800781 214.601562 150.800781 217.804688 150.800781 220.398438 153.398438 220.398438 156.601562ZM464 87C464 90.203125 461.402344 92.800781 458.199219 92.800781 454.996094 92.800781 452.398438 90.203125 452.398438 87 452.398438 83.796875 454.996094 81.199219 458.199219 81.199219 461.402344 81.199219 464 83.796875 464 87ZM11.601562 94.476562C11.601562 97.679688 9.003906 100.277344 5.800781 100.277344 2.597656 100.277344 0 97.679688 0 94.476562 0 91.273438 2.597656 88.675781 5.800781 88.675781 9.003906 88.675781 11.601562 91.273438 11.601562 94.476562ZM104.398438 46.398438C104.398438 49.601562 101.804688 52.199219 98.601562 52.199219 95.398438 52.199219 92.800781 49.601562 92.800781 46.398438 92.800781 43.195312 95.398438 40.601562 98.601562 40.601562 101.804688 40.601562 104.398438 43.195312 104.398438 46.398438ZM100.277344 5.800781C100.277344 9.003906 97.679688 11.601562 94.476562 11.601562 91.273438 11.601562 88.675781 9.003906 88.675781 5.800781 88.675781 2.597656 91.273438 0 94.476562 0 97.679688 0 100.277344 2.597656 100.277344 5.800781ZM139.199219 11.601562C139.199219 14.804688 136.601562 17.398438 133.398438 17.398438 130.195312 17.398438 127.601562 14.804688 127.601562 11.601562 127.601562 8.398438 130.195312 5.800781 133.398438 5.800781 136.601562 5.800781 139.199219 8.398438 139.199219 11.601562ZM188.949219 5.800781C188.949219 9.003906 186.355469 11.601562 183.152344 11.601562 179.949219 11.601562 177.351562 9.003906 177.351562 5.800781 177.351562 2.597656 179.949219 0 183.152344 0 186.355469 0 188.949219 2.597656 188.949219 5.800781ZM220.398438 23.199219C220.398438 26.402344 217.804688 29 214.601562 29 211.398438 29 208.800781 26.402344 208.800781 23.199219 208.800781 19.996094 211.398438 17.398438 214.601562 17.398438 217.804688 17.398438 220.398438 19.996094 220.398438 23.199219ZM284.199219 29C284.199219 32.203125 281.601562 34.800781 278.398438 34.800781 275.195312 34.800781 272.601562 32.203125 272.601562 29 272.601562 25.796875 275.195312 23.199219 278.398438 23.199219 281.601562 23.199219 284.199219 25.796875 284.199219 29ZM336.398438 11.601562C336.398438 14.804688 333.804688 17.398438 330.601562 17.398438 327.398438 17.398438 324.800781 14.804688 324.800781 11.601562 324.800781 8.398438 327.398438 5.800781 330.601562 5.800781 333.804688 5.800781 336.398438 8.398438 336.398438 11.601562ZM382.800781 11.601562C382.800781 14.804688 380.203125 17.398438 377 17.398438 373.796875 17.398438 371.199219 14.804688 371.199219 11.601562 371.199219 8.398438 373.796875 5.800781 377 5.800781 380.203125 5.800781 382.800781 8.398438 382.800781 11.601562ZM423.398438 17.398438C423.398438 20.601562 420.804688 23.199219 417.601562 23.199219 414.398438 23.199219 411.800781 20.601562 411.800781 17.398438 411.800781 14.195312 414.398438 11.601562 417.601562 11.601562 420.804688 11.601562 423.398438 14.195312 423.398438 17.398438ZM454.976562 5.800781C454.976562 9.003906 452.382812 11.601562 449.179688 11.601562 445.972656 11.601562 443.378906 9.003906 443.378906 5.800781 443.378906 2.597656 445.972656 0 449.179688 0 452.382812 0 454.976562 2.597656 454.976562 5.800781ZM499.316406 5.800781C499.316406 9.003906 496.71875 11.601562 493.515625 11.601562 490.3125 11.601562 487.714844 9.003906 487.714844 5.800781 487.714844 2.597656 490.3125 0 493.515625 0 496.71875 0 499.316406 2.597656 499.316406 5.800781ZM551 17.398438C551 20.601562 548.402344 23.199219 545.199219 23.199219 541.996094 23.199219 539.398438 20.601562 539.398438 17.398438 539.398438 14.195312 541.996094 11.601562 545.199219 11.601562 548.402344 11.601562 551 14.195312 551 17.398438ZM284.199219 63.800781C284.199219 67.003906 281.601562 69.601562 278.398438 69.601562 275.195312 69.601562 272.601562 67.003906 272.601562 63.800781 272.601562 60.597656 275.195312 58 278.398438 58 281.601562 58 284.199219 60.597656 284.199219 63.800781ZM516.199219 40.601562C516.199219 43.804688 513.601562 46.398438 510.398438 46.398438 507.195312 46.398438 504.601562 43.804688 504.601562 40.601562 504.601562 37.398438 507.195312 34.800781 510.398438 34.800781 513.601562 34.800781 516.199219 37.398438 516.199219 40.601562ZM556.800781 69.601562C556.800781 72.804688 554.203125 75.398438 551 75.398438 547.796875 75.398438 545.199219 72.804688 545.199219 69.601562 545.199219 66.398438 547.796875 63.800781 551 63.800781 554.203125 63.800781 556.800781 66.398438 556.800781 69.601562ZM69.601562 156.601562C69.601562 159.804688 67.003906 162.398438 63.800781 162.398438 60.597656 162.398438 58 159.804688 58 156.601562 58 153.398438 60.597656 150.800781 63.800781 150.800781 67.003906 150.800781 69.601562 153.398438 69.601562 156.601562ZM110.199219 191.398438C110.199219 194.601562 107.601562 197.199219 104.398438 197.199219 101.195312 197.199219 98.601562 194.601562 98.601562 191.398438 98.601562 188.195312 101.195312 185.601562 104.398438 185.601562 107.601562 185.601562 110.199219 188.195312 110.199219 191.398438ZM46.398438 214.601562C46.398438 217.804688 43.804688 220.398438 40.601562 220.398438 37.398438 220.398438 34.800781 217.804688 34.800781 214.601562 34.800781 211.398438 37.398438 208.800781 40.601562 208.800781 43.804688 208.800781 46.398438 211.398438 46.398438 214.601562ZM493 249.398438C493 252.601562 490.402344 255.199219 487.199219 255.199219 483.996094 255.199219 481.398438 252.601562 481.398438 249.398438 481.398438 246.195312 483.996094 243.601562 487.199219 243.601562 490.402344 243.601562 493 246.195312 493 249.398438ZM243.601562 423.398438C243.601562 426.601562 241.003906 429.199219 237.800781 429.199219 234.597656 429.199219 232 426.601562 232 423.398438 232 420.195312 234.597656 417.601562 237.800781 417.601562 241.003906 417.601562 243.601562 420.195312 243.601562 423.398438ZM23.199219 551C23.199219 554.203125 20.601562 556.800781 17.398438 556.800781 14.195312 556.800781 11.601562 554.203125 11.601562 551 11.601562 547.796875 14.195312 545.199219 17.398438 545.199219 20.601562 545.199219 23.199219 547.796875 23.199219 551ZM452.398438 556.800781C452.398438 560.003906 449.804688 562.601562 446.601562 562.601562 443.398438 562.601562 440.800781 560.003906 440.800781 556.800781 440.800781 553.597656 443.398438 551 446.601562 551 449.804688 551 452.398438 553.597656 452.398438 556.800781ZM498.800781 545.199219C498.800781 548.402344 496.203125 551 493 551 489.796875 551 487.199219 548.402344 487.199219 545.199219 487.199219 541.996094 489.796875 539.398438 493 539.398438 496.203125 539.398438 498.800781 541.996094 498.800781 545.199219ZM255.199219 400.199219C255.199219 403.402344 252.601562 406 249.398438 406 246.195312 406 243.601562 403.402344 243.601562 400.199219 243.601562 396.996094 246.195312 394.398438 249.398438 394.398438 252.601562 394.398438 255.199219 396.996094 255.199219 400.199219ZM23.199219 40.601562C23.199219 43.804688 20.601562 46.398438 17.398438 46.398438 14.195312 46.398438 11.601562 43.804688 11.601562 40.601562 11.601562 37.398438 14.195312 34.800781 17.398438 34.800781 20.601562 34.800781 23.199219 37.398438 23.199219 40.601562ZM58 17.398438C58 20.601562 55.402344 23.199219 52.199219 23.199219 48.996094 23.199219 46.398438 20.601562 46.398438 17.398438 46.398438 14.195312 48.996094 11.601562 52.199219 11.601562 55.402344 11.601562 58 14.195312 58 17.398438ZM319 63.800781C319 67.003906 316.402344 69.601562 313.199219 69.601562 309.996094 69.601562 307.398438 67.003906 307.398438 63.800781 307.398438 60.597656 309.996094 58 313.199219 58 316.402344 58 319 60.597656 319 63.800781ZM214.601562 110.199219C214.601562 113.402344 212.003906 116 208.800781 116 205.597656 116 203 113.402344 203 110.199219 203 106.996094 205.597656 104.398438 208.800781 104.398438 212.003906 104.398438 214.601562 106.996094 214.601562 110.199219ZM162.398438 116C162.398438 119.203125 159.804688 121.800781 156.601562 121.800781 153.398438 121.800781 150.800781 119.203125 150.800781 116 150.800781 112.796875 153.398438 110.199219 156.601562 110.199219 159.804688 110.199219 162.398438 112.796875 162.398438 116ZM174 197.199219C174 200.402344 171.402344 203 168.199219 203 164.996094 203 162.398438 200.402344 162.398438 197.199219 162.398438 193.996094 164.996094 191.398438 168.199219 191.398438 171.402344 191.398438 174 193.996094 174 197.199219ZM92.800781 232C92.800781 235.203125 90.203125 237.800781 87 237.800781 83.796875 237.800781 81.199219 235.203125 81.199219 232 81.199219 228.796875 83.796875 226.199219 87 226.199219 90.203125 226.199219 92.800781 228.796875 92.800781 232ZM551 237.800781C551 241.003906 548.402344 243.601562 545.199219 243.601562 541.996094 243.601562 539.398438 241.003906 539.398438 237.800781 539.398438 234.597656 541.996094 232 545.199219 232 548.402344 232 551 234.597656 551 237.800781ZM481.398438 319C481.398438 322.203125 478.804688 324.800781 475.601562 324.800781 472.398438 324.800781 469.800781 322.203125 469.800781 319 469.800781 315.796875 472.398438 313.199219 475.601562 313.199219 478.804688 313.199219 481.398438 315.796875 481.398438 319ZM168.199219 435C168.199219 438.203125 165.601562 440.800781 162.398438 440.800781 159.195312 440.800781 156.601562 438.203125 156.601562 435 156.601562 431.796875 159.195312 429.199219 162.398438 429.199219 165.601562 429.199219 168.199219 431.796875 168.199219 435ZM81.199219 487.199219C81.199219 490.402344 78.601562 493 75.398438 493 72.195312 493 69.601562 490.402344 69.601562 487.199219 69.601562 483.996094 72.195312 481.398438 75.398438 481.398438 78.601562 481.398438 81.199219 483.996094 81.199219 487.199219ZM75.398438 527.800781C75.398438 531.003906 72.804688 533.601562 69.601562 533.601562 66.398438 533.601562 63.800781 531.003906 63.800781 527.800781 63.800781 524.597656 66.398438 522 69.601562 522 72.804688 522 75.398438 524.597656 75.398438 527.800781ZM533.601562 493C533.601562 496.203125 531.003906 498.800781 527.800781 498.800781 524.597656 498.800781 522 496.203125 522 493 522 489.796875 524.597656 487.199219 527.800781 487.199219 531.003906 487.199219 533.601562 489.796875 533.601562 493ZM336.398438 440.800781C336.398438 444.003906 333.804688 446.601562 330.601562 446.601562 327.398438 446.601562 324.800781 444.003906 324.800781 440.800781 324.800781 437.597656 327.398438 435 330.601562 435 333.804688 435 336.398438 437.597656 336.398438 440.800781ZM278.398438 458.199219C278.398438 461.402344 275.804688 464 272.601562 464 269.398438 464 266.800781 461.402344 266.800781 458.199219 266.800781 454.996094 269.398438 452.398438 272.601562 452.398438 275.804688 452.398438 278.398438 454.996094 278.398438 458.199219ZM464 400.199219C464 403.402344 461.402344 406 458.199219 406 454.996094 406 452.398438 403.402344 452.398438 400.199219 452.398438 396.996094 454.996094 394.398438 458.199219 394.398438 461.402344 394.398438 464 396.996094 464 400.199219ZM261 110.199219C261 113.402344 258.402344 116 255.199219 116 251.996094 116 249.398438 113.402344 249.398438 110.199219 249.398438 106.996094 251.996094 104.398438 255.199219 104.398438 258.402344 104.398438 261 106.996094 261 110.199219ZM58 69.601562C58 72.804688 55.402344 75.398438 52.199219 75.398438 48.996094 75.398438 46.398438 72.804688 46.398438 69.601562 46.398438 66.398438 48.996094 63.800781 52.199219 63.800781 55.402344 63.800781 58 66.398438 58 69.601562ZM11.601562 5.800781C11.601562 9.003906 9.003906 11.601562 5.800781 11.601562 2.597656 11.601562 0 9.003906 0 5.800781 0 2.597656 2.597656 0 5.800781 0 9.003906 0 11.601562 2.597656 11.601562 5.800781ZM377 40.601562C377 43.804688 374.402344 46.398438 371.199219 46.398438 367.996094 46.398438 365.398438 43.804688 365.398438 40.601562 365.398438 37.398438 367.996094 34.800781 371.199219 34.800781 374.402344 34.800781 377 37.398438 377 40.601562ZM406 156.601562C406 159.804688 403.402344 162.398438 400.199219 162.398438 396.996094 162.398438 394.398438 159.804688 394.398438 156.601562 394.398438 153.398438 396.996094 150.800781 400.199219 150.800781 403.402344 150.800781 406 153.398438 406 156.601562ZM366.300781 138.8125C366.300781 142.015625 363.707031 144.613281 360.503906 144.613281 357.300781 144.613281 354.703125 142.015625 354.703125 138.8125 354.703125 135.609375 357.300781 133.011719 360.503906 133.011719 363.707031 133.011719 366.300781 135.609375 366.300781 138.8125ZM330.601562 133.398438C330.601562 136.601562 328.003906 139.199219 324.800781 139.199219 321.597656 139.199219 319 136.601562 319 133.398438 319 130.195312 321.597656 127.601562 324.800781 127.601562 328.003906 127.601562 330.601562 130.195312 330.601562 133.398438ZM23.199219 319C23.199219 322.203125 20.601562 324.800781 17.398438 324.800781 14.195312 324.800781 11.601562 322.203125 11.601562 319 11.601562 315.796875 14.195312 313.199219 17.398438 313.199219 20.601562 313.199219 23.199219 315.796875 23.199219 319ZM522 284.199219C522 287.402344 519.402344 290 516.199219 290 512.996094 290 510.398438 287.402344 510.398438 284.199219 510.398438 280.996094 512.996094 278.398438 516.199219 278.398438 519.402344 278.398438 522 280.996094 522 284.199219ZM156.601562 307.398438C156.601562 310.601562 154.003906 313.199219 150.800781 313.199219 147.597656 313.199219 145 310.601562 145 307.398438 145 304.195312 147.597656 301.601562 150.800781 301.601562 154.003906 301.601562 156.601562 304.195312 156.601562 307.398438ZM100.277344 316.164062C100.277344 319.367188 97.679688 321.964844 94.476562 321.964844 91.273438 321.964844 88.675781 319.367188 88.675781 316.164062 88.675781 312.960938 91.273438 310.363281 94.476562 310.363281 97.679688 310.363281 100.277344 312.960938 100.277344 316.164062ZM556.800781 301.601562C556.800781 304.804688 554.203125 307.398438 551 307.398438 547.796875 307.398438 545.199219 304.804688 545.199219 301.601562 545.199219 298.398438 547.796875 295.800781 551 295.800781 554.203125 295.800781 556.800781 298.398438 556.800781 301.601562ZM556.800781 365.398438C556.800781 368.601562 554.203125 371.199219 551 371.199219 547.796875 371.199219 545.199219 368.601562 545.199219 365.398438 545.199219 362.195312 547.796875 359.601562 551 359.601562 554.203125 359.601562 556.800781 362.195312 556.800781 365.398438ZM522 336.398438C522 339.601562 519.402344 342.199219 516.199219 342.199219 512.996094 342.199219 510.398438 339.601562 510.398438 336.398438 510.398438 333.195312 512.996094 330.601562 516.199219 330.601562 519.402344 330.601562 522 333.195312 522 336.398438ZM307.398438 411.800781C307.398438 415.003906 304.804688 417.601562 301.601562 417.601562 298.398438 417.601562 295.800781 415.003906 295.800781 411.800781 295.800781 408.597656 298.398438 406 301.601562 406 304.804688 406 307.398438 408.597656 307.398438 411.800781ZM417.601562 400.199219C417.601562 403.402344 415.003906 406 411.800781 406 408.597656 406 406 403.402344 406 400.199219 406 396.996094 408.597656 394.398438 411.800781 394.398438 415.003906 394.398438 417.601562 396.996094 417.601562 400.199219ZM220.398438 452.398438C220.398438 455.601562 217.804688 458.199219 214.601562 458.199219 211.398438 458.199219 208.800781 455.601562 208.800781 452.398438 208.800781 449.195312 211.398438 446.601562 214.601562 446.601562 217.804688 446.601562 220.398438 449.195312 220.398438 452.398438ZM481.398438 504.601562C481.398438 507.804688 478.804688 510.398438 475.601562 510.398438 472.398438 510.398438 469.800781 507.804688 469.800781 504.601562 469.800781 501.398438 472.398438 498.800781 475.601562 498.800781 478.804688 498.800781 481.398438 501.398438 481.398438 504.601562ZM371.199219 475.601562C371.199219 478.804688 368.601562 481.398438 365.398438 481.398438 362.195312 481.398438 359.601562 478.804688 359.601562 475.601562 359.601562 472.398438 362.195312 469.800781 365.398438 469.800781 368.601562 469.800781 371.199219 472.398438 371.199219 475.601562ZM400.199219 516.199219C400.199219 519.402344 397.601562 522 394.398438 522 391.195312 522 388.601562 519.402344 388.601562 516.199219 388.601562 512.996094 391.195312 510.398438 394.398438 510.398438 397.601562 510.398438 400.199219 512.996094 400.199219 516.199219ZM321.964844 493.515625C321.964844 496.71875 319.367188 499.316406 316.164062 499.316406 312.960938 499.316406 310.363281 496.71875 310.363281 493.515625 310.363281 490.3125 312.960938 487.714844 316.164062 487.714844 319.367188 487.714844 321.964844 490.3125 321.964844 493.515625ZM290 504.601562C290 507.804688 287.402344 510.398438 284.199219 510.398438 280.996094 510.398438 278.398438 507.804688 278.398438 504.601562 278.398438 501.398438 280.996094 498.800781 284.199219 498.800781 287.402344 498.800781 290 501.398438 290 504.601562ZM243.601562 487.199219C243.601562 490.402344 241.003906 493 237.800781 493 234.597656 493 232 490.402344 232 487.199219 232 483.996094 234.597656 481.398438 237.800781 481.398438 241.003906 481.398438 243.601562 483.996094 243.601562 487.199219ZM179.800781 493C179.800781 496.203125 177.203125 498.800781 174 498.800781 170.796875 498.800781 168.199219 496.203125 168.199219 493 168.199219 489.796875 170.796875 487.199219 174 487.199219 177.203125 487.199219 179.800781 489.796875 179.800781 493ZM127.601562 516.199219C127.601562 519.402344 125.003906 522 121.800781 522 118.597656 522 116 519.402344 116 516.199219 116 512.996094 118.597656 510.398438 121.800781 510.398438 125.003906 510.398438 127.601562 512.996094 127.601562 516.199219ZM264.503906 328.589844C264.503906 336.597656 258.015625 343.089844 250.003906 343.089844 241.996094 343.089844 235.503906 336.597656 235.503906 328.589844 235.503906 320.582031 241.996094 314.089844 250.003906 314.089844 258.015625 314.089844 264.503906 320.582031 264.503906 328.589844ZM247.652344 287.859375C247.652344 295.867188 241.160156 302.359375 233.152344 302.359375 225.144531 302.359375 218.652344 295.867188 218.652344 287.859375 218.652344 279.851562 225.144531 273.359375 233.152344 273.359375 241.160156 273.359375 247.652344 279.851562 247.652344 287.859375ZM254.675781 238.699219C254.675781 246.707031 248.183594 253.199219 240.175781 253.199219 232.167969 253.199219 225.675781 246.707031 225.675781 238.699219 225.675781 230.691406 232.167969 224.199219 240.175781 224.199219 248.183594 224.199219 254.675781 230.691406 254.675781 238.699219ZM305.238281 235.890625C305.238281 243.898438 298.746094 250.390625 290.738281 250.390625 282.730469 250.390625 276.238281 243.898438 276.238281 235.890625 276.238281 227.882812 282.730469 221.390625 290.738281 221.390625 298.746094 221.390625 305.238281 227.882812 305.238281 235.890625ZM357.203125 234.488281C357.203125 242.496094 350.710938 248.988281 342.703125 248.988281 334.695312 248.988281 328.203125 242.496094 328.203125 234.488281 328.203125 226.476562 334.695312 219.988281 342.703125 219.988281 350.710938 219.988281 357.203125 226.476562 357.203125 234.488281ZM316.472656 328.589844C316.472656 336.597656 309.980469 343.089844 301.972656 343.089844 293.964844 343.089844 287.472656 336.597656 287.472656 328.589844 287.472656 320.582031 293.964844 314.089844 301.972656 314.089844 309.980469 314.089844 316.472656 320.582031 316.472656 328.589844ZM206.921875 321.566406C206.921875 329.574219 200.429688 336.066406 192.421875 336.066406 184.414062 336.066406 177.921875 329.574219 177.921875 321.566406 177.921875 313.558594 184.414062 307.066406 192.421875 307.066406 200.429688 307.066406 206.921875 313.558594 206.921875 321.566406ZM292.503906 285.050781C292.503906 291.457031 287.3125 296.648438 280.90625 296.648438 274.5 296.648438 269.304688 291.457031 269.304688 285.050781 269.304688 278.644531 274.5 273.449219 280.90625 273.449219 287.3125 273.449219 292.503906 278.644531 292.503906 285.050781ZM196.996094 271.003906C196.996094 277.410156 191.804688 282.605469 185.398438 282.605469 178.992188 282.605469 173.796875 277.410156 173.796875 271.003906 173.796875 264.597656 178.992188 259.402344 185.398438 259.402344 191.804688 259.402344 196.996094 264.597656 196.996094 271.003906ZM201.210938 213.417969C201.210938 219.824219 196.019531 225.019531 189.609375 225.019531 183.203125 225.019531 178.011719 219.824219 178.011719 213.417969 178.011719 207.011719 183.203125 201.820312 189.609375 201.820312 196.019531 201.820312 201.210938 207.011719 201.210938 213.417969ZM257.390625 189.542969C257.390625 195.949219 252.199219 201.140625 245.792969 201.140625 239.386719 201.140625 234.191406 195.949219 234.191406 189.542969 234.191406 183.136719 239.386719 177.941406 245.792969 177.941406 252.199219 177.941406 257.390625 183.136719 257.390625 189.542969ZM331.832031 188.136719C331.832031 194.542969 326.640625 199.738281 320.230469 199.738281 313.824219 199.738281 308.632812 194.542969 308.632812 188.136719 308.632812 181.730469 313.824219 176.535156 320.230469 176.535156 326.640625 176.535156 331.832031 181.730469 331.832031 188.136719ZM399.25 242.914062C399.25 249.320312 394.054688 254.511719 387.648438 254.511719 381.242188 254.511719 376.050781 249.320312 376.050781 242.914062 376.050781 236.507812 381.242188 231.3125 387.648438 231.3125 394.054688 231.3125 399.25 236.507812 399.25 242.914062ZM399.25 286.453125C399.25 292.859375 394.054688 298.054688 387.648438 298.054688 381.242188 298.054688 376.050781 292.859375 376.050781 286.453125 376.050781 280.046875 381.242188 274.855469 387.648438 274.855469 394.054688 274.855469 399.25 280.046875 399.25 286.453125ZM348.6875 280.835938C348.6875 287.242188 343.492188 292.4375 337.085938 292.4375 330.679688 292.4375 325.488281 287.242188 325.488281 280.835938 325.488281 274.429688 330.679688 269.234375 337.085938 269.234375 343.492188 269.234375 348.6875 274.429688 348.6875 280.835938ZM368.351562 325.78125C368.351562 332.1875 363.15625 337.378906 356.75 337.378906 350.34375 337.378906 345.148438 332.1875 345.148438 325.78125 345.148438 319.375 350.34375 314.179688 356.75 314.179688 363.15625 314.179688 368.351562 319.375 368.351562 325.78125ZM344.472656 367.917969C344.472656 374.324219 339.28125 379.515625 332.871094 379.515625 326.464844 379.515625 321.273438 374.324219 321.273438 367.917969 321.273438 361.511719 326.464844 356.316406 332.871094 356.316406 339.28125 356.316406 344.472656 361.511719 344.472656 367.917969ZM288.292969 374.9375C288.292969 381.34375 283.097656 386.539062 276.691406 386.539062 270.285156 386.539062 265.09375 381.34375 265.09375 374.9375 265.09375 368.53125 270.285156 363.339844 276.691406 363.339844 283.097656 363.339844 288.292969 368.53125 288.292969 374.9375ZM229.300781 367.917969C229.300781 374.324219 224.109375 379.515625 217.703125 379.515625 211.296875 379.515625 206.101562 374.324219 206.101562 367.917969 206.101562 361.511719 211.296875 356.316406 217.703125 356.316406 224.109375 356.316406 229.300781 361.511719 229.300781 367.917969ZM413.292969 335.613281C413.292969 342.019531 408.101562 347.210938 401.695312 347.210938 395.289062 347.210938 390.09375 342.019531 390.09375 335.613281 390.09375 329.207031 395.289062 324.011719 401.695312 324.011719 408.101562 324.011719 413.292969 329.207031 413.292969 335.613281ZM448.40625 280.835938C448.40625 287.242188 443.214844 292.4375 436.808594 292.4375 430.402344 292.4375 425.207031 287.242188 425.207031 280.835938 425.207031 274.429688 430.402344 269.234375 436.808594 269.234375 443.214844 269.234375 448.40625 274.429688 448.40625 280.835938ZM448.40625 280.835938" stroke="param(outline)" stroke-opacity="param(outline-opacity)" stroke-width="param(outline-width)"/>
  <path fill="param(fill)" fill-opacity="param(fill-opacity)" d="M314.976562 404.433594C314.976562 410.839844 309.785156 416.035156 303.378906 416.035156 296.972656 416.035156 291.777344 410.839844 291.777344 404.433594 291.777344 398.027344 296.972656 392.835938 303.378906 392.835938 309.785156 392.835938 314.976562 398.027344 314.976562 404.433594ZM392.226562 376.34375C392.226562 382.75 387.035156 387.945312 380.625 387.945312 374.21875 387.945312 369.027344 382.75 369.027344 376.34375 369.027344 369.9375 374.21875 364.742188 380.625 364.742188 387.035156 364.742188 392.226562 369.9375 392.226562 376.34375ZM409.019531 199.625C409.019531 202.828125 406.421875 205.421875 403.21875 205.421875 400.015625 205.421875 397.417969 202.828125 397.417969 199.625 397.417969 196.421875 400.015625 193.824219 403.21875 193.824219 406.421875 193.824219 409.019531 196.421875 409.019531 199.625ZM409.019531 199.625" stroke="param(outline)" stroke-opacity="param(outline-opacity)" stroke-width="param(outline-width)"/>
</svg>
