<svg width="580" height="580">
  <path fill="param(fill)" fill-opacity="param(fill-opacity)" d="M 66.273438 1.769531 C 24.941406 1.769531 1.703125 23.140625 1.703125 66.804688 L 1.703125 516.925781 C 1.703125 557.769531 22.597656 579.152344 63.894531 579.152344 L 515.914062 579.152344 C 557.222656 579.152344 578.144531 558.839844 578.144531 516.925781 L 578.144531 66.804688 C 578.144531 24.203125 557.222656 1.769531 514.625 1.769531 C 514.621094 1.769531 66.125 1.625 66.273438 1.769531 Z M 288.414062 28.53125 C 311.386719 29.332031 313.578125 43.359375 313.671875 66.632812 C 321.550781 67.402344 324.109375 67.636719 337.746094 70.441406 C 419.738281 87.300781 493.363281 161.269531 507.734375 244 C 510.007812 257.09375 511.230469 258.441406 519.894531 257.417969 C 531.332031 256.070312 550.0625 264.972656 553.25 273.273438 C 561.136719 293.828125 549.574219 311.488281 526.175781 314.628906 C 510.855469 316.6875 510.128906 317.351562 507.707031 331.554688 C 503.914062 353.796875 489.03125 387.855469 472.417969 412.324219 C 443.132812 455.445312 397.480469 487.535156 344.476562 502.25 L 317.1875 509.824219 L 316.011719 524.273438 C 315.363281 532.21875 312.242188 541.582031 309.078125 545.085938 C 300.980469 554.046875 277.417969 553.523438 268.066406 544.175781 C 263.296875 539.40625 260.789062 532.046875 260.789062 522.820312 L 260.789062 508.738281 L 239.683594 504.585938 C 157.765625 488.46875 85.3125 403.554688 67.730469 315.574219 C 62.371094 315.160156 59.40625 314.953125 53.742188 314.953125 C 36.019531 314.953125 24.289062 303.125 24.289062 285.265625 C 24.289062 269.027344 34.265625 259.527344 52.480469 258.433594 L 66.128906 257.609375 L 72.570312 232.613281 C 83.316406 190.90625 99.273438 163.472656 131.578125 131.152344 C 164.691406 98.027344 192.40625 81.398438 232.410156 71.484375 C 244.566406 68.472656 245.5 70.792969 259.183594 67.742188 C 260.988281 48.734375 259.34375 27.535156 288.40625 28.53125 Z M 260.789062 121.96875 L 250.785156 124.226562 C 232.550781 125.027344 194.414062 146.109375 195.300781 150.042969 C 195.855469 152.511719 257.359375 216.707031 259.808594 216.707031 C 260.347656 216.707031 260.789062 195.390625 260.789062 169.335938 Z M 317.1875 123.925781 L 316.179688 171.226562 L 315.167969 218.527344 L 349.980469 183.964844 L 384.792969 149.398438 L 360.484375 134.199219 C 346.898438 127.820312 331.285156 125.691406 326.28125 125.066406 L 317.1875 123.929688 Z M 152.636719 190.570312 L 144.878906 203.128906 C 136.160156 217.238281 130.566406 232.480469 125.765625 258.640625 C 128.167969 258.980469 132.097656 258.550781 171.644531 258.550781 C 196.660156 258.550781 217.125 257.699219 217.125 256.65625 C 217.125 255.613281 202.617188 240.316406 184.882812 222.664062 Z M 424.96875 191.238281 C 422.335938 191.238281 359.03125 254.042969 359.03125 256.65625 C 359.03125 257.699219 379.90625 258.210938 405.421875 257.796875 C 451.375 257.046875 451.804688 256.960938 450.796875 248.753906 C 450.207031 243.964844 447.390625 229.3125 441.507812 216.191406 C 435.5625 202.933594 426.542969 191.238281 424.96875 191.238281 Z M 290.019531 252.277344 C 281.503906 252.160156 272.792969 255.917969 264.769531 263.480469 C 249.105469 278.242188 252.9375 298.734375 261.832031 309.140625 C 272.03125 321.082031 288.539062 326.140625 301.71875 319.324219 C 307.976562 316.089844 318.246094 305.304688 321.277344 298.054688 C 326.109375 286.492188 323.152344 274.257812 314.082031 264.3125 C 306.847656 256.382812 298.53125 252.390625 290.019531 252.277344 Z M 125.359375 314.949219 L 127.824219 328.09375 C 130.648438 343.136719 148.371094 381.007812 151.921875 379.574219 C 153.21875 379.050781 169.453125 364.292969 187.996094 346.785156 L 221.710938 314.949219 Z M 357.367188 314.949219 L 389.964844 347.695312 C 407.890625 365.707031 423.90625 380.441406 425.554688 380.441406 C 427.203125 380.441406 436.410156 367.808594 442.105469 355.300781 C 447.800781 342.792969 450.273438 332.457031 451.515625 326.953125 L 453.777344 314.949219 Z M 257.988281 358.609375 C 256.441406 358.609375 241.34375 372.515625 224.4375 389.511719 C 207.421875 406.617188 197.8125 417.121094 194.238281 422.277344 C 198.640625 425.5 206.371094 434.191406 225.710938 442.140625 C 241.917969 448.800781 255.277344 450.710938 261.386719 451.632812 C 260.378906 444.03125 260.796875 432.628906 260.796875 404.089844 C 260.796875 379.078125 259.53125 358.609375 257.988281 358.609375 Z M 318.179688 358.609375 C 316.636719 358.609375 315.375 379.28125 315.375 404.546875 L 315.375 450.484375 L 334.800781 446.921875 C 341.304688 445.621094 357.175781 439.625 370.066406 433.597656 L 385.902344 423.832031 L 353.445312 391.21875 C 335.589844 373.285156 319.722656 358.613281 318.179688 358.613281 Z M 318.179688 358.609375 " stroke="param(outline)" stroke-opacity="param(outline-opacity)" stroke-width="param(outline-width)"/>
</svg>
