<svg width="580" height="580">
  <path fill="param(fill)" stroke-width="param(outline-width)" stroke-linecap="round" stroke="param(outline)" stroke-opacity="param(outline-opacity)" d="M -286.56996 973.749992 L -286.56996 971.624021 C -286.56996 971.102687 -285.861369 970.915416 -285.861369 970.915416 M -287.987312 973.749992 L -287.987312 971.623864 C -287.987312 971.10253 -288.696074 970.915259 -288.696074 970.915259 " transform="matrix(22.7344, 0, 0, 24.801163, 6569.332109, -24073.249888)" fill-opacity="param(fill-opacity)"/>
  <path fill="param(fill)" stroke-width="param(outline-width)" stroke-linecap="round" stroke="param(outline)" stroke-opacity="param(outline-opacity)" d="M13.464933 13.110052 13.464933 10.983923C13.464933 10.462589 14.173696 10.275318 14.173696 10.275318M12.047581 13.109894 12.047581 10.983923C12.047581 10.462589 11.338991 10.275318 11.338991 10.275318M24.436914 22.978068 24.436914 20.851939C24.436914 20.330605 25.145677 20.143334 25.145677 20.143334M23.019734 22.97791 23.019734 20.851939C23.019734 20.330605 22.310972 20.143334 22.310972 20.143334" transform="matrix(22.7344, 0, 0, 24.801163, 0, 0)" fill-opacity="param(fill-opacity)"/>
</svg>
