<svg xmlns="http://www.w3.org/2000/svg" width="580" height="580">
  <path fill="param(fill)" stroke-width="param(outline-width)" stroke-linecap="round" stroke="param(outline)" stroke-opacity="param(outline-opacity)" d="M -286.56996 973.749992 L -286.56996 971.624021 C -286.56996 971.102687 -285.861369 970.915416 -285.861369 970.915416 M -287.987312 973.749992 L -287.987312 971.623864 C -287.987312 971.10253 -288.696074 970.915259 -288.696074 970.915259 " transform="matrix(22.7344 0 0 24.80116 6569.332 -24073.25)" fill-opacity="param(fill-opacity)"/>
  <path fill="param(fill)" stroke-width="param(outline-width)" stroke-linecap="round" stroke="param(outline)" stroke-opacity="param(outline-opacity)" d="M13.465 13.11 13.465 10.984C13.465 10.463 14.174 10.275 14.174 10.275M12.048 13.11 12.048 10.984C12.048 10.463 11.339 10.275 11.339 10.275M24.437 22.978 24.437 20.852C24.437 20.331 25.146 20.143 25.146 20.143M23.02 22.978 23.02 20.852C23.02 20.331 22.311 20.143 22.311 20.143" transform="scale(22.7344 24.80116)" fill-opacity="param(fill-opacity)"/>
</svg>
