<svg width="580" height="580">
  <path fill="param(fill)" fill-opacity="param(fill-opacity)" d="M 169.167969 0 L 0 145 L 169.167969 290 L 169.167969 193.332031 L 410.832031 193.332031 L 410.832031 290 L 580 145 L 410.832031 0 L 410.832031 96.667969 L 169.167969 96.667969 Z M 96.667969 314.167969 C 70.863281 314.167969 24.539062 362.5 0 362.5 L 0 435 C 25.964844 435 73.730469 386.667969 96.667969 386.667969 C 121.039062 386.667969 167.527344 435 193.332031 435 C 216.316406 435 265.460938 386.667969 290 386.667969 C 314.371094 386.667969 363.550781 435 386.667969 435 C 411.039062 435 460.394531 386.667969 483.332031 386.667969 C 506.269531 386.667969 555.628906 435 580 435 L 580 362.5 C 559.929688 362.5 509.136719 312.734375 483.332031 314.167969 C 460.21875 314.167969 412.511719 362.5 386.667969 362.5 C 365.164062 362.5 314.371094 314.167969 290 314.167969 C 265.628906 314.167969 214.886719 362.5 193.332031 362.5 C 170.351562 362.5 122.472656 314.167969 96.667969 314.167969 Z M 96.667969 459.167969 C 70.863281 459.167969 24.539062 507.5 0 507.5 L 0 580 C 25.964844 580 73.730469 531.667969 96.667969 531.667969 C 121.039062 531.667969 167.527344 580 193.332031 580 C 216.316406 580 265.460938 531.667969 290 531.667969 C 314.371094 531.667969 363.550781 580 386.667969 580 C 411.039062 580 460.394531 531.667969 483.332031 531.667969 C 506.269531 531.667969 555.628906 580 580 580 L 580 507.5 C 559.929688 507.5 509.136719 457.734375 483.332031 459.167969 C 460.21875 459.167969 412.511719 507.5 386.667969 507.5 C 365.164062 507.5 314.371094 459.167969 290 459.167969 C 265.628906 459.167969 214.886719 507.5 193.332031 507.5 C 170.351562 507.5 122.472656 459.167969 96.667969 459.167969 Z M 96.667969 459.167969 " stroke="param(outline)" stroke-opacity="param(outline-opacity)" stroke-width="param(outline-width)"/>
</svg>
