<svg width="580" height="580">
  <path fill="param(fill)" fill-opacity="param(fill-opacity)" d="M185.984375 194.890625C185.976562 194.890625 185.964844 194.890625 185.953125 194.890625 181.667969 194.890625 178.183594 198.359375 178.167969 202.648438L177.839844 286.046875C177.820312 290.347656 181.292969 293.847656 185.59375 293.863281 185.605469 293.863281 185.613281 293.863281 185.625 293.863281 189.910156 293.863281 193.394531 290.398438 193.410156 286.105469L193.742188 202.710938C193.757812 198.410156 190.285156 194.910156 185.984375 194.890625ZM205.230469 293.1875C206.328125 293.722656 207.492188 293.976562 208.636719 293.976562 211.519531 293.976562 214.292969 292.371094 215.640625 289.601562L242.011719 235.542969C243.898438 231.679688 242.292969 227.015625 238.429688 225.128906 234.5625 223.242188 229.902344 224.851562 228.015625 228.714844L201.644531 282.773438C199.757812 286.640625 201.363281 291.304688 205.230469 293.1875ZM262.472656 247.664062 230.167969 280.625C227.160156 283.695312 227.210938 288.628906 230.28125 291.636719 231.796875 293.121094 233.761719 293.863281 235.730469 293.863281 237.75 293.863281 239.765625 293.082031 241.292969 291.527344L273.597656 258.5625C276.605469 255.492188 276.554688 250.5625 273.484375 247.550781 270.414062 244.542969 265.480469 244.59375 262.472656 247.664062ZM147.878906 226.910156C146.269531 222.921875 141.734375 220.992188 137.746094 222.601562 133.757812 224.210938 131.828125 228.746094 133.4375 232.734375L156.183594 289.105469C157.40625 292.136719 160.324219 293.980469 163.40625 293.980469 164.378906 293.980469 165.363281 293.796875 166.316406 293.410156 170.304688 291.804688 172.234375 287.265625 170.625 283.277344ZM109.847656 248.597656C106.808594 245.554688 101.878906 245.554688 98.835938 248.597656 95.796875 251.636719 95.796875 256.566406 98.835938 259.609375L130.8125 291.582031C132.332031 293.105469 134.324219 293.863281 136.316406 293.863281 138.3125 293.863281 140.304688 293.101562 141.824219 291.582031 144.863281 288.542969 144.863281 283.609375 141.824219 280.570312ZM385.984375 98.890625C385.976562 98.890625 385.964844 98.890625 385.953125 98.890625 381.667969 98.890625 378.183594 102.359375 378.167969 106.648438L377.839844 190.046875C377.820312 194.347656 381.292969 197.847656 385.59375 197.863281 385.605469 197.863281 385.613281 197.863281 385.625 197.863281 389.910156 197.863281 393.394531 194.398438 393.410156 190.105469L393.742188 106.710938C393.757812 102.410156 390.285156 98.910156 385.984375 98.890625ZM438.429688 129.132812C434.5625 127.242188 429.902344 128.851562 428.015625 132.714844L401.644531 186.777344C399.761719 190.640625 401.363281 195.300781 405.230469 197.1875 406.328125 197.722656 407.492188 197.976562 408.636719 197.976562 411.523438 197.976562 414.292969 196.367188 415.640625 193.601562L442.011719 139.542969C443.898438 135.679688 442.292969 131.015625 438.429688 129.132812ZM473.484375 151.550781C470.410156 148.539062 465.480469 148.59375 462.472656 151.664062L430.167969 184.625C427.15625 187.695312 427.207031 192.628906 430.277344 195.636719 431.792969 197.121094 433.761719 197.863281 435.726562 197.863281 437.746094 197.863281 439.765625 197.082031 441.289062 195.527344L473.59375 162.5625C476.605469 159.492188 476.554688 154.5625 473.484375 151.550781ZM356.183594 193.105469C357.40625 196.136719 360.324219 197.980469 363.40625 197.980469 364.378906 197.980469 365.363281 197.796875 366.320312 197.410156 370.304688 195.800781 372.234375 191.265625 370.625 187.277344L347.882812 130.910156C346.273438 126.921875 341.734375 124.992188 337.746094 126.601562 333.757812 128.210938 331.828125 132.746094 333.4375 136.734375ZM336.316406 197.863281C338.308594 197.863281 340.300781 197.101562 341.824219 195.582031 344.863281 192.539062 344.863281 187.609375 341.824219 184.570312L309.847656 152.59375C306.808594 149.554688 301.878906 149.554688 298.835938 152.59375 295.796875 155.636719 295.796875 160.566406 298.835938 163.605469L330.8125 195.582031C332.332031 197.101562 334.324219 197.863281 336.316406 197.863281ZM289.984375 344.894531C289.976562 344.894531 289.964844 344.890625 289.953125 344.890625 285.667969 344.890625 282.183594 348.359375 282.167969 352.648438L281.839844 436.046875C281.820312 440.347656 285.292969 443.847656 289.59375 443.863281 289.605469 443.863281 289.613281 443.863281 289.625 443.863281 293.910156 443.863281 297.394531 440.398438 297.410156 436.109375L297.742188 352.710938C297.757812 348.410156 294.285156 344.910156 289.984375 344.894531ZM342.429688 375.132812C338.558594 373.246094 333.898438 374.851562 332.015625 378.714844L305.644531 432.777344C303.761719 436.640625 305.363281 441.304688 309.230469 443.1875 310.328125 443.722656 311.492188 443.976562 312.636719 443.976562 315.523438 443.976562 318.292969 442.371094 319.640625 439.605469L346.011719 385.542969C347.898438 381.679688 346.292969 377.015625 342.429688 375.132812ZM366.472656 397.664062 334.167969 430.628906C331.15625 433.699219 331.207031 438.628906 334.277344 441.640625 335.796875 443.125 337.761719 443.863281 339.726562 443.863281 341.746094 443.863281 343.765625 443.085938 345.289062 441.527344L377.597656 408.5625C380.605469 405.492188 380.554688 400.5625 377.484375 397.550781 374.410156 394.539062 369.480469 394.59375 366.472656 397.664062ZM251.878906 376.90625C250.269531 372.921875 245.734375 370.988281 241.746094 372.601562 237.757812 374.210938 235.828125 378.746094 237.4375 382.734375L260.183594 439.101562C261.40625 442.136719 264.324219 443.976562 267.40625 443.976562 268.378906 443.976562 269.363281 443.796875 270.316406 443.410156 274.304688 441.800781 276.234375 437.265625 274.625 433.273438ZM213.847656 398.597656C210.808594 395.554688 205.878906 395.554688 202.835938 398.597656 199.796875 401.636719 199.796875 406.566406 202.835938 409.609375L234.8125 441.585938C236.332031 443.105469 238.324219 443.863281 240.316406 443.863281 242.3125 443.863281 244.304688 443.105469 245.824219 441.585938 248.863281 438.542969 248.863281 433.613281 245.824219 430.570312ZM213.847656 398.597656" stroke="param(outline)" stroke-opacity="param(outline-opacity)" stroke-width="param(outline-width)"/>
</svg>
