<svg width="580" height="580">
  <path fill="param(fill)" fill-opacity="param(fill-opacity)" d="M 511.363281 478.765625 L 68.636719 478.765625 C 64.742188 478.765625 61.585938 481.453125 61.585938 484.765625 C 61.585938 488.078125 64.742188 490.765625 68.636719 490.765625 L 511.363281 490.765625 C 515.257812 490.765625 518.414062 488.078125 518.414062 484.765625 C 518.414062 481.453125 515.257812 478.765625 511.363281 478.765625 Z M 511.363281 478.765625 " stroke="param(outline)" stroke-opacity="param(outline-opacity)" stroke-width="param(outline-width)"/>
  <path fill="param(fill)" fill-opacity="param(fill-opacity)" d="M407.0625 487.0625C408.582031 488.582031 410.574219 489.339844 412.566406 489.339844 414.558594 489.339844 416.550781 488.582031 418.074219 487.0625 421.113281 484.019531 421.113281 479.089844 418.074219 476.046875L386.097656 444.074219C383.058594 441.03125 378.125 441.03125 375.085938 444.074219 372.042969 447.113281 372.042969 452.042969 375.085938 455.085938ZM432.433594 484.582031C433.65625 487.617188 436.574219 489.457031 439.65625 489.457031 440.625 489.457031 441.613281 489.273438 442.566406 488.890625 446.554688 487.28125 448.484375 482.742188 446.875 478.753906L424.128906 422.386719C422.519531 418.398438 417.984375 416.46875 413.996094 418.078125 410.007812 419.6875 408.078125 424.226562 409.6875 428.214844ZM506.527344 487.117188C508.042969 488.601562 510.011719 489.339844 511.976562 489.339844 513.996094 489.339844 516.011719 488.5625 517.539062 487.003906L549.84375 454.042969C552.855469 450.972656 552.804688 446.042969 549.734375 443.03125 546.660156 440.019531 541.730469 440.074219 538.722656 443.144531L506.417969 476.105469C503.40625 479.175781 503.457031 484.105469 506.527344 487.117188ZM481.476562 488.664062C482.578125 489.203125 483.742188 489.457031 484.886719 489.457031 487.769531 489.457031 490.539062 487.847656 491.890625 485.082031L518.257812 431.019531C520.144531 427.15625 518.539062 422.496094 514.675781 420.609375 510.808594 418.722656 506.148438 420.328125 504.261719 424.195312L477.894531 478.253906C476.007812 482.117188 477.613281 486.78125 481.476562 488.664062ZM461.84375 489.339844C461.855469 489.339844 461.863281 489.339844 461.875 489.339844 466.160156 489.339844 469.644531 485.875 469.660156 481.585938L469.988281 398.1875C470.007812 393.886719 466.535156 390.386719 462.234375 390.371094 462.222656 390.371094 462.214844 390.371094 462.203125 390.371094 457.917969 390.371094 454.433594 393.835938 454.417969 398.125L454.085938 481.523438C454.070312 485.824219 457.542969 489.324219 461.84375 489.339844ZM509.03125 111.65625 67.601562 111.65625C58.980469 111.65625 51.988281 114.34375 51.988281 117.65625 51.988281 120.96875 58.980469 123.65625 67.601562 123.65625L509.03125 123.65625C517.648438 123.65625 524.640625 120.96875 524.640625 117.65625 524.640625 114.34375 517.652344 111.65625 509.03125 111.65625ZM434.648438 283.890625 136.25 283.890625C130.421875 283.890625 125.695312 286.578125 125.695312 289.890625 125.695312 293.203125 130.421875 295.890625 136.25 295.890625L434.648438 295.890625C440.476562 295.890625 445.203125 293.203125 445.203125 289.890625 445.203125 286.578125 440.480469 283.890625 434.648438 283.890625ZM434.648438 283.890625" stroke="param(outline)" stroke-opacity="param(outline-opacity)" stroke-width="param(outline-width)"/>
</svg>
