<svg xmlns="http://www.w3.org/2000/svg" width="580" height="580">
  <path fill="param(fill)" fill-opacity="param(fill-opacity)" d="M 66.347656 1.339844 C 25.011719 1.339844 1.777344 22.707031 1.777344 66.371094 L 1.777344 516.492188 C 1.777344 557.335938 22.671875 578.722656 63.96875 578.722656 L 516 578.722656 C 557.304688 578.722656 578.226562 558.40625 578.226562 516.492188 L 578.226562 66.371094 C 578.226562 23.773438 557.304688 1.339844 514.707031 1.339844 C 514.707031 1.339844 66.207031 1.195312 66.355469 1.339844 Z M 113.386719 116.128906 L 209.671875 116.128906 L 209.671875 147.613281 L 113.386719 147.613281 Z M 97.339844 163.355469 L 482.476562 163.355469 C 509.757812 163.355469 530.617188 183.820312 530.617188 210.582031 L 530.617188 415.234375 C 530.617188 440.421875 509.757812 462.464844 482.476562 462.464844 L 97.339844 462.464844 C 70.058594 462.464844 49.195312 440.421875 49.195312 415.234375 L 49.195312 210.582031 C 49.195312 183.820312 70.058594 163.355469 97.339844 163.355469 Z M 217.699219 202.710938 C 155.113281 202.710938 105.367188 251.515625 105.367188 312.910156 C 105.367188 374.308594 155.113281 423.113281 217.699219 423.113281 C 280.28125 423.113281 330.027344 374.3125 330.027344 312.910156 C 330.027344 251.515625 280.28125 202.710938 217.699219 202.710938 Z M 418.289062 210.582031 C 410.265625 210.582031 402.238281 218.453125 402.238281 226.324219 C 402.238281 234.195312 410.265625 242.070312 418.289062 242.070312 L 466.429688 242.070312 C 474.453125 242.070312 482.476562 234.195312 482.476562 226.324219 C 482.476562 218.453125 474.453125 210.582031 466.429688 210.582031 Z M 217.699219 257.8125 C 248.71875 257.8125 273.863281 282.480469 273.863281 312.910156 C 273.863281 343.34375 248.71875 368.011719 217.699219 368.011719 C 186.679688 368.011719 161.53125 343.34375 161.53125 312.910156 C 161.53125 282.480469 186.679688 257.8125 217.699219 257.8125 Z M 217.699219 257.8125 " stroke="param(outline)" stroke-opacity="param(outline-opacity)" stroke-width="param(outline-width)"/>
</svg>
