<svg width="580" height="580">
  <path fill="param(fill)" fill-opacity="param(fill-opacity)" d="M518.417969 488.707031C509.636719 492.5625 500.234375 495.523438 483.285156 495.578125 472 495.578125 464.023438 494.179688 457.398438 492.199219 447.515625 489.238281 440.175781 484.503906 429.640625 479.761719 419.164062 475.046875 405.894531 471.15625 386.570312 471.210938 373.691406 471.203125 363.550781 472.855469 355.054688 475.441406 342.292969 479.34375 333.765625 484.878906 325.046875 488.707031 316.269531 492.5625 306.871094 495.523438 289.933594 495.578125 278.660156 495.578125 270.679688 494.179688 264.058594 492.199219 254.175781 489.238281 246.84375 484.503906 236.3125 479.765625 225.84375 475.050781 212.566406 471.15625 193.261719 471.210938 180.375 471.203125 170.238281 472.855469 161.746094 475.441406 148.976562 479.34375 140.457031 484.878906 131.734375 488.707031 122.953125 492.566406 113.558594 495.523438 96.621094 495.582031 85.347656 495.582031 77.378906 494.183594 70.765625 492.199219 60.902344 489.238281 53.558594 484.507812 43.039062 479.765625 32.5625 475.050781 19.308594 471.160156.00390625 471.210938L.00390625 490.710938C11.273438 490.71875 19.253906 492.097656 25.859375 494.101562 35.746094 497.050781 43.074219 501.785156 53.59375 506.527344 64.058594 511.25 77.324219 515.140625 96.621094 515.078125 109.511719 515.097656 119.660156 513.425781 128.132812 510.855469 140.910156 506.957031 149.421875 501.398438 158.152344 497.582031 166.945312 493.726562 176.332031 490.765625 193.257812 490.710938 204.542969 490.71875 212.519531 492.097656 219.132812 494.097656 229.019531 497.050781 236.355469 501.785156 246.886719 506.535156 257.363281 511.25 270.625 515.140625 289.933594 515.078125 302.824219 515.097656 312.976562 513.425781 321.449219 510.855469 334.222656 506.957031 342.738281 501.398438 351.46875 497.582031 360.253906 493.726562 369.640625 490.765625 386.570312 490.710938 397.863281 490.71875 405.839844 492.097656 412.472656 494.097656 422.347656 497.050781 429.707031 501.792969 440.230469 506.535156 450.703125 511.25 463.976562 515.140625 483.285156 515.078125 496.175781 515.097656 506.328125 513.425781 514.816406 510.855469 527.597656 506.957031 536.113281 501.410156 544.859375 497.582031 553.648438 493.726562 563.039062 490.765625 580 490.710938L580 471.210938C567.097656 471.203125 556.945312 472.855469 548.46875 475.441406 535.675781 479.339844 527.160156 484.878906 518.417969 488.707031ZM518.417969 353.277344C509.636719 357.132812 500.234375 360.09375 483.285156 360.148438 472 360.148438 464.023438 358.75 457.398438 356.769531 447.515625 353.808594 440.175781 349.074219 429.640625 344.332031 419.164062 339.617188 405.894531 335.726562 386.570312 335.78125 373.691406 335.769531 363.550781 337.425781 355.054688 340.011719 342.292969 343.914062 333.765625 349.449219 325.046875 353.277344 316.269531 357.132812 306.871094 360.09375 289.933594 360.148438 278.660156 360.148438 270.679688 358.75 264.058594 356.769531 254.175781 353.808594 246.84375 349.074219 236.3125 344.332031 225.84375 339.617188 212.566406 335.726562 193.261719 335.78125 180.375 335.769531 170.238281 337.425781 161.746094 340.011719 148.976562 343.914062 140.457031 349.449219 131.734375 353.277344 122.953125 357.132812 113.558594 360.09375 96.621094 360.148438 85.347656 360.148438 77.378906 358.75 70.765625 356.769531 60.902344 353.808594 53.558594 349.074219 43.039062 344.332031 32.5625 339.617188 19.308594 335.726562.00390625 335.78125L.00390625 355.277344C11.273438 355.289062 19.253906 356.667969 25.859375 358.667969 35.746094 361.617188 43.074219 366.351562 53.59375 371.09375 64.058594 375.820312 77.324219 379.710938 96.621094 379.648438 109.511719 379.664062 119.660156 377.992188 128.132812 375.425781 140.910156 371.523438 149.421875 365.96875 158.152344 362.152344 166.945312 358.296875 176.332031 355.332031 193.257812 355.28125 204.542969 355.289062 212.519531 356.667969 219.132812 358.667969 229.019531 361.621094 236.355469 366.355469 246.886719 371.105469 257.363281 375.820312 270.625 379.710938 289.933594 379.648438 302.824219 379.667969 312.976562 377.996094 321.449219 375.425781 334.222656 371.527344 342.738281 365.972656 351.46875 362.152344 360.253906 358.296875 369.640625 355.335938 386.570312 355.28125 397.863281 355.289062 405.839844 356.667969 412.472656 358.671875 422.347656 361.621094 429.707031 366.363281 440.230469 371.105469 450.703125 375.820312 463.976562 379.714844 483.285156 379.648438 496.175781 379.667969 506.328125 377.996094 514.816406 375.429688 527.597656 371.527344 536.113281 365.980469 544.859375 362.152344 553.648438 358.296875 563.039062 355.335938 580 355.28125L580 335.785156C567.097656 335.773438 556.945312 337.429688 548.46875 340.015625 535.675781 343.914062 527.160156 349.449219 518.417969 353.277344ZM518.417969 217.847656C509.636719 221.703125 500.234375 224.664062 483.285156 224.71875 472 224.71875 464.023438 223.324219 457.398438 221.339844 447.515625 218.378906 440.175781 213.644531 429.640625 208.902344 419.164062 204.1875 405.894531 200.296875 386.570312 200.351562 373.691406 200.34375 363.550781 201.996094 355.054688 204.582031 342.292969 208.484375 333.765625 214.019531 325.046875 217.847656 316.269531 221.703125 306.871094 224.664062 289.933594 224.71875 278.660156 224.71875 270.679688 223.324219 264.058594 221.339844 254.175781 218.378906 246.84375 213.644531 236.3125 208.902344 225.84375 204.1875 212.566406 200.296875 193.261719 200.351562 180.375 200.34375 170.238281 201.996094 161.746094 204.582031 148.976562 208.484375 140.457031 214.019531 131.734375 217.847656 122.953125 221.703125 113.558594 224.664062 96.621094 224.71875 85.347656 224.71875 77.378906 223.324219 70.765625 221.339844 60.902344 218.378906 53.558594 213.644531 43.039062 208.902344 32.5625 204.1875 19.308594 200.296875.00390625 200.351562L.00390625 219.851562C11.273438 219.859375 19.253906 221.238281 25.859375 223.238281 35.746094 226.191406 43.074219 230.921875 53.59375 235.664062 64.058594 240.390625 77.324219 244.28125 96.621094 244.21875 109.511719 244.238281 119.660156 242.566406 128.132812 239.996094 140.910156 236.09375 149.421875 230.539062 158.152344 226.722656 166.945312 222.863281 176.332031 219.902344 193.257812 219.847656 204.542969 219.859375 212.519531 221.238281 219.132812 223.238281 229.019531 226.191406 236.355469 230.921875 246.886719 235.675781 257.363281 240.390625 270.625 244.28125 289.933594 244.21875 302.824219 244.238281 312.976562 242.566406 321.449219 239.996094 334.222656 236.09375 342.738281 230.539062 351.46875 226.722656 360.253906 222.863281 369.640625 219.902344 386.570312 219.847656 397.863281 219.859375 405.839844 221.238281 412.472656 223.238281 422.347656 226.191406 429.707031 230.933594 440.230469 235.675781 450.703125 240.390625 463.976562 244.28125 483.285156 244.21875 496.175781 244.238281 506.328125 242.566406 514.816406 239.996094 527.597656 236.09375 536.113281 230.550781 544.859375 226.722656 553.648438 222.863281 563.039062 219.902344 580 219.847656L580 200.351562C567.097656 200.339844 556.945312 201.996094 548.46875 204.582031 535.675781 208.484375 527.160156 214.019531 518.417969 217.847656ZM548.46875 69.152344C535.675781 73.054688 527.160156 78.589844 518.417969 82.421875 509.636719 86.277344 500.234375 89.234375 483.285156 89.292969 472 89.292969 464.023438 87.894531 457.398438 85.910156 447.515625 82.949219 440.175781 78.21875 429.640625 73.472656 419.164062 68.757812 405.894531 64.867188 386.570312 64.921875 373.691406 64.914062 363.550781 66.566406 355.054688 69.152344 342.292969 73.054688 333.765625 78.589844 325.046875 82.421875 316.269531 86.277344 306.871094 89.234375 289.933594 89.292969 278.660156 89.292969 270.679688 87.894531 264.058594 85.910156 254.175781 82.949219 246.84375 78.21875 236.3125 73.472656 225.84375 68.757812 212.566406 64.867188 193.261719 64.921875 180.375 64.914062 170.238281 66.566406 161.746094 69.152344 148.976562 73.054688 140.457031 78.589844 131.734375 82.421875 122.953125 86.277344 113.558594 89.234375 96.621094 89.292969 85.347656 89.292969 77.378906 87.894531 70.765625 85.910156 60.902344 82.949219 53.558594 78.21875 43.039062 73.472656 32.558594 68.761719 19.304688 64.867188 0 64.921875L0 84.421875C11.269531 84.429688 19.25 85.808594 25.859375 87.808594 35.742188 90.761719 43.070312 95.496094 53.59375 100.234375 64.054688 104.960938 77.324219 108.851562 96.617188 108.789062 109.511719 108.804688 119.65625 107.132812 128.132812 104.566406 140.910156 100.664062 149.421875 95.109375 158.152344 91.289062 166.941406 87.433594 176.328125 84.472656 193.253906 84.417969 204.539062 84.429688 212.515625 85.808594 219.132812 87.808594 229.015625 90.761719 236.355469 95.492188 246.886719 100.246094 257.359375 104.960938 270.625 108.851562 289.929688 108.789062 302.820312 108.804688 312.972656 107.132812 321.445312 104.566406 334.21875 100.664062 342.734375 95.109375 351.464844 91.289062 360.253906 87.433594 369.640625 84.472656 386.566406 84.417969 397.859375 84.429688 405.835938 85.808594 412.46875 87.808594 422.347656 90.761719 429.703125 95.5 440.230469 100.246094 450.699219 104.960938 463.976562 108.851562 483.28125 108.789062 496.175781 108.804688 506.324219 107.132812 514.8125 104.566406 527.597656 100.664062 536.113281 95.117188 544.855469 91.289062 553.644531 87.433594 563.039062 84.472656 579.996094 84.417969L579.996094 64.921875C567.097656 64.914062 556.949219 66.566406 548.46875 69.152344ZM548.46875 69.152344" stroke="param(outline)" stroke-opacity="param(outline-opacity)" stroke-width="param(outline-width)"/>
</svg>
