<svg xmlns="http://www.w3.org/2000/svg" width="580" height="580">
  <path fill="param(fill)" fill-opacity="param(fill-opacity)" d="M140.511719 136.15625C150.863281 136.15625 159.640625 132.554688 166.851562 125.351562 174.058594 118.148438 177.664062 109.59375 177.664062 99.683594 177.664062 89.320312 174.058594 80.539062 166.851562 73.335938 159.640625 66.132812 150.863281 62.53125 140.511719 62.53125 130.601562 62.53125 122.042969 66.132812 114.835938 73.335938 107.625 80.539062 104.019531 89.320312 104.019531 99.683594 104.019531 109.59375 107.625 118.148438 114.835938 125.351562 122.042969 132.554688 130.601562 136.15625 140.511719 136.15625ZM456.527344 135.496094C466.4375 135.496094 474.996094 131.890625 482.207031 124.683594 489.414062 117.472656 493.019531 108.914062 493.019531 99.003906 493.019531 88.65625 489.414062 79.988281 482.207031 73.007812 474.996094 66.023438 466.4375 62.53125 456.527344 62.53125 446.617188 62.53125 438.0625 66.023438 430.859375 73.007812 423.65625 79.988281 420.054688 88.65625 420.054688 99.003906 420.054688 108.914062 423.65625 117.472656 430.859375 124.683594 438.0625 131.890625 446.617188 135.496094 456.527344 135.496094ZM538.625 157.441406C529.84375 147.761719 518.46875 142.917969 504.503906 142.917969L407.894531 142.917969C394.835938 142.917969 383.6875 147.539062 374.453125 156.773438 365.214844 166.011719 360.597656 177.382812 360.597656 190.894531L360.597656 303.03125C360.597656 313.847656 365.554688 319.257812 375.464844 319.257812 384.917969 319.257812 389.648438 313.847656 389.648438 303.03125L389.648438 193.59375 407.214844 193.59375 407.214844 490.851562C407.214844 504.363281 413.96875 511.117188 427.480469 511.117188 440.992188 511.117188 447.746094 504.363281 447.746094 490.851562L447.746094 318.574219 465.3125 318.574219 465.3125 490.851562C465.3125 504.363281 472.066406 511.117188 485.578125 511.117188 499.542969 511.117188 506.523438 504.363281 506.527344 490.851562L506.527344 193.59375 523.410156 193.59375 523.410156 303.03125C523.410156 314.285156 528.140625 319.914062 537.597656 319.914062 547.066406 319.914062 551.800781 314.285156 551.800781 303.03125L551.800781 191.554688C551.800781 178.496094 547.40625 167.128906 538.625 157.441406ZM222.917969 176.710938C220.664062 169.492188 215.488281 162.511719 207.394531 155.761719 197.484375 147.652344 186.675781 143.597656 174.964844 143.597656L102.679688 143.597656C91.410156 143.597656 81.273438 147.652344 72.269531 155.761719 65.507812 162.058594 61.007812 169.039062 58.765625 176.710938L27.675781 280.0625C26.78125 282.316406 26.335938 284.34375 26.335938 286.144531 26.335938 296.507812 31.511719 301.691406 41.863281 301.691406 49.078125 301.691406 53.8125 297.636719 56.066406 289.527344L84.4375 194.933594 99.960938 194.933594 53.34375 363.148438 98.617188 363.148438 98.617188 494.210938C98.617188 505.921875 104.246094 511.777344 115.503906 511.777344 126.761719 511.777344 132.390625 505.921875 132.390625 494.210938L132.390625 362.488281 149.296875 362.488281 149.296875 494.890625C149.296875 506.148438 154.921875 511.777344 166.179688 511.777344 177.4375 511.777344 183.066406 506.148438 183.066406 494.890625L183.066406 363.148438 228.320312 363.148438 181.042969 194.933594 197.25 194.933594 225.617188 289.527344C227.871094 297.636719 232.601562 301.691406 239.804688 301.691406 250.164062 301.691406 255.347656 296.507812 255.347656 286.144531 255.347656 283.890625 254.902344 281.863281 254.007812 280.0625ZM282.644531 61.171875 318.457031 61.171875 318.457031 512.457031 282.644531 512.457031ZM282.644531 61.171875" stroke="param(outline)" stroke-opacity="param(outline-opacity)" stroke-width="param(outline-width)"/>
</svg>
