<svg xmlns="http://www.w3.org/2000/svg" width="580" height="580">
  <path fill="param(fill)" fill-opacity="param(fill-opacity)" d="M 358.839844 364.382812 C 355.726562 364.386719 352.851562 362.726562 351.296875 360.035156 C 349.742188 357.34375 349.742188 354.023438 351.296875 351.332031 C 352.851562 348.636719 355.726562 346.980469 358.839844 346.984375 C 361.949219 346.980469 364.824219 348.636719 366.378906 351.332031 C 367.9375 354.023438 367.9375 357.34375 366.378906 360.035156 C 364.824219 362.726562 361.949219 364.386719 358.839844 364.382812 Z M 530.542969 537.316406 C 527.429688 537.320312 524.554688 535.664062 523 532.972656 C 521.445312 530.277344 521.445312 526.957031 523 524.265625 C 524.554688 521.574219 527.429688 519.914062 530.542969 519.917969 C 533.652344 519.914062 536.527344 521.574219 538.082031 524.265625 C 539.640625 526.957031 539.640625 530.277344 538.082031 532.972656 C 536.527344 535.664062 533.652344 537.320312 530.542969 537.316406 Z M 432.515625 174.355469 C 427.710938 174.359375 423.8125 170.464844 423.8125 165.65625 C 423.8125 160.847656 427.710938 156.953125 432.515625 156.957031 C 437.324219 156.953125 441.222656 160.847656 441.222656 165.65625 C 441.222656 170.464844 437.324219 174.359375 432.515625 174.355469 Z M 68.835938 74.386719 C 65.726562 74.390625 62.851562 72.730469 61.296875 70.039062 C 59.738281 67.347656 59.738281 64.027344 61.296875 61.335938 C 62.851562 58.640625 65.726562 56.984375 68.835938 56.988281 C 71.949219 56.984375 74.824219 58.640625 76.378906 61.335938 C 77.933594 64.027344 77.933594 67.347656 76.378906 70.039062 C 74.824219 72.730469 71.949219 74.390625 68.835938 74.386719 Z M 194.738281 330.355469 C 194.738281 325.550781 198.636719 321.65625 203.441406 321.65625 C 208.246094 321.65625 212.140625 325.550781 212.140625 330.355469 C 212.140625 335.160156 208.246094 339.054688 203.441406 339.054688 C 198.636719 339.054688 194.738281 335.160156 194.738281 330.355469 Z M 21.804688 502.058594 C 21.804688 497.253906 25.699219 493.359375 30.503906 493.359375 C 35.308594 493.359375 39.203125 497.253906 39.203125 502.058594 C 39.203125 506.863281 35.308594 510.757812 30.503906 510.757812 C 25.699219 510.757812 21.804688 506.863281 21.804688 502.058594 Z M 384.765625 404.035156 C 384.761719 400.925781 386.421875 398.050781 389.113281 396.492188 C 391.808594 394.9375 395.125 394.9375 397.820312 396.492188 C 400.511719 398.050781 402.167969 400.925781 402.167969 404.035156 C 402.167969 407.144531 400.511719 410.019531 397.820312 411.578125 C 395.125 413.132812 391.808594 413.132812 389.113281 411.578125 C 386.421875 410.019531 384.761719 407.144531 384.765625 404.035156 Z M 484.734375 40.355469 C 484.734375 35.550781 488.632812 31.65625 493.4375 31.65625 C 498.242188 31.65625 502.136719 35.550781 502.136719 40.355469 C 502.136719 45.160156 498.242188 49.054688 493.4375 49.054688 C 488.632812 49.054688 484.734375 45.160156 484.734375 40.355469 Z M 484.734375 40.355469 " stroke="param(outline)" stroke-opacity="param(outline-opacity)" stroke-width="param(outline-width)"/>
</svg>
