<svg width="580" height="580">
  <path fill="param(fill)" fill-opacity="param(fill-opacity)" d="M186.089844 179.550781C184.925781 177.257812 181.613281 178.023438 179.527344 177.570312 164.984375 176.445312 150.378906 176.457031 135.800781 176.488281 118.789062 176.738281 101.714844 176.789062 84.761719 178.03125 83.164062 178.289062 82.367188 180.660156 84.117188 181.332031 92.589844 183.238281 101.4375 182.832031 110.097656 183.28125 133.882812 183.785156 157.730469 184.023438 181.472656 182.335938 183.152344 182 186.449219 181.960938 186.089844 179.550781ZM55.019531 119.125C45.480469 115.464844 54.476562 118.5 58.808594 130.523438 62.207031 139.949219 63.277344 148.503906 63.277344 153.734375 63.277344 158.96875 65.644531 163.25 68.539062 163.25 75.234375 163.25 76.324219 157.976562 69.332031 137.921875 66.238281 129.042969 59.15625 120.714844 55.019531 119.125ZM84.320312 147.8125C84.320312 156.304688 86.6875 163.25 89.582031 163.25 104.878906 163.25 86.414062 96.035156 66.613281 79.648438 53.128906 68.488281 67.363281 80.753906 73.527344 98.078125 79.515625 114.898438 84.320312 127.496094 84.320312 147.8125ZM192.25 197.539062C184.34375 195.808594 176.125 196.128906 168.066406 196.214844 161.128906 196.503906 154.054688 196.449219 147.253906 197.851562 145.546875 198.839844 146.550781 201.546875 148.4375 201.503906 158.785156 203.886719 169.578125 203.136719 180.140625 203.128906 184.671875 202.921875 189.398438 202.828125 193.65625 201.234375 195.34375 200.109375 194.195312 197.410156 192.25 197.539062ZM157.0625 163.25C159.957031 163.25 162.320312 158.96875 162.320312 153.734375 162.320312 148.503906 163.394531 139.949219 166.789062 130.523438 171.121094 118.5 180.121094 115.464844 170.582031 119.125 166.441406 120.714844 159.363281 129.042969 156.265625 137.925781 149.277344 157.980469 150.363281 163.25 157.0625 163.25ZM136.019531 163.25C138.914062 163.25 141.28125 156.304688 141.28125 147.8125 141.28125 127.496094 146.085938 114.898438 152.070312 98.078125 158.238281 80.757812 172.472656 68.488281 158.984375 79.652344 139.183594 96.035156 120.722656 163.25 136.019531 163.25ZM114.160156 163.25C127.074219 163.25 119.324219 58.441406 111.058594 54.179688 108.988281 53.109375 110.554688 68.683594 110.972656 77.644531 111.5625 90.292969 110.738281 95.429688 110.953125 123.695312L110.949219 123.695312C108.789062 152.265625 109.679688 163.257812 114.160156 163.257812ZM492.441406 227.398438C491.273438 225.109375 487.964844 225.871094 485.878906 225.421875 471.332031 224.292969 456.730469 224.308594 442.148438 224.339844 425.140625 224.585938 408.0625 224.640625 391.113281 225.878906 389.511719 226.136719 388.714844 228.511719 390.46875 229.183594 398.9375 231.085938 407.789062 230.683594 416.445312 231.132812 440.234375 231.636719 464.082031 231.871094 487.824219 230.183594 489.5 229.851562 492.796875 229.8125 492.4375 227.398438ZM361.371094 166.976562C351.828125 163.3125 360.828125 166.347656 365.160156 178.371094 368.554688 187.800781 369.628906 196.351562 369.628906 201.585938 369.628906 206.820312 371.996094 211.101562 374.886719 211.101562 381.585938 211.101562 382.675781 205.828125 375.683594 185.773438 372.585938 176.894531 365.507812 168.5625 361.371094 166.972656ZM390.671875 195.664062C390.671875 204.152344 393.035156 211.101562 395.929688 211.101562 411.230469 211.101562 392.765625 143.886719 372.964844 127.5 359.476562 116.339844 373.714844 128.605469 379.878906 145.929688 385.863281 162.75 390.671875 175.34375 390.671875 195.660156ZM498.601562 245.390625C490.691406 243.660156 482.476562 243.980469 474.414062 244.066406 467.480469 244.351562 460.402344 244.300781 453.605469 245.703125 451.898438 246.6875 452.902344 249.398438 454.789062 249.355469 465.136719 251.738281 475.925781 250.984375 486.492188 250.976562 491.019531 250.773438 495.75 250.679688 500.003906 249.085938 501.691406 247.960938 500.542969 245.261719 498.601562 245.390625ZM463.410156 211.101562C466.304688 211.101562 468.671875 206.820312 468.671875 201.585938 468.671875 196.351562 469.746094 187.800781 473.140625 178.371094 477.472656 166.351562 486.46875 163.316406 476.929688 166.976562 472.792969 168.5625 465.710938 176.894531 462.617188 185.773438 455.625 205.828125 456.714844 211.101562 463.414062 211.101562ZM442.371094 211.101562C445.261719 211.101562 447.628906 204.152344 447.628906 195.664062 447.628906 175.347656 452.4375 162.75 458.421875 145.929688 464.585938 128.605469 478.820312 116.339844 465.335938 127.5 445.535156 143.886719 427.070312 211.101562 442.371094 211.101562ZM420.511719 211.101562C433.425781 211.101562 425.671875 106.289062 417.40625 102.03125 415.335938 100.960938 416.90625 116.53125 417.324219 125.496094 417.914062 138.144531 417.085938 143.28125 417.300781 171.546875 415.140625 200.113281 416.03125 211.105469 420.511719 211.105469ZM342.699219 486.359375C341.535156 484.066406 338.226562 484.832031 336.140625 484.378906 321.59375 483.253906 306.988281 483.265625 292.410156 483.296875 275.398438 483.546875 258.324219 483.601562 241.371094 484.839844 239.773438 485.097656 238.976562 487.472656 240.726562 488.144531 249.199219 490.046875 258.046875 489.640625 266.707031 490.089844 290.496094 490.597656 314.339844 490.832031 338.082031 489.144531 339.761719 488.808594 343.058594 488.773438 342.699219 486.359375ZM211.628906 425.933594C202.089844 422.273438 211.089844 425.308594 215.417969 437.332031 218.816406 446.757812 219.886719 455.3125 219.886719 460.546875 219.886719 465.777344 222.253906 470.058594 225.148438 470.058594 231.847656 470.058594 232.933594 464.789062 225.941406 444.734375 222.847656 435.855469 215.765625 427.523438 211.628906 425.933594ZM240.929688 454.621094C240.929688 463.113281 243.296875 470.0625 246.191406 470.0625 261.488281 470.0625 243.027344 402.847656 223.226562 386.460938 209.738281 375.300781 223.972656 387.566406 230.136719 404.886719 236.125 421.710938 240.929688 434.304688 240.929688 454.621094ZM348.859375 504.351562C340.953125 502.621094 332.734375 502.941406 324.675781 503.027344 317.738281 503.3125 310.664062 503.257812 303.863281 504.660156 302.160156 505.648438 303.160156 508.359375 305.050781 508.3125 315.394531 510.695312 326.1875 509.945312 336.75 509.9375 341.28125 509.730469 346.007812 509.640625 350.265625 508.046875 351.953125 506.921875 350.804688 504.222656 348.859375 504.351562ZM313.671875 470.0625C316.566406 470.0625 318.933594 465.78125 318.933594 460.546875 318.933594 455.3125 320.003906 446.761719 323.402344 437.332031 327.730469 425.308594 336.730469 422.273438 327.191406 425.9375 323.054688 427.523438 315.972656 435.855469 312.878906 444.734375 305.886719 464.789062 306.972656 470.0625 313.671875 470.0625ZM292.628906 470.0625C295.523438 470.0625 297.890625 463.113281 297.890625 454.621094 297.890625 434.304688 302.695312 421.710938 308.683594 404.890625 314.847656 387.566406 329.082031 375.300781 315.59375 386.460938 295.796875 402.847656 277.332031 470.0625 292.628906 470.0625ZM270.769531 470.0625C283.683594 470.0625 275.933594 365.25 267.667969 360.992188 265.597656 359.921875 267.164062 375.492188 267.582031 384.453125 268.175781 397.105469 267.347656 402.238281 267.5625 430.507812L267.558594 430.507812C265.398438 459.074219 266.289062 470.066406 270.769531 470.066406ZM270.769531 470.0625" stroke="param(outline)" stroke-opacity="param(outline-opacity)" stroke-width="param(outline-width)"/>
</svg>
