<?xml version="1.0" encoding="UTF-8" standalone="no"?>
<!-- Created with Inkscape (http://www.inkscape.org/) -->

<svg
   width="35.433"
   height="35.433"
   version="1.1"
   id="svg6"
   sodipodi:docname="basin.svg"
   inkscape:version="1.2.2 (b0a8486541, 2022-12-01)"
   xmlns:inkscape="http://www.inkscape.org/namespaces/inkscape"
   xmlns:sodipodi="http://sodipodi.sourceforge.net/DTD/sodipodi-0.dtd"
   xmlns="http://www.w3.org/2000/svg"
   xmlns:svg="http://www.w3.org/2000/svg"
   xmlns:rdf="http://www.w3.org/1999/02/22-rdf-syntax-ns#"
   xmlns:cc="http://creativecommons.org/ns#"
   xmlns:dc="http://purl.org/dc/elements/1.1/">
  <defs
     id="defs10" />
  <sodipodi:namedview
     id="namedview8"
     pagecolor="#ffffff"
     bordercolor="#000000"
     borderopacity="0.25"
     inkscape:showpageshadow="2"
     inkscape:pageopacity="0.0"
     inkscape:pagecheckerboard="0"
     inkscape:deskcolor="#d1d1d1"
     showgrid="false"
     inkscape:zoom="24.496939"
     inkscape:cx="11.16466"
     inkscape:cy="17.573624"
     inkscape:window-width="2192"
     inkscape:window-height="1165"
     inkscape:window-x="1920"
     inkscape:window-y="0"
     inkscape:window-maximized="1"
     inkscape:current-layer="svg6" />
  <metadata
     id="metadata2">
    <rdf:RDF>
      <cc:Work
         rdf:about="">
        <dc:format>image/svg+xml</dc:format>
        <dc:type
           rdf:resource="http://purl.org/dc/dcmitype/StillImage" />
      </cc:Work>
    </rdf:RDF>
  </metadata>
  <path
     id="path4-3-6-7"
     style="stroke-width:0.78386"
     d="m 23.486752,22.695098 a 0.53149627,0.53149627 0 1 0 -1.062992,0 0.53149627,0.53149627 0 1 0 1.062992,0 z m 10.564864,10.489614 a 0.53149627,0.53149627 0 1 0 -1.062992,0 0.53149627,0.53149627 0 1 0 1.062992,0 z m -22.17383,-5.988455 a 0.5314965,0.5314965 0 1 0 -1.062993,0 0.5314965,0.5314965 0 1 0 1.062993,0 z M 5.7704968,4.9785276 a 0.53149627,0.53149627 0 1 0 -1.062992,0 0.53149627,0.53149627 0 1 0 1.062992,0 z M 21.40801,12.67011 a 0.5314965,0.5314965 0 1 0 0,1.062993 0.5314965,0.5314965 0 1 0 0,-1.062993 z M 31.897624,2.1052446 a 0.5314965,0.5314965 0 1 0 0,1.062993 0.5314965,0.5314965 0 1 0 0,-1.062993 z M 25.909169,24.279077 a 0.53149627,0.53149627 0 1 0 0,1.062992 0.53149627,0.53149627 0 1 0 0,-1.062992 z M 3.6914408,30.386365 a 0.5314965,0.5314965 0 1 0 0,1.062993 0.5314965,0.5314965 0 1 0 0,-1.062993 z m 7.1224612,-4.508148 a 0.240873,0.23538845 0 1 0 0.481746,0 0.240873,0.23538845 0 1 0 -0.481746,0 z M 6.0259426,21.232603 a 0.2408723,0.23538776 0 1 0 0.4817444,0 0.2408723,0.23538776 0 1 0 -0.4817444,0 z m 10.0491034,2.652151 a 0.2408725,0.23538794 0 1 0 0.481745,0 0.2408725,0.23538794 0 1 0 -0.481745,0 z m 2.767804,9.839734 a 0.2408723,0.23538776 0 1 0 0.481742,0 0.2408723,0.23538776 0 1 0 -0.481742,0 z m -7.086869,-3.406429 a 0.24087252,0.23538796 0 1 0 0,-0.470775 0.24087252,0.23538796 0 1 0 0,0.470775 z m -4.7538568,4.678942 a 0.24087269,0.23538814 0 1 0 0,-0.470776 0.24087269,0.23538814 0 1 0 0,0.470776 z M 9.716071,25.176708 a 0.2408723,0.23538776 0 1 0 0,-0.470775 0.2408723,0.23538776 0 1 0 0,0.470775 z m 10.068999,-2.70478 a 0.24087307,0.2353885 0 1 0 0,-0.470777 0.24087307,0.2353885 0 1 0 0,0.470777 z M 15.387665,6.4158015 a 0.29651762,0.29520883 0 1 0 0.593035,0 0.29651762,0.29520883 0 1 0 -0.593035,0 z M 9.4936103,0.58955754 a 0.29651762,0.29520883 0 1 0 0.5930347,0 0.29651762,0.29520883 0 1 0 -0.5930347,0 z M 21.864216,3.9157235 a 0.29651775,0.29520895 0 1 0 0.593035,0 0.29651775,0.29520895 0 1 0 -0.593035,0 z m 3.407209,12.3403875 a 0.29651762,0.29520883 0 1 0 0.593034,0 0.29651762,0.29520883 0 1 0 -0.593034,0 z m -8.724046,-4.272133 a 0.2965178,0.295209 0 1 0 0,-0.590418 0.2965178,0.295209 0 1 0 0,0.590418 z m -5.852074,5.86804 a 0.29651801,0.29520921 0 1 0 0,-0.590418 0.29651801,0.29520921 0 1 0 0,0.590418 z M 14.036217,5.5360125 a 0.29651762,0.29520883 0 1 0 0,-0.590417 0.29651762,0.29520883 0 1 0 0,0.590417 z m 12.395096,-3.39217 a 0.2965178,0.295209 0 1 0 0,-0.590418 0.2965178,0.295209 0 1 0 0,0.590418 z M 20.334114,19.229198 a 0.29651762,0.29520883 0 1 0 0.593035,0 0.29651762,0.29520883 0 1 0 -0.593035,0 z m -5.894055,-5.826244 a 0.29651762,0.29520883 0 1 0 0.593035,0 0.29651762,0.29520883 0 1 0 -0.593035,0 z m 12.370606,3.326166 a 0.29651775,0.29520895 0 1 0 0.593035,0 0.29651775,0.29520895 0 1 0 -0.593035,0 z m 3.407209,12.340387 a 0.29651762,0.29520883 0 1 0 0.593034,0 0.29651762,0.29520883 0 1 0 -0.593034,0 z m -8.724046,-4.272133 a 0.2965178,0.295209 0 1 0 0,-0.590418 0.2965178,0.295209 0 1 0 0,0.590418 z m -5.852074,5.86804 a 0.29651801,0.29520921 0 1 0 0,-0.590418 0.29651801,0.29520921 0 1 0 0,0.590418 z m 3.340912,-12.316005 a 0.29651762,0.29520883 0 1 0 0,-0.590417 0.29651762,0.29520883 0 1 0 0,0.590417 z m 12.395096,-3.39217 a 0.2965178,0.295209 0 1 0 0,-0.590418 0.2965178,0.295209 0 1 0 0,0.590418 z M 7.7542025,13.156275 a 0.29651762,0.29520883 0 1 0 0.593035,0 0.29651762,0.29520883 0 1 0 -0.593035,0 z M 1.8601473,7.3300314 a 0.29651762,0.29520883 0 1 0 0.5930349,0 0.29651762,0.29520883 0 1 0 -0.5930349,0 z M 14.230754,10.656197 a 0.29651775,0.29520895 0 1 0 0.593035,0 0.29651775,0.29520895 0 1 0 -0.593035,0 z m 3.407209,12.340387 a 0.29651762,0.29520883 0 1 0 0.593034,0 0.29651762,0.29520883 0 1 0 -0.593034,0 z M 8.9139164,18.724451 a 0.2965178,0.295209 0 1 0 0,-0.590418 0.2965178,0.295209 0 1 0 0,0.590418 z m -5.8520737,5.86804 a 0.29651801,0.29520921 0 1 0 0,-0.590418 0.29651801,0.29520921 0 1 0 0,0.590418 z M 6.402755,12.276486 a 0.29651762,0.29520883 0 1 0 0,-0.590417 0.29651762,0.29520883 0 1 0 0,0.590417 z M 18.797851,8.8843164 a 0.29651775,0.29520895 0 1 0 0,-0.5904179 0.29651775,0.29520895 0 1 0 0,0.5904179 z m 3.124073,13.3763286 a 0.53149627,0.53149627 0 1 1 0,-1.062992 0.53149627,0.53149627 0 1 1 0,1.062992 z m 10.489614,10.564864 a 0.53149627,0.53149627 0 1 1 0,-1.062992 0.53149627,0.53149627 0 1 1 0,1.062992 z m -5.988455,-22.17383 a 0.5314965,0.5314965 0 1 1 0,-1.0629928 0.5314965,0.5314965 0 1 1 0,1.0629928 z M 4.2053541,4.5443898 a 0.53149627,0.53149627 0 1 1 0,-1.062992 0.53149627,0.53149627 0 1 1 0,1.062992 z M 11.896936,20.181903 a 0.5314965,0.5314965 0 1 1 1.062993,0 0.5314965,0.5314965 0 1 1 -1.062993,0 z M 1.3320709,30.671517 a 0.5314965,0.5314965 0 1 1 1.062993,0 0.5314965,0.5314965 0 1 1 -1.062993,0 z M 23.505903,24.683062 a 0.53149627,0.53149627 0 1 1 1.062992,0 0.53149627,0.53149627 0 1 1 -1.062992,0 z M 29.613191,2.4653339 a 0.5314965,0.5314965 0 1 1 1.062993,0 0.5314965,0.5314965 0 1 1 -1.062993,0 z" />
</svg>
