<?xml version="1.0" encoding="UTF-8"?>
<!-- Created with Inkscape (http://www.inkscape.org/) -->
<svg width="7.2638" height="7.2638" version="1.1" xmlns="http://www.w3.org/2000/svg" xmlns:cc="http://creativecommons.org/ns#" xmlns:dc="http://purl.org/dc/elements/1.1/" xmlns:rdf="http://www.w3.org/1999/02/22-rdf-syntax-ns#">
 <metadata>
  <rdf:RDF>
   <cc:Work rdf:about="">
    <dc:format>image/svg+xml</dc:format>
    <dc:type rdf:resource="http://purl.org/dc/dcmitype/StillImage"/>
   </cc:Work>
  </rdf:RDF>
 </metadata>
 <path d="m0.26562 0a0.26575 0.14383 0 0 0-0.26562 0.14376 0.26575 0.14383 0 0 0 0.26562 0.14376h3.7227a0.26575 0.14383 0 0 0 0.26562-0.14376 0.26575 0.14383 0 0 0-0.26562-0.14376z" color="#000000" stroke-linecap="round" stroke-width=".73569" style="-inkscape-stroke:none"/>
 <path d="m0.34319 7.1648a0.34336 0.049436 0 0 0-0.34319 0.049412 0.34336 0.049436 0 0 0 0.34319 0.049412h4.8099a0.34336 0.049436 0 0 0 0.34319-0.049412 0.34336 0.049436 0 0 0-0.34319-0.049412z" color="#000000" stroke-linecap="round" stroke-width=".49026" style="-inkscape-stroke:none"/>
 <path d="m3.2754 3.543a0.26575 0.079145 0 0 0-0.26562 0.079106 0.26575 0.079145 0 0 0 0.26562 0.079106h3.7227a0.26575 0.079145 0 0 0 0.26562-0.079106 0.26575 0.079145 0 0 0-0.26562-0.079106z" color="#000000" stroke-linecap="round" stroke-width=".54573" style="-inkscape-stroke:none"/>
</svg>
