<?xml version="1.0" encoding="iso-8859-1"?>
<!-- Uploaded to: SVG Repo, www.svgrepo.com, Generator: SVG Repo Mixer Tools -->
<svg fill="#000000" height="800px" width="800px" version="1.1" id="Layer_1" xmlns="http://www.w3.org/2000/svg" xmlns:xlink="http://www.w3.org/1999/xlink" 
	 viewBox="0 0 512 512" xml:space="preserve">
<g>
	<g>
		<path d="M503.467,243.2h-28.638l-40.294-88.653c0,0-0.009,0-0.009-0.009l-0.094-0.205c-0.393-0.87-0.956-1.621-1.596-2.295
			c-0.171-0.188-0.375-0.333-0.572-0.503c-0.563-0.495-1.178-0.913-1.852-1.246c-0.256-0.128-0.503-0.256-0.777-0.358
			c-0.939-0.35-1.929-0.597-2.97-0.597H85.333c-1.041,0-2.022,0.247-2.961,0.597c-0.273,0.102-0.521,0.23-0.785,0.358
			c-0.674,0.333-1.28,0.751-1.843,1.246c-0.196,0.171-0.401,0.316-0.58,0.503c-0.64,0.674-1.195,1.425-1.596,2.295l-0.094,0.205
			v0.009L37.18,243.2H8.533c-4.71,0-8.533,3.823-8.533,8.533c0,4.71,3.823,8.533,8.533,8.533H76.8v51.2h-8.533
			c-4.71,0-8.533,3.823-8.533,8.533v34.133c0,4.71,3.823,8.533,8.533,8.533H102.4c4.719,0,8.533-3.823,8.533-8.533V320
			c0-4.71-3.814-8.533-8.533-8.533h-8.533v-51.2h324.267v51.2H409.6c-4.71,0-8.533,3.823-8.533,8.533v34.133
			c0,4.71,3.823,8.533,8.533,8.533h34.133c4.719,0,8.533-3.823,8.533-8.533V320c0-4.71-3.814-8.533-8.533-8.533H435.2v-51.2h68.267
			c4.719,0,8.533-3.823,8.533-8.533C512,247.023,508.186,243.2,503.467,243.2z M128,231.117L98.586,166.4h58.837L128,231.117z
			 M213.333,231.117L183.919,166.4h58.837L213.333,231.117z M298.667,231.117L269.252,166.4h58.837L298.667,231.117z M384,231.117
			L354.586,166.4h58.837L384,231.117z"/>
	</g>
</g>
</svg>