<?xml version="1.0" encoding="UTF-8"?>
<!-- Generator: Adobe Illustrator 15.0.0, SVG Export Plug-In . SVG Version: 6.00 Build 0)  -->
<svg width="580px" height="580px" enable-background="new 0 0 580 580" version="1.1" viewBox="0 0 580 580" xml:space="preserve" xmlns="http://www.w3.org/2000/svg">

<path d="m66.275 1.7676c-41.335 0-64.572 21.372-64.572 65.037v450.12c0 40.844 20.896 62.229 62.193 62.229h452.02c41.307 0 62.229-20.315 62.229-62.229v-450.12c0-42.601-20.922-65.037-63.52-65.037-4e-3 0-448.5-0.143-448.35 0zm222.14 26.762c22.971 0.801 25.163 14.829 25.258 38.102 7.878 0.772 10.435 1.0046 24.072 3.8086 81.993 16.86 155.62 90.831 169.99 173.56 2.274 13.092 3.4962 14.44 12.16 13.418 11.436-1.349 30.169 7.5545 33.354 15.854 7.887 20.554-3.6752 38.215-27.074 41.357-15.321 2.057-16.047 2.7228-18.469 16.924-3.792 22.243-18.674 56.302-35.289 80.77-29.285 43.123-74.937 75.211-127.94 89.926l-27.289 7.5762-1.1777 14.447c-0.648 7.945-3.7686 17.31-6.9336 20.812-8.097 8.962-31.66 8.4408-41.01-0.9082-4.769-4.769-7.2774-12.128-7.2774-21.357v-14.08l-21.107-4.1543c-81.916-16.115-154.37-101.03-171.95-189.01-5.362-0.414-8.3262-0.62304-13.992-0.62304-17.722 0-29.453-11.825-29.453-29.688 0-16.237 9.9794-25.735 28.193-26.832l13.648-0.82226 6.4414-24.998c10.747-41.704 26.704-69.139 59.01-101.46 33.111-33.123 60.825-49.755 100.83-59.668 12.156-3.012 13.089-0.68919 26.773-3.7422 1.807-19.008 0.15969-40.208 29.223-39.211zm-27.625 93.439-10.006 2.2598c-18.234 0.79799-56.37 21.88-55.484 25.814 0.55599 2.47 62.058 66.664 64.508 66.664 0.541 0 0.98242-21.316 0.98242-47.369v-47.369zm56.398 1.959-1.0098 47.299-1.0117 47.301 34.814-34.564 34.812-34.566-24.307-15.199c-13.589-6.379-29.2-8.5078-34.203-9.1328l-9.0957-1.1367zm-164.55 66.643-7.7598 12.559c-8.719 14.108-14.313 29.349-19.113 55.512 2.401 0.338 6.3329-0.09179 45.881-0.09179 25.014 0 45.48-0.85253 45.48-1.8945s-14.51-16.338-32.244-33.99l-32.244-32.094zm272.33 0.66797c-2.631 0-65.936 62.806-65.938 65.418 0 1.042 20.876 1.5557 46.391 1.1387 45.955-0.75 46.383-0.83598 45.375-9.043-0.589-4.787-3.4061-19.441-9.2891-32.561-5.945-13.256-14.962-24.953-16.539-24.953zm-134.95 61.037c-8.5131-0.11587-17.224 3.6426-25.25 11.205-15.664 14.76-11.831 35.254-2.9356 45.662 10.2 11.938 26.707 16.997 39.887 10.182 6.258-3.235 16.528-14.018 19.559-21.271 4.83-11.56 1.8737-23.794-7.1973-33.74-7.2335-7.931-15.549-11.921-24.062-12.037zm-164.66 62.672 2.4668 13.148c2.822 15.04 20.548 52.911 24.096 51.479 1.299-0.524 17.533-15.281 36.076-32.791l33.713-31.836h-48.176-48.176zm232.01 0.00195 32.596 32.746c17.928 18.01 33.944 32.746 35.592 32.746 1.648 0 10.855-12.634 16.549-25.141 5.694-12.508 8.1691-22.845 9.4121-28.348l2.2598-12.004h-48.203-48.205zm-99.381 43.66c-1.545 0-16.643 13.906-33.551 30.902-17.016 17.106-26.625 27.611-30.197 32.766 4.403 3.223 12.132 11.912 31.473 19.863 16.206 6.662 29.564 8.5702 35.676 9.4922-1.01-7.602-0.5918-19.002-0.5918-47.541 0-25.014-1.2636-45.482-2.8086-45.482zm60.193 0c-1.543 0-2.8066 20.672-2.8066 45.938v45.936l19.428-3.5625c6.504-1.299 22.374-7.2942 35.266-13.324l15.836-9.7656-32.459-32.611c-17.853-17.935-33.721-32.609-35.264-32.609z"/>

</svg>
