<?xml version="1.0" encoding="utf-8"?>
<!-- Generator: Adobe Illustrator 15.0.0, SVG Export Plug-In . SVG Version: 6.00 Build 0)  -->
<!DOCTYPE svg PUBLIC "-//W3C//DTD SVG 1.1//EN" "http://www.w3.org/Graphics/SVG/1.1/DTD/svg11.dtd">
<svg version="1.1" xmlns="http://www.w3.org/2000/svg" xmlns:xlink="http://www.w3.org/1999/xlink" x="0px" y="0px" width="580px"
	 height="580px" viewBox="0 0 580 580" enable-background="new 0 0 580 580" xml:space="preserve">
<g id="Layer_2">
	<g id="g1327">
		<path id="path1329" fill="#111111" stroke="#EEEEEE" stroke-width="3.408" d="M66.275,1.768
			c-41.335,0-64.571,21.371-64.571,65.036v450.123c0,40.844,20.895,62.229,62.192,62.229H515.92
			c41.307,0,62.229-20.315,62.229-62.229V66.804c0-42.601-20.923-65.036-63.521-65.036C514.624,1.768,66.133,1.625,66.275,1.768z"/>
	</g>
</g>
<g id="Layer_3">
	<path fill="#FFFFFF" d="M553.247,273.268c-3.185-8.299-21.919-17.203-33.355-15.854c-8.664,1.022-9.885-0.325-12.159-13.417
		c-14.367-82.726-87.998-156.698-169.991-173.558c-13.637-2.804-16.194-3.037-24.072-3.809c-0.095-23.273-2.287-37.299-25.258-38.1
		c-29.063-0.997-27.416,20.203-29.223,39.211c-13.684,3.053-14.617,0.729-26.773,3.741c-40.009,9.913-67.723,26.546-100.834,59.669
		c-32.306,32.318-48.263,59.753-59.01,101.457l-6.441,24.997l-13.648,0.822c-18.214,1.097-28.194,10.595-28.194,26.832
		c0,17.863,11.731,29.689,29.453,29.689c5.666,0,8.631,0.208,13.993,0.622c17.58,87.983,90.03,172.896,171.946,189.011l21.109,4.153
		v14.081c0,9.229,2.508,16.588,7.277,21.357c9.35,9.349,32.913,9.871,41.01,0.909c3.165-3.502,6.284-12.868,6.932-20.813
		l1.179-14.447l27.289-7.576c53.001-14.715,98.652-46.804,127.937-89.927c16.615-24.468,31.497-58.526,35.289-80.769
		c2.422-14.201,3.148-14.867,18.469-16.924C549.571,311.483,561.134,293.822,553.247,273.268z M424.964,191.238
		c1.577,0,10.595,11.697,16.54,24.953c5.883,13.12,8.699,27.774,9.288,32.561c1.008,8.207,0.581,8.292-45.374,9.042
		c-25.515,0.417-46.391-0.096-46.391-1.138C359.028,254.044,422.333,191.238,424.964,191.238z M316.175,171.227l1.011-47.3
		l9.096,1.137c5.003,0.625,20.614,2.755,34.203,9.134l24.306,15.198l-34.813,34.566l-34.813,34.565L316.175,171.227z
		 M250.782,124.228l10.006-2.26v47.37c0,26.053-0.443,47.37-0.984,47.37c-2.45,0-63.952-64.196-64.508-66.666
		C194.41,146.108,232.548,125.026,250.782,124.228z M144.878,203.129l7.761-12.558l32.244,32.094
		c17.734,17.652,32.244,32.947,32.244,33.989s-20.467,1.895-45.481,1.895c-39.548,0-43.48,0.43-45.881,0.092
		C130.565,232.478,136.159,217.237,144.878,203.129z M151.916,379.574c-3.548,1.432-21.273-36.438-24.095-51.478l-2.467-13.148
		h48.176h48.176l-33.714,31.836C169.449,364.294,153.215,379.05,151.916,379.574z M225.703,442.14
		c-19.341-7.951-27.069-16.64-31.472-19.863c3.572-5.155,13.181-15.659,30.197-32.765c16.908-16.996,32.006-30.902,33.551-30.902
		s2.809,20.467,2.809,45.481c0,28.539-0.42,39.94,0.59,47.542C255.266,450.711,241.909,448.802,225.703,442.14z M301.718,319.325
		c-13.18,6.815-29.685,1.756-39.885-10.182c-8.895-10.408-12.729-30.903,2.935-45.663c16.052-15.125,34.845-15.03,49.312,0.832
		c9.071,9.946,12.027,22.18,7.197,33.74C318.246,305.305,307.976,316.09,301.718,319.325z M370.058,433.595
		c-12.892,6.03-28.761,12.026-35.265,13.325l-19.427,3.562v-45.936c0-25.266,1.262-45.937,2.805-45.937s17.412,14.675,35.265,32.61
		l32.459,32.611L370.058,433.595z M451.508,326.954c-1.243,5.503-3.718,15.838-9.412,28.346
		c-5.694,12.507-14.902,25.141-16.55,25.141s-17.663-14.736-35.591-32.746l-32.595-32.746h48.204h48.203L451.508,326.954z"/>
</g>
<g id="Layer_4">
</g>
</svg>
