<?xml version="1.0" encoding="UTF-8"?>
<!-- Generator: Adobe Illustrator 15.0.0, SVG Export Plug-In . SVG Version: 6.00 Build 0)  -->
<svg width="580px" height="580px" enable-background="new 0 0 580 580" version="1.1" viewBox="0 0 580 580" xml:space="preserve" xmlns="http://www.w3.org/2000/svg">

<path d="m66.275 1.7676c-41.335 0-64.572 21.372-64.572 65.037v450.12c0 40.844 20.896 62.229 62.193 62.229h452.02c41.307 0 62.229-20.315 62.229-62.229v-450.12c0-42.602-20.922-65.037-63.52-65.037-3e-3 0-448.5-0.143-448.35 0zm196.82 56.836 28.369 53.803 27.213-51.41 23.227 12.295-35.602 67.26 190.17 360.68 10.928 19.285-0.71289 0.00586 0.07031 0.13086-21.746 0.03711-91.77 0.70703-0.29101-0.55468-202.6 0.33593-0.11523 0.21875-23.41-0.17968-94.236 0.15429 10.439-19.402c71.334-132.56 177.33-330.74 192.83-362.82l-36.008-68.293 23.246-12.256zm28.643 228.26c-21.707 73.165-67.535 167.7-87.832 208.01l175.52-0.28907c-20.372-40.472-66.034-134.74-87.689-207.72z"/>
</svg>
