<?xml version="1.0" encoding="UTF-8" standalone="no"?>
<!-- Generator: Adobe Illustrator 15.0.0, SVG Export Plug-In . SVG Version: 6.00 Build 0)  -->

<svg
   version="1.1"
   x="0px"
   y="0px"
   width="576.44501"
   height="577.45154"
   viewBox="0 0 576.44501 577.45154"
   enable-background="new 0 0 580 580"
   xml:space="preserve"
   id="svg1"
   xmlns="http://www.w3.org/2000/svg"
   xmlns:svg="http://www.w3.org/2000/svg"><defs
   id="defs1" />
<path
   id="path3"
   style="fill:#111111;stroke-width:3.408"
   d="M 64.570312,0.06445312 C 23.235312,0.06445312 0,21.434609 0,65.099609 V 515.22266 c 0,40.844 20.894406,62.22851 62.191406,62.22851 H 514.2168 c 41.307,0 62.22851,-20.31451 62.22851,-62.22851 V 65.099609 c 0,-42.601 -20.92348,-65.03515588 -63.52148,-65.03515588 -0.004,0 -448.495516,-0.14299998 -448.353518,0 z M 242.89062,27.279297 h 86.21876 c 5.52099,0 9.997,4.475094 10,9.996094 0.008,17.176 0.003,34.352296 -0.002,51.529297 -0.006,27.494002 -0.0127,55.919902 0.0312,83.878902 0.17005,2.351 0.0344,4.62036 -0.0976,6.81836 -0.071,1.167 -0.17158,2.84186 -0.14258,4.13086 14.51597,0.12304 30.10243,0.17774 49.77539,0.17774 10.241,0 20.48165,-0.0143 30.72265,-0.0293 17.476,-0.0251 34.95679,-0.0489 52.42579,-0.002 1.378,0.004 2.68931,0.28727 3.88281,0.79492 5.6e-4,2.4e-4 10e-4,-2.4e-4 0.002,0 0.29781,0.12673 0.58893,0.26793 0.87109,0.42187 0.56536,0.30845 1.09729,0.66849 1.58985,1.07618 1.23139,1.01922 2.21508,2.32863 2.8457,3.82226 0.25225,0.59745 0.44729,1.22498 0.58008,1.875 0.13279,0.65002 0.20313,1.32247 0.20313,2.01172 v 77 c 0,5.521 -4.4751,9.997 -9.9961,10 -6.46,0.003 -12.914,0.004 -19.375,0.004 l -54.38281,-0.01 c -15.946,0 -31.89485,0.009 -47.83985,0.0371 -0.73099,0.052 -1.49621,0.0762 -2.32421,0.0762 -1.547,0 -3.04614,-0.0888 -4.49414,-0.17578 -1.271,-0.076 -2.47207,-0.14844 -3.53907,-0.14844 -0.208,0 -0.39826,0.003 -0.57226,0.008 -0.24602,52.818 -0.20502,106.46839 -0.16602,158.40039 0.024,32.892 0.05,66.90451 0.002,100.35351 -10e-4,0.6895 -0.0712,1.36159 -0.20508,2.01172 -1.3e-4,6.3e-4 1.3e-4,10e-4 0,0.002 -0.93787,4.55001 -4.96733,7.97266 -9.79492,7.97266 h -86.21876 c -1.3796,0 -2.69485,-0.27962 -3.89062,-0.78516 -5.4e-4,-2.3e-4 -10e-4,2.3e-4 -0.002,0 -0.89717,-0.37949 -1.72597,-0.88674 -2.4668,-1.49804 -0.24732,-0.20408 -0.48441,-0.41994 -0.71094,-0.64649 -1.35688,-1.35661 -2.32635,-3.1011 -2.72656,-5.05273 -1.3e-4,-6.3e-4 1.3e-4,-10e-4 0,-0.002 -0.009,-0.0429 -0.0113,-0.0878 -0.0195,-0.13085 -0.11673,-0.61072 -0.18348,-1.23817 -0.1836,-1.88282 -0.008,-31.704 -0.004,-63.40732 0,-95.11133 0.007,-49.93099 0.0137,-101.55207 -0.0312,-152.33007 -0.16897,-2.351 -0.0343,-4.61941 0.0977,-6.81641 0.071,-1.16697 0.17157,-2.84187 0.14258,-4.13086 -13.976,-0.12198 -28.98892,-0.17578 -47.91992,-0.17578 -9.897,0 -19.79441,0.0143 -29.69141,0.0293 -16.905,0.0251 -33.81875,0.05 -50.71875,0.002 -1.7225,-0.005 -3.34274,-0.44573 -4.75586,-1.2168 -0.565244,-0.30842 -1.097403,-0.66852 -1.589842,-1.07617 -1.969281,-1.63018 -3.303595,-4.00201 -3.576172,-6.68555 -6.5e-5,-6.4e-4 6.5e-5,-10e-4 0,-0.002 -0.03402,-0.33554 -0.05078,-0.67503 -0.05078,-1.01953 v -77 c 0,-0.34425 0.01681,-0.68422 0.05078,-1.01953 0.06793,-0.67063 0.202645,-1.32237 0.396485,-1.94727 0.484453,-1.56175 1.342941,-2.95947 2.46875,-4.08984 0.22557,-0.22648 0.460707,-0.44233 0.707031,-0.64649 1.721668,-1.42689 3.929658,-2.28768 6.339848,-2.29687 15.222,-0.056 30.44101,-0.0271 45.66601,0.002 8.908,0.018 17.81566,0.0352 26.72266,0.0352 18.839,0 33.35903,-0.0799 47.08203,-0.25586 0.337,-0.003 0.67667,0.007 1.01367,0.0371 l 1.375,0.12891 c 1.708,0.163 3.47345,0.33203 5.06445,0.33203 0.475,0 0.87404,-0.0151 1.20703,-0.0391 V 37.279297 c 0,-5.523 4.47801,-10 10,-10 z" />


</svg>
