<?xml version="1.0" encoding="iso-8859-1"?>
<!-- Uploaded to: SVG Repo, www.svgrepo.com, Generator: SVG Repo Mixer Tools -->
<svg height="800px" width="800px" version="1.1" id="Layer_1" xmlns="http://www.w3.org/2000/svg" xmlns:xlink="http://www.w3.org/1999/xlink" 
	 viewBox="0 0 512 512" xml:space="preserve">
<path style="fill:#FFC107;" d="M294.912,152.235c-12.117-4.523-25.173-7.168-38.912-7.168c-13.739,0-26.795,2.645-38.912,7.168
	L256,35.499L294.912,152.235z"/>
<path d="M503.467,247.467h-136.96c-2.731-35.243-21.931-65.963-50.005-84.309L264.107,5.803C262.912,2.389,259.669,0,256,0
	c-3.669,0-6.912,2.389-8.107,5.803l-52.395,157.355c-28.075,18.347-47.275,49.067-50.005,84.309H8.533C3.84,247.467,0,251.307,0,256
	c0,4.693,3.84,8.533,8.533,8.533h136.96c4.181,54.357,47.616,97.792,101.973,101.973v136.96c0,4.693,3.84,8.533,8.533,8.533
	c4.693,0,8.533-3.84,8.533-8.533v-136.96c54.357-4.181,97.792-47.616,101.973-101.973h136.96c4.693,0,8.533-3.84,8.533-8.533
	C512,251.307,508.16,247.467,503.467,247.467z M247.467,349.44c-44.971-4.096-80.811-39.936-84.907-84.907h84.907V349.44z
	 M247.467,247.467H162.56c4.096-44.971,39.936-80.811,84.907-84.907V247.467z M256,145.067c-13.739,0-26.795,2.645-38.912,7.168
	L256,35.499l38.912,116.736C282.795,147.712,269.739,145.067,256,145.067z M264.533,349.44v-84.907h84.907
	C345.344,309.504,309.504,345.344,264.533,349.44z M264.533,247.467V162.56c44.971,4.096,80.811,39.936,84.907,84.907H264.533z"/>
<path style="fill:#00796B;" d="M349.44,264.533c-4.096,44.971-39.936,80.811-84.907,84.907v-84.907H349.44z"/>
<path style="fill:#004D40;" d="M247.467,264.533v84.907c-44.971-4.096-80.811-39.936-84.907-84.907H247.467z"/>
<path style="fill:#00796B;" d="M247.467,162.56v84.907H162.56C166.656,202.496,202.496,166.656,247.467,162.56z"/>
<path style="fill:#004D40;" d="M349.44,247.467h-84.907V162.56C309.504,166.656,345.344,202.496,349.44,247.467z"/>
<path style="fill:#F9A825;" d="M256,135.168c-12.365,0-24.132,2.227-35.209,5.956l-3.703,11.11
	c12.117-4.523,25.173-7.168,38.912-7.168c13.739,0,26.795,2.645,38.912,7.168l-3.703-11.11
	C280.132,137.404,268.365,135.168,256,135.168z"/>
</svg>