<?xml version="1.0" encoding="UTF-8"?>
<!-- Uploaded to: SVG Repo, www.svgrepo.com, Generator: SVG Repo Mixer Tools -->
<svg width="780.98" height="780.98" fill="#000000" version="1.1" viewBox="0 0 48.79 48.79" xml:space="preserve" xmlns="http://www.w3.org/2000/svg">
<g transform="translate(-2.9532 -.40938)">
	<g fill="#346751">
		<path d="m46.808 24.668-4.2805-0.63895c-0.19275-3.9142-1.8077-7.451-4.3505-10.091l4.0339-4.0631-0.27864-0.28174-4.0319 4.0611c-2.7095-2.6725-6.3839-4.3448-10.44-4.4495l-0.56728-3.8608v3.8488-3.8488l-0.56927 3.878c-3.894 0.18816-7.4155 1.8152-10.042 4.3821l-4.0249-4.0108-0.30062 0.30287 4.0229 4.0098c-2.6177 2.7017-4.2616 6.3512-4.3934 10.383l-3.6983 0.55141 3.7003 0.55241c0.14681 3.9766 1.7667 7.5758 4.3365 10.255l-3.9699 3.9776 0.30062 0.30287 3.9669-3.9735c2.6706 2.6373 6.282 4.2975 10.274 4.4455l0.56628 3.8639v-3.8357 3.8357l0.56628-3.8639c3.9719-0.14691 7.5644-1.7921 10.231-4.4062l4.0498 4.0782 0.30062-0.30287-4.0488-4.0792c2.6117-2.7047 4.2516-6.3522 4.3794-10.385zm-23.619-2.111-4.1956 0.62586c0.28464-1.4349 0.9388-2.7258 1.8536-3.7914zm-1.4372-4.0681c0.98574-0.8422 2.1632-1.4479 3.4646-1.7508l-0.56428 3.8387zm3.6004-2.6755c-0.21273 0.04025-0.42446 0.08653-0.6312 0.14288l-0.29762-1.7015c0.38751-0.09861 0.787-0.161 1.1895-0.21332zm-0.83793 0.19521c-0.64618 0.18917-1.2634 0.44676-1.8426 0.76975l-0.82095-1.5113c0.73906-0.41154 1.535-0.73051 2.367-0.95892zm-2.0244 0.87943c-0.52433 0.30891-1.0017 0.68322-1.4531 1.0857l-1.4282-1.0273c0.62221-0.5997 1.3103-1.13 2.0604-1.5677zm-2.1652 1.7981c-0.42646 0.47594-0.81796 0.98508-1.1405 1.5435l-1.3663-1.0465c0.41647-0.69228 0.91583-1.3212 1.4681-1.9017zm-1.2504 1.7287c-0.32359 0.59568-0.57726 1.2366-0.76502 1.9017l-1.6549-0.42362c0.24569-0.89452 0.60123-1.7397 1.0537-2.5246zm-0.81696 2.11c-0.06691 0.2596-0.11086 0.52424-0.1548 0.79088l-1.7677 0.26363c0.05893-0.50311 0.14382-0.99716 0.26566-1.4781zm5.8595 0.32803 1.1156 0.78082 9.99e-4 0.02415c-0.12584 0.23042-0.21473 0.48198-0.25667 0.75064h-11.291zm-3.4266 7.1773c-0.81796-1.0092-1.3982-2.2076-1.6729-3.5298l3.7772 0.56549zm4.0718-1.4218 0.63319 4.3086c-1.4581-0.30589-2.7675-0.99615-3.8331-1.9641zm-6.6485-2.2429c0.04794 0.29885 0.10487 0.59467 0.18476 0.88245l-1.6898 0.28878c-0.11985-0.46588-0.20174-0.94685-0.26366-1.4349zm0.2377 1.0907c0.21273 0.70737 0.51335 1.3735 0.87988 1.9983l-1.551 0.74158c-0.43544-0.76472-0.77701-1.5848-1.0197-2.4521zm0.98974 2.1835c0.24669 0.39746 0.53132 0.76573 0.83194 1.1179l-1.0157 1.4308c-0.51135-0.55644-0.97775-1.1531-1.3673-1.8062zm1.5071 1.8333c0.48139 0.45582 1.0067 0.86635 1.579 1.2105l-0.94679 1.4328c-0.74305-0.4538-1.4262-0.99816-2.0384-1.613zm1.7608 1.3232c0.61022 0.34815 1.2654 0.62184 1.9525 0.81906l-0.43944 1.6623c-0.86989-0.24753-1.6928-0.60272-2.4589-1.0495zm2.1592 0.8744c0.24868 0.0644 0.50436 0.10565 0.76003 0.15093l0.26167 1.782c-0.49737-0.06239-0.98674-0.14691-1.4611-0.27268zm0.32758-5.7233 0.08189-0.16301 0.68712-0.99515 0.30761-0.01912c0.14681 0.07647 0.30261 0.13584 0.46441 0.18112l-9.99e-4 11.471zm0.69811-3.1947c0-0.78585 0.63619-1.4258 1.4182-1.4258 0.78 0 1.4142 0.63995 1.4142 1.4258 0 0.78786-0.63419 1.4288-1.4142 1.4288-0.782 0-1.4182-0.64096-1.4182-1.4288zm5.3272 2.2559 4.0159-0.5997c-0.27066 1.3876-0.88287 2.6484-1.7488 3.6948zm1.3453 4.0571c-0.89985 0.78887-1.9655 1.3896-3.143 1.7287l-0.03296 7e-3v3e-3c-0.18177 0.05132-0.37452 0.07547-0.56128 0.1137l0.61222-4.1687 0.04994 0.10163zm-3.2439-9.8488-0.67014-4.5642c1.5211 0.28275 2.8853 0.99112 3.9909 1.9913zm4.0818-1.787c0.84093 0.98911 1.4482 2.1744 1.7538 3.4845l-3.8211-0.56952zm2.6666 3.6204c-0.02696-0.13684-0.04294-0.27671-0.0759-0.41255l1.6819-0.32601c0.0759 0.32803 0.12884 0.66511 0.17278 1.0042zm-0.12884-0.62083c-0.20474-0.7607-0.49637-1.4822-0.87688-2.1503l1.5221-0.78786c0.45242 0.81201 0.79998 1.6884 1.0337 2.6121zm-0.98574-2.3334c-0.29862-0.49908-0.65716-0.9559-1.0397-1.3876l1.0187-1.4359c0.58825 0.6148 1.1096 1.294 1.543 2.0356zm-1.6209-1.9893c-0.48238-0.4538-1.0067-0.86333-1.58-1.2034l0.97476-1.4168c0.72108 0.43972 1.3802 0.96697 1.9785 1.5576zm-1.7628-1.3151c-0.57726-0.323-1.1935-0.58461-1.8407-0.77579l0.56828-1.6291c0.79199 0.2425 1.543 0.57958 2.2451 0.9881zm-2.0464-0.83113c-0.32658-0.08855-0.66415-0.14691-1.0037-0.20024l-0.26067-1.776c0.6262 0.06641 1.2404 0.1781 1.8317 0.34614zm-0.56428 5.7354-0.68712 0.99313c-0.26366-0.12477-0.55429-0.19621-0.85791-0.20929v-11.294zm-0.26566 12.128c0.28663-0.0473 0.57027-0.10263 0.84792-0.17911l0.3126 1.6975c-0.46141 0.11873-0.9388 0.20124-1.4212 0.26262zm1.0537-0.22942c0.69511-0.20929 1.3523-0.50311 1.9685-0.86233l0.75803 1.5506c-0.75604 0.43167-1.561 0.76875-2.4129 1.0082zm2.1513-0.97402c0.49037-0.30388 0.9388-0.6641 1.3623-1.0525l1.4282 1.0273c-0.61222 0.60172-1.2943 1.132-2.0354 1.5737zm2.1013-1.8152c0.34356-0.39846 0.66515-0.81403 0.9368-1.2658l1.3882 1.0123c-0.37252 0.60172-0.81196 1.1511-1.2894 1.6643zm1.0507-1.4489c0.38751-0.6802 0.68712-1.4157 0.89386-2.1905l1.6299 0.52424c-0.26067 0.95188-0.64518 1.8494-1.1366 2.6775zm0.94679-2.3988c0.05293-0.22237 0.08589-0.45179 0.12484-0.68221l1.7478-0.2596c-0.05393 0.49707-0.12484 0.99012-0.24569 1.4661zm-5.3212-0.30488-1.1136-0.77881-0.03895-0.66108c8e-3 -0.03823 0.02097-0.07547 0.02497-0.1137h11.399c0 8e-3 -2e-3 0.0161-2e-3 0.02415zm10.235-2.8798-2.6276-0.39242c-0.3136-2.5004-1.4342-4.7483-3.098-6.4659l0.38651-0.54235-0.51834 0.40047c-1.7977-1.7921-4.1956-2.9703-6.8583-3.2189l-0.38551-2.6232c6.9671 0.33004 12.588 5.8733 13.101 12.842zm-13.922-12.866v3.4262zm-0.82395 0.04226-0.3905 2.6544c-0.44943 0.05333-0.89486 0.12075-1.3283 0.22942l-9.98e-4 -8e-3 -0.20973 0.03723 5e-3 0.02415c-1.8666 0.50713-3.5375 1.4912-4.8878 2.8063l-0.87089-0.62687 0.63319 0.85629c-1.7208 1.777-2.8604 4.1215-3.126 6.7255l-2.5957 0.38739c0.38351-6.9761 5.8785-12.588 12.772-13.086zm-12.767 14.699 2.6157 0.39041c0.17478 1.5979 0.66316 3.1012 1.4282 4.4294l0.05093 0.10465 0.01198-5e-3c0.42346 0.71844 0.92981 1.3785 1.4941 1.9843l-0.51634 0.72749 0.7101-0.52021c1.7677 1.8001 4.1277 2.9975 6.7594 3.2853l0.38551 2.6272c-6.9501-0.41358-12.521-6.0222-12.939-13.023zm13.761 13.067v-3.4392zm0.82195-0.04226 0.38751-2.6343c2.5887-0.28073 4.9157-1.4409 6.6715-3.1877l0.97176 0.69831-0.71409-0.97402c1.6619-1.7669 2.7615-4.0681 3.0172-6.6249l2.6097-0.3894c-0.37852 7.0435-5.9654 12.694-12.943 13.112z" stroke-width="1.0025"/>
		
		
		
		
	<text x="25.74836" y="4.9779506" font-family="Monaco" font-size="5.331px" stop-color="#000000" stroke="#346751" stroke-miterlimit="0" stroke-width=".071094" style="font-variant-caps:normal;font-variant-east-asian:normal;font-variant-ligatures:normal;font-variant-numeric:normal" xml:space="preserve"><tspan x="25.74836" y="4.9779506" fill="#346751" font-family="Monaco" font-size="5.331px" stroke-width=".071094" style="font-variant-caps:normal;font-variant-east-asian:normal;font-variant-ligatures:normal;font-variant-numeric:normal">N</tspan></text><text x="46.928818" y="26.824083" font-family="Monaco" font-size="5.331px" stop-color="#000000" stroke="#346751" stroke-miterlimit="0" stroke-width=".071094" style="font-variant-caps:normal;font-variant-east-asian:normal;font-variant-ligatures:normal;font-variant-numeric:normal" xml:space="preserve"><tspan x="46.928818" y="26.824083" fill="#346751" font-family="Monaco" font-size="5.331px" stroke-width=".071094" style="font-variant-caps:normal;font-variant-east-asian:normal;font-variant-ligatures:normal;font-variant-numeric:normal">E</tspan></text><text x="25.708014" y="48.711216" font-family="Monaco" font-size="5.331px" stop-color="#000000" stroke="#346751" stroke-miterlimit="0" stroke-width=".071094" style="font-variant-caps:normal;font-variant-east-asian:normal;font-variant-ligatures:normal;font-variant-numeric:normal" xml:space="preserve"><tspan x="25.708014" y="48.711216" fill="#346751" font-family="Monaco" font-size="5.331px" stroke-width=".071094" style="font-variant-caps:normal;font-variant-east-asian:normal;font-variant-ligatures:normal;font-variant-numeric:normal">S</tspan></text><text x="4.7230997" y="26.824083" font-family="Monaco" font-size="5.331px" stop-color="#000000" stroke="#346751" stroke-miterlimit="0" stroke-width=".071094" style="font-variant-caps:normal;font-variant-east-asian:normal;font-variant-ligatures:normal;font-variant-numeric:normal" xml:space="preserve"><tspan x="4.7230997" y="26.824083" fill="#346751" font-family="Monaco" font-size="5.331px" stroke-width=".071094" style="font-variant-caps:normal;font-variant-east-asian:normal;font-variant-ligatures:normal;font-variant-numeric:normal">W</tspan></text></g>
</g>
</svg>
