<?xml version="1.0" encoding="UTF-8" standalone="no"?>
<!-- Created with Inkscape (http://www.inkscape.org/) -->

<svg
   xmlns:dc="http://purl.org/dc/elements/1.1/"
   xmlns:cc="http://creativecommons.org/ns#"
   xmlns:rdf="http://www.w3.org/1999/02/22-rdf-syntax-ns#"
   xmlns:svg="http://www.w3.org/2000/svg"
   xmlns="http://www.w3.org/2000/svg"
   xmlns:sodipodi="http://sodipodi.sourceforge.net/DTD/sodipodi-0.dtd"
   xmlns:inkscape="http://www.inkscape.org/namespaces/inkscape"
   version="1.0"
   x="0.00000000"
   y="0.00000000"
   width="600.00000"
   height="600.00000"
   id="svg2"
   sodipodi:version="0.32"
   inkscape:version="0.47 r22583"
   sodipodi:docname="Brosen_windrose.svg"
   inkscape:label="napisy">
  <metadata
     id="metadata36">
    <rdf:RDF>
      <cc:Work
         rdf:about="">
        <dc:format>image/svg+xml</dc:format>
        <dc:type
           rdf:resource="http://purl.org/dc/dcmitype/StillImage" />
      </cc:Work>
    </rdf:RDF>
  </metadata>
  <sodipodi:namedview
     inkscape:window-height="753"
     inkscape:window-width="1280"
     inkscape:pageshadow="2"
     inkscape:pageopacity="0.0"
     borderopacity="1.0"
     bordercolor="#666666"
     pagecolor="#ffffff"
     id="base"
     inkscape:zoom="1.1297537"
     inkscape:cx="512.0645"
     inkscape:cy="425.0932"
     inkscape:window-x="-4"
     inkscape:window-y="-4"
     inkscape:current-layer="layer5"
     showgrid="true"
     inkscape:object-nodes="false"
     inkscape:snap-center="false"
     inkscape:object-paths="false"
     inkscape:snap-intersection-paths="true"
     inkscape:snap-nodes="false"
     inkscape:window-maximized="1" />
  <defs
     id="defs4">
    <inkscape:perspective
       sodipodi:type="inkscape:persp3d"
       inkscape:vp_x="0 : 300 : 1"
       inkscape:vp_y="0 : 1000 : 0"
       inkscape:vp_z="600 : 300 : 1"
       inkscape:persp3d-origin="300 : 200 : 1"
       id="perspective83" />
  </defs>
  <g
     inkscape:groupmode="layer"
     id="layer7"
     inkscape:label="p4"
     style="display:inline">
    <path
       sodipodi:type="arc"
       style="opacity:1;fill:none;fill-opacity:1;fill-rule:nonzero;stroke:#000000;stroke-width:0.88720989;stroke-linecap:square;stroke-linejoin:miter;stroke-miterlimit:4;stroke-dasharray:none;stroke-dashoffset:0;stroke-opacity:1"
       id="path2408"
       sodipodi:cx="187.67506"
       sodipodi:cy="113.40358"
       sodipodi:rx="119.73839"
       sodipodi:ry="119.73839"
       d="M 307.41345 113.40358 A 119.73839 119.73839 0 1 1  67.936676,113.40358 A 119.73839 119.73839 0 1 1  307.41345 113.40358 z"
       transform="matrix(1.127129,0,0,1.127129,95.65651,171.7962)" />
  </g>
  <g
     style="display:inline"
     id="layer3" />
  <g
     style="display:inline"
     id="layer4" />
  <g
     inkscape:groupmode="layer"
     id="layer1"
     inkscape:label="p3"
     style="display:inline">
    <g
       id="g2362"
       transform="matrix(0.695009,0,0,0.683713,94.00027,94.69452)">
      <path
         d="M 264.65488,281.35479 L 307.55343,299.12392 L 307.53867,299.13003 L 83.172594,392.06566 L 264.65488,281.35479"
         style="fill:#c2c2c2;fill-opacity:1;fill-rule:evenodd;stroke:#c2c2c2;stroke-width:1.0000006;stroke-linecap:square;stroke-linejoin:miter;stroke-miterlimit:4;stroke-dasharray:none;stroke-opacity:1;display:inline"
         id="path8773" />
      <path
         d="M 290.16697,342.94635 L 307.9361,300.0478 L 307.92135,300.05391 L 83.555271,392.98954 L 290.16697,342.94635"
         style="fill:#999999;fill-opacity:1;fill-rule:evenodd;stroke:#999999;stroke-width:1.0000006;stroke-linecap:square;stroke-linejoin:miter;stroke-miterlimit:4;stroke-dasharray:none;stroke-opacity:1;display:inline"
         id="path8775" />
      <path
         d="M 351.75849,317.43427 L 308.85994,299.66514 L 308.8747,299.65903 L 533.24078,206.7234 L 351.75849,317.43427"
         style="fill:#e1e1e1;fill-opacity:1;fill-rule:evenodd;stroke:#c2c2c2;stroke-width:1.0000006;stroke-linecap:square;stroke-linejoin:miter;stroke-miterlimit:4;stroke-dasharray:none;stroke-opacity:1;display:inline"
         id="path8779" />
      <path
         d="M 290.16693,342.94611 L 307.93606,300.04756 L 307.94217,300.06232 L 400.8778,524.4284 L 290.16693,342.94611"
         style="fill:#c2c2c2;fill-opacity:1;fill-rule:evenodd;stroke:#c2c2c2;stroke-width:1.0000006;stroke-linecap:square;stroke-linejoin:miter;stroke-miterlimit:4;stroke-dasharray:none;stroke-opacity:1;display:inline"
         id="path8787" />
      <path
         d="M 351.75849,317.43402 L 308.85994,299.66489 L 308.86605,299.67964 L 401.80168,524.04572 L 351.75849,317.43402"
         style="fill:#999999;fill-opacity:1;fill-rule:evenodd;stroke:#999999;stroke-width:1.0000006;stroke-linecap:square;stroke-linejoin:miter;stroke-miterlimit:4;stroke-dasharray:none;stroke-opacity:1;display:inline"
         id="path8789" />
      <path
         d="M 326.24641,255.8425 L 308.47728,298.74105 L 308.47117,298.72629 L 215.53554,74.360214 L 326.24641,255.8425"
         style="fill:#e1e1e1;fill-opacity:1;fill-rule:evenodd;stroke:#c2c2c2;stroke-width:1.0000006;stroke-linecap:square;stroke-linejoin:miter;stroke-miterlimit:4;stroke-dasharray:none;stroke-opacity:1;display:inline"
         id="path8793" />
      <path
         d="M 264.65485,281.3546 L 307.5534,299.12373 L 307.53864,299.12984 L 83.172563,392.06547 L 264.65485,281.3546"
         style="fill:#e1e1e1;fill-opacity:1;fill-rule:evenodd;stroke:#c2c2c2;stroke-width:1.0000006;stroke-linecap:square;stroke-linejoin:miter;stroke-miterlimit:4;stroke-dasharray:none;stroke-opacity:1;display:inline"
         id="path1397" />
      <path
         d="M 290.16693,342.94637 L 307.93606,300.04782 L 307.94217,300.06258 L 400.8778,524.42866 L 290.16693,342.94637"
         style="fill:#e1e1e1;fill-opacity:1;fill-rule:evenodd;stroke:#c2c2c2;stroke-width:1.0000006;stroke-linecap:square;stroke-linejoin:miter;stroke-miterlimit:4;stroke-dasharray:none;stroke-opacity:1;display:inline"
         id="path1405" />
      <g
         id="g2356">
        <path
           id="path8781"
           style="fill:#b4b4b4;fill-opacity:1;fill-rule:evenodd;stroke:#b4b4b4;stroke-width:1;stroke-linecap:square;stroke-linejoin:miter;stroke-miterlimit:4;stroke-dasharray:none;stroke-opacity:1;display:inline"
           d="M 326.2464,255.84271 L 308.47727,298.74126 L 308.49202,298.73515 L 532.8581,205.79952 L 326.2464,255.84271" />
        <path
           id="path8795"
           style="fill:#b4b4b4;fill-opacity:1;fill-rule:evenodd;stroke:#b4b4b4;stroke-width:1;stroke-linecap:square;stroke-linejoin:miter;stroke-miterlimit:4;stroke-dasharray:none;stroke-opacity:1;display:inline"
           d="M 264.65485,281.35459 L 307.5534,299.12372 L 307.54729,299.10897 L 214.61166,74.742891 L 264.65485,281.35459" />
        <path
           id="path1399"
           style="fill:#b4b4b4;fill-opacity:1;fill-rule:evenodd;stroke:#b4b4b4;stroke-width:1;stroke-linecap:square;stroke-linejoin:miter;stroke-miterlimit:4;stroke-dasharray:none;stroke-opacity:1;display:inline"
           d="M 290.16694,342.94616 L 307.93607,300.04761 L 307.92132,300.05372 L 83.55524,392.98935 L 290.16694,342.94616" />
        <path
           id="path1407"
           style="fill:#b4b4b4;fill-opacity:1;fill-rule:evenodd;stroke:#b4b4b4;stroke-width:1;stroke-linecap:square;stroke-linejoin:miter;stroke-miterlimit:4;stroke-dasharray:none;stroke-opacity:1;display:inline"
           d="M 351.75849,317.43428 L 308.85994,299.66515 L 308.86605,299.6799 L 401.80168,524.04598 L 351.75849,317.43428" />
      </g>
    </g>
    <g
       style="display:inline"
       id="g2377"
       transform="matrix(0.491446,-0.491446,0.483458,0.483458,11.99521,306.1165)">
      <path
         d="M 264.65488,281.35479 L 307.55343,299.12392 L 307.53867,299.13003 L 83.172594,392.06566 L 264.65488,281.35479"
         style="fill:#c2c2c2;fill-opacity:1;fill-rule:evenodd;stroke:#c2c2c2;stroke-width:1.0000006;stroke-linecap:square;stroke-linejoin:miter;stroke-miterlimit:4;stroke-dasharray:none;stroke-opacity:1;display:inline"
         id="path2379" />
      <path
         d="M 290.16697,342.94635 L 307.9361,300.0478 L 307.92135,300.05391 L 83.555271,392.98954 L 290.16697,342.94635"
         style="fill:#999999;fill-opacity:1;fill-rule:evenodd;stroke:#999999;stroke-width:1.0000006;stroke-linecap:square;stroke-linejoin:miter;stroke-miterlimit:4;stroke-dasharray:none;stroke-opacity:1;display:inline"
         id="path2381" />
      <path
         d="M 351.75849,317.43427 L 308.85994,299.66514 L 308.8747,299.65903 L 533.24078,206.7234 L 351.75849,317.43427"
         style="fill:#e1e1e1;fill-opacity:1;fill-rule:evenodd;stroke:#c2c2c2;stroke-width:1.0000006;stroke-linecap:square;stroke-linejoin:miter;stroke-miterlimit:4;stroke-dasharray:none;stroke-opacity:1;display:inline"
         id="path2383" />
      <path
         d="M 290.16693,342.94611 L 307.93606,300.04756 L 307.94217,300.06232 L 400.8778,524.4284 L 290.16693,342.94611"
         style="fill:#c2c2c2;fill-opacity:1;fill-rule:evenodd;stroke:#c2c2c2;stroke-width:1.0000006;stroke-linecap:square;stroke-linejoin:miter;stroke-miterlimit:4;stroke-dasharray:none;stroke-opacity:1;display:inline"
         id="path2385" />
      <path
         d="M 351.75849,317.43402 L 308.85994,299.66489 L 308.86605,299.67964 L 401.80168,524.04572 L 351.75849,317.43402"
         style="fill:#999999;fill-opacity:1;fill-rule:evenodd;stroke:#999999;stroke-width:1.0000006;stroke-linecap:square;stroke-linejoin:miter;stroke-miterlimit:4;stroke-dasharray:none;stroke-opacity:1;display:inline"
         id="path2387" />
      <path
         d="M 326.24641,255.8425 L 308.47728,298.74105 L 308.47117,298.72629 L 215.53554,74.360214 L 326.24641,255.8425"
         style="fill:#e1e1e1;fill-opacity:1;fill-rule:evenodd;stroke:#c2c2c2;stroke-width:1.0000006;stroke-linecap:square;stroke-linejoin:miter;stroke-miterlimit:4;stroke-dasharray:none;stroke-opacity:1;display:inline"
         id="path2389" />
      <path
         d="M 264.65485,281.3546 L 307.5534,299.12373 L 307.53864,299.12984 L 83.172563,392.06547 L 264.65485,281.3546"
         style="fill:#e1e1e1;fill-opacity:1;fill-rule:evenodd;stroke:#c2c2c2;stroke-width:1.0000006;stroke-linecap:square;stroke-linejoin:miter;stroke-miterlimit:4;stroke-dasharray:none;stroke-opacity:1;display:inline"
         id="path2391" />
      <path
         d="M 290.16693,342.94637 L 307.93606,300.04782 L 307.94217,300.06258 L 400.8778,524.42866 L 290.16693,342.94637"
         style="fill:#e1e1e1;fill-opacity:1;fill-rule:evenodd;stroke:#c2c2c2;stroke-width:1.0000006;stroke-linecap:square;stroke-linejoin:miter;stroke-miterlimit:4;stroke-dasharray:none;stroke-opacity:1;display:inline"
         id="path2393" />
      <g
         id="g2395">
        <path
           id="path2397"
           style="fill:#b4b4b4;fill-opacity:1;fill-rule:evenodd;stroke:#b4b4b4;stroke-width:1;stroke-linecap:square;stroke-linejoin:miter;stroke-miterlimit:4;stroke-dasharray:none;stroke-opacity:1;display:inline"
           d="M 326.2464,255.84271 L 308.47727,298.74126 L 308.49202,298.73515 L 532.8581,205.79952 L 326.2464,255.84271" />
        <path
           id="path2399"
           style="fill:#b4b4b4;fill-opacity:1;fill-rule:evenodd;stroke:#b4b4b4;stroke-width:1;stroke-linecap:square;stroke-linejoin:miter;stroke-miterlimit:4;stroke-dasharray:none;stroke-opacity:1;display:inline"
           d="M 264.65485,281.35459 L 307.5534,299.12372 L 307.54729,299.10897 L 214.61166,74.742891 L 264.65485,281.35459" />
        <path
           id="path2401"
           style="fill:#b4b4b4;fill-opacity:1;fill-rule:evenodd;stroke:#b4b4b4;stroke-width:1;stroke-linecap:square;stroke-linejoin:miter;stroke-miterlimit:4;stroke-dasharray:none;stroke-opacity:1;display:inline"
           d="M 290.16694,342.94616 L 307.93607,300.04761 L 307.92132,300.05372 L 83.55524,392.98935 L 290.16694,342.94616" />
        <path
           id="path2403"
           style="fill:#b4b4b4;fill-opacity:1;fill-rule:evenodd;stroke:#b4b4b4;stroke-width:1;stroke-linecap:square;stroke-linejoin:miter;stroke-miterlimit:4;stroke-dasharray:none;stroke-opacity:1;display:inline"
           d="M 351.75849,317.43428 L 308.85994,299.66515 L 308.86605,299.6799 L 401.80168,524.04598 L 351.75849,317.43428" />
      </g>
    </g>
  </g>
  <g
     inkscape:groupmode="layer"
     id="layer6"
     inkscape:label="p2"
     style="display:inline">
    <g
       style="display:inline"
       id="g1536"
       transform="translate(-55.8718,-38.60234)">
      <path
         d="M 316.93813,337.99683 L 363.37116,337.99683 L 363.35986,338.00812 L 191.63751,509.73048 L 316.93813,337.99683"
         style="fill:#c2c2c2;fill-opacity:1;fill-rule:evenodd;stroke:#c2c2c2;stroke-width:1.00000036;stroke-linecap:square;stroke-linejoin:miter;stroke-miterlimit:4;stroke-dasharray:none;stroke-opacity:1;display:inline"
         id="path1538" />
      <path
         d="M 364.07826,385.13697 L 364.07826,338.70394 L 364.06697,338.71523 L 192.34461,510.43759 L 364.07826,385.13697"
         style="fill:#999999;fill-opacity:1;fill-rule:evenodd;stroke:#999999;stroke-width:1.00000036;stroke-linecap:square;stroke-linejoin:miter;stroke-miterlimit:4;stroke-dasharray:none;stroke-opacity:1;display:inline"
         id="path1540" />
      <path
         d="M 411.21837,337.99687 L 364.78534,337.99687 L 364.79664,337.98558 L 536.51899,166.26322 L 411.21837,337.99687"
         style="fill:#c2c2c2;fill-opacity:1;fill-rule:evenodd;stroke:#c2c2c2;stroke-width:1.00000036;stroke-linecap:square;stroke-linejoin:miter;stroke-miterlimit:4;stroke-dasharray:none;stroke-opacity:1;display:inline"
         id="path1542" />
      <path
         d="M 364.07824,290.85673 L 364.07824,337.28976 L 364.08953,337.27847 L 535.81189,165.55611 L 364.07824,290.85673"
         style="fill:#999999;fill-opacity:1;fill-rule:evenodd;stroke:#999999;stroke-width:1.00000036;stroke-linecap:square;stroke-linejoin:miter;stroke-miterlimit:4;stroke-dasharray:none;stroke-opacity:1;display:inline"
         id="path1544" />
      <path
         d="M 364.07813,385.13677 L 364.07813,338.70374 L 364.08942,338.71504 L 535.81178,510.43739 L 364.07813,385.13677"
         style="fill:#c2c2c2;fill-opacity:1;fill-rule:evenodd;stroke:#c2c2c2;stroke-width:1.00000036;stroke-linecap:square;stroke-linejoin:miter;stroke-miterlimit:4;stroke-dasharray:none;stroke-opacity:1;display:inline"
         id="path1546" />
      <path
         d="M 411.21827,337.99664 L 364.78524,337.99664 L 364.79653,338.00793 L 536.51889,509.73029 L 411.21827,337.99664"
         style="fill:#999999;fill-opacity:1;fill-rule:evenodd;stroke:#999999;stroke-width:1.00000036;stroke-linecap:square;stroke-linejoin:miter;stroke-miterlimit:4;stroke-dasharray:none;stroke-opacity:1;display:inline"
         id="path1548" />
      <path
         d="M 364.07817,290.85653 L 364.07817,337.28956 L 364.06688,337.27826 L 192.34452,165.55591 L 364.07817,290.85653"
         style="fill:#c2c2c2;fill-opacity:1;fill-rule:evenodd;stroke:#c2c2c2;stroke-width:1.00000036;stroke-linecap:square;stroke-linejoin:miter;stroke-miterlimit:4;stroke-dasharray:none;stroke-opacity:1;display:inline"
         id="path1550" />
      <path
         d="M 316.93803,337.99666 L 363.37106,337.99666 L 363.35977,337.98537 L 191.63741,166.26301 L 316.93803,337.99666"
         style="fill:#999999;fill-opacity:1;fill-rule:evenodd;stroke:#999999;stroke-width:1.00000036;stroke-linecap:square;stroke-linejoin:miter;stroke-miterlimit:4;stroke-dasharray:none;stroke-opacity:1;display:inline"
         id="path1552" />
    </g>
  </g>
  <g
     inkscape:groupmode="layer"
     id="layer2"
     inkscape:label="podstawowa"
     style="display:inline">
    <path
       id="path2122"
       style="fill:#ffffff;fill-opacity:1;fill-rule:evenodd;stroke:#000000;stroke-width:1;stroke-linecap:square;stroke-linejoin:miter;stroke-miterlimit:4;stroke-opacity:1;stroke-dasharray:none;display:inline"
       d="m 273.85736,266.28355 32.8331,32.8331 -0.016,0 -242.85201,0 210.03488,-32.8331" />
    <path
       id="path5805"
       style="fill:#000000;fill-opacity:1;fill-rule:evenodd;stroke:#000000;stroke-width:1;stroke-linecap:square;stroke-linejoin:miter;stroke-miterlimit:4;stroke-opacity:1;stroke-dasharray:none;display:inline"
       d="m 273.85736,332.94975 32.8331,-32.8331 -0.016,0 -242.85201,0 210.03488,32.8331" />
    <path
       id="path8724"
       style="fill:#ffffff;fill-opacity:1;fill-rule:evenodd;stroke:#000000;stroke-width:1;stroke-linecap:square;stroke-linejoin:miter;stroke-miterlimit:4;stroke-opacity:1;stroke-dasharray:none;display:inline"
       d="m 340.52353,332.9498 -32.8331,-32.8331 0.016,0 242.85201,0 -210.03488,32.8331" />
    <path
       id="path8726"
       style="fill:#000000;fill-opacity:1;fill-rule:evenodd;stroke:#000000;stroke-width:1;stroke-linecap:square;stroke-linejoin:miter;stroke-miterlimit:4;stroke-opacity:1;stroke-dasharray:none;display:inline"
       d="m 340.52353,266.2836 -32.8331,32.8331 0.016,0 242.85201,0 -210.03488,-32.8331" />
    <path
       id="path8740"
       style="fill:#ffffff;fill-opacity:1;fill-rule:evenodd;stroke:#000000;stroke-width:1;stroke-linecap:square;stroke-linejoin:miter;stroke-miterlimit:4;stroke-opacity:1;stroke-dasharray:none;display:inline"
       d="m 273.85734,332.94973 32.8331,-32.8331 0,0.016 0,242.85201 -32.8331,-210.03488" />
    <path
       id="path8742"
       style="fill:#000000;fill-opacity:1;fill-rule:evenodd;stroke:#000000;stroke-width:1;stroke-linecap:square;stroke-linejoin:miter;stroke-miterlimit:4;stroke-opacity:1;stroke-dasharray:none;display:inline"
       d="m 340.52354,332.94973 -32.8331,-32.8331 0,0.016 0,242.85201 32.8331,-210.03488" />
    <path
       id="path8748"
       style="fill:#000000;fill-opacity:1;fill-rule:evenodd;stroke:#000000;stroke-width:1;stroke-linecap:square;stroke-linejoin:miter;stroke-miterlimit:4;stroke-opacity:1;stroke-dasharray:none;display:inline"
       d="m 273.8573,266.28357 32.8331,32.8331 0,-0.016 0,-242.85201 -32.8331,210.03488" />
    <path
       id="path8746"
       style="fill:#ffffff;fill-opacity:1;fill-rule:evenodd;stroke:#000000;stroke-width:1;stroke-linecap:square;stroke-linejoin:miter;stroke-miterlimit:4;stroke-opacity:1;stroke-dasharray:none;display:inline;opacity:1"
       d="m 340.5235,266.28357 -32.8331,32.8331 0,-0.016 0,-242.85201 32.8331,210.03488" />
  </g>
  <g
     inkscape:groupmode="layer"
     id="layer5"
     inkscape:label="napisy"
     style="display:inline">
    <g
       transform="matrix(-0.70710678,0.70710678,-0.70710678,-0.70710678,739.59568,296.41206)"
       id="g3743">
      <path
         id="path3745"
         d="m 340.86581,139.07293 -11.14703,58.09234 0,0"
         style="fill:none;stroke:#000000;stroke-width:1px;stroke-linecap:butt;stroke-linejoin:miter;stroke-opacity:1" />
      <path
         style="fill:none;stroke:#000000;stroke-width:1px;stroke-linecap:butt;stroke-linejoin:miter;stroke-opacity:1"
         d="m 284.61725,197.16527 -11.14703,-58.09234 0,0"
         id="path3747" />
    </g>
    <g
       id="g1461"
       inkscape:label="p4"
       style="display:inline"
       transform="translate(1.182297,-1.05875)" />
    <g
       style="display:inline"
       id="g1463"
       transform="translate(1.182297,-1.05875)" />
    <g
       style="display:inline"
       id="g1465"
       transform="translate(1.182297,-1.05875)" />
    <g
       id="g1467"
       inkscape:label="p3"
       style="display:inline"
       transform="translate(1.182297,-1.05875)" />
    <g
       id="g1469"
       inkscape:label="p2"
       style="display:inline"
       transform="translate(1.182297,-1.05875)" />
    <g
       id="g1471"
       inkscape:label="podstawowa"
       style="display:inline"
       transform="translate(1.182297,-1.05875)" />
    <path
       d="m 294.12404,12.387486 8.39843,0 10.60547,20 0,-20 7.12891,0 0,29.160156 -8.39844,0 -10.60547,-20 0,20 -7.1289,0 0,-29.160156"
       style="font-size:40px;font-style:normal;font-variant:normal;font-weight:bold;font-stretch:normal;text-align:start;line-height:125%;writing-mode:lr-tb;text-anchor:start;fill:#000000;fill-opacity:1;stroke:none;font-family:Bitstream Vera Sans"
       id="path1476" />
    <path
       d="m 572.23012,285.03658 20.29297,0 0,5.68359 -12.77344,0 0,5.42968 12.01172,0 0,5.6836 -12.01172,0 0,6.67969 13.20312,0 0,5.68359 -20.72265,0 0,-29.16015"
       style="font-size:40px;font-style:normal;font-variant:normal;font-weight:bold;font-stretch:normal;text-align:start;line-height:125%;writing-mode:lr-tb;text-anchor:start;fill:#000000;fill-opacity:1;stroke:none;display:inline;font-family:Bitstream Vera Sans"
       id="path1478" />
    <path
       d="m 9,285.03658 7.207031,0 5.039063,21.1914 5,-21.1914 7.246093,0 5,21.1914 5.039066,-21.1914 7.148434,0 -6.875004,29.16015 -8.671871,0 -5.292968,-22.16798 -5.234375,22.16798 -8.671875,0 L 9,285.03658"
       style="font-size:40px;font-style:normal;font-variant:normal;font-weight:bold;font-stretch:normal;text-align:start;line-height:125%;writing-mode:lr-tb;text-anchor:start;fill:#000000;fill-opacity:1;stroke:none;display:inline;font-family:Bitstream Vera Sans"
       id="path1480" />
    <path
       d="m 316.7803,560.1914 0,6.17188 c -1.6016,-0.71612 -3.1641,-1.25649 -4.68751,-1.6211 -1.52346,-0.36455 -2.96226,-0.54685 -4.3164,-0.54687 -1.7969,2e-5 -3.12502,0.24742 -3.98438,0.74219 -0.85938,0.49481 -1.28908,1.26304 -1.28906,2.30468 -2e-5,0.78128 0.28646,1.39325 0.85936,1.83594 0.58593,0.42971 1.64062,0.8008 3.16408,1.11328 l 3.20311,0.64453 c 3.24218,0.65106 5.54687,1.64065 6.91407,2.96875 1.36717,1.32814 2.05076,3.21616 2.05078,5.66407 -2e-5,3.21615 -0.95704,5.61198 -2.8711,7.1875 -1.90105,1.5625 -4.8112,2.34375 -8.73046,2.34375 -1.84898,0 -3.70444,-0.17578 -5.5664,-0.52735 -1.86199,-0.35156 -3.72397,-0.87239 -5.58594,-1.5625 l 0,-6.34765 c 1.86197,0.98959 3.65884,1.73828 5.39062,2.24609 1.74479,0.4948 3.42447,0.74219 5.03906,0.74219 1.64062,0 2.89712,-0.27343 3.76953,-0.82031 0.87239,-0.54687 1.30857,-1.32812 1.30859,-2.34375 -2e-5,-0.91145 -0.29949,-1.61458 -0.89844,-2.10938 -0.58594,-0.49478 -1.76431,-0.93749 -3.53515,-1.32812 l -2.91016,-0.64454 c -2.91666,-0.62498 -5.05209,-1.62108 -6.40625,-2.98828 -1.34114,-1.36717 -2.01172,-3.20961 -2.01172,-5.52734 0,-2.90362 0.9375,-5.13669 2.81251,-6.69922 1.875,-1.56247 4.57029,-2.34372 8.08593,-2.34375 1.60155,3e-5 3.24868,0.12373 4.94142,0.37109 1.69268,0.23441 3.444,0.59248 5.25391,1.07422"
       style="font-size:40px;font-style:normal;font-variant:normal;font-weight:bold;font-stretch:normal;text-align:start;line-height:125%;writing-mode:lr-tb;text-anchor:start;fill:#000000;fill-opacity:1;stroke:none;display:inline;font-family:Bitstream Vera Sans"
       id="path1482" />
    <path
       id="path1484"
       d="m 226.53007,86.082147 1.76046,4.179508 -8.65011,7.557489 10.87321,-2.279612 1.49026,3.538004 -15.70307,3.284044 -1.76046,-4.17952 8.65009,-7.557492 -10.86911,2.289354 -1.49435,-3.547741 15.70308,-3.284034 m 7.02549,16.679193 1.76047,4.17952 -8.6501,7.55748 10.8732,-2.27962 1.49026,3.53802 -15.70308,3.28403 -1.76046,-4.17951 8.6501,-7.5575 -10.86911,2.28935 -1.49435,-3.54773 15.70307,-3.28404 m 6.55467,15.56144 1.45751,3.46023 -10.35767,4.88923 12.46613,0.11652 1.49845,3.55745 -10.34538,4.91838 12.40062,-0.039 1.56806,3.7227 -17.1442,-0.13734 -1.78504,-4.23783 10.82729,-5.13282 -13.00945,-0.0479 -1.82598,-4.33504 14.24966,-6.73457"
       style="font-size:18px;font-style:oblique;font-variant:normal;font-weight:bold;font-stretch:normal;text-align:start;line-height:100%;writing-mode:lr-tb;text-anchor:start;fill:#000000;fill-opacity:1;stroke:none;display:inline;font-family:Bitstream Vera Sans" />
    <path
       id="path1486"
       d="m 369.23622,133.21729 1.65175,-4.22367 11.47017,0.61258 -9.38436,-5.94619 1.39823,-3.57539 13.54716,8.59338 -1.65176,4.22367 -11.47016,-0.61259 9.38819,5.93638 -1.40207,3.5852 -13.54715,-8.59337 m 6.59163,-16.85538 1.65175,-4.22367 11.47016,0.6126 -9.38435,-5.94621 1.39823,-3.57539 13.54715,8.59338 -1.65175,4.22367 -11.47015,-0.6126 9.38818,5.93639 -1.40206,3.5852 -13.54716,-8.59337 m 6.59163,-16.855379 3.98725,-10.195743 2.63939,1.677696 -2.50835,6.414075 2.52322,1.598292 2.36239,-6.040827 2.63554,1.687524 -2.35854,6.031002 3.10575,1.962 2.58903,-6.620352 2.64708,1.658049 -4.0756,10.421643 -13.54716,-8.593359"
       style="font-size:18px;font-style:oblique;font-variant:normal;font-weight:bold;font-stretch:normal;text-align:start;line-height:100%;writing-mode:lr-tb;text-anchor:start;fill:#000000;fill-opacity:1;stroke:none;display:inline;font-family:Bitstream Vera Sans" />
    <path
       id="path1488"
       d="m 470.39792,223.88948 10.31814,-3.65885 0.45913,3.09358 -6.49109,2.30175 0.44314,2.95379 6.11337,-2.16781 0.44919,3.09709 -6.10341,2.16429 0.54944,3.63225 6.69985,-2.37577 0.479,3.08653 -10.54677,3.73991 -2.36999,-15.86676 m 13.91657,-4.93486 4.27436,-1.5157 7.04436,9.07286 -1.64671,-10.98688 3.6183,-1.28306 2.37002,15.86677 -4.27437,1.51571 -7.04438,-9.07286 1.65666,10.98336 -3.62824,1.28658 -2.37,-15.86678 m 17.05773,-6.04872 10.31815,-3.65883 0.45915,3.09359 -6.4911,2.30174 0.44315,2.95378 6.11335,-2.1678 0.44918,3.09709 -6.1034,2.16428 0.54944,3.63227 6.69984,-2.3758 0.47903,3.08655 -10.54679,3.73992 -2.37,-15.86679"
       style="font-size:18px;font-style:oblique;font-variant:normal;font-weight:bold;font-stretch:normal;text-align:start;line-height:100%;writing-mode:lr-tb;text-anchor:start;fill:#000000;fill-opacity:1;stroke:none;display:inline;font-family:Bitstream Vera Sans" />
    <path
       id="path1490"
       d="m 474.61555,358.68934 10.13336,4.14321 -1.71799,2.61333 -6.37484,-2.60646 -1.63682,2.4984 6.00386,2.45479 -1.72775,2.60936 -5.99411,-2.45082 -2.00942,3.0753 6.57984,2.69029 -1.69846,2.62133 -10.35789,-4.23503 8.80022,-13.4137 m 23.51546,10.15029 -1.86658,2.83744 c -0.58643,-0.66514 -1.20167,-1.23195 -1.84572,-1.7004 -0.6414,-0.47493 -1.30378,-0.85209 -1.98714,-1.13151 -0.93722,-0.38319 -1.72926,-0.53611 -2.37616,-0.4588 -0.64042,0.08 -1.06706,0.38032 -1.27993,0.90097 -0.13574,0.33194 -0.12832,0.63882 0.0224,0.9207 0.15978,0.27804 0.56495,0.6526 1.21554,1.1237 l 1.38679,1.01139 c 1.15556,0.85229 1.90633,1.70999 2.25232,2.57309 0.35511,0.85926 0.33309,1.777 -0.066,2.75323 -0.64664,1.58151 -1.76756,2.60448 -3.36274,3.06891 -1.58869,0.46706 -3.39508,0.28683 -5.41913,-0.54075 -0.94371,-0.38586 -1.84823,-0.85824 -2.71356,-1.41715 -0.85885,-0.55625 -1.66356,-1.18912 -2.41416,-1.8986 l 1.89276,-2.92931 c 0.66071,0.85507 1.34725,1.57255 2.05967,2.1525 0.71892,0.5826 1.47539,1.03622 2.2694,1.36087 0.85908,0.35125 1.62731,0.46027 2.30469,0.32702 0.68386,-0.13058 1.13757,-0.46922 1.36111,-1.0159 0.14635,-0.35796 0.13908,-0.6838 -0.0218,-0.9775 -0.1583,-0.30022 -0.60166,-0.72077 -1.33003,-1.26166 l -1.37703,-1.00741 c -1.01802,-0.74286 -1.67988,-1.53002 -1.9856,-2.36148 -0.30572,-0.83145 -0.26168,-1.72879 0.13216,-2.69202 0.62,-1.51641 1.69552,-2.49337 3.22654,-2.93088 1.54015,-0.44133 3.29301,-0.26018 5.25851,0.54343 0.78749,0.322 1.56922,0.71382 2.34523,1.17539 0.78514,0.45777 1.55804,0.98269 2.31868,1.57474 m 4.56116,1.32937 10.13336,4.14323 -1.71801,2.61332 -6.37483,-2.60647 -1.63682,2.4984 6.00387,2.4548 -1.72776,2.60936 -5.99411,-2.45081 -2.00941,3.07529 6.57984,2.6903 -1.69847,2.62132 -10.35789,-4.23503 8.80023,-13.41371"
       style="font-size:18px;font-style:oblique;font-variant:normal;font-weight:bold;font-stretch:normal;text-align:start;line-height:100%;writing-mode:lr-tb;text-anchor:start;fill:#000000;fill-opacity:1;stroke:none;display:inline;font-family:Bitstream Vera Sans" />
    <path
       id="path1492"
       d="m 390.17013,469.21252 -3.34851,0.56808 c 0.0865,-0.88252 0.0824,-1.71899 -0.0138,-2.50955 -0.0896,-0.79304 -0.26512,-1.53481 -0.52643,-2.22529 -0.35839,-0.94696 -0.78634,-1.63077 -1.28382,-2.05144 -0.49505,-0.41409 -1.00559,-0.52159 -1.53167,-0.32249 -0.3354,0.12694 -0.55487,0.34157 -0.65846,0.6439 -0.0946,0.30642 -0.0925,0.8582 0.006,1.65534 l 0.20512,1.70411 c 0.16397,1.4265 0.048,2.56046 -0.34776,3.40189 -0.38671,0.8455 -1.07325,1.45492 -2.05965,1.82824 -1.59799,0.60475 -3.11053,0.48177 -4.53763,-0.36897 -1.4246,-0.84416 -2.52392,-2.28881 -3.2979,-4.33395 -0.36088,-0.95354 -0.63172,-1.93738 -0.81254,-2.95154 -0.17834,-1.00756 -0.26372,-2.02776 -0.25615,-3.06058 l 3.43356,-0.61155 c -0.17533,1.06624 -0.23229,2.05768 -0.17124,2.97425 0.0637,0.92314 0.24736,1.78585 0.55099,2.58815 0.3285,0.86802 0.77235,1.50447 1.33155,1.90932 0.56165,0.41142 1.11869,0.5126 1.67108,0.30354 0.36168,-0.13686 0.59513,-0.3643 0.70032,-0.68227 0.11172,-0.32049 0.11736,-0.93152 0.0167,-1.83317 l -0.20138,-1.69426 c -0.15029,-1.25126 -0.0254,-2.27209 0.37459,-3.06251 0.40001,-0.79042 1.08666,-1.36978 2.05992,-1.73812 1.53222,-0.57988 2.98015,-0.45876 4.34381,0.3633 1.3727,0.82621 2.43485,2.23231 3.18647,4.21827 0.30112,0.7957 0.54722,1.63479 0.73839,2.51723 0.20017,0.88652 0.34287,1.80986 0.42808,2.76998 m 5.51007,14.55941 -3.34851,0.56809 c 0.0865,-0.88252 0.0824,-1.71898 -0.0138,-2.50954 -0.0896,-0.79305 -0.26512,-1.53483 -0.52643,-2.22531 -0.35838,-0.94697 -0.78634,-1.63076 -1.28383,-2.05143 -0.49504,-0.41409 -1.00558,-0.5216 -1.53165,-0.32248 -0.33541,0.12691 -0.55489,0.34154 -0.65847,0.64388 -0.0946,0.30642 -0.0925,0.85821 0.006,1.65534 l 0.20513,1.70412 c 0.16396,1.4265 0.048,2.56046 -0.34764,3.40191 -0.38672,0.84551 -1.07327,1.4549 -2.05967,1.82823 -1.59799,0.60474 -3.11053,0.48178 -4.53763,-0.36896 -1.4246,-0.84415 -2.52392,-2.2888 -3.29792,-4.33396 -0.36086,-0.95354 -0.6317,-1.93738 -0.81252,-2.95152 -0.17834,-1.00756 -0.26372,-2.02778 -0.25614,-3.0606 l 3.43355,-0.61154 c -0.17533,1.06625 -0.23229,2.05768 -0.17124,2.97425 0.0637,0.92313 0.24736,1.78586 0.55098,2.58815 0.32851,0.86803 0.77236,1.50447 1.33156,1.90933 0.56166,0.41142 1.11869,0.51259 1.67109,0.30355 0.36166,-0.1369 0.59512,-0.36432 0.70031,-0.68228 0.11172,-0.32049 0.11736,-0.93153 0.0167,-1.83318 l -0.20139,-1.69426 c -0.15029,-1.25125 -0.0254,-2.27208 0.3746,-3.06251 0.40001,-0.7904 1.08666,-1.3698 2.05992,-1.73811 1.53222,-0.57989 2.98015,-0.45876 4.34381,0.3633 1.3727,0.82621 2.43485,2.23228 3.18647,4.21827 0.30111,0.79569 0.54722,1.63477 0.73839,2.51722 0.20017,0.88653 0.34285,1.80985 0.42808,2.76998 m 2.13605,4.24367 3.87496,10.23893 -3.08324,0.52409 -2.4377,-6.44126 -2.94382,0.50516 2.29586,6.0664 -3.08698,0.51422 -2.29212,-6.05656 -3.61992,0.6257 2.51612,6.6484 -3.07578,0.5438 -3.96083,-10.4658 15.81345,-2.70308"
       style="font-size:18px;font-style:oblique;font-variant:normal;font-weight:bold;font-stretch:normal;text-align:start;line-height:100%;writing-mode:lr-tb;text-anchor:start;fill:#000000;fill-opacity:1;stroke:none;display:inline;font-family:Bitstream Vera Sans" />
    <path
       id="path1494"
       d="m 218.07885,496.1726 2.89417,1.77735 c -0.64657,0.60685 -1.19393,1.23944 -1.6421,1.89775 -0.45473,0.65589 -0.81111,1.32969 -1.06911,2.02142 -0.35382,0.94869 -0.482,1.7451 -0.38459,2.3893 0.0998,0.63761 0.41337,1.05469 0.9404,1.25125 0.33598,0.12533 0.6425,0.10836 0.91953,-0.051 0.27294,-0.16836 0.63471,-0.585 1.08531,-1.24994 l 0.96774,-1.4176 c 0.8159,-1.18154 1.6498,-1.95865 2.50171,-2.33134 0.84779,-0.38169 1.76577,-0.38827 2.75396,-0.0197 1.60086,0.59709 2.65824,1.68561 3.17211,3.26558 0.51631,1.57338 0.3924,3.38449 -0.37176,5.43333 -0.35628,0.95526 -0.80027,1.87405 -1.33198,2.75637 -0.52924,0.87573 -1.13675,1.69977 -1.82254,2.47208 l -2.9868,-1.80064 c 0.83408,-0.687 1.52985,-1.39556 2.08733,-2.12568 0.55993,-0.73671 0.98979,-1.50692 1.28956,-2.31067 0.32433,-0.86959 0.40937,-1.64084 0.25511,-2.31375 -0.15182,-0.67947 -0.50441,-1.12241 -1.0578,-1.32882 -0.36234,-0.13512 -0.6878,-0.11772 -0.97634,0.0523 -0.29514,0.1676 -0.70168,0.62383 -1.21963,1.36868 l -0.96405,1.40772 c -0.71081,1.04065 -1.47699,1.72672 -2.29853,2.05817 -0.82152,0.33147 -1.71981,0.31537 -2.69482,-0.0482 -1.53499,-0.57251 -2.54496,-1.61709 -3.02991,-3.13374 -0.48908,-1.52568 -0.3626,-3.28331 0.37945,-5.27289 0.29732,-0.79713 0.66462,-1.59068 1.1018,-2.38069 0.43309,-0.79902 0.9337,-1.58786 1.50178,-2.36658 m 5.44003,-14.58572 2.89417,1.77734 c -0.64656,0.60685 -1.19393,1.23945 -1.64209,1.89775 -0.45474,0.6559 -0.8111,1.32971 -1.0691,2.02143 -0.35382,0.94867 -0.48202,1.74511 -0.38459,2.38928 0.0998,0.63762 0.41335,1.05471 0.94038,1.25127 0.336,0.12532 0.64251,0.10836 0.91955,-0.051 0.27294,-0.16835 0.6347,-0.585 1.0853,-1.24994 l 0.96774,-1.4176 c 0.81589,-1.18155 1.64981,-1.95866 2.50171,-2.33134 0.84778,-0.38168 1.76577,-0.38826 2.75395,-0.0197 1.60088,0.5971 2.65824,1.68562 3.17212,3.26556 0.5163,1.57338 0.39239,3.3845 -0.37177,5.43336 -0.35628,0.95525 -0.80027,1.87404 -1.33198,2.75636 -0.52923,0.87573 -1.13673,1.69976 -1.82252,2.47208 l -2.98681,-1.80064 c 0.83407,-0.68699 1.52984,-1.39555 2.08734,-2.12568 0.55992,-0.73672 0.98978,-1.50694 1.28954,-2.31067 0.32434,-0.86961 0.40938,-1.64085 0.25511,-2.31375 -0.1518,-0.67948 -0.50441,-1.12242 -1.05779,-1.32883 -0.36234,-0.13513 -0.68779,-0.11772 -0.97634,0.0523 -0.29514,0.16759 -0.70168,0.62381 -1.21964,1.36867 l -0.96405,1.40772 c -0.7108,1.04066 -1.47699,1.72671 -2.29853,2.05818 -0.82152,0.33147 -1.71979,0.31538 -2.69482,-0.0482 -1.53499,-0.57249 -2.54494,-1.61708 -3.0299,-3.13374 -0.48907,-1.52568 -0.36259,-3.2833 0.37945,-5.27288 0.29731,-0.79712 0.66461,-1.59067 1.10179,-2.38068 0.43311,-0.79902 0.9337,-1.58788 1.50178,-2.36659 m 0.76288,-3.46392 1.31209,-3.51796 10.89144,3.54437 -8.99333,-8.63357 1.34896,-3.61679 10.90249,3.51474 -9.05229,-8.47546 1.41161,-3.78478 12.38385,11.85678 -1.60696,4.30852 -11.40026,-3.68914 9.43581,8.95621 -1.64381,4.40734 -14.9896,-4.87026"
       style="font-size:18px;font-style:oblique;font-variant:normal;font-weight:bold;font-stretch:normal;text-align:start;line-height:100%;writing-mode:lr-tb;text-anchor:start;fill:#000000;fill-opacity:1;stroke:none;display:inline;font-family:Bitstream Vera Sans" />
    <path
       id="path1496"
       d="m 89.542128,378.23262 3.524337,-1.29489 4.40189,10.57399 0.696516,-12.44721 3.623339,-1.33127 4.4316,10.56308 0.53812,-12.38901 3.79162,-1.39311 -0.93505,17.11925 -4.31631,1.58587 -4.62336,-11.05443 -0.65326,12.99313 -4.41532,1.62226 -6.064122,-14.54766 m 33.860052,-11.91254 0.53561,3.35386 c -0.88158,-0.0955 -1.7181,-0.0991 -2.50956,-0.0108 -0.7939,0.082 -1.53732,0.25022 -2.2303,0.50483 -0.95039,0.3492 -1.63832,0.77049 -2.06378,1.26389 -0.41889,0.491 -0.53132,1.00048 -0.33734,1.52846 0.12369,0.33661 0.33617,0.55816 0.63749,0.66467 0.30549,0.0976 0.85726,0.1008 1.65533,0.01 l 1.70603,-0.18861 c 1.42801,-0.15013 2.5608,-0.0233 3.39835,0.38066 0.84172,0.39488 1.44445,1.0873 1.8082,2.07728 0.58923,1.60378 0.45159,3.11506 -0.41291,4.53383 -0.85794,1.41636 -2.31317,2.50161 -4.36572,3.25575 -0.95699,0.35162 -1.94341,0.61292 -2.95926,0.78389 -1.00926,0.16857 -2.03023,0.24406 -3.06293,0.22647 l -0.57824,-3.43932 c 1.06449,0.18568 2.0553,0.25237 2.97244,0.20005 0.92372,-0.0547 1.78818,-0.23003 2.59336,-0.52587 0.87118,-0.32007 1.5119,-0.75774 1.92215,-1.31298 0.41684,-0.55764 0.52343,-1.11367 0.31975,-1.66807 -0.13338,-0.36299 -0.35855,-0.59862 -0.67548,-0.70689 -0.31937,-0.11484 -0.93034,-0.12636 -1.83292,-0.0344 l -1.69612,0.18495 c -1.25266,0.13816 -2.27223,0.004 -3.05874,-0.4043 -0.7865,-0.40767 -1.3592,-1.0999 -1.71808,-2.07669 -0.565,-1.53776 -0.42985,-2.98444 0.40544,-4.34007 0.83948,-1.36462 2.2558,-2.41311 4.24895,-3.14543 0.79859,-0.2934 1.64002,-0.53136 2.52427,-0.71396 0.88842,-0.19157 1.8131,-0.3253 2.77401,-0.40122 m 3.12569,-1.67652 3.52432,-1.29489 4.4019,10.57399 0.69652,-12.44721 3.62334,-1.33127 4.43159,10.56308 0.5381,-12.38901 3.79164,-1.39311 -0.93505,17.11925 -4.31632,1.58587 -4.62337,-11.05442 -0.65323,12.99312 -4.41532,1.62224 -6.06412,-14.54764"
       style="font-size:18px;font-style:oblique;font-variant:normal;font-weight:bold;font-stretch:normal;text-align:start;line-height:100%;writing-mode:lr-tb;text-anchor:start;fill:#000000;fill-opacity:1;stroke:none;display:inline;font-family:Bitstream Vera Sans" />
    <path
       id="path1498"
       d="m 93.234248,206.9518 3.557687,1.20023 -3.198288,10.99803 8.344943,-9.26175 3.65762,1.23395 -3.16832,11.00814 8.18506,-9.31569 3.82752,1.29125 -11.45937,12.75247 -4.357161,-1.46994 3.326891,-11.51119 -8.653425,9.71423 -4.457102,-1.50365 4.393945,-15.13608 m 23.734562,8.00712 4.29721,1.44971 -0.0683,11.48631 5.49474,-9.65562 3.63764,1.2272 -7.94164,13.93922 -4.29719,-1.44972 0.0683,-11.4863 -5.48476,9.65899 -3.64761,-1.23057 7.94162,-13.93922 m 15.99961,5.39765 3.55769,1.20023 -3.19829,10.99803 8.34493,-9.26175 3.65763,1.23393 -3.1683,11.00815 8.18504,-9.3157 3.8275,1.29127 -11.45934,12.75247 -4.35717,-1.46994 3.32688,-11.5112 -8.65343,9.71424 -4.45709,-1.50365 4.39395,-15.13608"
       style="font-size:18px;font-style:oblique;font-variant:normal;font-weight:bold;font-stretch:normal;text-align:start;line-height:100%;writing-mode:lr-tb;text-anchor:start;fill:#000000;fill-opacity:1;stroke:none;display:inline;font-family:Bitstream Vera Sans" />
    <path
       id="text1435"
       d="m 497.59363,477.83519 0,4.07344 c -1.05705,-0.47264 -2.0883,-0.82927 -3.09375,-1.06992 -1.00548,-0.2406 -1.95509,-0.36092 -2.84883,-0.36093 -1.18595,1e-5 -2.06251,0.16329 -2.62969,0.48984 -0.56719,0.32658 -0.85078,0.83361 -0.85078,1.52109 0,0.51563 0.18905,0.91954 0.56719,1.21172 0.3867,0.28361 1.08281,0.52852 2.08828,0.73476 l 2.11406,0.42539 c 2.13983,0.42971 3.66092,1.08283 4.56328,1.95938 0.90233,0.87658 1.3535,2.12267 1.35352,3.73828 -2e-5,2.12266 -0.63166,3.70391 -1.89492,4.74375 -1.25471,1.03125 -3.17541,1.54688 -5.76211,1.54688 -1.22032,0 -2.44493,-0.11602 -3.67383,-0.34805 -1.22892,-0.23203 -2.45781,-0.57578 -3.68672,-1.03125 l 0,-4.18945 c 1.22891,0.65312 2.41484,1.14726 3.55782,1.48242 1.15155,0.32656 2.26014,0.48984 3.32578,0.48984 1.08279,0 1.9121,-0.18046 2.48789,-0.5414 0.57576,-0.36094 0.86366,-0.87656 0.86367,-1.54688 -1e-5,-0.60156 -0.19767,-1.06561 -0.59297,-1.39218 -0.38673,-0.32656 -1.16446,-0.61875 -2.3332,-0.87657 l -1.92071,-0.42539 c -1.925,-0.41249 -3.33437,-1.06992 -4.22812,-1.97227 -0.88516,-0.90233 -1.32774,-2.11835 -1.32774,-3.64804 0,-1.9164 0.61875,-3.39022 1.85625,-4.42148 1.2375,-1.03124 3.0164,-1.54687 5.33672,-1.54688 1.05702,1e-5 2.14413,0.0816 3.26133,0.24492 1.11718,0.1547 2.27303,0.39104 3.46758,0.70898 m 5.6332,-0.60586 13.39337,0 0,3.75118 -8.43048,0 0,3.58359 7.92773,0 0,3.75118 -7.92773,0 0,4.40859 8.71407,0 0,3.75117 -13.67696,0 0,-19.24571"
       style="font-size:12px;font-style:normal;font-weight:normal;line-height:125%;fill:#000000;fill-opacity:1;stroke:none;font-family:Bitstream Vera Sans" />
    <path
       id="text1439"
       d="m 482.38914,99.570355 5.54298,0 6.9996,13.200005 0,-13.200005 4.70508,0 0,19.245695 -5.54296,0 -6.99961,-13.2 0,13.2 -4.70509,0 0,-19.245695 m 22.12032,0 13.39336,0 0,3.751165 -8.43047,0 0,3.5836 7.92772,0 0,3.75117 -7.92772,0 0,4.40859 8.71405,0 0,3.75117 -13.67694,0 0,-19.245694"
       style="font-size:12px;font-style:normal;font-weight:normal;line-height:125%;fill:#000000;fill-opacity:1;stroke:none;display:inline;font-family:Bitstream Vera Sans" />
    <path
       id="text1443"
       d="m 103.03933,477.83519 0,4.07344 c -1.05704,-0.47264 -2.08829,-0.82927 -3.093749,-1.06992 -1.005488,-0.2406 -1.955093,-0.36092 -2.848832,-0.36093 -1.185946,1e-5 -2.062507,0.16329 -2.629687,0.48984 -0.567194,0.32658 -0.850787,0.83361 -0.850781,1.52109 -6e-6,0.51563 0.189056,0.91954 0.567188,1.21172 0.386711,0.28361 1.082803,0.52852 2.08828,0.73476 l 2.114063,0.42539 c 2.139828,0.42971 3.660928,1.08283 4.563288,1.95938 0.90233,0.87658 1.35349,2.12267 1.35352,3.73828 -3e-5,2.12266 -0.63167,3.70391 -1.89493,4.74375 -1.2547,1.03125 -3.175404,1.54688 -5.762112,1.54688 -1.22032,0 -2.444929,-0.11602 -3.673829,-0.34805 -1.22891,-0.23203 -2.457815,-0.57578 -3.686718,-1.03125 l 0,-4.18945 c 1.228903,0.65312 2.414839,1.14726 3.557813,1.48242 1.151556,0.32656 2.260148,0.48984 3.32578,0.48984 1.082803,0 1.9121,-0.18046 2.487891,-0.5414 0.575771,-0.36094 0.863663,-0.87656 0.863674,-1.54688 -1.1e-5,-0.60156 -0.19767,-1.06561 -0.592966,-1.39218 -0.386735,-0.32656 -1.164469,-0.61875 -2.333208,-0.87657 l -1.920703,-0.42539 c -1.925006,-0.41249 -3.334378,-1.06992 -4.228125,-1.97227 -0.885158,-0.90233 -1.327736,-2.11835 -1.327734,-3.64804 -2e-6,-1.9164 0.618748,-3.39022 1.85625,-4.42148 1.237494,-1.03124 3.016399,-1.54687 5.336719,-1.54688 1.057021,1e-5 2.144129,0.0816 3.261324,0.24492 1.117184,0.1547 2.273044,0.39104 3.467584,0.70898 m 3.99609,-0.60586 4.75664,0 3.32579,13.98634 3.3,-13.98634 4.78242,0 3.3,13.98634 3.32578,-13.98634 4.71797,0 -4.5375,19.24571 -5.72344,0 -3.49336,-14.63085 -3.45469,14.63085 -5.72343,0 -4.57618,-19.24571"
       style="font-size:12px;font-style:normal;font-weight:normal;line-height:125%;fill:#000000;fill-opacity:1;stroke:none;display:inline;font-family:Bitstream Vera Sans" />
    <path
       id="text1447"
       d="m 87.834836,99.570355 5.542969,0 6.999615,13.200005 0,-13.200005 4.70507,0 0,19.245695 -5.542963,0 -6.999613,-13.2 0,13.2 -4.705078,0 0,-19.245695 m 20.483204,0 4.75665,0 3.32577,13.986325 3.3,-13.986325 4.78243,0 3.3,13.986325 3.32578,-13.986325 4.71797,0 -4.5375,19.245695 -5.72344,0 -3.49337,-14.63085 -3.45468,14.63085 -5.72344,0 -4.57617,-19.245695"
       style="font-size:12px;font-style:normal;font-weight:normal;line-height:125%;fill:#000000;fill-opacity:1;stroke:none;display:inline;font-family:Bitstream Vera Sans" />
    <g
       id="g3715">
      <g
         id="g3705">
        <path
           style="fill:none;stroke:#000000;stroke-width:1px;stroke-linecap:butt;stroke-linejoin:miter;stroke-opacity:1"
           d="m 340.86581,139.07293 -11.14703,58.09234 0,0"
           id="path3687" />
        <path
           id="path3703"
           d="m 284.61725,197.16527 -11.14703,-58.09234 0,0"
           style="fill:none;stroke:#000000;stroke-width:1px;stroke-linecap:butt;stroke-linejoin:miter;stroke-opacity:1" />
      </g>
      <g
         transform="matrix(0,-1,1,0,6.6734312,606.91101)"
         id="g3709">
        <path
           id="path3711"
           d="m 340.86581,139.07293 -11.14703,58.09234 0,0"
           style="fill:none;stroke:#000000;stroke-width:1px;stroke-linecap:butt;stroke-linejoin:miter;stroke-opacity:1" />
        <path
           style="fill:none;stroke:#000000;stroke-width:1px;stroke-linecap:butt;stroke-linejoin:miter;stroke-opacity:1"
           d="m 284.61725,197.16527 -11.14703,-58.09234 0,0"
           id="path3713" />
      </g>
    </g>
    <g
       id="g3725"
       transform="matrix(-1,0,0,-1,614.63471,600.00469)">
      <path
         style="fill:none;stroke:#000000;stroke-width:1px;stroke-linecap:butt;stroke-linejoin:miter;stroke-opacity:1"
         d="m 340.86581,139.07293 -11.14703,58.09234 0,0"
         id="path3727" />
      <path
         id="path3729"
         d="m 284.61725,197.16527 -11.14703,-58.09234 0,0"
         style="fill:none;stroke:#000000;stroke-width:1px;stroke-linecap:butt;stroke-linejoin:miter;stroke-opacity:1" />
    </g>
    <g
       transform="matrix(0,1,-1,0,609.00414,-7.599862)"
       id="g3731">
      <path
         id="path3733"
         d="m 340.86581,139.07293 -11.14703,58.09234 0,0"
         style="fill:none;stroke:#000000;stroke-width:1px;stroke-linecap:butt;stroke-linejoin:miter;stroke-opacity:1" />
      <path
         style="fill:none;stroke:#000000;stroke-width:1px;stroke-linecap:butt;stroke-linejoin:miter;stroke-opacity:1"
         d="m 284.61725,197.16527 -11.14703,-58.09234 0,0"
         id="path3735" />
    </g>
    <g
       id="g3749"
       transform="matrix(-0.70710678,-0.70710678,0.70710678,-0.70710678,311.06458,730.81323)">
      <path
         style="fill:none;stroke:#000000;stroke-width:1px;stroke-linecap:butt;stroke-linejoin:miter;stroke-opacity:1"
         d="m 340.86581,139.07293 -11.14703,58.09234 0,0"
         id="path3751" />
      <path
         id="path3753"
         d="m 284.61725,197.16527 -11.14703,-58.09234 0,0"
         style="fill:none;stroke:#000000;stroke-width:1px;stroke-linecap:butt;stroke-linejoin:miter;stroke-opacity:1" />
    </g>
    <g
       transform="matrix(0.70710678,-0.70710678,0.70710678,0.70710678,-123.33659,302.24244)"
       id="g3755">
      <path
         id="path3757"
         d="m 340.86581,139.07293 -11.14703,58.09234 0,0"
         style="fill:none;stroke:#000000;stroke-width:1px;stroke-linecap:butt;stroke-linejoin:miter;stroke-opacity:1" />
      <path
         style="fill:none;stroke:#000000;stroke-width:1px;stroke-linecap:butt;stroke-linejoin:miter;stroke-opacity:1"
         d="m 284.61725,197.16527 -11.14703,-58.09234 0,0"
         id="path3759" />
    </g>
    <g
       id="g3761"
       transform="matrix(0.70710678,0.70710678,-0.70710678,0.70710678,305.47563,-132.15873)">
      <path
         style="fill:none;stroke:#000000;stroke-width:1px;stroke-linecap:butt;stroke-linejoin:miter;stroke-opacity:1"
         d="m 340.86581,139.07293 -11.14703,58.09234 0,0"
         id="path3763" />
      <path
         id="path3765"
         d="m 284.61725,197.16527 -11.14703,-58.09234 0,0"
         style="fill:none;stroke:#000000;stroke-width:1px;stroke-linecap:butt;stroke-linejoin:miter;stroke-opacity:1" />
    </g>
    <text
       xml:space="preserve"
       style="font-size:20px;font-style:normal;font-weight:normal;line-height:125%;fill:#000000;fill-opacity:1;stroke:none;font-family:Bitstream Vera Sans"
       x="-52.292233"
       y="368.63409"
       id="text3769"
       sodipodi:linespacing="125%"
       transform="matrix(0.22097166,-0.97528023,0.97528023,0.22097166,0,0)"><tspan
         sodipodi:role="line"
         id="tspan3771"
         x="-52.292233"
         y="368.63409"
         style="font-size:20px;font-style:normal;font-variant:normal;font-weight:normal;font-stretch:normal;text-align:start;line-height:125%;writing-mode:lr-tb;text-anchor:start;font-family:Arial;-inkscape-font-specification:Arial">NbE</tspan></text>
    <text
       transform="matrix(0.5694186,-0.82204772,0.82204772,0.5694186,0,0)"
       sodipodi:linespacing="125%"
       id="text3773"
       y="428.97385"
       x="106.01514"
       style="font-size:20px;font-style:normal;font-weight:normal;line-height:125%;fill:#000000;fill-opacity:1;stroke:none;font-family:Bitstream Vera Sans"
       xml:space="preserve"><tspan
         style="font-size:20px;font-style:normal;font-variant:normal;font-weight:normal;font-stretch:normal;text-align:start;line-height:125%;writing-mode:lr-tb;text-anchor:start;font-family:Arial;-inkscape-font-specification:Arial"
         y="428.97385"
         x="106.01514"
         id="tspan3775"
         sodipodi:role="line">NEbN</tspan></text>
    <text
       transform="matrix(0.84587782,-0.5333767,0.5333767,0.84587782,0,0)"
       sodipodi:linespacing="125%"
       id="text3777"
       y="419.76843"
       x="277.52734"
       style="font-size:20px;font-style:normal;font-weight:normal;line-height:125%;fill:#000000;fill-opacity:1;stroke:none;font-family:Bitstream Vera Sans"
       xml:space="preserve"><tspan
         style="font-size:20px;font-style:normal;font-variant:normal;font-weight:normal;font-stretch:normal;text-align:start;line-height:125%;writing-mode:lr-tb;text-anchor:start;font-family:Arial;-inkscape-font-specification:Arial"
         y="419.76843"
         x="277.52734"
         id="tspan3779"
         sodipodi:role="line">NEbE</tspan></text>
    <text
       xml:space="preserve"
       style="font-size:20px;font-style:normal;font-weight:normal;line-height:125%;fill:#000000;fill-opacity:1;stroke:none;font-family:Bitstream Vera Sans"
       x="426.66104"
       y="353.23032"
       id="text3781"
       sodipodi:linespacing="125%"
       transform="matrix(0.98391527,-0.17863576,0.17863576,0.98391527,0,0)"><tspan
         sodipodi:role="line"
         id="tspan3783"
         x="426.66104"
         y="353.23032"
         style="font-size:20px;font-style:normal;font-variant:normal;font-weight:normal;font-stretch:normal;text-align:start;line-height:125%;writing-mode:lr-tb;text-anchor:start;font-family:Arial;-inkscape-font-specification:Arial">EbN</tspan></text>
    <text
       xml:space="preserve"
       style="font-size:20px;font-style:normal;font-weight:normal;line-height:125%;fill:#000000;fill-opacity:1;stroke:none;font-family:Bitstream Vera Sans"
       x="542.12946"
       y="224.9295"
       id="text3785"
       sodipodi:linespacing="125%"
       transform="matrix(0.97528023,0.22097166,-0.22097166,0.97528023,0,0)"><tspan
         sodipodi:role="line"
         id="tspan3787"
         x="542.12946"
         y="224.9295"
         style="font-size:20px;font-style:normal;font-variant:normal;font-weight:normal;font-stretch:normal;text-align:start;line-height:125%;writing-mode:lr-tb;text-anchor:start;font-family:Arial;-inkscape-font-specification:Arial">EbS</tspan></text>
    <text
       transform="matrix(0.82204772,0.5694186,-0.5694186,0.82204772,0,0)"
       sodipodi:linespacing="125%"
       id="text3789"
       y="73.626953"
       x="599.28326"
       style="font-size:20px;font-style:normal;font-weight:normal;line-height:125%;fill:#000000;fill-opacity:1;stroke:none;font-family:Bitstream Vera Sans"
       xml:space="preserve"><tspan
         style="font-size:20px;font-style:normal;font-variant:normal;font-weight:normal;font-stretch:normal;text-align:start;line-height:125%;writing-mode:lr-tb;text-anchor:start;font-family:Arial;-inkscape-font-specification:Arial"
         y="73.626953"
         x="599.28326"
         id="tspan3791"
         sodipodi:role="line">SEbE</tspan></text>
    <text
       transform="matrix(0.5333767,0.84587782,-0.84587782,0.5333767,0,0)"
       sodipodi:linespacing="125%"
       id="text3793"
       y="-100.5173"
       x="592.75378"
       style="font-size:20px;font-style:normal;font-weight:normal;line-height:125%;fill:#000000;fill-opacity:1;stroke:none;font-family:Bitstream Vera Sans"
       xml:space="preserve"><tspan
         style="font-size:20px;font-style:normal;font-variant:normal;font-weight:normal;font-stretch:normal;text-align:start;line-height:125%;writing-mode:lr-tb;text-anchor:start;font-family:Arial;-inkscape-font-specification:Arial"
         y="-100.5173"
         x="592.75378"
         id="tspan3795"
         sodipodi:role="line">SEbS</tspan></text>
    <text
       xml:space="preserve"
       style="font-size:20px;font-style:normal;font-weight:normal;line-height:125%;fill:#000000;fill-opacity:1;stroke:none;font-family:Bitstream Vera Sans"
       x="524.62268"
       y="-247.15997"
       id="text3797"
       sodipodi:linespacing="125%"
       transform="matrix(0.17863576,0.98391527,-0.98391527,0.17863576,0,0)"><tspan
         sodipodi:role="line"
         id="tspan3799"
         x="524.62268"
         y="-247.15997"
         style="font-size:20px;font-style:normal;font-variant:normal;font-weight:normal;font-stretch:normal;text-align:start;line-height:125%;writing-mode:lr-tb;text-anchor:start;font-family:Arial;-inkscape-font-specification:Arial">SbE</tspan></text>
    <text
       xml:space="preserve"
       style="font-size:20px;font-style:normal;font-weight:normal;line-height:125%;fill:#000000;fill-opacity:1;stroke:none;font-family:Bitstream Vera Sans"
       x="-435.74643"
       y="377.65247"
       id="text3801"
       sodipodi:linespacing="125%"
       transform="matrix(0.22097166,-0.97528023,0.97528023,0.22097166,0,0)"><tspan
         sodipodi:role="line"
         id="tspan3803"
         x="-435.74643"
         y="377.65247"
         style="font-size:20px;font-style:normal;font-variant:normal;font-weight:normal;font-stretch:normal;text-align:start;line-height:125%;writing-mode:lr-tb;text-anchor:start;font-family:Arial;-inkscape-font-specification:Arial">SbW</tspan></text>
    <text
       transform="matrix(0.61911893,-0.78529724,0.78529724,0.61911893,0,0)"
       sodipodi:linespacing="125%"
       id="text3805"
       y="449.34149"
       x="-268.71643"
       style="font-size:20px;font-style:normal;font-weight:normal;line-height:125%;fill:#000000;fill-opacity:1;stroke:none;font-family:Bitstream Vera Sans"
       xml:space="preserve"><tspan
         style="font-size:20px;font-style:normal;font-variant:normal;font-weight:normal;font-stretch:normal;text-align:start;line-height:125%;writing-mode:lr-tb;text-anchor:start;font-family:Arial;-inkscape-font-specification:Arial"
         y="449.34149"
         x="-268.71643"
         id="tspan3807"
         sodipodi:role="line">SWbS</tspan></text>
    <text
       transform="matrix(0.84587782,-0.5333767,0.5333767,0.84587782,0,0)"
       sodipodi:linespacing="125%"
       id="text3809"
       y="429.53711"
       x="-130.94191"
       style="font-size:20px;font-style:normal;font-weight:normal;line-height:125%;fill:#000000;fill-opacity:1;stroke:none;font-family:Bitstream Vera Sans"
       xml:space="preserve"><tspan
         style="font-size:20px;font-style:normal;font-variant:normal;font-weight:normal;font-stretch:normal;text-align:start;line-height:125%;writing-mode:lr-tb;text-anchor:start;font-family:Arial;-inkscape-font-specification:Arial"
         y="429.53711"
         x="-130.94191"
         id="tspan3811"
         sodipodi:role="line">SWbW</tspan></text>
    <text
       xml:space="preserve"
       style="font-size:20px;font-style:normal;font-weight:normal;line-height:125%;fill:#000000;fill-opacity:1;stroke:none;font-family:Bitstream Vera Sans"
       x="35.193295"
       y="361.42487"
       id="text3813"
       sodipodi:linespacing="125%"
       transform="matrix(0.98205782,-0.18858006,0.18858006,0.98205782,0,0)"><tspan
         sodipodi:role="line"
         id="tspan3815"
         x="35.193295"
         y="361.42487"
         style="font-size:20px;font-style:normal;font-variant:normal;font-weight:normal;font-stretch:normal;text-align:start;line-height:125%;writing-mode:lr-tb;text-anchor:start;font-family:Arial;-inkscape-font-specification:Arial">WbS</tspan></text>
    <text
       xml:space="preserve"
       style="font-size:20px;font-style:normal;font-weight:normal;line-height:125%;fill:#000000;fill-opacity:1;stroke:none;font-family:Bitstream Vera Sans"
       x="155.21812"
       y="235.78845"
       id="text3817"
       sodipodi:linespacing="125%"
       transform="matrix(0.97528023,0.22097166,-0.22097166,0.97528023,0,0)"><tspan
         sodipodi:role="line"
         id="tspan3819"
         x="155.21812"
         y="235.78845"
         style="font-size:20px;font-style:normal;font-variant:normal;font-weight:normal;font-stretch:normal;text-align:start;line-height:125%;writing-mode:lr-tb;text-anchor:start;font-family:Arial;-inkscape-font-specification:Arial">WbN</tspan></text>
    <text
       transform="matrix(0.82776598,0.5610735,-0.5610735,0.82776598,0,0)"
       sodipodi:linespacing="125%"
       id="text3821"
       y="83.477188"
       x="193.56606"
       style="font-size:20px;font-style:normal;font-weight:normal;line-height:125%;fill:#000000;fill-opacity:1;stroke:none;font-family:Bitstream Vera Sans"
       xml:space="preserve"><tspan
         style="font-size:20px;font-style:normal;font-variant:normal;font-weight:normal;font-stretch:normal;text-align:start;line-height:125%;writing-mode:lr-tb;text-anchor:start;font-family:Arial;-inkscape-font-specification:Arial"
         y="83.477188"
         x="193.56606"
         id="tspan3823"
         sodipodi:role="line">NWbW</tspan></text>
    <text
       transform="matrix(0.5333767,0.84587782,-0.84587782,0.5333767,0,0)"
       sodipodi:linespacing="125%"
       id="text3825"
       y="-88.321777"
       x="191.62392"
       style="font-size:20px;font-style:normal;font-weight:normal;line-height:125%;fill:#000000;fill-opacity:1;stroke:none;font-family:Bitstream Vera Sans"
       xml:space="preserve"><tspan
         style="font-size:20px;font-style:normal;font-variant:normal;font-weight:normal;font-stretch:normal;text-align:start;line-height:125%;writing-mode:lr-tb;text-anchor:start;font-family:Arial;-inkscape-font-specification:Arial"
         y="-88.321777"
         x="191.62392"
         id="tspan3827"
         sodipodi:role="line">NWbN</tspan></text>
    <text
       xml:space="preserve"
       style="font-size:20px;font-style:normal;font-weight:normal;line-height:125%;fill:#000000;fill-opacity:1;stroke:none;font-family:Bitstream Vera Sans"
       x="140.60344"
       y="-234.39554"
       id="text3829"
       sodipodi:linespacing="125%"
       transform="matrix(0.18858006,0.98205782,-0.98205782,0.18858006,0,0)"><tspan
         sodipodi:role="line"
         id="tspan3831"
         x="140.60344"
         y="-234.39554"
         style="font-size:20px;font-style:normal;font-variant:normal;font-weight:normal;font-stretch:normal;text-align:start;line-height:125%;writing-mode:lr-tb;text-anchor:start;font-family:Arial;-inkscape-font-specification:Arial">NbW</tspan></text>
  </g>
</svg>
