<?xml version="1.0" encoding="UTF-8" standalone="no"?>
<!-- Uploaded to: SVG Repo, www.svgrepo.com, Generator: SVG Repo Mixer Tools -->

<svg
   fill="#000000"
   version="1.1"
   id="Capa_1"
   width="734.42017"
   height="780.97632"
   viewBox="0 0 45.881064 48.789543"
   xml:space="preserve"
   sodipodi:docname="compass-rose-6.svg"
   inkscape:version="1.2.2 (b0a8486541, 2022-12-01)"
   xmlns:inkscape="http://www.inkscape.org/namespaces/inkscape"
   xmlns:sodipodi="http://sodipodi.sourceforge.net/DTD/sodipodi-0.dtd"
   xmlns="http://www.w3.org/2000/svg"
   xmlns:svg="http://www.w3.org/2000/svg"><defs
   id="defs19" /><sodipodi:namedview
   id="namedview17"
   pagecolor="#ffffff"
   bordercolor="#000000"
   borderopacity="0.25"
   inkscape:showpageshadow="2"
   inkscape:pageopacity="0.0"
   inkscape:pagecheckerboard="0"
   inkscape:deskcolor="#d1d1d1"
   showgrid="false"
   inkscape:zoom="1.04"
   inkscape:cx="333.17308"
   inkscape:cy="470.67308"
   inkscape:window-width="2192"
   inkscape:window-height="1132"
   inkscape:window-x="0"
   inkscape:window-y="0"
   inkscape:window-maximized="1"
   inkscape:current-layer="g12" />
<g
   id="g14"
   transform="translate(-2.9531546,-0.40937658)">
	<g
   id="g12">
		<path
   d="m 45.578,24.516 -4.286,-0.635 c -0.193,-3.89 -1.81,-7.405 -4.356,-10.029 L 40.975,9.814 40.696,9.534 36.659,13.57 C 33.946,10.914 30.267,9.252 26.206,9.148 L 25.638,5.311 v 3.825 0 -3.825 l -0.57,3.854 c -3.899,0.187 -7.425,1.804 -10.055,4.355 l -4.03,-3.986 -0.301,0.301 4.028,3.985 c -2.621,2.685 -4.267,6.312 -4.399,10.319 l -3.703,0.548 3.705,0.549 c 0.147,3.952 1.769,7.529 4.342,10.192 l -3.975,3.953 0.301,0.301 3.972,-3.949 c 2.674,2.621 6.29,4.271 10.287,4.418 l 0.567,3.84 v -3.812 0 3.812 l 0.567,-3.84 c 3.977,-0.146 7.574,-1.781 10.244,-4.379 l 4.055,4.053 0.301,-0.301 -4.054,-4.054 c 2.615,-2.688 4.257,-6.313 4.385,-10.321 z M 21.929,22.418 17.728,23.04 c 0.285,-1.426 0.94,-2.709 1.856,-3.768 z M 20.49,18.375 c 0.987,-0.837 2.166,-1.439 3.469,-1.74 l -0.565,3.815 z m 3.605,-2.659 c -0.213,0.04 -0.425,0.086 -0.632,0.142 l -0.298,-1.691 c 0.388,-0.098 0.788,-0.16 1.191,-0.212 z m -0.839,0.194 c -0.647,0.188 -1.265,0.444 -1.845,0.765 l -0.822,-1.502 c 0.74,-0.409 1.537,-0.726 2.37,-0.953 z m -2.027,0.874 c -0.525,0.307 -1.003,0.679 -1.455,1.079 l -1.43,-1.021 c 0.623,-0.596 1.312,-1.123 2.063,-1.558 z m -2.168,1.787 c -0.427,0.473 -0.819,0.979 -1.142,1.534 l -1.368,-1.04 c 0.417,-0.688 0.917,-1.313 1.47,-1.89 z m -1.252,1.718 c -0.324,0.592 -0.578,1.229 -0.766,1.89 l -1.657,-0.421 c 0.246,-0.889 0.602,-1.729 1.055,-2.509 z m -0.818,2.097 c -0.067,0.258 -0.111,0.521 -0.155,0.786 l -1.77,0.262 c 0.059,-0.5 0.144,-0.991 0.266,-1.469 z m 5.867,0.326 1.117,0.776 10e-4,0.024 c -0.126,0.229 -0.215,0.479 -0.257,0.746 H 12.414 Z m -3.431,7.133 c -0.819,-1.003 -1.4,-2.194 -1.675,-3.508 l 3.782,0.562 z m 4.077,-1.413 0.634,4.282 C 22.678,32.41 21.367,31.724 20.3,30.762 Z m -6.657,-2.229 c 0.048,0.297 0.105,0.591 0.185,0.877 l -1.692,0.287 c -0.12,-0.463 -0.202,-0.941 -0.264,-1.426 z m 0.238,1.084 c 0.213,0.703 0.514,1.365 0.881,1.986 l -1.553,0.737 c -0.436,-0.76 -0.778,-1.575 -1.021,-2.437 z m 0.991,2.17 c 0.247,0.395 0.532,0.761 0.833,1.111 L 17.892,31.99 C 17.38,31.437 16.913,30.844 16.523,30.195 Z m 1.509,1.822 c 0.482,0.453 1.008,0.861 1.581,1.203 l -0.948,1.424 C 19.474,33.455 18.79,32.914 18.177,32.303 Z m 1.763,1.315 c 0.611,0.346 1.267,0.618 1.955,0.814 l -0.44,1.652 c -0.871,-0.246 -1.695,-0.599 -2.462,-1.043 z m 2.162,0.869 c 0.249,0.064 0.505,0.105 0.761,0.15 l 0.262,1.771 C 24.035,35.322 23.545,35.238 23.07,35.113 Z m 0.328,-5.688 0.082,-0.162 0.688,-0.989 0.308,-0.019 c 0.147,0.076 0.303,0.135 0.465,0.18 l -0.001,11.4 z M 24.537,24.6 c 0,-0.781 0.637,-1.417 1.42,-1.417 0.781,0 1.416,0.636 1.416,1.417 0,0.783 -0.635,1.42 -1.416,1.42 -0.783,0 -1.42,-0.637 -1.42,-1.42 z m 5.334,2.242 4.021,-0.596 c -0.271,1.379 -0.884,2.632 -1.751,3.672 z m 1.347,4.032 c -0.901,0.784 -1.968,1.381 -3.147,1.718 l -0.033,0.007 v 0.003 c -0.182,0.051 -0.375,0.075 -0.562,0.113 l 0.613,-4.143 0.05,0.101 z M 27.97,21.086 27.299,16.55 c 1.523,0.281 2.889,0.985 3.996,1.979 z m 4.087,-1.776 c 0.842,0.983 1.45,2.161 1.756,3.463 l -3.826,-0.566 z m 2.67,3.598 C 34.7,22.772 34.684,22.633 34.651,22.498 l 1.684,-0.324 c 0.076,0.326 0.129,0.661 0.173,0.998 z M 34.598,22.291 C 34.393,21.535 34.101,20.818 33.72,20.154 l 1.524,-0.783 c 0.453,0.807 0.801,1.678 1.035,2.596 z m -0.987,-2.319 c -0.299,-0.496 -0.658,-0.95 -1.041,-1.379 l 1.02,-1.427 c 0.589,0.611 1.111,1.286 1.545,2.023 z M 31.988,17.995 C 31.505,17.544 30.98,17.137 30.406,16.799 l 0.976,-1.408 c 0.722,0.437 1.382,0.961 1.981,1.548 z M 30.223,16.688 C 29.645,16.367 29.028,16.107 28.38,15.917 l 0.569,-1.619 c 0.793,0.241 1.545,0.576 2.248,0.982 z m -2.049,-0.826 c -0.327,-0.088 -0.665,-0.146 -1.005,-0.199 l -0.261,-1.765 c 0.627,0.066 1.242,0.177 1.834,0.344 z m -0.565,5.7 -0.688,0.987 C 26.657,22.425 26.366,22.354 26.062,22.341 V 11.117 Z m -0.266,12.053 c 0.287,-0.047 0.571,-0.102 0.849,-0.178 l 0.313,1.687 c -0.462,0.118 -0.94,0.2 -1.423,0.261 z m 1.055,-0.228 c 0.696,-0.208 1.354,-0.5 1.971,-0.857 l 0.759,1.541 c -0.757,0.429 -1.563,0.764 -2.416,1.002 z m 2.154,-0.968 c 0.491,-0.302 0.94,-0.66 1.364,-1.046 l 1.43,1.021 c -0.613,0.598 -1.296,1.125 -2.038,1.564 z m 2.104,-1.804 C 33,30.219 33.322,29.806 33.594,29.357 l 1.39,1.006 c -0.373,0.598 -0.813,1.144 -1.291,1.654 z m 1.052,-1.44 c 0.388,-0.676 0.688,-1.407 0.895,-2.177 l 1.632,0.521 c -0.261,0.946 -0.646,1.838 -1.138,2.661 z m 0.948,-2.384 c 0.053,-0.221 0.086,-0.449 0.125,-0.678 l 1.75,-0.258 c -0.054,0.494 -0.125,0.984 -0.246,1.457 z m -5.328,-0.303 -1.115,-0.774 -0.039,-0.657 c 0.008,-0.038 0.021,-0.075 0.025,-0.113 h 11.414 c 0,0.008 -0.002,0.016 -0.002,0.024 z m 10.248,-2.862 -2.631,-0.39 C 36.631,20.751 35.509,18.517 33.843,16.81 l 0.387,-0.539 -0.519,0.398 c -1.8,-1.781 -4.201,-2.952 -6.867,-3.199 l -0.386,-2.607 c 6.976,0.328 12.604,5.837 13.118,12.763 z M 25.636,10.839 v 3.405 z m -0.825,0.042 -0.391,2.638 c -0.45,0.053 -0.896,0.12 -1.33,0.228 l -0.001,-0.008 -0.21,0.037 0.005,0.024 c -1.869,0.504 -3.542,1.482 -4.894,2.789 l -0.872,-0.623 0.634,0.851 c -1.723,1.766 -2.864,4.096 -3.13,6.684 l -2.599,0.385 c 0.384,-6.933 5.886,-12.51 12.788,-13.005 z m -12.783,14.608 2.619,0.388 c 0.175,1.588 0.664,3.082 1.43,4.402 l 0.051,0.104 0.012,-0.005 c 0.424,0.714 0.931,1.37 1.496,1.972 l -0.517,0.723 0.711,-0.517 c 1.77,1.789 4.133,2.979 6.768,3.265 l 0.386,2.611 C 18.025,38.021 12.447,32.447 12.028,25.489 Z m 13.779,12.986 v -3.418 z m 0.823,-0.042 0.388,-2.618 c 2.592,-0.279 4.922,-1.432 6.68,-3.168 l 0.973,0.694 -0.715,-0.968 c 1.664,-1.756 2.765,-4.043 3.021,-6.584 l 2.613,-0.387 c -0.379,7 -5.973,12.616 -12.96,13.031 z"
   id="path2"
   style="fill:#346751;fill-opacity:1" />
		
		
		
		
	<text
   xml:space="preserve"
   style="font-style:normal;font-variant:normal;font-weight:normal;font-stretch:normal;font-size:5.33099px;font-family:Monaco;-inkscape-font-specification:'Monaco, Normal';font-variant-ligatures:normal;font-variant-caps:normal;font-variant-numeric:normal;font-variant-east-asian:normal;opacity:1;fill:#346751;fill-opacity:1;stroke:#346751;stroke-width:0.0710937;stroke-miterlimit:0;stop-color:#000000"
   x="24.051113"
   y="4.4848142"
   id="text363"><tspan
     sodipodi:role="line"
     id="tspan361"
     style="font-style:normal;font-variant:normal;font-weight:normal;font-stretch:normal;font-size:5.33099px;font-family:Monaco;-inkscape-font-specification:'Monaco, Normal';font-variant-ligatures:normal;font-variant-caps:normal;font-variant-numeric:normal;font-variant-east-asian:normal;fill:#346751;fill-opacity:1;stroke-width:0.0710937"
     x="24.051113"
     y="4.4848142">N</tspan></text><text
   xml:space="preserve"
   style="font-style:normal;font-variant:normal;font-weight:normal;font-stretch:normal;font-size:5.33099px;font-family:Monaco;-inkscape-font-specification:'Monaco, Normal';font-variant-ligatures:normal;font-variant-caps:normal;font-variant-numeric:normal;font-variant-east-asian:normal;fill:#346751;fill-opacity:1;stroke:#346751;stroke-width:0.0710937;stroke-miterlimit:0;stop-color:#000000"
   x="46.088924"
   y="26.253725"
   id="text363-5"><tspan
     sodipodi:role="line"
     id="tspan361-4"
     style="font-style:normal;font-variant:normal;font-weight:normal;font-stretch:normal;font-size:5.33099px;font-family:Monaco;-inkscape-font-specification:'Monaco, Normal';font-variant-ligatures:normal;font-variant-caps:normal;font-variant-numeric:normal;font-variant-east-asian:normal;fill:#346751;fill-opacity:1;stroke-width:0.0710937"
     x="46.088924"
     y="26.253725">E</tspan></text><text
   xml:space="preserve"
   style="font-style:normal;font-variant:normal;font-weight:normal;font-stretch:normal;font-size:5.33099px;font-family:Monaco;-inkscape-font-specification:'Monaco, Normal';font-variant-ligatures:normal;font-variant-caps:normal;font-variant-numeric:normal;font-variant-east-asian:normal;fill:#346751;fill-opacity:1;stroke:#346751;stroke-width:0.0710937;stroke-miterlimit:0;stop-color:#000000"
   x="24.301905"
   y="49.041031"
   id="text363-5-7"><tspan
     sodipodi:role="line"
     id="tspan361-4-4"
     style="font-style:normal;font-variant:normal;font-weight:normal;font-stretch:normal;font-size:5.33099px;font-family:Monaco;-inkscape-font-specification:'Monaco, Normal';font-variant-ligatures:normal;font-variant-caps:normal;font-variant-numeric:normal;font-variant-east-asian:normal;fill:#346751;fill-opacity:1;stroke-width:0.0710937"
     x="24.301905"
     y="49.041031">S</tspan></text><text
   xml:space="preserve"
   style="font-style:normal;font-variant:normal;font-weight:normal;font-stretch:normal;font-size:5.33099px;font-family:Monaco;-inkscape-font-specification:'Monaco, Normal';font-variant-ligatures:normal;font-variant-caps:normal;font-variant-numeric:normal;font-variant-east-asian:normal;fill:#346751;fill-opacity:1;stroke:#346751;stroke-width:0.0710937;stroke-miterlimit:0;stop-color:#000000"
   x="2.9158168"
   y="26.580357"
   id="text363-5-7-3"><tspan
     sodipodi:role="line"
     id="tspan361-4-4-0"
     style="font-style:normal;font-variant:normal;font-weight:normal;font-stretch:normal;font-size:5.33099px;font-family:Monaco;-inkscape-font-specification:'Monaco, Normal';font-variant-ligatures:normal;font-variant-caps:normal;font-variant-numeric:normal;font-variant-east-asian:normal;fill:#346751;fill-opacity:1;stroke-width:0.0710937"
     x="2.9158168"
     y="26.580357">W</tspan></text></g>
</g>
</svg>
