<?xml version="1.0" encoding="UTF-8" standalone="no"?>
<svg
   enable-background="0 0 490.00201 247.42999"
   viewBox="0 0 490.00201 247.42999"
   width="490.00201"
   height="247.42999"
   xmlns="http://www.w3.org/2000/svg">
<path d="m 245.002,169.969 c -107.655,0 -195.239,86.23 -195.239,193.883 0,2.682 2.182,4.863 4.862,4.863 h 128.029 c 1.345,0 2.431,-1.087 2.431,-2.432 v -85.1 c 0,-1.343 1.093,-2.432 2.431,-2.432 h 114.97 c 1.338,0 2.432,1.089 2.432,2.432 v 85.1 c 0,1.345 1.084,2.432 2.432,2.432 h 128.026 c 2.681,0 4.863,-2.182 4.863,-4.863 C 440.238,256.199 352.654,169.969 245.002,169.969 Z m 173.239,23.074 C 371.97,146.77 310.439,121.285 245.001,121.285 179.56,121.285 118.034,146.769 71.759,193.043 25.484,239.319 0,300.842 0,366.283 c 0,1.345 1.088,2.432 2.432,2.432 h 24.303 c 1.345,0 2.432,-1.087 2.432,-2.432 0,-119.011 96.823,-215.832 215.835,-215.832 119.008,0 215.833,96.821 215.833,215.832 0,1.345 1.09,2.432 2.432,2.432 h 24.303 c 1.341,0 2.432,-1.087 2.432,-2.432 C 490,300.842 464.514,239.319 418.241,193.043 Z" transform="translate(0,-121.285)" />
</svg>
