<?xml version="1.0" encoding="UTF-8" standalone="no"?>
<!-- Created with Inkscape (http://www.inkscape.org/) -->

<svg
   width="580"
   height="580"
   viewBox="0 0 153.45833 153.45833"
   version="1.1"
   id="svg2483"
   inkscape:export-filename="culvert-2.svg"
   inkscape:export-xdpi="96"
   inkscape:export-ydpi="96"
   xmlns:inkscape="http://www.inkscape.org/namespaces/inkscape"
   xmlns:sodipodi="http://sodipodi.sourceforge.net/DTD/sodipodi-0.dtd"
   xmlns="http://www.w3.org/2000/svg"
   xmlns:svg="http://www.w3.org/2000/svg">
  <sodipodi:namedview
     id="namedview2485"
     pagecolor="#ffffff"
     bordercolor="#000000"
     borderopacity="0.25"
     inkscape:showpageshadow="2"
     inkscape:pageopacity="0.0"
     inkscape:pagecheckerboard="0"
     inkscape:deskcolor="#d1d1d1"
     inkscape:document-units="mm"
     showgrid="false" />
  <defs
     id="defs2480" />
  <path
     d="m 76.729485,53.231023 c -33.715238,0 -61.14467,27.005394 -61.14467,60.719957 0,0.83998 0.683353,1.52311 1.522671,1.52311 h 40.095939 c 0.421222,0 0.761336,-0.34056 0.761336,-0.7617 V 88.060874 c 0,-0.420596 0.342304,-0.761642 0.761334,-0.761642 h 36.006139 c 0.419046,0 0.761665,0.341046 0.761665,0.761642 v 26.651516 c 0,0.42114 0.33948,0.7617 0.761643,0.7617 H 136.3505 c 0.83969,0 1.52295,-0.68342 1.52295,-1.52311 -3e-4,-33.714563 -27.42967,-60.719957 -61.143965,-60.719957 z m 54.254655,7.226284 C 116.4931,45.965601 97.222944,37.984244 76.729174,37.984244 c -20.494714,0 -39.763357,7.981049 -54.255681,22.473063 C 7.9811511,74.949958 1.025e-4,94.217652 1.025e-4,114.71239 c 0,0.42114 0.3407381,0.7617 0.7616506,0.7617 h 7.611177 c 0.421235,0 0.761643,-0.34056 0.761643,-0.7617 0,-37.271715 30.3228989,-67.593983 67.5949119,-67.593983 37.270785,0 67.594315,30.322268 67.594315,67.593983 0,0.42114 0.34131,0.7617 0.76154,0.7617 h 7.61117 c 0.42009,0 0.76172,-0.34056 0.76172,-0.7617 -6.2e-4,-20.494738 -7.98227,-39.762432 -22.47409,-54.255083 z"
     id="path1938"
     style="stroke-width:0.313178" />
</svg>
