<?xml version="1.0" encoding="utf-8"?>
<svg xmlns="http://www.w3.org/2000/svg" enable-background="new 0 0 1942.4 1508.9" viewBox="0 0 1942.4 1508.9">
  <path d="m1052.9 10.7c-8 1.1-15.3 4.2-46.8 19.3-28.8 13.8-39.6 18.3-59.5 25.2-50.9 17.4-128 33.8-177 37.5-12.3 1-54.3 1.5-67.6.9-4.7-.2-17.1 5.2-28.3 12.5-4.3 2.7-7.3 4.1-7.7 3.5-.9-1.6-23.2-18.1-35.4-26.2-25.3-17-52.5-31.8-68.5-37.3-6.5-2.2-9.8-2.8-17.5-2.8-18-.1-27.8 4-65.5 26.8-13.8 8.3-20.3 10.8-27.9 10.8-5.1 0-7.3-.7-17.1-5.6-8.7-4.3-13-5.8-18.2-6.5-17.7-2.2-54.6 5.3-73.3 15-30.8 15.9-53 52.6-58.2 96.5-1.3 11.3-.7 10.7-9.8 8.5-6.4-1.5-21.4-1.3-31.1.4-21.8 3.8-55.3 19.1-72.6 33.2-5.7 4.6-9.2 10.8-11.4 20.4-2.4 10.3-3.1 11.5-20.1 36.9-8 11.8-16.5 25.3-19.1 30-9.1 16.8-12.1 31.6-7.8 38.6 1.1 1.7 8.4 8.5 16.3 15.1 17.9 14.9 17.7 14.8 15 17.4-2.9 2.6-2.9 8.9-.1 18.9 4.1 14.8 4.9 16 19.5 28 7.3 6 18 14 23.6 17.8 12.5 8.4 23.6 19.8 33.6 34.5 8.2 12 12.3 15.9 20.2 18.8 6.7 2.5 18.4 8.9 22.5 12.3 1.7 1.4 5.4 4.4 8.4 6.8 8 6.3 9.3 9.5 7.9 18.8-1.1 7-1.7 8.2-8.3 17.5-26.4 36.9-32.5 64.2-17.8 79.9 2.1 2.2 3.1 3.5 2.2 2.8-1.3-1-2.1.2-5.4 8.1-11.6 27.8-30.8 63.8-48 89.7-13.5 20.5-24.2 33.7-39.4 49.3-14.8 15.1-18.7 18.1-72.6 56.7-59.8 42.8-72.6 52.7-78.4 60.6-3.3 4.7-2.1 5.8 5.4 5 18.7-1.9 62.3-17.2 97-34 22.9-11.2 33.9-17.9 46.5-28.4 27.7-23.2 90.1-94.6 108.2-123.7 4.6-7.4 8.4-13.2 8.6-13.1.1.2-1.4 5.2-3.4 11.2-9.6 28.9-23.6 56.8-59.2 118.3-17.7 30.6-28.9 55.9-40.8 91.6-23.6 71.6-31 142.6-20.9 202 6 34.9 16.9 63.2 36.9 95.9 21 34.3 49.8 62 81.6 78.5 28 14.5 50.2 20.1 86.5 22 13.2.7 22 1.8 32.9 4 17.6 3.6 26.3 4 29.7 1.2 2-1.6 2.2-2.2 1.2-4.3-.6-1.4-4.4-5.4-8.4-8.9-12.9-11.4-15.9-14.5-15.9-16.9 0-1.3 1.8-6.3 4.1-11.2 2.2-4.9 3.8-9.5 3.5-10.3-.7-1.9-2.8-1.9-18.6.5-20.8 3.1-31.4 3.5-38.7 1.7-13.8-3.6-27.9-12.9-44-29.3-15-15.3-39.6-49-43.7-60.1-5.4-14.4-7-19.7-8.6-28.3-8.9-45.5-.6-107.3 20-150.5 13.8-28.9 42.6-66.1 109.1-141 38.8-43.7 42.5-48.8 61-84.9 10.9-21.4 12.4-24.9 14.1-33.5 2.4-12.2 6.2-23.9 9.1-27.9l2.3-3 5.6 11.1c5.8 11.3 11 18.7 13.1 18.7.7 0 5-8 9.7-17.6 4.6-9.7 8.9-18.3 9.5-19 1.9-2.6-.2 25.5-2.9 38.8-4.2 20.9-10.8 37.3-21.4 53.4-5.9 9.1-10.9 14.9-26.2 30.9-4.7 4.9-10 10.6-11.9 12.7l-3.3 3.6 2.8 1.7c1.6.9 2 1.3.9.9s-2.7-.7-3.6-.8c-2.1-.1-48.4 45.2-49.1 48.2-.7 2.6 1.4 5.2 4.3 5.2 6.2 0 25-8.8 51.4-24 19.8-11.4 27.4-17.1 40.1-30.2 11.2-11.6 18.5-20.5 29-35.5 6.8-9.7 7.2-10 6.8-6.5-.2 2-1.3 13.8-2.4 26.2-3.6 40.1-9.1 80.7-14.6 108.5-3.8 19.3-7.3 32.7-20.5 78.5-27.3 94.4-35.7 129.5-39.4 164.5-5.3 50.4 2.7 72.6 40 110.1 16.1 16.2 30.9 28.8 57.2 48.7 7.8 6 16.3 12.8 18.8 15.2 7 6.9 16.4 22.2 31.5 51.2 7.6 14.8 19 36.5 25.3 48.3 10.7 19.9 11.8 21.7 16.7 25.2 3.1 2.2 6.5 3.8 8 3.8 1.8 0 5.7-2.1 10.6-5.6 4.4-3.1 13.8-9.6 21-14.5 15.5-10.3 20-15.1 30.8-32.6 4.4-7 9.9-15.3 12.2-18.3 12.2-16.1 13.4-19 21-50.5 4.3-17.7 4.6-19.8 4.5-31.5 0-6.9.4-15.1 1-18.3.8-4.7.7-6.3-.7-9.2-3.3-7.1-10.5-11.1-43.7-24.6-43-17.6-65.4-30.2-80.7-45.8-13.3-13.5-17.8-24.7-16.7-41.6 2.3-33.4 22.6-84.6 66.9-168.5 20.3-38.4 27.9-53.8 37.1-74.5 14.6-33.2 25-62.6 33.1-93.5 5.6-21.2 6.8-25.1 7.5-24.8.3.2 6.8 3.4 14.3 7.2l13.7 6.9.5 6.1c5.7 60.4 10.6 98.8 18.7 146.6 2.2 12.9 5.5 32.5 7.4 43.5s7.3 46.8 12 79.5c15.7 108.7 16.6 113 34 167 15.3 47.4 19 69.2 14.9 88.8-3.2 15.8-7.9 22.2-23.8 32.6-17.3 11.4-25 21.3-29.2 37.6-3.5 13.6 0 36.9 5.9 40.2 2.5 1.4 17.4 1.5 39.2.4 12-.7 17-1.5 35.5-6.1 24.8-6.2 34.8-8 51.5-9.5 13.7-1.2 29.7-4.8 43.5-9.6 11.1-3.8 38-16.5 42.8-20 7.9-6.1 8-12.6.3-37.4-12.1-39-15.5-50.6-20.6-69-12.7-47-20-87.7-22.4-125.5-4.9-75.7-6.4-228.3-2.6-258.5 1.9-15.9 6.3-33.8 11.3-46.7 5.6-14.4 8.2-18.4 14.8-22.8 7.3-4.9 12.6-6.5 18.4-5.5 5.1.8 24.9 8.5 26.6 10.3.6.7 1.7 4.8 2.3 9.2.7 4.4 2.8 14.3 4.6 22 9.2 38.5 20.3 64.2 44.5 103.7 19.4 31.6 21.3 37 23.1 68.3 2.3 37.1-3.8 130.5-10.1 155.1-6.3 24.7-23 45.8-55.9 70.9-9.7 7.4-15.4 12.4-17.2 15.4-2.9 4.4-6.6 14.6-9.3 25.6-1.7 6.6-5.9 31.6-5.4 32 .2.1 5.9-.4 12.8-1.1 6.9-.8 18.6-1.8 26-2.4 7.4-.5 18.2-1.7 24-2.5 12.3-1.7 36.3-4.3 47-5 18.2-1.2 46.9-5.3 55.5-8 2.8-.8 6.4-2.4 8.2-3.4 3.6-2.2 12.4-14.8 14.1-20.1 3.3-10.3 5.8-35.5 10.2-104 8.9-138.3 14.2-176.4 33.5-240 6.8-22.3 16.6-50.8 26.1-75.6 13-34.2 10.8-30.5 21.6-35.8 5.1-2.4 21.7-11.5 36.8-20.1 39.6-22.6 56.2-30.6 60.3-28.9.7.3 3.1 3.1 5.5 6.2 2.3 3.1 5.5 7 7 8.7 4.9 5.3 32.5 38.6 44.3 53.5 32.7 41 44.3 59.4 68.3 108 19.3 38.9 32.5 72.6 36.5 93.2 14.6 73.8 17.1 89 17.8 109.3.9 24.7-1.5 30.6-22.4 57.2-9.9 12.5-14.3 20.1-14.3 24.2.1 4.6 3.8 11.1 9.9 17.1 3.3 3.3 7.1 6.4 8.6 7 4.5 1.7 41.8 2.5 46.4 1 3-1 4.7-1 7.3-.1 6.1 2.1 16.8 2.4 28.3.7 12.5-1.8 38.5-8.2 49-12 3.9-1.3 12-3.4 18-4.6 15.1-3 25.5-5.6 31.1-8l4.7-2.1-.6-6.7c-1-11.4-14.1-59.7-30.7-113.2-3.4-11.1-5.4-19.9-6.9-31-6.4-45.7-11.5-67.7-19.8-84.5-2-3.9-6.6-12.6-10.4-19.5-11.4-20.8-17.8-39.5-28.3-81.5-10.1-40.9-13-67.8-17.1-161-.8-18.7-1.8-37.7-2.1-42.3l-.6-8.2 8.8 5.6c30.3 18.9 111.8 53.3 137.7 57.9 3.2.6 3.7 1.1 3.7 3.4 0 5.5 3.3 16 8 25.8 4.8 10.1 17.1 29.2 21 32.8 2 1.8 2.1 1.8 4.8-.2 3.2-2.3 6.1-9.9 6.2-16.3v-4.5l2.4 5.7c5.8 14.2 14.2 24.7 39.9 50 11.1 10.9 20.2 19.7 20.3 19.5.2-.1-1-2.9-2.6-6.2-3.1-6.7-5.4-15.4-7-26.1-1.1-8.4-2.5-33.1-1.8-32.4.3.3 4.2 7 8.7 15s8.5 14.8 8.9 15.2.8-3.7.9-9c.5-18.6.3-18.5 9.5-2.6 4.4 7.6 11.4 20 15.5 27.4l7.5 13.5-.7-7c-1.2-13.5-11.4-39.2-24.5-62-4.5-7.6-8.9-14.8-17.8-28.4l-1.7-2.5 5 2.9c2.8 1.6 7.4 4.4 10.4 6.2 2.9 1.9 5.5 3.2 5.7 3 .8-.8-6-10.2-11.4-16-7-7.3-20.3-16.3-30.9-20.7-8.5-3.6-23.5-8-27-8-6.6 0 2.4-4.7 16.2-8.5 7.6-2.1 7.8-2.2 5.5-3.5-3.6-1.9-16.8-2.5-25.8-1-11.3 1.8-31.2 7.8-34.7 10.4l-2.9 2.3-11.1-3.3c-37.3-11.1-67.6-24.2-89.6-38.7-12.1-8-27.2-20.9-34.7-29.7-3.5-4.1-11.2-12.8-16.9-19.4l-10.6-11.9-2.3-15.6c-2.2-15.2-13.7-74.4-34.8-179.6-10.3-51.5-10.4-52.2-11-70-2.5-77.4-26.9-149.5-67.5-199.4-17.2-21.1-63-61-95.6-83.3-22.7-15.6-35.5-22.6-74.5-41-16.2-7.6-40.5-19.6-54-26.7-54.9-28.8-91.4-44.9-134.1-59.2-42.9-14.3-81.6-21-103.6-17.9z" stroke-miterlimit="10" fill="#000000" stroke="none" stroke-width="2" vector-effect="non-scaling-stroke"/>
</svg>
