<?xml version="1.0" encoding="UTF-8" standalone="no"?>
<!-- Uploaded to: SVG Repo, www.svgrepo.com, Generator: SVG Repo Mixer Tools -->

<svg
   version="1.1"
   width="12"
   height="12"
   viewBox="0 0 12 12"
   id="svg2"
   sodipodi:docname="ford.svg"
   inkscape:version="1.2.2 (b0a8486541, 2022-12-01)"
   xmlns:inkscape="http://www.inkscape.org/namespaces/inkscape"
   xmlns:sodipodi="http://sodipodi.sourceforge.net/DTD/sodipodi-0.dtd"
   xmlns="http://www.w3.org/2000/svg"
   xmlns:svg="http://www.w3.org/2000/svg"
   xmlns:rdf="http://www.w3.org/1999/02/22-rdf-syntax-ns#"
   xmlns:cc="http://creativecommons.org/ns#"
   xmlns:dc="http://purl.org/dc/elements/1.1/">
  <sodipodi:namedview
     id="namedview7"
     pagecolor="#ffffff"
     bordercolor="#000000"
     borderopacity="0.25"
     inkscape:showpageshadow="2"
     inkscape:pageopacity="0.0"
     inkscape:pagecheckerboard="0"
     inkscape:deskcolor="#d1d1d1"
     showgrid="false"
     inkscape:zoom="48.5"
     inkscape:cx="5.8865979"
     inkscape:cy="6.0103093"
     inkscape:window-width="2192"
     inkscape:window-height="1132"
     inkscape:window-x="0"
     inkscape:window-y="0"
     inkscape:window-maximized="1"
     inkscape:current-layer="svg2" />
  <metadata
     id="metadata8">
    <rdf:RDF>
      <cc:Work
         rdf:about="">
        <dc:format>image/svg+xml</dc:format>
        <dc:type
           rdf:resource="http://purl.org/dc/dcmitype/StillImage" />
        <dc:title />
      </cc:Work>
    </rdf:RDF>
  </metadata>
  <defs
     id="defs6" />
  <path
     d="M 3.5,0 0,3 3.5,6 V 4 h 5 V 6 L 12,3 8.5,0 v 2 h -5 z M 2,6.5 c -0.5338983,0 -1.4922852,1 -2,1 V 9 C 0.5371839,9 1.5254237,8 2,8 2.5042373,8 3.4661017,9 4,9 4.4755023,9 5.4922852,8 6,8 6.5042373,8 7.5217305,9 8,9 8.5042373,9 9.525424,8 10,8 c 0.474576,0 1.495763,1 2,1 V 7.5 c -0.415254,0 -1.466102,-1.029661 -2,-1 -0.47827,0 -1.4652784,1 -2,1 -0.4449153,0 -1.4957627,-1 -2,-1 -0.5042373,0 -1.5540971,1 -2,1 -0.4755023,0 -1.4661017,-1 -2,-1 z m 0,3 c -0.5338983,0 -1.4922852,1 -2,1 V 12 c 0.5371839,0 1.5254237,-1 2,-1 0.5042373,0 1.4661017,1 2,1 0.4755023,0 1.4922852,-1 2,-1 0.5042373,0 1.5217305,1 2,1 0.5042373,0 1.525424,-1 2,-1 0.474576,0 1.495763,1 2,1 v -1.5 c -0.415254,0 -1.466102,-1.029661 -2,-1 -0.47827,0 -1.4652784,1 -2,1 -0.4449153,0 -1.4957627,-1 -2,-1 -0.5042373,0 -1.5540971,1 -2,1 -0.4755023,0 -1.4661017,-1 -2,-1 z"
     id="ford"
     style="color:#000000;fill:#000000;fill-opacity:1" />
</svg>
