<?xml version="1.0" encoding="UTF-8"?>
<!-- Generator: Adobe Illustrator 15.0.0, SVG Export Plug-In . SVG Version: 6.00 Build 0)  -->
<svg width="580px" height="580px" enable-background="new 0 0 580 580" version="1.1" viewBox="0 0 580 580" xml:space="preserve" xmlns="http://www.w3.org/2000/svg">



<path d="m66.275 1.7676c-41.335 0-64.572 21.372-64.572 65.037v450.12c0 40.844 20.896 62.229 62.193 62.229h452.02c41.307 0 62.229-20.315 62.229-62.229v-450.12c0-42.601-20.922-65.037-63.52-65.037-4e-3 0-448.5-0.143-448.35 0zm239.13 25.508 19.598 19.354c10.777 10.644 18.708 21.199 17.623 23.457-1.084 2.258-9.8751 11.211-19.537 19.895l-17.566 15.787-17.871-18.818c-9.829-10.35-18.333-20.08-18.896-21.623-0.565-1.543 7.4515-10.736 17.812-20.428l18.838-17.623zm63.852 56.117c2.928 0 42.074 32.208 46.854 38.551 4.607 6.114-33.56 37.981-55.18 46.07-23.382 8.748-51.74 9.2136-74.574 1.2246-9.095-3.183-23.434-10.533-31.865-16.334-16.834-11.582-49.101-46.667-49.1-53.387 0-2.332 4.238-7.0181 9.418-10.412 9.22-6.041 9.7352-5.887 24.324 7.293 19.332 17.466 37.15 24.745 60.703 24.797 21.103 0.046 46.515-12.184 59.43-28.602 3.98-5.061 8.4752-9.2012 9.9902-9.2012zm-185.27 66.451c16.443 0.03506 21.741 2.1937 36.057 9.7207 23.988 12.613 41.823 34.453 49.645 60.793 6.381 21.483 7.2982 49.45 2.0742 63.189-5.563 14.632 1.5134 14.744 20.402 0.32617 20.637-15.754 34.598-21.926 57.271-25.326 16.349-2.452 17.156-3.1642 21.623-19.119 10.662-38.08 38.902-60.561 76.756-61.098 28.258-0.401 44.144 5.4094 60.449 22.107 21.525 22.044 29.235 48.655 31.113 107.39 2.33 72.911-7.4635 112.32-35.979 144.8-24.581 27.996-63.249 38.344-93.418 24.998-25.461-11.262-32.177-28.737-35.1-91.328-1.877-40.209-3.4417-49.771-9.1777-56.111-8.878-9.808-14.329-9.5822-38.332 1.5918l-19.68 9.1602 7.8965 11.961c51.302 77.694 40.679 162.3-23.971 190.89-20.36 9.006-64.296 11.798-88.064 5.5957-30.921-8.069-57.65-24.222-82.785-50.027-40.036-41.104-61.905-85.096-74.854-150.58-7.386-37.35-7.3967-38.258-0.5957-43.232 13.932-10.188 19.439-6.5158 24.113 16.078 24.358 117.74 100.66 194.28 174.89 175.44 22.139-5.621 43.259-26.874 49.613-49.924 8.192-29.72-6.2392-81.08-31.326-111.48l-8.916-10.803-15.07 15.527c-15.937 16.422-35.577 29.958-43.502 29.98-4.765 0.013-26.521-43.991-26.521-53.643 0-2.826 10.349-9.8704 22.996-15.652 35.494-16.228 50.592-34.506 50.592-61.248 0-17.403-3.0675-23.471-14.98-29.631-15.339-7.933-40.88-6.5765-71.834 3.8144-15.07 5.059-28.262 9.1973-29.316 9.1973-2.713 0-23.686-47.459-23.686-53.598 0-10.53 22.745-17.729 60.709-19.211 8.7047-0.34 15.425-0.56442 20.906-0.55273zm262.48 84.1c-16.353-0.29504-33.198 6.714-45.879 20.287l-9.0156 9.6465 7.0723 11.859c5.885 9.867 7.2672 20.507 8.2402 63.369 1.365 60.182 1.9246 63.734 12.1 76.67 9.698 12.329 32.448 13.424 50.48 2.4297 26.525-16.172 44.089-61.629 40.236-104.13-2.52-27.781-18.693-60.53-35.338-71.551-8.4502-5.5954-18.085-8.4011-27.896-8.5781z"/></svg>
