<?xml version="1.0" encoding="UTF-8"?>
<!-- Generator: Adobe Illustrator 15.0.0, SVG Export Plug-In . SVG Version: 6.00 Build 0)  -->
<svg width="580px" height="580px" enable-background="new 0 0 580 580" version="1.1" viewBox="0 0 580 580" xml:space="preserve" xmlns="http://www.w3.org/2000/svg">

<path d="m66.275 1.7676c-41.335 0-64.572 21.372-64.572 65.037v450.12c0 40.844 20.895 62.229 62.193 62.229h452.02c41.307 0 62.229-20.316 62.229-62.229v-450.12c0-42.601-20.923-65.037-63.521-65.037-3e-3 0-448.49-0.143-448.35 0zm8.5996 126.06 253.11 19.939-2.8301 35.934-70.318-5.5391 3.9746 44.209 2.3477-1.6445 98.963 141.29 86.309-0.01367 0.00195 18.023-108.8 0.01758-5.9609 4.1758-2.9238-4.1738-255.42 0.04102-0.001953-18.023 18.814-0.00195-0.029296-196.72-20.059-1.5801 2.8301-35.936zm53.275 40.355 0.02539 193.88 36.047-0.00586-0.02735-191.03-36.045-2.8379zm72.09 5.6777 0.02735 188.19 34.91-0.00586-16.789-186.75-18.148-1.4297zm64.537 114.86 6.5898 73.312 44.754-0.00586-51.344-73.307zm-209.52 109.31h449.23v18.023h-449.23v-18.023zm-17.709 36.109h504.91v18.021h-504.91v-18.021z"/>
</svg>
