<?xml version="1.0" encoding="utf-8"?>
<!-- Svg Vector Icons : http://www.onlinewebfonts.com/icon -->
<!DOCTYPE svg PUBLIC "-//W3C//DTD SVG 1.1//EN" "http://www.w3.org/Graphics/SVG/1.1/DTD/svg11.dtd">
<svg version="1.1" xmlns="http://www.w3.org/2000/svg" xmlns:xlink="http://www.w3.org/1999/xlink" x="0px" y="0px" viewBox="0 0 256 256" enable-background="new 0 0 256 256" xml:space="preserve">
<metadata> Svg Vector Icons : http://www.onlinewebfonts.com/icon </metadata>
<g><g><g><g><g><path fill="#000000" d="M148.1,76.1h63.6c0.7,0,1.4-0.3,1.9-0.8L226.9,63c0.6-0.5,0.9-1.3,0.9-2.1c0-0.8-0.3-1.5-0.9-2.1l-13.2-12.3c-0.5-0.5-1.2-0.8-1.9-0.8h-63.6c-1.6,0-2.8,1.3-2.8,2.8v24.7C145.3,74.9,146.5,76.1,148.1,76.1z"/><path fill="#000000" d="M213.6,101.1c-0.5-0.5-1.2-0.8-1.9-0.8h-63.6c-1.6,0-2.8,1.3-2.8,2.8v24.7c0,1.6,1.3,2.8,2.8,2.8h63.6c0.7,0,1.4-0.3,1.9-0.8l13.2-12.3c0.6-0.5,0.9-1.3,0.9-2.1c0-0.8-0.3-1.5-0.9-2.1L213.6,101.1z"/><path fill="#000000" d="M110.7,102.7V78c0-1.6-1.3-2.8-2.8-2.8H44.3c-0.7,0-1.4,0.3-1.9,0.8L29.1,88.3c-0.6,0.5-0.9,1.3-0.9,2.1c0,0.8,0.3,1.5,0.9,2.1l13.2,12.3c0.5,0.5,1.2,0.8,1.9,0.8h63.6C109.5,105.5,110.7,104.2,110.7,102.7z"/><path fill="#000000" d="M147,229h-9.9V29.8c0-0.3,0-0.6-0.1-0.8l-6.9-17.6c-0.3-0.9-1.2-1.4-2.1-1.4s-1.8,0.6-2.1,1.4L119,29c-0.1,0.3-0.1,0.5-0.1,0.8V229H109c-4.7,0-8.5,3.8-8.5,8.5c0,4.7,3.8,8.5,8.5,8.5H147c4.7,0,8.5-3.8,8.5-8.5S151.7,229,147,229z"/></g></g></g><g></g><g></g><g></g><g></g><g></g><g></g><g></g><g></g><g></g><g></g><g></g><g></g><g></g><g></g><g></g></g></g>
</svg>