<?xml version="1.0" encoding="UTF-8"?>
<!-- Created with Inkscape (http://www.inkscape.org/) -->
<svg width="32.14" height="32.393" version="1.1" xmlns="http://www.w3.org/2000/svg" xmlns:cc="http://creativecommons.org/ns#" xmlns:dc="http://purl.org/dc/elements/1.1/" xmlns:rdf="http://www.w3.org/1999/02/22-rdf-syntax-ns#">
 <metadata>
  <rdf:RDF>
   <cc:Work rdf:about="">
    <dc:format>image/svg+xml</dc:format>
    <dc:type rdf:resource="http://purl.org/dc/dcmitype/StillImage"/>
   </cc:Work>
  </rdf:RDF>
 </metadata>
 <path transform="translate(0 -1020)" d="m31.888 1022.2 0.0014 12.402m-28.346-7.0866 0.00144 19.488m3.5419-24.803 0.00127 8.8582m0.00471 21.01-0.00159-8.8583m21.261 8.8545-0.0013-7.0866m-0.0041-23.032 9.52e-4 5.3149m-3.5392 23.032-0.0013-7.0867m-3.5417 8.8589-0.0019-10.63m-10.628 8.8602-0.0016-8.8583m3.5446 7.3023-6.74e-4 -3.7596m10.625-24.805 0.0019 10.63m-3.5446-7.086 0.0013 7.0866m-7.0882-8.857 0.0019 10.63m-3.5455-12.401 9.53e-4 7.3376m7.0898 15.693 0.0013 7.0866m-0.0051-28.346 0.0013 7.0866m-17.469 3.7956 0.00159 12.402m31.638-5.315 8.46e-4 10.63" fill="none" stroke="#000" stroke-linecap="round" stroke-linejoin="round" stroke-width=".49961"/>
</svg>
