<svg id="Layer_2" data-name="Layer 2" xmlns="http://www.w3.org/2000/svg" viewBox="0 0 995.35 637.1"><path d="M710.76,449.73c-4.15-16.66-3.8-29.72-3.26-45.38.42-12,1.54-22.72,10.06-67.93,1.47-7.82,5.06-27.49,12.23-66.85,4.28-23.5,6.38-35.48,4.34-47-3.86-21.92-15.92-36.8-21.46-43.47-14-16.84-29.17-24.64-46.2-33.16-9.12-4.56-36-17.26-74.73-23.09a288.19,288.19,0,0,0-83.15,0c-19,2.81-54.56,10.18-64.94,12.5-7.32,1.63-14.75,2.74-22,4.54a60.85,60.85,0,0,1-7.86,1.43c-8.89,1-13.28-.42-14.5-.86a22.35,22.35,0,0,1-4.29-2.08,20.78,20.78,0,0,1,6.93,7.46,20.28,20.28,0,0,1,1.94,5.2,181.56,181.56,0,0,0,18.44-2,196.5,196.5,0,0,0,20.38-4.48c7.37-1.94,17.49-3.95,37.71-7.95,21.65-4.29,37.11-7.35,56.55-8.36a272.24,272.24,0,0,1,62,4.28c11.87,2.17,31,5.8,54.21,15.9,21.7,9.46,34.35,19.14,38.72,22.62,13.07,10.4,19.55,19.05,23.44,25.27,5,8,13,20.84,8.35,29.76-3.28,6.27-9.44,4.09-13.45,10.8-5.47,9.17,3.88,16.86-1,28.12-3.81,8.78-11,7.49-12.63,15.9-1.21,6,1.85,9.9-.61,17.32a23.57,23.57,0,0,1-3.88,7.14,88.91,88.91,0,0,0-1-27.52,81.69,81.69,0,0,0-5.91-19c-6.6-14.38-13.44-17.46-12-24.25,1.13-5.45,5.81-4.76,9.78-12.84A31.13,31.13,0,0,0,685.29,203c-.81-4.61-3-10.51-10.8-18.95-8.19-8.83-18.09-15.59-33.63-22.63a210.39,210.39,0,0,0-45.24-14.67c-30.55-6-59.25-4.85-59.51-2.45-.12,1.09,5.57,1.87,20.58,7.54,8.42,3.19,19.16,7.25,18.75,9-.28,1.16-5.46.6-17.12,0,0,0-11.28-.58-28.53-.81-25.88-.35-30,1.75-30.57,3.87s3,3.82,2.24,6.11c-1.15,3.6-11.27,4-20.38,4.28-7.72.28-11.45-.23-14.47,2.65-2.48,2.36-1.66,4.31-4.08,6.12-2.65,2-5.69,1.18-15.28-.62-12.75-2.38-16.05-2.59-17.94-2.64a54.06,54.06,0,0,0-12.22,1,36,36,0,0,1-12-21,62.33,62.33,0,0,1-.61,12c-.83,5.62-2.15,9.25-4.07,15.49,0,0-1.19,3.84-4.9,17.52-2.11,7.81-3.39,19.89.62,38.32-8.39-17-8.54-29.27-6.93-37.5.54-2.79,2.77-12.74,5.7-23.85,1.88-7.09,2.92-10.42,2.86-15.69a44.32,44.32,0,0,0-4.08-17.32c-1.84-4.43-5.3-12.74-13.45-19.77-6.36-5.48-12.56-7.59-22-10.8-9.91-3.37-12.21-2.65-20-5.3-10.26-3.5-16.89-8.39-23.85-13.45-22.12-16.11-40.25-28.8-46.06-32.81C243,49.17,231.48,44.11,228,42.61a165.18,165.18,0,0,0-28.33-9.17c-.88,1.86-1.77,3.73-2.65,5.6a163.88,163.88,0,0,1,16.82,4.89,166.78,166.78,0,0,1,27,12.33c19.9,11.31,35.18,25.26,34.1,26.9-.23.36-1.08,0-1.39.41C272.55,85,279,91.39,284.82,96c5.18,4.1,8.83,6,25.37,14.07,19.61,9.59,20.83,10.08,23,10.8,10.37,3.39,13.06,2.34,21.2,6.21a48.32,48.32,0,0,1,16.2,11.52A47.17,47.17,0,0,1,381.93,164c.95,6.85.2,12-.92,19.57a119.93,119.93,0,0,1-6.11,24,103.15,103.15,0,0,0,2-30.67c-.83-9.61-2.63-13.8-3.87-16.2-5.13-9.88-14.63-15.76-16-14.57s4.5,7.89,2.65,9.88c-1.52,1.63-7-1.17-13.76-4.58-6.12-3.11-9.77-5-14.27-8.56-5.11-4.1-4.69-5.15-13.14-13.15-5.18-4.9-7.84-7.38-11-8.76-5.24-2.28-6.77-.65-14.57-2.14-3.49-.67-11.6-2.3-19-8-1.47-1.13-.86-.84-10.29-11.72-5.87-6.76-11.9-13.55-10.5-15.39.42-.55,1.23-.29,1.53-.91.53-1.13-1.5-3.29-5.4-6.63-5.7-4.87-6.86-5-9.38-7.54-3.75-3.83-2.87-5.36-5.91-9.07-2.52-3.07-6.94-5-15.79-9a124,124,0,0,0-17.73-6.42c-2.49-.69-4.62-1.18-6.22-1.53a22.27,22.27,0,0,1-3.26,2.34A23,23,0,0,1,186,47.29a23,23,0,0,0,6.93-23A27.48,27.48,0,0,1,170,43.12a20.5,20.5,0,0,0,5.13-8.87c.76-2.85,1.12-6.91,0-7.34-.77-.28-1.88,1.22-4.08,3.81-1.88,2.21-4.32,4.93-7.34,8A16.93,16.93,0,0,0,166.82,33c1-3.12,1.31-7.37.13-7.81s-3.11,2.54-4.82,5A58.28,58.28,0,0,0,156,41.72a16.56,16.56,0,0,1,.07-3.46c.32-2.6,1.14-4.15.88-4.28s-1.76,1.78-2.92,3.94a25.93,25.93,0,0,0-2.38,6.25,21.56,21.56,0,0,1,1.09-8.29c1.53-4.49,4.16-7.2,6.52-9.58,3.69-3.71,9.81-8.32,11.28-7.06.5.43.61,1.68-1,5.23.6-.15,1.56-.41,2.71-.82,3.4-1.18,4.06-2,5-1.69,1.8.63,2,4.43,2,6.11a11.53,11.53,0,0,1-1.36,5,14.12,14.12,0,0,0,3.87-3.81,15.16,15.16,0,0,0,2.52-8.42A16.27,16.27,0,0,0,182,11.7a16.23,16.23,0,0,0-8.84-6.86,17,17,0,0,1,10.67,5.77c4.23,5.09,3.75,11,3.6,12.84A20,20,0,0,1,183,34.39,16.35,16.35,0,0,0,189.64,26a16.49,16.49,0,0,0,.55-7.54,22.28,22.28,0,0,0-2.52-7.2,25.31,25.31,0,0,0-4.07-6.38,14.65,14.65,0,0,0-4.35-3.74c-4.43-2.23-9.35-.5-11.55.27-3.71,1.31-6,3.27-8.76,5.64-4.09,3.54-6.5,6.88-9.58,11.21-3.58,5-5.44,7.64-7.2,11.62a46.53,46.53,0,0,0-3.87,16.23,19.69,19.69,0,0,1-1.09-4.75,20.27,20.27,0,0,1,.07-4.69,26.91,26.91,0,0,1-4.35,4.89c-2.16,1.9-2.61,1.67-5.71,4-4.08,3.08-4.73,4.56-6.86,4.62-1.66,0-1.76-.84-3.87-1a10.61,10.61,0,0,0-6.52,2,16.19,16.19,0,0,0-5.71,6.11c2.69-6.51,6-9.17,8.36-10.39,1-.55,3.25-1.48,7.67-3.33,4.27-1.79,3.79-1.5,4.76-2A37.79,37.79,0,0,0,134.35,35a37.35,37.35,0,0,0,3.19-3.47A94.66,94.66,0,0,0,112,35.07a73.89,73.89,0,0,0-14.54,5.57,77.4,77.4,0,0,0-14.54,9.92c-9.77,7.95-17.16,16.47-16,17.93.49.63,2.26-.46,3.4.61s-.14,3.3.95,4.82,3.63,1,7.06,1.16a36.84,36.84,0,0,1,9.58,2c2.43.85,7.28,3.34,11.35,12.29A22,22,0,0,0,88.49,80,17.28,17.28,0,0,0,80,78.75a15.19,15.19,0,0,0-4.76,1.36,13.31,13.31,0,0,0-4.95,3.94,13,13,0,0,0-2.65,7.47A8,8,0,0,0,68.94,97a7.4,7.4,0,0,0,4.13,2.55,8.44,8.44,0,0,0,4.13,0,7.46,7.46,0,0,1-3.52-1.58,7.63,7.63,0,0,1-2.6-4.59c-.08-.48-.71-4.53,1.94-6.47A5,5,0,0,1,75.67,86a9.83,9.83,0,0,0-.92,3.87c-.08,3.33,1.59,7,3,7s2.24-3.24,2.49-5a11.15,11.15,0,0,0-.76-5.8,22.71,22.71,0,0,1,3.41.25c2.5.38,4.25.64,4.74,1.73.13.28.27.82-1.27,3.77a25.41,25.41,0,0,1-3.21,5.15A14.65,14.65,0,0,1,79,100.69c-.48.27-1.72.92-6.62,1.73-3.94.65-4.25.42-5.66.77-2.1.52-5,1.94-8,6.11,1.74-5.5,3.46-8.09,4.79-9.42a7,7,0,0,0,1.73-2.6,8.47,8.47,0,0,0,.21-4,19.38,19.38,0,0,1,1.07-6.88,15.58,15.58,0,0,1,4.69-6.82,7.4,7.4,0,0,1-4.44.3c-1.76-.48-2.15-1.43-3.67-2-2.44-1-5,.11-7.13,1a19,19,0,0,0-7.13,5.51c-2.41,2.89-2.89,4.89-4.49,8.1-2.19,4.42-4.52,7.12-8.45,11.72a84.67,84.67,0,0,1-12.64,12c5.36-5.94,9.46-10.91,12.33-14.52a38,38,0,0,0,5.3-8,70.93,70.93,0,0,0,3-8C45,82,44.76,82,45.4,80.46c1.1-2.57,2.54-4.45,5.41-7.54,4.18-4.51,7.71-7.64,7.94-7.84C71.11,54.13,69,55.62,72.26,53A115.37,115.37,0,0,1,88,41.69,96,96,0,0,1,107.31,33a97.46,97.46,0,0,1,19.82-4,100.8,100.8,0,0,1,11.67-.46l1-1.93a120.68,120.68,0,0,0-32.1,3.77,106.85,106.85,0,0,0-27.41,10.8A127.06,127.06,0,0,0,60.74,55.24c-1.68,1.42-4.27,3.84-9.46,8.68-4.94,4.6-6.15,5.86-7.45,7.93-1.57,2.49-1.84,3.91-3.78,9.38-1.39,3.93-3,8.49-4.58,11.92-2.63,5.7-5.63,9.28-10.5,15.08S19.51,113.7,13.36,121C8,127.3,6.37,130,5.2,132.38a40.45,40.45,0,0,0-3.56,11,12,12,0,0,0,4.48-.21c2.09-.5,2.66-1.26,4.18-1.83,3.22-1.21,6.56,0,9.27,1,4.48,1.64,5.93,3.77,7.54,2.95.57-.29,1.1-1.62,2.14-4.28,1.22-3.1,1.25-3.78,2.14-4.89,1.09-1.35,2-1.46,3.26-2.44a11.84,11.84,0,0,0,4.08-6.53,8.48,8.48,0,0,1-.51,5.3c-.8,1.68-1.69,1.78-3.06,3.57a15.31,15.31,0,0,0-2.75,7.44c-.49,3.41.47,3.42.1,6.52a18.35,18.35,0,0,1-4.07,9.17,18.45,18.45,0,0,1-6.12,5.2,18.28,18.28,0,0,1-8.66,2,22.08,22.08,0,0,0,5.81-3c1.83-1.31,3.32-2.38,3.26-3.77s-1.88-2.62-2.75-3.16c-2.14-1.33-3.44-.87-4.28-2.14a2.61,2.61,0,0,1-.1-2.95c.91-1,3.36-.28,4.89.61,3.36,1.94,3.93,5.63,5,5.4.83-.18,1-2.53,1-3.57.09-1.48.21-3.68-1.12-5.3-.65-.79-1.25-1-4-1.93-6.27-2.27-6.38-2.62-7.54-2.45-2.57.37-2.49,2.13-5.4,2.45-1.64.17-2.25-.32-4.9-.1-1.84.15-2.76.22-3.26.81-.28.33-1.07,1.57,1.84,7,3,5.63,5,6.43,7.64,11.72.78,1.54.3.86,2.34,5.5,2.46,5.6,3.72,8.42,5.1,10,2.22,2.52,4.71,3.51,8.56,5a47.14,47.14,0,0,0,14.37,3,81.34,81.34,0,0,0,23.94-2.14A53.46,53.46,0,0,1,24.87,190a18.54,18.54,0,0,0,3.26,8.66,19,19,0,0,0,8.77,6.62c1.13.45,6.22,2.37,15.69.51,4.32-.85,8.75-2.85,17.42-6.83,16.24-7.43,17.21-7.88,19.67-8.76,6.27-2.24,11.8-4.21,19.36-4.79a53.09,53.09,0,0,1,23.74,3.26c10.71,4.16,17,10.84,21.4,15.49,7.09,7.51,10.7,14.5,14.27,21.4a143.31,143.31,0,0,1,10.29,27c3.48,12.33,3.93,18.62,6,30.06,2.25,12.35,5.41,23.21,11.72,44.94,1.73,5.93,2.75,9.26,15.8,49.93,9.86,30.76,11,34.41,13.14,42.5,4.55,17.58,7,31.56,8.46,40,3.82,22.15,1.92,19.14,6.11,44.63a227.06,227.06,0,0,1,3.26,29c.79,17.59-1.15,23-4.68,26.49-4.45,4.43-11.83,6.29-14,6.83-4.58,1.15-5.84.51-11.52,1.93-4.29,1.08-8.22,2.06-12.12,4.69-7.14,4.8-9.9,12.19-10.81,15.18-.73,2.44-3.27,10.83.92,19.37a19.69,19.69,0,0,0,7.75,8.86c3.51,2,6.24,1.82,17.12,2,3.45.07,8.22.19,14,.41A59.59,59.59,0,0,1,234.79,602c2.48-5.46,5.93-13.06,13.55-18.65,4.21-3.08,9.26-5.25,17.22-8.66,5.28-2.26,7.49-2.87,10.09-5.4,3.62-3.51,4.79-7.63,6.11-12.53,5-18.43,5.61-22.22,5.61-22.22,3-18.26,2-7.82,6.62-35.46,3.17-18.83,4.76-28.39,5-35.26a161.82,161.82,0,0,0-1.73-29.14,191.33,191.33,0,0,0-7.54-31c-2.2-7-4.35-12.81-6-17a141.65,141.65,0,0,1-41.78-35.26c-28.46-35.69-31-75.12-31.15-89.64a194.88,194.88,0,0,0,66.58,109A195.05,195.05,0,0,1,270.42,350a197.14,197.14,0,0,1-6.12-34.11,214.14,214.14,0,0,0,9.38,27.18c3.27,7.73,4.56,9.48,13.31,27.58,5.74,11.87,8.61,17.8,11.55,24.59,5.55,12.83,9.48,21.91,12,32.07,3.68,15.07,2.63,26.44.54,49.18-1.74,18.9-2.91,13.27-7.47,46.33,0,0-2.12,15.38-9.92,43.21-1.57,5.59-3.53,12.14-9.37,16.16-4.33,3-6.82,1.86-17.67,5.3-8.29,2.64-12.44,4-16,7.34-6.69,6.43-7.44,15.33-7.68,18.21-.29,3.45-.68,8.16,2,13a19.37,19.37,0,0,0,8.29,7.74c5.62,2.85,10.19,1.87,19.7,1.09,8.18-.67,16.5-.9,33.15-1.36,8.54-.23,12.32-.17,16.31-3,4.47-3.16,5.92-7.64,7.88-12.5.57-1.41,5-9.5,13.85-25.68,12.75-23.27,18.24-23.61,21.74-37.49,1.39-5.49,1-7.18,1.63-20.66.74-14.88,1.45-17.09,4.08-45.38,4.25-45.78,2.63-42.78,5.16-63,3.75-30,6.82-32.7,10.06-56.79a347.23,347.23,0,0,0,1.9-72.83,130.77,130.77,0,0,1,7.88,92.67,77.6,77.6,0,0,0,30.7,7.33c4.2.1,11.33-.09,39.68-7.88,12.48-3.43,13.73-4.11,34-10.05,7.84-2.3.12,0,41-10.6,8-2.07,17.92-4.66,30-1.82a48.27,48.27,0,0,1,8,2.64c-7.33-22.84-7.37-41-5.84-53.81,2.36-19.81,8.72-28.59,13-50.95a175.91,175.91,0,0,0,2-52.58c4.6,11.23,10,28.76,8.15,49.73-1.7,19.61-8.1,24.1-11,47.69A159.06,159.06,0,0,0,589.3,362c3.6,17.35,8.79,28.82,19.16,51.77a371.28,371.28,0,0,0,26.9,50.54c12,18.72,18,28.08,27.71,39.13,6.92,7.87,10.83,11.18,13.46,18.75,3.55,10.24,1.61,19.18-1.84,35.06-4.33,20-9.46,23-11,23.84a35.73,35.73,0,0,1-12.44,3.06c-4.42.32-5.91-.38-9.91.34-1.82.32-6.53,1.17-10.26,4.14-7,5.59-7,15.8-6.93,20.18s.07,11.42,4.69,17.32c4.75,6.08,11.54,7.41,22.62,9.58a82.15,82.15,0,0,0,28.33.41c9.41-1.48,14.12-2.21,18.34-5.91,4.76-4.18,5.69-9.2,8.35-23.44C712,577,712.78,573.19,714,568c2.26-9.46,4.1-17.13,8.15-27.11,6.07-15,9.19-15.58,10.19-23.44,1.18-9.28-2.46-14.06-9.65-32.13C721.92,483.31,714.41,464.33,710.76,449.73Z"/><path d="M99.23,29.7c4-1.23,7.78-2.2,11.34-3a41.86,41.86,0,0,1-11.48-7,42,42,0,0,1-6.73-7.33A20.93,20.93,0,0,0,87.2,34C90.85,32.5,94.86,31,99.23,29.7Z"/><path d="M582.11,498.76c-2-4.23-3.29-8.65-5.84-17.49a220,220,0,0,1-6.45-30.3A213.17,213.17,0,0,1,573,373.78a44.26,44.26,0,0,0-8.55-1.35,49.29,49.29,0,0,0-22.15,4.21c-11.13,4.48-22.62,8-33.7,12.63-7.89,3.28-19.66,8-34.51,13.18a161.58,161.58,0,0,0,11.42,40.22c4.1,9.48,8.53,19.74,17.25,31a248.28,248.28,0,0,1,14.81,20.65c4.85,7.58,6,10.28,6.52,13.38,1.13,6.26-.6,11.17-4.07,21-2.5,7.08-4.93,11.31-9.79,19.77-3.15,5.5-5.1,8.23-8.56,10-1.38.7-2.83,1.16-9.17,1.83-11,1.17-11.78.32-15.28,1.22-8.24,2.14-13,9.17-14.27,11-1.1,1.63-6.93,10.55-4.48,21.81.53,2.42,2.1,9.65,8.35,14.06,1.09.77,4,2.61,13.66,3.6a97.57,97.57,0,0,0,21.47-.27,136.06,136.06,0,0,0,23.77-5,288.55,288.55,0,0,1,29.15-45.65c8.86-11.28,14.56-25.07,24.66-35.26,2.42-2.45,7.94-7.76,7.74-14.67C587.14,507,585.08,505,582.11,498.76Z"/><path d="M995,483.43c-.79-14.93-2.35-39.19-17.12-65.22-5.5-9.69-16.18-28-38-41-11.71-7-28.87-17.2-49.46-12-2.48.64-25.17,6.83-34.24,29.35a48.44,48.44,0,0,0,3,42.12c6,10.15,16.79,18.22,22.56,17.12a5.14,5.14,0,0,0,2.92-1.46c1.95-2.14.85-5.61.06-10.77a69.54,69.54,0,0,1-.81-10.6c0-1.68.4-11.93,7.61-18.2,6-5.22,13.62-5,17.12-4.89,13.58.39,23.23,9,28.26,13.58,15.78,14.45,20.53,32.45,23.37,43.21,2.4,9.09,7.14,28,1.36,50.81-2.35,9.27-5.56,21.93-16.85,33.16-13.17,13.09-28.86,15.8-33.7,16.57-23.43,3.72-41.88-7-52.17-13-18.61-10.86-29-24.75-38.86-38.32-6.34-8.69-14.06-20.79-24.18-44-4.83-11.08-16.08-38.17-28-87.77-4.06-16.9-3.85-18.32-16.58-81.52-4.09-20.34-7.51-37-9.78-48.1q-4.4,22-8.42,44.84-6.78,38.61-11.69,75.27a585.75,585.75,0,0,0,13.32,65.76c4.79,18.24,11.41,43,25,73.37,10.08,22.57,17.57,39,33.15,57.34,7.89,9.29,18.75,21.87,36.95,32.6,10.72,6.32,36.07,20.8,70.11,17.39,8.08-.8,31.32-3.44,53-20.92,18.86-15.21,26.24-33.35,31.79-47C996.74,521.43,995.65,495.62,995,483.43Z"/></svg>