<?xml version="1.0" encoding="UTF-8" standalone="no"?>
<!-- Generator: Adobe Illustrator 15.0.0, SVG Export Plug-In . SVG Version: 6.00 Build 0)  -->

<svg
   version="1.1"
   x="0px"
   y="0px"
   width="576.44501"
   height="577.45154"
   viewBox="0 0 576.44501 577.45154"
   enable-background="new 0 0 580 580"
   xml:space="preserve"
   id="svg2"
   xmlns="http://www.w3.org/2000/svg"
   xmlns:svg="http://www.w3.org/2000/svg"><defs
   id="defs2" />
<path
   id="path7"
   style="fill:#111111;stroke-width:0"
   d="M 64.570312,0.06445312 C 23.235312,0.06445312 0,21.434609 0,65.099609 V 515.22266 c 0,40.844 20.894406,62.22851 62.191406,62.22851 H 514.2168 c 41.307,0 62.22851,-20.31451 62.22851,-62.22851 V 65.099609 c 0,-42.601 -20.92348,-65.03515588 -63.52148,-65.03515588 -0.004,0 -448.495516,-0.14299998 -448.353518,0 z M 293.71484,40.75 c 42.413,0 122.71758,26.81625 138.97657,46.40625 8.311,10.016 0.58109,10.353484 -40.37891,1.771484 -32.779,-6.868 -43.65305,-7.499578 -68.99805,-4.017578 -72.978,10.027 -138.62918,65.023324 -164.86718,138.111324 -12.37699,34.479 -12.42461,96.48224 -0.0996,130.74024 25.516,70.924 90.15111,126.38919 161.53711,138.61719 22.154,3.795 32.31392,3.1859 68.66992,-4.1211 23.468,-4.717 44.19168,-7.10745 46.05469,-5.31445 4.33899,4.177 -15.17597,18.06402 -43.79297,31.16602 -42.255,19.34499 -103.87283,26.87284 -148.04883,18.08984 -9.033,-1.796 -26.58972,-6.83713 -39.01172,-11.20313 -63.665,-22.377 -125.142985,-85.39211 -148.083985,-151.78711 -8.003,-23.163 -13.167281,-48.38565 -12.863281,-82.34765 0.296,-33.988 4.860281,-55.79208 12.863281,-78.95508 21.872,-63.298 77.191355,-122.801625 138.193355,-148.640625 22.162,-9.387 71.39261,-18.515625 99.84961,-18.515625 z m 142.7461,149.32422 c 1.12309,-0.029 2.1957,0.5299 3.04883,1.21484 13.43,18.488 17.17204,42.23972 25.37304,63.38672 17.312,0.204 34.65236,-0.51134 51.94336,0.59766 5.404,1.317 17.88006,-0.73728 16.91406,7.76172 -15.038,16.931 -35.97814,27.11393 -51.74414,43.33593 2.86,17.147 11.66213,34.28858 14.82813,51.89258 1.014,5.47 3.49583,17.56045 -5.07617,17.31445 -19.186,-10.58898 -35.51352,-26.24553 -54.72852,-36.51953 -15.027,6.861 -28.07434,18.93644 -42.02734,28.14844 -5.108,3.875 -16.26502,11.91956 -19.91602,2.10156 1.215,-22.122 11.94567,-42.66381 17.76367,-63.88281 -13.676,-10.961 -28.4124,-20.39809 -41.9414,-31.49609 -3.592,-4.102 -14.51525,-9.04705 -9.15625,-15.37305 21.229,-6.89 44.6327,-3.98909 66.7207,-5.87109 4.098,-11.546 7.99245,-23.17969 12.18945,-34.67969 4.612,-9.204 6.29339,-21.52355 15.02539,-27.81055 0.26269,-0.0748 0.52403,-0.11409 0.78321,-0.12109 z" />


</svg>
