<?xml version="1.0" encoding="UTF-8" standalone="no"?>
<!-- Uploaded to: SVG Repo, www.svgrepo.com, Generator: SVG Repo Mixer Tools -->

<svg
   width="578.81818"
   height="584.52826"
   viewBox="0 0 43.846203 44.278749"
   version="1.1"
   id="svg12"
   sodipodi:docname="protected_area.svg"
   inkscape:version="1.2.2 (b0a8486541, 2022-12-01)"
   xmlns:inkscape="http://www.inkscape.org/namespaces/inkscape"
   xmlns:sodipodi="http://sodipodi.sourceforge.net/DTD/sodipodi-0.dtd"
   xmlns="http://www.w3.org/2000/svg"
   xmlns:svg="http://www.w3.org/2000/svg"
   xmlns:rdf="http://www.w3.org/1999/02/22-rdf-syntax-ns#"
   xmlns:cc="http://creativecommons.org/ns#"
   xmlns:dc="http://purl.org/dc/elements/1.1/">
  <sodipodi:namedview
     id="namedview14"
     pagecolor="#ffffff"
     bordercolor="#000000"
     borderopacity="0.25"
     inkscape:showpageshadow="2"
     inkscape:pageopacity="0.0"
     inkscape:pagecheckerboard="0"
     inkscape:deskcolor="#d1d1d1"
     showgrid="false"
     inkscape:zoom="1.085"
     inkscape:cx="183.41014"
     inkscape:cy="300.92166"
     inkscape:window-width="2192"
     inkscape:window-height="1165"
     inkscape:window-x="1920"
     inkscape:window-y="0"
     inkscape:window-maximized="1"
     inkscape:current-layer="svg12" />
  <defs
     id="defs2" />
  <metadata
     id="metadata4">
    <rdf:RDF>
      <cc:Work
         rdf:about="">
        <dc:format>image/svg+xml</dc:format>
        <dc:type
           rdf:resource="http://purl.org/dc/dcmitype/StillImage" />
        <dc:title>自然保護; Nature reserve</dc:title>
        <dc:source>http://www.ecomo.or.jp/barrierfree/pictogram/data/zukigo_panfu_jis110.pdf</dc:source>
      </cc:Work>
    </rdf:RDF>
  </metadata>
  <path
     d="m 38.914952,21.94 c -0.015,-0.3675 -0.09125,-0.75375 -0.17,-1.05875 1.08875,-0.09 2.215,-0.86875 2.52375,-1.79375 0.07875,-0.23875 -0.04875,-0.495 -0.28875,-0.575 -0.23625,-0.08 -0.495,0.04875 -0.5725,0.2875 -0.20875,0.6225 -1.0975,1.19125 -1.86625,1.19125 h -1.16375 c -0.72625,-0.22125 -1.67,-0.7825 -2.16,-2.21 -0.08125,-0.2375 -0.34,-0.365 -0.57625,-0.2825 -0.2375,0.08125 -0.36375,0.33875 -0.2825,0.57625 0.30125,0.88125 0.75625,1.4875 1.2325,1.91625 h -1.465 c -1.245,0 -3.12375,-1.07 -3.12375,-2.68125 0,-0.25125 -0.2025,-0.455 -0.45375,-0.455 -0.25125,0 -0.455,0.20375 -0.455,0.455 0,2.22375 2.34875,3.58875 4.0325,3.58875 h 4.15375 c 0.07875,0.29 0.165,0.68375 0.18375,1.04125 -1.33375,0 -2.8625,0 -3.3425,0 -0.0525,1.27625 2.12875,1.735 2.12875,1.735 l -2.54125,3.7725 c 0,0 -9.85875,0 -10.38625,0 -0.525,0 -0.935,0.17875 -1.13375,0.39125 -0.20125,0.21375 -2.4325,2.54125 -2.4325,2.54125 l 0.81625,0.955 0.055,1.30625 0.91,1.30625 -1.93,2.005 v 8.155 h 1.30875 v -6.81125 l 1.18875,-0.90875 3.2925,7.72 h 1.40125 l -2.8225,-8.23 0.73875,-1.66875 c 1.995,0 6.5175,0 8.14375,0 l -1.8425,9.89875 h 1.28625 l 1.7125,-8.3875 2.38,8.4075 h 1.40375 l -2.7525,-10.12375 c 0.69125,-0.48125 1.22375,-1.75125 1.47375,-2.40875 0.36875,-0.975 2.495,-6.30375 2.495,-6.30375 l 3.83125,-2.34 V 21.94 c 0,0 -3.04375,0 -4.93125,0"
     style="fill:#000000;fill-opacity:1;fill-rule:nonzero;stroke:none"
     id="path8" />
  <path
     d="m 12.48875,26.5675 c -0.43,-1.41 -1.6025,-3.1725 -2.8175003,-4.66875 0.8150003,0.4575 1.7587503,0.7325 2.8175003,0.7325 1.05875,0 2.00125,-0.275 2.81625,-0.7325 -1.21375,1.49625 -2.3875,3.25875 -2.81625,4.66875 z M 24.97625,8.7799997 c 0,-2.65125 -1.77625,-5.67625 -6.58375,-5.67625 -0.24625,0 -0.48625,0.0125 -0.725,0.035 C 17.12625,1.21125 15.37375,0 12.48875,0 9.6024997,0 7.8524997,1.21125 7.3087497,3.1387497 c -0.2375,-0.0225 -0.48,-0.035 -0.725,-0.035 C 1.7737497,3.1037497 0,6.1287497 0,8.7799997 0,10.1275 0.54625,11.36375 1.4575,12.33625 0.54625,13.31 0,14.5475 0,15.895 c 0,3.135 2.9462497,5.67625 6.5837497,5.67625 0.16,0 0.31125,-0.025 0.4675,-0.03375 1.185,1.60875 2.71125,3.915 3.3175003,5.63625 v 17.105 h 4.24 v -17.105 c 0.60625,-1.72125 2.13125,-4.0275 3.315,-5.63625 0.1575,0.0087 0.30875,0.03375 0.46875,0.03375 3.635,0 6.58375,-2.54125 6.58375,-5.67625 0,-1.3475 -0.54625,-2.585 -1.45625,-3.55875 0.91,-0.9725 1.45625,-2.20875 1.45625,-3.5562503"
     style="fill:#000000;fill-opacity:1;fill-rule:nonzero;stroke:none"
     id="path10" />
</svg>
