<?xml version="1.0" encoding="UTF-8"?>
<!-- Uploaded to: SVG Repo, www.svgrepo.com, Generator: SVG Repo Mixer Tools -->
<svg width="800px" height="800px" enable-background="new 0 0 1000 1000" fill="#000000" version="1.1" viewBox="0 0 1e3 1e3" xml:space="preserve" xmlns="http://www.w3.org/2000/svg">
<metadata> Svg Vector Icons : http://www.onlinewebfonts.com/icon </metadata>
<path transform="matrix(.1 0 0 -.1 .005 159.49)" d="m3813.5-3437.9c-223.5-63.3-452.8-235.3-583.4-437-91-140.4-318.4-363.9-446.9-441-197.7-116.7-322.3-150.3-541.8-152.3-162.2 0-213.6 7.9-290.7 43.5-110.7 51.4-251.1 185.9-298.6 286.7-63.3 132.5-181.9 174-267 94.9-92.9-87-29.7-268.9 164.1-466.7 342.1-348.1 880-373.8 1398.1-67.2 162.1 96.9 419.2 344.1 520.1 502.3 85 134.5 207.6 241.2 344.1 304.5 87 39.5 140.4 51.4 261 51.4 132.5 0 170.1-9.9 282.8-65.3 94.9-45.5 154.2-92.9 209.6-164.1 43.5-53.4 79.1-104.8 79.1-114.7 0-23.7 112.7-160.2 257.1-306.5 158.2-162.1 300.6-253.1 512.2-328.3 419.2-148.3 814.7-114.7 1206.3 102.8 178 98.9 429.1 336.2 557.6 524 144.4 215.5 274.9 306.5 496.4 344.1 219.5 39.6 429.1-33.6 577.4-197.7 37.6-41.5 89-112.7 110.7-158.2 87-172 296.6-136.5 296.6 51.4 0 126.6-247.2 427.1-427.1 518.1-276.8 140.4-652.6 136.5-923.5-9.9-142.4-79.1-255.1-185.9-389.6-371.8-403.4-557.7-961-727.7-1520.7-460.8-158.2 75.1-391.5 298.6-514.1 494.4-138.4 221.5-350 377.7-577.4 429.1-116.7 27.9-383.6 24-492.4-5.7zm138.4 1409.9c-284.8-29.7-524-178-704-433.1-425.2-609.1-1093.5-812.7-1467.3-448.9-47.5 45.5-106.8 124.6-132.5 174-51.4 98.9-77.1 116.7-170.1 116.7-77.1 0-136.4-63.3-136.4-142.4 0-83.1 96.9-253.1 207.6-361.9 189.8-189.8 395.5-270.9 682.2-268.9 102.8 0 241.3 13.8 306.5 31.6 164.1 43.5 413.3 164.1 553.7 272.9 126.6 96.9 310.5 294.6 381.7 411.3 63.3 102.8 227.4 251.2 336.2 300.6 130.5 59.3 391.5 59.3 520.1 2 124.6-57.3 229.4-154.2 298.6-280.8 33.6-57.4 146.3-193.8 251.1-300.6 166.1-170.1 211.6-203.7 377.7-284.8 233.3-110.7 409.4-154.2 652.6-154.2 306.5 0 541.8 73.2 810.8 251.1 148.3 98.9 363.8 320.4 464.7 474.6 81.1 126.6 187.9 219.5 326.3 284.7 148.3 69.2 377.7 73.2 524 5.9 122.6-57.4 255.1-183.9 316.4-302.6 51.4-98.8 77.1-116.7 170.1-116.7 77.1 0 136.4 63.3 136.4 144.4 0 85-94.9 245.2-221.5 371.8-304.5 304.5-848.3 350-1210.2 98.9-92.9-67.2-221.4-197.8-288.7-298.6-387.6-575.4-982.8-757.4-1556.3-474.6-134.5 67.2-183.9 104.8-306.5 243.2-81.1 89-170.1 201.7-197.7 251.1-75.1 130.5-253.1 290.7-399.4 355.9-148.4 67.5-342.2 95.2-526.1 77.4z"/>
</svg>
