<?xml version="1.0" standalone="no"?>
<!DOCTYPE svg PUBLIC "-//W3C//DTD SVG 20010904//EN"
 "http://www.w3.org/TR/2001/REC-SVG-20010904/DTD/svg10.dtd">
<svg version="1.0" xmlns="http://www.w3.org/2000/svg"
 width="1280.000000pt" height="982.000000pt" viewBox="0 0 1280.000000 982.000000"
 preserveAspectRatio="xMidYMid meet">
<metadata>
Created by potrace 1.15, written by Peter Selinger 2001-2017
</metadata>
<g transform="translate(0.000000,982.000000) scale(0.100000,-0.100000)"
fill="#000000" stroke="none">
<path d="M6467 9792 c-30 -31 -47 -78 -47 -132 0 -27 -3 -31 -10 -20 -18 26
-40 -17 -41 -79 0 -48 -2 -53 -12 -37 -43 70 -87 84 -116 36 -10 -16 -20 -27
-24 -24 -9 9 -45 -6 -77 -33 l-30 -25 0 35 c0 19 -7 40 -15 47 -13 11 -21 8
-48 -18 -18 -18 -36 -32 -40 -32 -4 0 -21 10 -38 22 l-30 22 -36 -37 c-19 -21
-38 -36 -42 -35 -64 34 -62 33 -81 10 -10 -12 -20 -22 -23 -22 -2 0 -10 25
-17 55 -25 105 -75 149 -102 89 -12 -26 -12 -26 -23 17 -15 62 -36 62 -95 0
-55 -58 -60 -55 -60 40 0 72 -9 75 -93 23 -32 -20 -61 -33 -64 -30 -3 3 -8 28
-11 56 -2 28 -9 53 -14 56 -5 4 -31 -17 -58 -44 l-49 -51 -11 37 c-6 20 -13
43 -16 50 -7 23 -42 -6 -74 -61 -22 -39 -30 -46 -30 -29 0 13 -6 22 -15 22
-20 0 -42 -37 -51 -84 -6 -33 -8 -36 -17 -20 -13 25 -48 64 -58 64 -13 0 -29
-63 -29 -117 0 -50 -1 -53 -19 -43 -29 15 -31 13 -31 -25 0 -39 -2 -40 -30
-23 -26 17 -33 7 -38 -55 l-4 -53 -33 4 c-30 4 -32 2 -28 -21 5 -23 2 -25 -29
-24 -31 2 -34 0 -42 -39 l-9 -42 -77 -4 c-55 -3 -88 -11 -113 -26 l-36 -21 -7
22 c-9 29 -34 57 -51 57 -8 0 -28 -13 -43 -29 l-29 -29 -11 34 c-7 19 -17 34
-24 34 -23 0 -63 -38 -76 -72 -8 -18 -14 -34 -16 -36 -1 -2 -13 8 -27 22 -15
14 -33 26 -42 26 -24 0 -65 -45 -71 -80 -10 -49 -22 -44 -29 13 -9 74 -18 86
-44 63 -12 -11 -21 -26 -21 -35 -1 -9 -9 0 -18 19 -14 28 -23 35 -47 35 -23 0
-33 -7 -50 -37 l-21 -37 -37 117 c-34 110 -88 222 -105 222 -19 0 -53 -50 -71
-101 l-18 -54 -32 102 c-17 56 -36 105 -42 108 -18 12 -36 -14 -54 -78 -18
-62 -18 -62 -27 -30 -18 70 -78 58 -78 -15 l-1 -37 -15 28 c-28 52 -58 20 -59
-63 0 -32 -4 -56 -8 -53 -9 5 -37 -15 -37 -27 0 -4 16 -31 36 -60 35 -50 35
-52 18 -78 -22 -36 -56 -72 -66 -72 -4 0 -8 7 -8 15 0 9 -11 21 -25 27 -37 17
-72 -3 -95 -54 -16 -37 -19 -39 -19 -17 -1 14 -7 34 -15 44 -13 18 -15 18 -67
-8 -46 -24 -54 -26 -61 -12 -12 21 -22 19 -58 -12 -30 -25 -35 -26 -74 -15
-58 16 -69 -1 -63 -92 6 -86 1 -105 -24 -99 -16 4 -19 0 -19 -26 0 -17 -4 -31
-10 -31 -5 0 -10 5 -10 10 0 17 -92 70 -122 70 -36 0 -52 -30 -46 -91 3 -27 4
-49 2 -49 -2 0 -15 11 -30 25 -34 32 -69 32 -89 1 -14 -22 -14 -28 -1 -59 12
-31 12 -35 0 -30 -8 3 -21 -1 -30 -8 -20 -16 -12 -64 22 -131 19 -37 21 -48
10 -48 -8 0 -17 -9 -21 -19 -6 -19 -7 -18 -48 5 -76 43 -127 27 -127 -40 l0
-26 -20 20 c-22 22 -61 40 -86 40 -10 0 -14 -12 -14 -38 0 -38 0 -38 -35 -34
-25 3 -36 0 -41 -12 -3 -9 -12 -16 -20 -16 -7 0 -19 -9 -26 -19 -14 -20 -14
-20 -26 0 -13 20 -52 27 -52 9 0 -5 -5 -10 -11 -10 -5 0 -7 4 -4 10 11 17 -15
89 -36 101 -34 18 -69 2 -85 -37 -8 -19 -12 -40 -9 -47 3 -7 -2 -2 -11 11 -29
39 -84 24 -103 -28 -7 -21 -16 -30 -28 -28 -23 4 -47 -45 -48 -99 0 -51 -9
-55 -24 -11 -16 44 -57 95 -92 113 l-29 16 0 -43 c0 -69 -9 -75 -68 -50 -68
30 -75 29 -67 -10 l7 -31 -51 6 c-41 5 -51 3 -51 -9 0 -8 10 -18 23 -23 17 -7
5 -10 -53 -17 -82 -10 -100 -27 -61 -60 18 -16 18 -19 4 -40 -10 -16 -28 -25
-59 -29 -24 -3 -64 -8 -89 -11 -38 -4 -45 -8 -40 -23 3 -10 -1 -24 -10 -31
-20 -17 -19 -24 10 -58 34 -40 32 -53 -5 -45 -28 5 -30 4 -30 -27 0 -25 -4
-31 -15 -26 -8 3 -21 9 -29 12 -9 3 -16 -4 -20 -20 l-6 -26 -40 20 c-55 28
-68 26 -75 -13 -6 -31 -9 -33 -42 -29 -32 4 -35 3 -28 -17 6 -20 3 -21 -49
-21 -57 0 -76 -11 -57 -34 9 -11 0 -15 -44 -20 -101 -12 -134 -46 -80 -82 30
-20 32 -34 4 -34 -11 0 -30 -5 -42 -12 -21 -11 -21 -11 -2 -18 16 -6 17 -9 5
-13 -79 -26 -112 -42 -118 -55 -3 -9 0 -18 6 -20 16 -5 15 -22 -1 -22 -20 0
-51 -37 -36 -42 6 -2 -6 -9 -28 -16 -52 -15 -93 -54 -93 -87 0 -30 22 -33 77
-10 20 8 37 14 37 13 16 -43 64 -60 107 -38 17 9 23 9 29 0 6 -9 22 -11 53 -7
46 6 46 6 49 -26 3 -29 7 -32 48 -40 88 -15 280 29 280 66 0 4 8 1 17 -9 14
-14 29 -16 91 -10 70 6 73 5 67 -14 -5 -16 -2 -20 15 -20 18 0 21 -4 16 -22
-3 -13 -6 -28 -6 -35 0 -6 -9 -9 -20 -6 -16 4 -21 -2 -31 -40 -11 -44 -11 -45
-30 -26 -10 10 -30 19 -44 19 -22 0 -25 -4 -25 -40 0 -38 -12 -52 -25 -30 -19
31 -175 36 -175 5 0 -10 -9 -12 -34 -8 -48 8 -89 -4 -82 -22 4 -12 -5 -15 -43
-15 -26 0 -62 -5 -80 -11 -34 -12 -41 -36 -13 -45 9 -3 24 -8 32 -11 11 -3 8
-10 -14 -25 l-28 -21 23 -13 c13 -7 35 -14 49 -14 23 -1 23 -2 5 -10 -11 -4
-46 -15 -78 -25 -50 -14 -58 -19 -55 -38 2 -12 13 -26 26 -32 27 -12 27 -15 1
-59 -20 -35 -20 -35 0 -45 11 -6 27 -11 37 -11 14 0 14 -3 4 -15 -20 -24 -2
-34 68 -41 56 -6 62 -9 62 -30 0 -19 7 -24 36 -30 34 -6 94 3 136 21 15 6 17
3 12 -22 -8 -40 18 -67 55 -58 30 8 91 51 91 66 0 5 4 9 9 9 6 0 11 -17 13
-37 2 -27 8 -39 21 -41 35 -7 86 9 117 34 24 21 30 22 30 10 0 -42 74 -24 115
27 l23 31 9 -35 c12 -46 51 -48 73 -4 12 24 20 29 42 27 21 -3 30 3 42 27 12
22 21 28 36 24 l21 -6 -20 -18 c-30 -28 -16 -49 32 -49 l41 0 -44 -45 c-37
-38 -42 -47 -30 -56 8 -5 37 -8 63 -5 29 3 45 1 42 -5 -10 -16 26 -23 57 -11
24 9 29 8 24 -3 -2 -7 -8 -30 -12 -49 -5 -32 -4 -36 15 -36 12 0 29 9 38 19
15 19 17 19 29 3 11 -16 15 -15 41 11 35 32 43 34 43 7 0 -35 45 -25 95 21
l45 42 0 -35 0 -35 87 23 c56 15 100 22 124 18 25 -4 50 0 84 15 26 12 51 21
56 21 5 0 9 -18 9 -39 0 -54 14 -59 37 -14 13 28 27 39 53 46 47 12 57 21 64
65 9 51 26 92 39 92 6 0 7 17 4 44 -6 38 -4 45 13 49 12 3 20 0 20 -8 0 -25
34 -26 83 -1 47 23 51 23 76 8 16 -10 25 -24 23 -34 -2 -11 3 -18 12 -18 12 0
8 -11 -16 -46 -39 -54 -30 -67 44 -61 l47 4 -29 -34 c-17 -18 -30 -38 -30 -43
0 -12 84 -24 122 -16 25 5 29 4 19 -8 -9 -11 -9 -16 1 -22 22 -14 107 -7 134
11 25 16 26 16 19 -4 -6 -19 -2 -21 37 -21 24 0 60 9 81 19 29 15 37 16 37 5
0 -20 99 -19 127 1 19 14 21 13 26 -15 8 -35 57 -65 93 -56 23 6 32 20 49 70
4 15 8 17 17 8 7 -7 20 -12 30 -12 21 0 23 -11 7 -27 -7 -7 -9 -19 -5 -29 5
-13 16 -16 55 -12 45 4 48 3 39 -12 -6 -10 -8 -25 -4 -35 9 -25 70 -13 123 25
38 26 43 27 43 11 0 -12 10 -21 26 -25 26 -7 90 8 108 25 17 16 26 10 26 -16
0 -22 4 -25 39 -25 23 0 62 12 98 31 l60 31 74 -37 c130 -65 266 -164 398
-289 69 -67 163 -147 206 -178 152 -107 224 -133 435 -158 94 -11 719 -164
802 -197 63 -24 96 -50 117 -91 26 -50 38 -60 178 -137 128 -71 223 -147 303
-243 56 -67 123 -169 137 -209 23 -63 66 -294 71 -378 2 -49 9 -93 15 -97 8
-5 31 -317 23 -325 -8 -9 -102 89 -122 128 -13 27 -28 49 -32 49 -4 0 -18 -7
-30 -16 -48 -33 -10 -162 63 -210 31 -20 72 -87 92 -152 27 -90 43 -259 53
-572 6 -173 15 -349 20 -390 14 -101 75 -330 156 -585 101 -321 94 -265 105
-845 l9 -515 -51 -255 c-28 -140 -54 -272 -59 -293 -8 -38 -7 -39 47 -74 39
-27 50 -39 41 -46 -10 -6 -9 -7 4 -4 9 3 39 -3 67 -14 29 -11 80 -20 119 -21
l67 -1 -65 -8 c-52 -5 -41 -6 55 -5 106 1 125 -2 150 -19 57 -38 314 -20 400
28 11 6 31 13 45 14 36 3 109 32 157 62 40 24 70 71 55 86 -4 3 0 10 8 15 11
7 2 10 -30 12 -44 1 -44 1 12 7 l56 6 -75 105 c-157 222 -188 319 -213 670
-20 288 -46 416 -117 589 -31 73 -88 186 -127 250 -157 253 -219 377 -330 667
-110 288 -116 389 -57 968 17 165 36 377 42 472 14 209 7 259 -77 534 l-56
185 -1 195 -2 195 29 60 c22 43 67 98 171 205 78 80 181 198 228 262 191 257
520 500 772 572 88 25 347 76 386 76 13 0 19 -6 17 -17 -3 -15 6 -18 54 -21
37 -2 68 2 86 12 27 14 31 14 47 -4 25 -28 105 -28 112 -1 5 19 7 19 39 3 42
-20 87 -8 92 25 3 20 5 21 37 7 19 -8 55 -14 81 -14 l46 0 -3 43 -4 44 40 -18
c22 -10 68 -21 103 -25 l62 -7 0 29 c0 16 -7 38 -15 48 -8 11 -15 23 -15 28 0
4 32 8 70 8 39 0 70 3 70 7 0 4 -12 19 -26 34 l-25 26 43 7 c24 4 53 14 65 22
13 8 75 22 139 31 113 17 116 17 130 -2 8 -10 14 -29 14 -41 0 -18 7 -24 35
-30 19 -3 50 -3 68 0 32 6 34 5 45 -32 16 -53 71 -80 131 -62 25 7 38 6 57 -7
14 -9 55 -18 93 -21 67 -4 68 -4 104 32 20 20 42 36 48 36 8 0 8 4 -1 15 -15
18 -8 19 93 15 56 -2 67 1 67 14 0 22 72 22 106 0 23 -15 71 -16 134 -2 10 2
16 -6 18 -24 6 -49 65 -50 122 -1 l30 25 0 -40 c0 -59 17 -67 74 -37 26 14 48
25 50 25 2 0 8 -18 15 -40 6 -22 22 -47 35 -56 21 -13 28 -13 59 0 19 8 39 22
44 31 8 14 14 11 38 -22 60 -79 85 -78 85 4 l0 55 29 -31 c36 -39 51 -39 51
-1 0 36 0 36 47 10 21 -11 43 -20 50 -20 13 0 27 35 19 49 -3 5 3 11 14 14 43
11 12 80 -43 96 l-32 9 37 1 c45 1 55 14 29 40 -19 19 -19 19 6 26 39 9 10 35
-41 35 -27 0 -36 3 -27 9 11 7 9 10 -8 16 -11 3 -25 3 -31 0 -13 -8 -13 8 1
22 15 15 2 53 -19 54 -14 0 -13 2 3 8 12 5 33 3 54 -5 41 -17 73 -18 89 -2 8
8 12 9 12 1 0 -24 32 -43 72 -43 32 0 41 4 45 20 4 14 11 19 24 15 21 -7 89
19 106 41 10 14 14 13 32 -5 25 -25 35 -26 55 -6 18 19 26 19 26 1 0 -20 39
-46 57 -39 19 7 53 86 53 121 0 26 0 26 18 -8 26 -48 39 -48 60 -1 21 46 32
44 32 -6 0 -30 3 -33 30 -33 l30 0 0 76 0 76 43 -6 c63 -9 71 1 64 72 l-7 60
31 -8 c24 -7 31 -6 36 7 5 13 -2 34 -43 128 -3 7 11 9 37 7 48 -5 66 7 51 34
-9 18 -6 19 39 16 41 -3 49 -1 49 14 0 9 -7 26 -17 36 -15 17 -14 18 43 18 72
0 94 11 74 35 -11 14 -10 17 8 22 56 14 1 49 -102 65 -64 10 -75 14 -57 22 30
13 27 44 -5 52 -18 5 -22 10 -15 17 6 6 11 20 11 30 0 17 -6 19 -48 15 -27 -3
-63 -12 -80 -21 l-32 -15 0 30 c0 28 -3 30 -27 26 -16 -3 -36 -9 -45 -13 -14
-5 -18 -2 -18 12 0 11 -8 27 -17 35 -20 18 -92 33 -139 29 -26 -2 -31 1 -30
21 1 18 -5 24 -27 26 -16 2 -35 -2 -43 -9 -12 -10 -13 -9 -8 5 7 20 -25 22
-90 5 -33 -8 -59 -7 -119 5 -42 9 -79 16 -83 16 -3 0 -4 6 -1 14 3 8 0 22 -7
31 -10 14 -24 17 -74 13 -49 -3 -59 -2 -51 9 6 7 9 20 5 28 -5 13 -16 15 -66
9 -33 -4 -60 -3 -60 2 0 5 9 43 20 84 32 121 24 147 -30 95 l-25 -24 3 39 c5
47 -4 90 -18 90 -15 0 -88 -69 -107 -100 -11 -19 -22 -26 -34 -23 -11 3 -30
-2 -44 -11 -34 -23 -45 -20 -45 12 0 45 -14 57 -64 55 -31 -1 -43 2 -40 10 9
26 -15 41 -65 41 -44 1 -50 3 -48 21 2 17 -5 21 -53 25 -53 5 -55 6 -52 33 4
32 -16 36 -62 12 -38 -20 -37 -21 -30 24 12 74 -29 101 -99 64 -18 -9 -60 -43
-94 -76 -35 -33 -64 -58 -66 -56 -2 2 -12 18 -23 36 -23 39 -39 32 -59 -23 -8
-21 -14 -31 -15 -21 0 14 -7 18 -27 15 -20 -2 -34 -14 -50 -43 l-23 -40 0 41
c0 39 -19 72 -33 58 -3 -4 -5 2 -5 12 4 49 -14 94 -49 124 -31 28 -35 35 -25
51 7 10 12 25 12 34 0 16 -49 45 -76 45 -13 0 -15 5 -8 28 4 15 8 41 8 57 1
29 0 30 -49 30 -34 -1 -69 -10 -110 -30 -33 -16 -64 -31 -70 -34 -5 -2 9 17
32 43 22 25 43 55 46 65 7 28 -15 65 -40 69 -26 4 -98 -31 -134 -64 l-26 -25
1 43 1 43 -45 -1 c-46 0 -100 -21 -180 -70 l-45 -27 48 49 c26 28 47 52 47 55
0 2 -17 3 -38 1 -31 -3 -44 2 -71 27 -18 17 -43 31 -55 31 -24 0 -65 -39 -88
-83 l-14 -29 -13 41 c-29 99 -134 86 -148 -18 -6 -43 -9 -46 -32 -32 -15 10
-61 -6 -61 -21 0 -4 -4 -8 -8 -8 -4 0 -6 16 -4 35 4 31 2 35 -19 35 l-22 0 21
23 c12 13 22 31 22 40 0 18 -42 33 -59 22 -6 -3 -11 -4 -11 -1 0 3 27 19 61
37 60 33 109 79 109 104 0 19 -55 28 -139 23 -38 -2 -67 0 -65 4 3 4 13 8 22
8 9 0 40 11 69 24 73 34 83 83 18 87 -28 2 -24 2 -89 -5 -51 -6 -57 -5 -47 8
17 21 10 60 -12 64 -31 6 -63 -6 -112 -43 -32 -25 -43 -30 -36 -16 6 11 11 38
11 60 0 40 0 40 -32 34 -18 -3 -41 -10 -50 -15 -13 -6 -18 -5 -18 6 0 30 -24
67 -47 72 -25 7 -89 -26 -135 -70 l-28 -25 0 34 c0 19 -5 37 -10 40 -6 4 -31
-5 -55 -20 l-45 -26 0 26 c0 29 -25 34 -56 10 -25 -19 -34 -19 -34 0 0 21 -39
19 -95 -5 -58 -25 -55 -25 -55 4 0 13 -8 34 -19 47 -17 21 -20 22 -51 9 -18
-7 -41 -27 -51 -44 -17 -27 -19 -28 -19 -9 0 36 -11 53 -35 53 -30 0 -54 -24
-61 -60 l-6 -27 -24 24 c-29 29 -44 23 -44 -18 0 -23 -4 -29 -17 -27 -31 5
-29 -40 2 -54 21 -10 23 -13 10 -20 -8 -5 -15 -22 -15 -39 l0 -30 -31 36 c-38
43 -83 68 -108 60 -16 -5 -19 2 -23 55 -3 45 -10 66 -26 82 -26 26 -80 28
-117 4 -24 -16 -25 -15 -25 4 0 37 -28 90 -54 102 -22 9 -29 8 -46 -7 -11 -10
-20 -25 -21 -34 0 -9 -6 7 -13 34 -13 51 -35 95 -48 95 -4 0 -17 -14 -30 -30
l-22 -30 -12 29 c-16 37 -71 58 -114 42 -21 -7 -39 -7 -61 1 -30 10 -75 7
-114 -8 -18 -7 -19 -6 -6 9 35 43 31 332 -6 368 -15 16 -24 17 -54 9 -41 -12
-206 -112 -225 -138 -12 -15 -13 -9 -14 38 0 79 -8 100 -36 100 -16 0 -31 -11
-46 -35 -13 -19 -25 -35 -28 -35 -3 0 -14 14 -23 30 -18 30 -63 60 -90 60 -7
0 -25 -13 -40 -28z m134 -2884 c-9 -15 -12 -30 -7 -35 4 -4 37 -7 73 -6 56 1
64 -1 58 -15 -16 -38 -17 -54 -6 -62 18 -11 -71 -94 -134 -125 -105 -52 -246
-60 -328 -19 -65 33 -168 98 -226 141 -34 25 -39 33 -24 33 11 0 26 6 32 14 9
10 20 11 50 3 32 -9 49 -7 97 11 41 15 71 19 101 15 35 -5 45 -2 67 20 19 19
26 22 26 11 0 -11 6 -13 23 -8 27 8 67 34 67 43 0 3 33 6 73 6 l73 0 -15 -27z
m-1441 -188 c16 0 37 -9 47 -19 12 -13 30 -19 55 -18 49 1 54 -6 29 -41 -26
-37 -26 -42 0 -42 19 0 20 -4 15 -34 -8 -44 6 -54 83 -62 41 -5 61 -11 61 -20
0 -8 4 -14 8 -14 9 0 -12 -227 -29 -310 -17 -84 -75 -219 -117 -274 -62 -82
-79 -91 -194 -94 -193 -7 -206 0 -497 263 -191 173 -197 180 -172 189 14 5 34
15 44 24 15 14 17 13 17 -1 0 -34 138 -7 141 27 1 6 4 0 8 -14 15 -56 91 -24
91 38 0 18 4 22 19 17 27 -8 37 13 15 30 -17 13 -17 14 -2 15 9 0 20 -4 23
-10 3 -5 22 -10 41 -10 49 0 94 45 94 94 0 20 5 36 10 36 6 0 10 7 10 16 0 12
5 14 18 8 9 -5 46 -8 82 -9 61 0 65 2 78 28 20 42 6 102 -35 147 -29 33 -31
39 -16 43 10 3 24 3 31 1 8 -2 27 -4 42 -4z m2776 -14 c-3 -14 -1 -28 5 -32
13 -8 82 -8 109 1 15 5 18 3 14 -9 -8 -21 31 -29 112 -24 51 3 64 1 60 -9 -3
-8 4 -23 15 -34 19 -19 30 -21 115 -17 87 4 110 -1 84 -17 -17 -11 -11 -44 11
-56 12 -6 46 -11 75 -10 30 0 54 -4 54 -9 0 -10 -51 -16 -260 -30 -187 -13
-247 -23 -299 -49 l-39 -20 -88 55 c-49 31 -93 59 -98 64 -5 5 3 22 18 41 15
17 45 65 67 105 42 77 56 91 45 50z m-288 -25 c-14 -23 -31 -23 -36 2 -2 10 5
17 20 19 31 5 32 4 16 -21z m-707 -15 c-17 -20 18 -38 75 -38 l44 0 0 -65 c0
-50 3 -64 13 -60 8 3 54 13 103 22 49 9 109 22 134 30 24 8 47 11 50 7 34 -45
90 -139 90 -151 0 -9 34 -48 76 -88 90 -84 90 -82 14 -196 -50 -74 -252 -279
-296 -299 -31 -14 -151 25 -216 71 -64 45 -167 189 -198 279 -20 55 -36 78
-121 163 l-98 100 16 37 c18 45 84 115 138 148 36 21 134 51 174 53 11 1 11
-2 2 -13z m-576 -357 c77 -64 179 -157 225 -206 83 -87 195 -236 234 -309 29
-54 46 -139 46 -229 0 -73 -4 -90 -40 -170 -21 -50 -46 -91 -55 -93 -32 -7
-118 32 -227 101 -168 107 -199 124 -299 163 -121 47 -314 95 -550 139 -106
20 -194 37 -196 38 -1 2 9 30 22 63 51 127 69 233 81 492 7 134 15 168 29 122
9 -28 53 -60 84 -60 39 0 71 26 71 58 0 15 3 37 6 50 5 18 9 20 20 11 33 -27
64 29 64 119 0 83 9 80 185 -51 88 -67 223 -173 300 -238z m-2165 71 c0 -5 -4
-10 -10 -10 -5 0 -10 5 -10 10 0 6 5 10 10 10 6 0 10 -4 10 -10z m3670 -6224
c0 -2 -8 -10 -17 -17 -16 -13 -17 -12 -4 4 13 16 21 21 21 13z"/>
</g>
</svg>
