<?xml version="1.0" encoding="UTF-8"?>
<!-- Generator: Adobe Illustrator 15.0.0, SVG Export Plug-In . SVG Version: 6.00 Build 0)  -->
<svg width="580px" height="580px" enable-background="new 0 0 580 580" version="1.1" viewBox="0 0 580 580" xml:space="preserve" xmlns="http://www.w3.org/2000/svg">

<path d="m66.348 1.3379c-41.335 0-64.57 21.37-64.57 65.035v450.12c0 40.844 20.893 62.23 62.191 62.23h452.03c41.307 0 62.229-20.318 62.229-62.23v-450.12c0-42.601-20.923-65.035-63.521-65.035 0 0-448.5-0.143-448.35 0zm47.037 114.79h96.285v31.484h-96.285v-31.484zm-16.047 47.227h385.14c27.28 0 48.141 20.466 48.141 47.229v204.65c0 25.188-20.86 47.229-48.141 47.229h-385.14c-27.28 0-48.143-22.04-48.143-47.229v-204.65c0-26.762 20.862-47.229 48.143-47.229zm120.36 39.357c-62.585 0-112.33 48.803-112.33 110.2 0 61.396 49.747 110.2 112.33 110.2 62.585 0 112.33-48.801 112.33-110.2 0-61.396-49.745-110.2-112.33-110.2zm200.59 7.8711c-8.0237 0-16.049 7.8709-16.049 15.742 0 7.8713 8.0252 15.744 16.049 15.744h48.141c8.0237 0 16.049-7.8728 16.049-15.744 0-7.8713-8.0252-15.742-16.049-15.742h-48.141zm-200.59 47.229a56.166 55.099 0 0 1 56.164 55.1 56.166 55.099 0 0 1-56.164 55.1 56.166 55.099 0 0 1-56.166-55.1 56.166 55.099 0 0 1 56.166-55.1z"/>
</svg>
