<?xml version="1.0" encoding="iso-8859-1"?>
<!-- Uploaded to: SVG Repo, www.svgrepo.com, Generator: SVG Repo Mixer Tools -->
<!DOCTYPE svg PUBLIC "-//W3C//DTD SVG 1.1//EN" "http://www.w3.org/Graphics/SVG/1.1/DTD/svg11.dtd">
<svg fill="#000000" height="800px" width="800px" version="1.1" id="Capa_1" xmlns="http://www.w3.org/2000/svg" xmlns:xlink="http://www.w3.org/1999/xlink" 
	 viewBox="0 0 469.179 469.179" xml:space="preserve">
<g>
	<path d="M435.845,179.526c-36.394-36.393-95.949-36.049-132.759,0.762c-0.137,0.137-0.266,0.28-0.402,0.417
		c-5.978-9.763-13.426-18.65-22.179-26.274c-18.808-16.389-42.945-24.373-67.967-22.497c-24.982,1.878-47.857,13.376-64.41,32.376
		c-7.698,8.835-13.266,19.221-16.342,30.381c-6.062-1.005-12.279-1.536-18.617-1.536c-51.46,0-93.326,42.352-93.326,94.409
		c0,42.473,34.165,77.027,76.16,77.027c34.424,0,62.43-28.316,62.43-63.122c0-28.671-23.077-51.997-51.443-51.997
		c-23.52,0-42.654,19.333-42.654,43.098c0,4.142,3.357,7.5,7.5,7.5s7.5-3.358,7.5-7.5c0-15.493,12.405-28.098,27.654-28.098
		c20.095,0,36.443,16.597,36.443,36.997c0,26.534-21.277,48.122-47.43,48.122c-33.724,0-61.16-27.825-61.16-62.027
		c0-43.786,35.137-79.409,78.326-79.409c55.021,0,99.782,45.369,99.782,101.136c0,29.565,24.053,53.618,53.618,53.618
		c4.143,0,7.5-3.358,7.5-7.5s-3.357-7.5-7.5-7.5c-21.294,0-38.618-17.324-38.618-38.618c0-9.854-1.223-19.423-3.517-28.565
		c7.197-3.684,13.701-8.749,19.059-14.896c18.825-21.62,16.747-54.367-4.635-73.002c-12.968-11.292-31.397-13.627-46.952-5.947
		c-3.714,1.834-5.238,6.332-3.404,10.045c1.834,3.714,6.333,5.239,10.045,3.405c10.111-4.994,22.069-3.498,30.459,3.807
		c15.146,13.201,16.57,36.457,3.177,51.839c-3.559,4.084-7.785,7.527-12.433,10.211c-12.892-32.519-39.918-57.812-73.347-68.062
		c2.51-8.788,6.945-16.973,13.035-23.961c13.944-16.006,33.202-25.691,54.226-27.272c20.984-1.578,41.227,5.115,56.989,18.85
		c20.843,18.153,33.202,44.536,33.909,72.382c0.033,1.309,0.07,10.203,0.059,45.144c-0.007,21.271,8.271,41.27,23.31,56.313
		c15.038,15.043,35.034,23.328,56.305,23.328c4.143,0,7.5-3.358,7.5-7.5s-3.357-7.5-7.5-7.5c-17.263,0-33.491-6.724-45.696-18.933
		c-7.666-7.668-13.164-16.924-16.194-27.024c7.691,3.231,15.871,4.845,24.054,4.845c16.24,0,32.479-6.304,44.856-18.681
		c20.275-20.265,20.454-53.077,0.396-73.147c-16.638-16.625-43.842-16.482-60.643,0.32c-2.929,2.929-2.929,7.678,0.001,10.606
		c2.928,2.93,7.677,2.929,10.606,0c10.955-10.956,28.643-11.097,39.429-0.32c14.209,14.217,14.032,37.513-0.395,51.932
		c-16.61,16.609-42.284,18.909-61.025,5.93c0-0.055-0.004-0.11-0.004-0.165c0.015-42.467-0.044-44.771-0.063-45.529
		c-0.379-14.919-3.671-29.473-9.501-42.88c1.15-1.364,2.361-2.694,3.637-3.97c30.961-30.962,81-31.305,111.544-0.762
		c18.831,18.831,29.108,43.969,28.939,70.785c-0.026,4.142,3.311,7.521,7.453,7.547c0.016,0,0.031,0,0.048,0
		c4.12,0,7.473-3.327,7.499-7.453C469.371,230.154,457.533,201.214,435.845,179.526z"/>
	<path d="M105.291,180.414c2.358,0,4.741,0.083,7.083,0.246c4.124,0.289,7.716-2.829,8.002-6.961
		c0.288-4.132-2.828-7.715-6.961-8.002c-2.687-0.187-5.42-0.282-8.124-0.282c-44.559,0-85.606,26.066-104.576,66.407
		c-1.763,3.749-0.152,8.216,3.596,9.979c1.031,0.485,2.117,0.715,3.187,0.715c2.815,0,5.515-1.594,6.792-4.311
		C30.797,203.099,66.517,180.414,105.291,180.414z"/>
	<path d="M143.816,151.204c1.919,0,3.839-0.732,5.304-2.197c6.18-6.181,13.107-11.521,20.59-15.872
		c3.58-2.082,4.795-6.673,2.713-10.254c-2.083-3.582-6.674-4.796-10.254-2.713c-8.602,5.002-16.561,11.137-23.656,18.233
		c-2.929,2.929-2.929,7.678,0.001,10.606C139.978,150.472,141.897,151.204,143.816,151.204z"/>
	<path d="M205.251,120.68c31.416-4.696,63.566,5.897,85.997,28.328c1.667,1.667,3.294,3.41,4.835,5.181
		c1.482,1.705,3.566,2.578,5.661,2.578c1.746,0,3.499-0.606,4.92-1.841c3.125-2.719,3.454-7.456,0.735-10.581
		c-1.768-2.033-3.634-4.032-5.545-5.943c-25.778-25.778-62.717-37.947-98.82-32.556c-4.097,0.612-6.921,4.429-6.31,8.525
		C197.336,118.467,201.154,121.284,205.251,120.68z"/>
</g>
</svg>