<?xml version="1.0" standalone="no"?>
<svg xmlns="http://www.w3.org/2000/svg" height="1432pt" preserveAspectRatio="xMidYMid meet" viewBox="0 0 1920 1432" width="1920pt">
  <path d="m8393 13512c-13-8-10-42 7-87 5-14 7-25 5-25-3 0 1-16 9-35s13-35 11-35c-3 0 0-12 6-27 6-16 12-35 14-43s20-64 39-124c20-59 36-111 36-114s-14 15-32 39c-54 75-230 241-319 300-142 94-198 129-209 129-12 0 82-112 166-197 65-66 269-322 262-329-3-2-30 18-61 45-138 121-324 199-517 216l-65 6 70-42c39-23 93-55 120-71 28-17 66-40 85-50 70-40 265-186 258-193-2-2-26 7-53 20-73 36-244 76-382 90-24 2-48 7-53 10s-23 8-39 10c-32 4-135 37-186 60-46 21-85 35-85 31 0-2 26-29 58-61 71-71 93-82 312-160 41-15 84-31 95-36 11-4 47-18 80-30 113-40 83-51-35-12-129 42-447 168-467 185-7 6-13 7-13 3s-6-3-12 3c-14 11-144 53-221 71-57 13-262 15-320 2-23-5-71-15-107-22l-65-13 50-8c28-4 64-8 80-9 17-1 53-5 80-10 28-5 65-11 83-14 18-2 45-6 60-10 15-3 36-7 47-9 18-4 94-25 154-42 59-17 209-99 305-166 22-15-4-19-31-5-24 12-66 23-108 28-5 1-21 6-35 11-25 10-54 16-210 45-123 23-401 24-505 2-59-12-74-18-55-22 82-19 131-29 152-31 12-2 32-6 43-9 11-4 36-9 55-11 19-3 42-7 50-10s26-7 40-10c80-14 391-107 420-126 20-13-40-13-96 0-23 5-64 12-90 15-27 2-60 7-74 10s-39 7-55 9c-41 5-233 45-270 56-16 5-67 21-113 36-46 14-86 24-89 21-2-3 14-19 38-36l42-31h-34c-19 0-68 9-109 20-117 32-154 41-174 46-10 2-33 8-50 13-56 18-365 33-518 26-147-7-148-7-148-31 0-22 4-24 58-25 102-2 118-7 217-63l30-17-45 6c-25 3-65 10-90 15s-74 14-110 20-85 16-110 21-65 11-90 14c-25 2-75 8-110 14-65 10-319 9-336-1-5-3-29-9-54-12s-79-17-120-29l-75-24 80-7c44-4 121-11 170-17 50-5 104-10 120-10 17-1 55-5 85-10s75-11 99-14 47-8 51-10 22-7 41-10c18-3 35-7 37-9 1-2-33-6-76-10-44-4-130-20-193-37-63-16-124-31-136-34s-35-10-50-16c-16-6-29-10-31-9s-6-1-10-4c-6-6 26-10 68-8 24 1 24 1 4-7-12-5-43-12-70-16-117-16-257-50-334-82-8-3-17-7-20-8-5-2-20-8-93-37-15-6-26-12-25-14 2-1 38 0 80 4 42 5 75 5 72 1-3-6-78-32-124-44-23-6-69-16-90-20-159-30-199-32-280-10-30 8-55 13-56 12s-7-12-13-25c-11-21-9-24 36-44 26-12 56-23 67-25 10-2 25-7 34-12 19-11-27-19-138-26-167-10-330-54-408-111-2-1 1-12 8-23 11-21 38-28 55-13 15 13 107 33 167 37l53 3-50-17c-71-25-73-26-250-108-196-92-190-89-245-107-54-17-49-19 110-37 84-10 100-14 80-21-123-47-157-59-173-63-10-2-32-9-50-14-18-6-75-24-127-41s-104-35-115-40-42-18-70-30c-60-25-205-111-205-121 0-5 26-9 58-11l57-3-99-24c-96-23-188-25-253-6-18 6-23 2-29-19-7-29-4-36 18-39 7-2 27-7 43-13 48-18 123-34 155-34 49 0 34-15-29-29-40-9-109-12-208-10l-148 4v-24c0-13 7-26 15-27 8-2 51-13 95-24 44-10 116-26 160-33l80-14-60-27c-33-15-258-126-501-247-242-120-443-219-446-219s-44-18-90-39c-45-22-141-63-212-92-208-83-300-140-381-232-42-49-93-155-99-210-13-108-12-106-139-234-67-67-118-125-115-129 4-3 21-1 40 5 69 23 129 41 133 41 2 0-13-24-34-54-54-78-78-166-90-328-9-135-10-138-47-195-21-32-41-60-45-63-16-13-100-183-121-245-31-96-32-254-1-335 41-105 41-105-35-210-157-220-194-306-198-463-2-104-4-110-43-191-23-45-43-93-46-104-2-12-7-27-11-33-31-50-47-338-23-423 6-21 12-48 15-60 10-56 106-245 133-266 4-3 19-21 34-41 21-28 27-47 27-87 0-98 36-226 98-347 20-38 39-72 42-75s21-29 39-58l34-54 1-141 1-142 37-75c20-41 48-94 63-117l26-42-41-26c-23-14-52-31-66-37-32-15-31-29 4-23 47 7 147 19 154 17 3-1 33 7 64 18 32 10 60 17 62 15 3-2-9-21-26-42-16-21-41-61-55-90l-25-52 44-7c24-3 73-3 109 1 47 5 65 3 65-5 0-24-41-69-88-97l-47-28 40-3c22-2 74 1 115 6s76 9 77 8c9-7-115-76-163-91l-59-19 45-13c47-15 198-13 235 2s2-12-55-42c-102-55-123-70-105-77 9-3 36-6 59-6 24 0 68-5 97-11 30-6 74-10 98-10s48-2 53-5c12-8-28-36-56-40-11-2-43-7-71-12-44-7-73-5-152 12-12 3-54 24-93 48-119 72-130 78-130 70 0-4 36-44 79-88 125-129 232-181 393-191 79-5 96-9 87-19-23-28-77-37-126-20-25 9-48 14-51 11-17-16 152-115 202-118 11 0 29-6 39-13 16-10 16-12 2-17-8-4-19-7-23-8-4 0-14-5-23-10-49-26-177-38-282-27-54 5-101 8-104 5-10-11 53-92 94-122 23-16 42-34 42-38 2-17-155 0-237 25-50 16-82 21-79 14 11-33 213-176 250-176 3 0 18-5 34-12 34-14 39-15 61-17 13-1 14-3 3-10-7-5-81-9-164-10s-152-3-154-5c-9-8 68-104 103-128 51-36 137-61 197-59 26 1 47-2 47-6 0-5-26-24-57-43-55-34-62-35-178-40l-120-5 65-37c36-21 90-45 120-54 30-10 57-19 59-21 19-14-150-116-244-148-19-6-19-7 5-25 41-32 108-60 142-60 62 0 64-14 6-64-29-25-56-46-59-46s-18-18-32-39l-26-39 57-6c31-3 87-4 125-2 37 2 67-1 67-6s-26-37-57-70c-53-56-100-92-162-125-92-50-183-93-196-93-4 0-21-6-38-14-18-8-61-25-97-37l-65-24 90-13c50-7 151-11 228-10 75 2 137 0 137-4 0-16-191-147-273-188l-89-43 54-15c76-21 268-20 337 1 30 9 55 16 57 14 1-1-33-49-77-107-80-106-107-155-95-168 4-3 50-7 102-7h95l-2-50c-1-27-8-62-16-77-7-15-13-30-13-33-1-6-9-31-26-74-39-97-2-173 127-256 83-54 206-119 284-151 33-14 69-29 80-34 11-6 65-26 120-45 55-20 107-38 115-42 8-3 17-7 20-7 3-1 19-6 35-13 32-12 210-71 235-77 49-13 259-101 340-143 52-27 118-58 145-70 62-25 118-48 125-49 3 0 30-8 60-17 155-48 425-61 512-24 23 10 72 17 125 18 184 4 258 75 203 196l-19 43 65 67c35 36 64 70 64 75 0 4 5 8 10 8 6 0 8-10 5-23-7-26 34-155 69-219 90-166 108-198 112-198 2 0 1 48-3 107-5 80-3 104 5 99 12-7 122-171 122-180 0-3 13-25 30-49 68-101 178-172 305-195 104-20 323-24 545-12 118 6 303 16 410 20 107 5 261 12 341 16 129 6 156 4 230-14 46-11 113-26 149-32s88-16 115-22c80-17 434-19 494-3 29 7 55 14 59 14 63 8 195 77 263 139l60 55 41-12c22-7 61-25 87-41 25-16 47-27 49-26 5 6-37 78-70 120-30 37-30 38-7 31 70-22 149-76 149-102 0-7 4-13 8-13s13-15 20-33c6-18 18-42 26-52 13-18 14-12 10 52-2 39-11 89-18 111-14 38-13 40 5 45s20 13 18 76c-1 39-8 82-15 96s-11 25-8 25-2 10-10 22c-9 12-16 35-16 51 0 39-42 118-82 153-32 28-83 57-120 68-12 3-18 15-18 33 0 19-14 40-50 75-28 27-55 46-60 43s-11-1-14 4c-7 10-108 35-206 50-36 6-99 16-140 22-192 30-290 94-290 188 0 34 15 48 33 32 7-5 28-13 47-16 18-3 38-9 43-12 7-4 7 10 2 38-11 57-11 138-1 219 7 52 14 70 35 90 41 38 94 108 131 172 17 32 34 58 36 58s2-33-1-72c-4-66-3-71 11-53 24 32 115 220 126 262 6 21 14 74 18 118 3 44 8 78 9 75 2-3 10-36 20-75l17-70 27 39c15 23 34 73 43 115 15 67 16 88 4 181-7 58-16 115-21 128s-11 37-14 55-8 41-10 52c-3 11 6-2 20-30 14-27 25-56 25-63 0-18 28-26 43-13 16 12 14 140-2 198-6 21-11 47-11 58 1 17 6 14 31-15 17-19 43-53 57-75 15-22 33-46 39-53 7-7 13-17 13-21s12-23 26-42l26-34-7 40c-4 22-8 49-10 60-10 85-37 139-127 259-32 43-57 80-55 82s30-5 63-16c32-11 61-20 64-20 3 1 24-4 48-11 23-6 45-10 47-7 3 3-22 24-55 47-63 45-145 122-204 194l-35 43 51 12c62 14 65 17 45 39-8 10-22 54-30 98-9 44-19 92-22 108l-7 27h68c38 0 98 6 134 14 65 13 183 58 208 79 9 7 83 11 200 12 178 2 270 14 315 42 6 4 73 6 148 4 119-2 166 2 278 24 39 7 93 25 138 46 47 21 64 23 78 10 16-14 101-31 157-31 48 0 118 15 173 35 11 5-4-17-35-49l-55-58 85 4c74 3 95 9 162 42 42 20 82 44 89 52 22 26 29 14 14-23-9-20-18-55-20-78-3-22-8-53-11-69l-6-29 68 38c71 39 133 81 147 99 9 13 3-32-13-96-8-29-11-95-8-180 4-118 8-143 37-228 18-52 39-102 46-110s23-35 36-60c28-54 35-37 20 46-18 96-13 263 8 303 21 39 23 36 37-54 10-66 33-151 69-245 13-36 15-43 15-61 0-5 5-7 10-4 6 4 8 10 5 14-2 5 1 37 7 72l12 64 7-40c4-22 10-52 12-66 7-36 51-118 82-154l26-30-5 52c-5 49 6 106 24 126 5 5 8-101 8-235 1-133 5-258 9-277l8-34 45 63c25 34 50 69 56 78 17 24-10-132-36-206-12-35-20-66-17-69s26 12 52 32c36 30 45 34 42 18-1-10-13-36-25-57-12-20-22-40-22-43s-10-20-23-37c-24-34-41-65-57-109-9-25-8-28 7-23 10 3 31 8 48 10 16 3 42 15 57 26s30 20 33 20c7 0-3-58-14-79-4-9-11-31-14-49-6-31-6-32 21-26 15 4 33 11 40 17 29 23 9-20-43-88-54-73-62-86-47-84 28 5 82-3 77-10-7-12-188-132-233-155-19-10-32-19-30-20 7-6 236 15 271 25 22 6 41 8 44 6 2-3-11-27-30-54-54-76-67-108-67-168 0-40 7-70 25-106 29-57 45-56 45 3 0 45 18 88 55 133l24 30-29-89c-52-155-38-294 39-395 13-17 28-31 32-31 5 0 10 30 10 68l1 67 11-43c5-23 14-42 18-42 5 0 31 14 59 31s53 29 55 27c3-2-11-21-30-41s-35-39-35-41c0-3 14 0 32 5 17 5 33 7 35 6 1-2-7-42-19-90l-21-87 22-82c26-98 63-160 136-226 42-38 157-107 195-117 6-2 38-14 66-25 56-22 358-85 396-82 10 0 49-15 88-34s73-34 75-34c12 0 105-47 164-83 84-51 210-100 291-113 14-3 48-9 75-14 71-14 359-11 500 4 66 8 155 14 197 15 75 2 77 1 101-31 45-61 90-177 90-235 0-32 21-6 64 78 28 56 31 74 32 165l1 72 37 7c21 4 50 20 69 39l33 33 29-31c46-48 115-193 142-299 21-81 36-37 47 139 6 103-8 167-58 265-18 37-25 60-18 64 6 4 11 5 13 4 1-2 19-27 39-56 38-52 97-172 97-195 0-7 5-30 11-51 8-29 15-37 33-37 24 0 24 1 25 129 1 97-2 139-14 167-21 51-19 61 9 35 42-40 86-134 91-197 3-31 7-59 9-62 3-2 17 20 32 50 24 46 28 65 28 149 1 87-2 100-28 150-61 113-146 206-253 278-34 23-63 47-65 53s-16 12-30 14c-31 3-101 33-208 88-88 45-161 73-248 96-56 15-66 21-87 56l-23 39 46-4 47-3-41 38c-23 22-44 48-47 59-23 77-46 179-52 230l-7 60 21-19c24-21 23-22 44 64 9 34 12 92 10 152l-3 97 41-14c23-8 44-15 47-15s3 69 0 153c-3 83-2 123 1 88l6-64 27 39c40 58 117 216 122 250 19 151 18 148 60 199 22 28 47 56 53 63 7 7 14 19 15 25 0 7 5-28 9-78 10-110 13-129 32-180 10-28 13-66 9-129-6-119 21-242 73-331 16-28 25-63 29-112 3-39 10-91 15-115 5-23 15-70 21-103 7-33 16-71 21-85s12-38 15-55c3-16 13-54 23-84 11-31 33-101 51-155 62-196 123-287 224-336 92-45 182-57 309-40 56 7 120 15 141 16 21 2 71 7 110 13 93 13 170 16 346 15 184-1 188-1 290-51 133-66 213-85 368-88 73-2 149 1 169 7 19 5 45 11 57 14 53 9 188 89 238 140 29 30 56 60 61 69 7 13 18 8 68-26 98-66 159-168 159-266 0-24 3-43 8-43 6 0 33 51 38 70 0 3 6 17 12 32 20 49 7 159-29 235-17 37-35 70-38 73s-20 23-36 45c-25 33-29 44-20 63 9 21 45 32 45 14 0-5 11-15 25-22 37-20 109-121 158-222 23-48 45-88 48-88 32-1 47 222 20 288-8 18-11 35-7 39 3 3 28-41 55-98 43-91 50-101 55-79 16 62 5 414-14 455-56 118-223 215-373 215-34 0-78 6-98 13-24 8-83 12-170 10-341-5-357-5-412 16-38 15-48 33-37 72 16 53 11 299-7 361-9 29-20 58-25 65-7 8 2 10 31 6l40-6-8 30c-5 17-14 40-20 52-7 11-10 21-8 21s-2 30-9 67c-19 105-13 167 57 513 22 112 25 133 27 248l2 74 33-39c17-21 40-50 49-64 16-23 17-20 17 102 1 119-18 296-38 366-7 23-5 37 5 52 8 11 17 50 21 86 3 36 8 65 10 65s16-14 30-30c13-17 29-30 33-30 5 0 9 19 9 43 0 23 5 57 10 75 5 17 8 32 6 32s12 44 31 97c19 54 36 103 38 108 1 6 8 20 14 32 7 13 10 23 7 23s1 12 9 28c20 38 79 221 81 252 1 14 3 45 4 70l2 45 18-25c11-14 31-38 45-53s26-35 26-43c0-30 22-8 40 39 10 26 16 47 14 47s1 12 7 28c6 15 12 43 15 62 2 19 9 61 15 92 12 58 7 286-7 343l-7 30 28-33c30-36 35-36 40 0 11 80 91 278 202 503 142 289 184 405 192 525 1 22 5 19 24-20 32-65 64-97 105-106 21-4 43-8 49-10 19-4 21 7 13 61l-7 49 19-24c11-14 26-32 32-42 6-9 20-18 31-20 19-3 20 2 17 65-1 37 0 67 2 67 3 0 14-20 26-44 13-24 33-57 46-72l23-29 1 70c1 39 4 88 9 110l7 40 7-55c4-30 7-77 7-105v-50l36 40c19 22 52 65 72 95s40 59 44 65c13 18 0-48-21-110-11-33-21-68-21-78 0-17 3-17 40 4 22 12 56 36 76 52 40 34 124 144 124 164 0 7 5 13 11 13 7 0 9-10 5-27-3-16-10-52-16-81-5-29-12-57-15-62-24-39 107 42 136 84 13 20 27 36 30 36 4 0 0-22-8-50-8-27-13-66-11-86l3-36 46 41c25 22 66 70 90 106 45 68 54 78 44 46-3-11-8-29-10-42-2-12-9-37-15-55-21-64-10-69 52-25 58 42 143 145 160 194 6 15 14 27 20 27 10 0 8-7-23-107-10-34-19-65-19-68 0-4 23 6 51 22 61 33 112 89 145 158 13 28 24 44 24 37s-4-21-10-31c-7-14-4-23 11-37 24-21 26-19 74 68 39 72 75 162 75 189 0 9 6 21 13 27 10 8 11-5 6-66-3-42-9-84-13-93-12-29 20-29 46-1 64 72 136 182 144 222 0 3 4 18 9 33 12 45 17 24 5-27-12-56-20-116-15-116 3 0 83 102 147 189 15 20 37 60 49 89l22 52 22-30c12-16 34-69 49-117 37-120 40-124 44-78 3 37 23 161 38 230 3 17 9 50 13 75l8 45 21-45c12-25 22-53 22-63 0-17 2-17 28 1 44 32 76 107 77 179v62l20-22c12-12 37-48 56-79l36-58 6 83c4 45 7 111 7 146 0 73 8 72 57-5 15-24 31-44 36-44 11 0 8 173-4 208-20 59-3 55 29-6 18-34 37-64 42-67s17 20 26 52c13 45 14 66 6 102-7 32-7 50 0 59 13 16 3 130-18 191-26 78-7 55 46-53 29-58 54-106 56-106 5 0-3 89-16 163-7 37-10 71-7 73 3 3-1 27-8 52-12 41-12 45 0 28 8-11 15-26 15-33 0-15 46-18 55-3 10 16-15 209-36 279-23 75-20 88 6 30 16-34 20-38 26-23 12 30 10 153-2 177-12 21-11 21 8 5 11-10 23-18 28-18 11 0-2 176-15 200-5 10-10 40-10 67 0 70-39 165-94 233-11 14 2 4 30-22 51-50 60-54 82-39 18 11-3 52-64 133-24 31-44 59-44 62 0 27 174-129 208-186 9-16 20-28 24-28 10 0 11-8-8 80-18 89-47 142-108 198-25 23-43 42-40 42s38-23 79-50c41-28 75-48 75-44s-13 29-30 56c-16 26-30 52-30 56s-18 26-40 47-40 47-40 58c0 10-7 32-16 48-8 17-14 33-12 35 9 8 96-59 140-108 43-48 46-50 39-23-32 114-90 205-148 234-13 7-23 17-23 24s-33 46-72 88c-60 63-68 75-45 66 17-5 53-41 88-85 61-78 72-80 40-9-24 56-34 81-35 89-2 13-110 149-130 165-20 14-18 15 24 9 56-9 110-35 124-61 6-11 13-22 16-25 6-6 29-46 48-82 19-38 33-35 21 5-6 17-12 40-14 50-20 90-58 166-109 221-25 28-46 51-46 53 0 6 53-29 77-50 19-17 27-18 48-9 23 11 24 14 13 39-20 46-81 147-94 158-17 13-124 174-124 186 0 22 136-4 165-31 21-20 22-20 39-1 18 19 17 21-5 50-80 100-227 174-424 212-46 9-55 14-40 20 69 27 224-11 312-77 36-28 56-30 73-9 10 12-1 31-58 107-38 51-89 108-112 127-23 18-39 35-37 37 9 9 104-39 133-68 24-22 38-28 53-23 12 3 21 12 21 19 0 21-55 99-100 141-23 22-51 53-62 68l-21 29 32-17c18-9 41-25 52-36 15-15 24-17 39-9 11 6 20 15 20 20 0 25-68 113-142 183-45 42-79 80-76 83s23 1 44-5c22-6 53-12 69-15 17-3 46-10 65-16 29-8 37-7 48 7 18 25 16 29-30 48-89 35-136 50-218 66-83 17-89 21-45 31 48 11 129 5 170-12 48-21 130-49 133-46 1 2-37 33-86 69-88 65-165 106-199 108-11 0-6 5 12 10 17 6 69 8 116 5s89-3 93 1c3 4-18 30-47 59-78 74-142 92-304 88-67-2-141-8-164-14-22-6-43-9-46-6-9 9 51 33 123 51 62 15 84 16 159 6 48-7 89-10 92-8 2 3-28 33-66 69-70 65-162 119-255 150l-51 17 76-5c55-3 98-13 150-34 41-16 78-30 82-30 12 0-121 122-148 136-32 17-84 33-120 38-16 2-49 7-73 11-42 8-42 8-20 23 13 9 25 19 28 22s23 19 45 35 48 37 57 47c10 9 38 31 64 48 25 18 43 34 41 37-3 2-33-8-68-23-80-33-113-47-119-49-3-1-21-8-40-16-115-45-254-125-309-178l-60-57 19 48c25 65 52 100 171 215 54 53 99 102 99 109 0 6-7 17-15 24-19 16-83-26-257-170-89-74 12 54 195 246 66 70 67 71 48 89-20 17-22 16-63-16-24-18-45-36-48-39s-21-17-40-30c-88-60-191-139-257-198-40-35-73-60-73-56 0 13 217 221 265 254 50 34 51 38 31 65-15 21-7 25-101-45-22-17-64-46-92-66-29-20-75-56-103-81-27-25-50-40-50-34 0 20 104 214 163 303 31 48 57 89 57 92 0 6-83-39-135-73-53-35-88-64-163-138-55-53-63-58-57-35 9 38 75 173 93 191 25 25 62 119 62 156v35l-51-28c-52-28-176-141-222-202l-26-35 15 40c8 22 17 48 21 59 10 31 88 187 122 245 18 29 30 56 27 58-9 9-152-104-209-166-106-115-171-235-205-379-20-89-50 7-51 166-1 61-4 112-9 112-4 0-25-15-47-32-30-25-37-28-31-13 5 11 11 33 14 49l5 30-50-43c-64-54-119-134-149-217-19-51-24-85-24-158 0-52-3-107-6-125-6-30-7-29-44 42-20 41-52 118-71 173l-33 99-8-45c-10-52-4-203 12-275 6-27 13-70 17-95l6-45-38 40c-70 74-190 240-208 289-13 33-19 10-8-31 19-72 36-138 36-143 2-17 29-87 38-97 5-7 7-13 4-13s6-25 20-56c14-30 23-57 21-60-3-2-37 33-76 79-39 45-98 111-129 147-32 36-71 80-86 99-15 18-30 32-32 29-3-2 25-58 60-124 36-65 65-126 65-134 0-9 4-20 8-25 5-6 14-37 21-70s15-68 17-77c11-38-12-16-34 32-20 44-26 50-45 44-12-3-24-8-26-10-4-3 14-104 26-149 5-15-4-11-41 19-26 21-49 36-52 33-11-11 17-132 41-174 14-25 25-47 25-49s-33 0-72 3c-79 8-70 8-499 2l-296-4 10 30c6 17 29 67 52 112l41 82-25-2c-44-4-133-74-171-134l-27-43-6 68c-7 81-12 107-31 147-17 34-73 92-82 83-3-3-6-27-7-52s-3-46-4-46-10 15-19 33c-17 33-102 127-116 127-4 0-8-20-8-45v-45l-50 52-50 52-1-44-1-45-15 35c-9 19-31 109-50 200-18 91-36 172-38 180s-11 45-21 83c-14 57-19 65-29 50-31-48-43-104-42-196l2-94-33 61c-65 118-127 200-144 190-4-3-8-49-8-102v-97l-28 55c-24 49-78 136-92 150-3 3-25 32-50 64-57 75-230 207-230 176 0-8 50-121 78-175 3-5-12 9-32 32-31 35-123 99-148 103-4 0-23 7-43 16-48 20-46 6 10-85 25-40 45-75 45-77 0-3 16-30 35-60 34-52 47-86 22-53-31 39-179 122-239 133-115 21-158 26-158 17s71-67 151-124c37-26 73-54 80-63 12-15 11-16-6-11-121 38-296 22-425-39-89-41-127-72-75-60 57 13 249 18 285 8l35-10-41-1c-22-1-61-7-85-14-24-8-47-14-52-15-112-23-221-99-268-186-13-25-28-46-34-46-11 0-63-35-145-97-66-50-155-141-200-206-32-45-33-48-15-61 10-7 15-18 11-24-5-8-20-3-49 16-23 15-44 30-47 34-3 3-41 19-85 33-44 15-81 28-83 30s-5 21-6 43c-3 39-2 40 48 60 28 11 82 31 121 44l69 23-69 7c-115 11-306-14-449-59-43-13-80-22-83-20-6 6 67 34 110 42 31 6 37 11 37 32 0 23-1 24-62 18-153-14-290-40-373-69-49-18 19 23 101 60 79 36 84 41 78 64-3 14-6 26-7 27-2 2-105-24-125-32-7-2-14-5-17-5s-44-21-93-46l-87-47 45 50c25 27 52 58 60 69 17 21 80 122 80 128 0 9-58-2-95-18-101-43-152-71-334-184-116-72-159-93-252-121l-64-20 30 25c17 14 57 41 90 61s62 41 63 45c2 4 8 8 14 8 5 0 22 9 37 20 39 27 258 135 304 150 35 11 38 15 32 39-4 14-7 27-8 27-3 3-221-43-247-51-14-5-34-9-45-10-11-2-45-10-75-20-30-9-67-20-82-25-16-5-28-7-28-4 0 4 168 85 270 129 101 44 98 48-35 41-193-11-239-20-348-62-33-13-62-22-64-20-11 10 139 111 216 146 20 9 22 40 4 47-15 6-181-31-213-47-8-5-35-16-60-26-60-25-147-83-189-125l-33-34 38 63c39 62 184 211 318 325 37 31 65 57 62 57-28 0-331-148-346-169-3-4-18-16-34-28l-30-21-17 21-17 21-47-38c-26-21-49-45-52-52-2-7-25-30-50-50-45-37-45-37-29-8 26 47 40 69 49 75 14 10 3 44-15 47-10 2-36-14-59-35-79-73-73-55 9 29 76 78 83 87 71 106-12 20-15 19-113-30-56-27-141-69-191-94l-90-44 60 58c87 83 140 126 233 189 55 37 82 62 82 75 0 29-22 31-76 7-27-12-51-23-54-24-34-9-196-101-251-142-38-29-73-53-75-53-3 0 11 30 31 68 33 62 34 68 18 80-24 17-41 15-47-6-3-10-25-36-49-59-46-45-238-176-245-168-10 10 73 161 128 235 30 41 81 103 114 137 32 35 54 63 49 63s-12-3-16-6c-3-3-39-21-80-38-123-54-215-119-331-236-60-60-112-108-114-105-3 2-6 28-8 57-3 29-13 82-24 118s-25 83-31 105-15 51-20 63c-24 60-28 152-17 312 6 70 5 89-3 70-6-14-12-33-14-43-2-9-7-22-10-27-3-6-18-49-33-98-24-79-26-102-26-252 0-95 6-194 13-233 7-37 12-70 9-72-2-2-22 28-45 68-22 40-77 131-121 204-76 125-127 236-138 299-3 16-7 36-9 44s-7 29-10 45c-3 17-9 44-14 60-16 51-12-329 3-410 8-38 13-72 11-73-2-2-11 9-21 25-66 107-93 144-223 298-47 55-86 102-88 104-2 3-13-5-25-16l-21-21 50-84c113-190 166-305 176-385l5-43-47 73c-174 265-148 223-228 363-35 60-82 157-105 217-41 104-49 115-75 99zm-4725-1729c-10-2-26-2-35 0-10 3-2 5 17 5s27-2 18-5zm-2692-5795c-4-18-9-41-11-50s-9-26-15-37c-6-12-9-21-6-21s-6-25-20-55c-13-31-24-58-24-60s12 0 28 6c15 6 34 12 42 14s23 7 34 11c16 6 15 0-9-42-30-55-87-133-96-134-19-1-25 187-8 241 19 61 72 159 85 159 4 0 3-15 0-32zm14061-1560c-3-8-6-5-6 6-1 11 2 17 5 13 3-3 4-12 1-19zm-8052-176c-5-5-56 53-68 77-5 9 10-4 32-29 22-24 38-46 36-48zm5699-1072c-19-56-35-74-25-28 8 36 30 82 36 76 2-2-3-24-11-48zm1740-1538c3-5-8-6-25-4-16 2-29 6-29 8 0 8 49 4 54-4zm-10744-152c0-22-3-40-7-40-5 0-8 18-8 40s3 40 8 40c4 0 7-18 7-40zm3673-94c18-26 13-24-34 17-31 26-61 47-68 47-6 0-11 9-11 21 0 18 5 16 45-17 25-20 56-51 68-68z" transform="matrix(.1 0 0 -.1 0 1432)" fill="#000000" stroke="none" stroke-width="2" vector-effect="non-scaling-stroke"/>
</svg>
