<?xml version="1.0" standalone="no"?>
<!DOCTYPE svg PUBLIC "-//W3C//DTD SVG 20010904//EN"
 "http://www.w3.org/TR/2001/REC-SVG-20010904/DTD/svg10.dtd">
<svg version="1.0" xmlns="http://www.w3.org/2000/svg"
 width="948.000000pt" height="1280.000000pt" viewBox="0 0 948.000000 1280.000000"
 preserveAspectRatio="xMidYMid meet">
<metadata>
Created by potrace 1.15, written by Peter Selinger 2001-2017
</metadata>
<g transform="translate(0.000000,1280.000000) scale(0.100000,-0.100000)"
fill="#000000" stroke="none">
<path d="M4923 12789 c-60 -11 -123 -41 -164 -76 -69 -60 -96 -65 -145 -28
-18 14 -37 25 -42 25 -5 0 -15 -19 -21 -43 -11 -46 -38 -67 -87 -67 -14 0 -35
-5 -46 -11 -17 -9 -19 -17 -14 -50 8 -48 -2 -54 -104 -64 -87 -8 -107 -17
-120 -51 -15 -38 -63 -32 -141 16 -142 90 -214 116 -399 145 -66 11 -118 26
-169 51 -60 29 -80 35 -100 28 -43 -15 -38 -46 15 -93 l47 -41 -39 0 c-32 0
-155 23 -299 55 -22 5 -13 -3 30 -28 64 -36 105 -85 105 -124 0 -42 -57 -88
-137 -112 -39 -12 -82 -30 -95 -41 l-23 -20 33 -28 c17 -16 32 -31 32 -34 0
-3 -25 -8 -56 -10 -33 -3 -62 -11 -72 -22 -16 -16 -14 -20 41 -73 46 -44 57
-62 55 -82 -5 -41 -76 -71 -185 -78 -120 -8 -183 8 -231 56 -81 82 -122 92
-149 34 -30 -63 -71 -56 -82 13 -9 54 -26 61 -113 45 -116 -21 -215 -30 -329
-30 -126 -1 -140 -10 -149 -94 l-5 -51 -43 -9 c-33 -6 -48 -16 -60 -37 -19
-33 -50 -50 -92 -50 -40 0 -38 -13 10 -51 22 -18 39 -37 37 -43 -2 -7 -82 -13
-225 -16 -202 -5 -222 -7 -235 -24 -9 -13 -33 -22 -72 -27 -72 -10 -93 -28
-77 -64 6 -14 22 -29 34 -34 13 -5 49 -19 81 -31 71 -27 89 -23 160 36 31 25
61 44 66 42 6 -1 -4 -25 -21 -51 -38 -59 -33 -74 38 -97 27 -9 49 -21 49 -26
0 -5 -47 -17 -105 -26 -157 -26 -159 -28 -72 -72 39 -20 72 -40 72 -44 0 -4
-30 -13 -67 -20 -93 -18 -142 -42 -187 -92 -31 -35 -37 -47 -32 -71 5 -24 2
-29 -15 -29 -43 0 -121 -53 -155 -106 -16 -23 -15 -28 16 -90 33 -64 33 -66
22 -128 -16 -83 -15 -86 7 -86 11 0 38 22 62 50 50 60 69 61 112 8 37 -46 31
-68 -18 -68 -43 0 -50 -15 -30 -62 37 -90 38 -316 1 -357 -23 -26 -20 -54 16
-129 18 -37 34 -71 37 -77 2 -5 -38 34 -89 88 -103 109 -100 108 -114 14 -6
-41 -16 -58 -61 -104 -53 -55 -55 -56 -100 -51 -42 5 -46 4 -50 -18 -17 -84
-10 -77 -69 -70 -42 6 -57 4 -70 -9 -9 -9 -16 -21 -16 -26 0 -32 36 -83 96
-137 l69 -61 -63 19 c-35 11 -73 20 -84 20 -22 0 -22 -2 -2 -136 7 -45 9 -41
-69 -105 -27 -23 -39 -41 -43 -70 -4 -21 -10 -39 -14 -39 -3 0 -28 16 -55 35
-36 25 -52 31 -62 24 -16 -14 -69 -153 -88 -231 -17 -74 -18 -107 -5 -128 9
-12 18 -7 51 30 l40 45 19 -24 c29 -34 25 -62 -12 -93 -30 -24 -33 -31 -33
-83 0 -52 3 -59 33 -87 19 -16 31 -32 28 -35 -12 -12 -59 10 -92 42 -54 55
-94 43 -94 -27 0 -42 16 -61 80 -102 60 -37 47 -51 -44 -48 -72 3 -78 1 -71
-15 18 -41 35 -120 35 -158 0 -107 33 -203 95 -280 52 -65 75 -108 75 -143 0
-42 21 -83 75 -147 50 -59 71 -97 80 -148 4 -20 12 -37 17 -37 5 0 29 11 52
25 l44 25 42 -35 c46 -39 63 -40 68 -7 5 35 -16 86 -53 130 -19 22 -35 49 -35
60 0 31 57 74 94 70 30 -3 31 -4 36 -63 7 -73 15 -88 78 -147 57 -54 114 -85
170 -94 36 -6 44 -3 65 20 34 36 55 33 120 -18 59 -46 103 -64 119 -48 14 14
-15 62 -56 95 -20 15 -36 32 -36 37 0 22 46 8 78 -22 32 -31 37 -33 103 -31
38 1 69 -2 69 -6 0 -4 -13 -28 -29 -53 -50 -78 -61 -82 -257 -88 -158 -5 -175
-7 -203 -27 -32 -24 -76 -37 -184 -52 -77 -11 -104 -26 -86 -47 14 -16 85 -18
148 -3 64 14 60 5 -9 -20 -33 -12 -74 -34 -91 -48 -31 -26 -31 -28 -25 -90 8
-74 5 -75 -76 -38 -60 28 -110 32 -127 11 -16 -19 -2 -45 46 -85 l38 -31 -30
0 c-17 0 -59 5 -95 11 -79 13 -108 6 -121 -27 -8 -23 -14 -25 -42 -20 -45 8
-115 -34 -196 -118 l-63 -66 93 0 c114 0 152 10 221 56 29 20 65 42 80 50 65
33 113 2 84 -55 -16 -30 -47 -46 -109 -57 -20 -3 -40 -11 -43 -16 -3 -5 4 -32
16 -59 17 -40 19 -54 9 -65 -14 -17 -34 -13 -111 27 -68 35 -88 36 -88 8 0
-32 27 -70 86 -118 29 -25 52 -46 50 -48 -1 -2 -29 8 -60 23 -61 28 -119 35
-137 17 -23 -23 2 -68 79 -142 l77 -73 -40 8 c-84 16 -98 13 -110 -27 -13 -48
-29 -65 -66 -73 -42 -8 -62 -59 -57 -148 2 -37 9 -73 15 -79 7 -7 41 -13 76
-14 72 -1 123 -25 147 -68 11 -20 12 -29 3 -38 -9 -9 -25 -7 -68 9 -31 12 -72
22 -90 22 -34 0 -85 -33 -85 -55 0 -24 70 -72 146 -101 69 -27 93 -44 60 -44
-23 0 -156 -57 -177 -76 -35 -31 -24 -60 41 -111 69 -53 74 -72 40 -161 -11
-29 -20 -62 -20 -75 0 -44 131 -147 187 -147 13 0 30 11 39 26 17 25 17 26
-25 66 -43 43 -46 54 -18 72 12 8 22 8 34 0 18 -11 29 -47 59 -188 20 -97 44
-126 103 -126 43 0 71 26 71 66 0 39 30 54 108 54 40 0 72 4 72 8 0 4 -27 34
-60 67 -63 62 -73 87 -41 105 28 15 38 13 44 -10 7 -26 28 -25 153 1 131 27
229 15 254 -30 14 -27 -16 -47 -110 -71 -39 -10 -82 -26 -96 -35 -24 -15 -25
-21 -19 -61 6 -42 5 -44 -28 -57 -41 -18 -94 -78 -148 -171 -86 -146 -135
-195 -212 -211 -17 -3 -32 -16 -39 -31 -10 -22 -17 -25 -46 -21 -38 7 -53 -13
-31 -39 10 -12 23 -14 57 -9 57 8 94 -7 126 -53 34 -51 36 -75 8 -87 -15 -6
-21 -16 -18 -27 6 -27 -9 -31 -103 -30 -47 1 -92 -2 -100 -7 -24 -15 -4 -57
62 -132 145 -165 156 -188 121 -249 -10 -15 -14 -35 -11 -43 7 -19 97 -49 134
-45 25 3 28 7 28 38 0 30 4 35 26 38 48 6 55 -19 36 -113 -23 -112 -22 -126
13 -170 38 -48 46 -78 33 -127 -13 -47 -4 -48 47 -8 51 41 70 39 70 -5 0 -37
31 -80 53 -72 8 2 13 32 15 80 2 67 6 78 27 96 32 24 31 39 -5 112 -17 33 -28
64 -25 69 3 5 30 12 60 15 72 9 81 21 68 90 -5 30 -7 55 -4 55 3 0 39 -35 81
-79 85 -89 119 -103 155 -67 16 16 24 40 29 84 8 70 22 79 55 34 22 -32 61
-141 61 -173 0 -18 -4 -20 -27 -15 -16 3 -49 9 -75 12 -47 7 -48 6 -48 -19 0
-18 21 -48 70 -102 42 -44 68 -80 64 -87 -4 -6 -23 -25 -42 -42 -31 -27 -34
-34 -29 -73 3 -30 0 -46 -10 -55 -9 -7 -71 -14 -164 -18 -82 -4 -153 -10 -157
-14 -7 -7 23 -37 56 -55 28 -16 4 -57 -65 -113 -90 -73 -107 -82 -178 -88 -79
-7 -84 -26 -20 -87 26 -24 45 -46 43 -49 -2 -2 -20 1 -39 6 -18 6 -51 10 -71
10 -71 0 -44 -54 71 -142 56 -43 61 -50 36 -44 -16 3 -62 9 -101 12 -120 11
-143 -20 -74 -98 22 -25 44 -58 50 -73 17 -44 15 -104 -3 -122 -15 -15 -18
-15 -36 1 -11 10 -28 39 -37 65 -20 53 -42 83 -56 75 -27 -17 55 -214 119
-284 34 -39 35 -39 65 -24 16 8 65 49 108 90 43 41 80 71 83 67 3 -5 8 -26 12
-48 9 -45 37 -106 57 -122 50 -40 88 -16 88 57 0 39 4 50 19 55 38 12 101 -32
101 -71 0 -13 -18 -44 -40 -69 -22 -25 -40 -54 -40 -63 0 -22 27 -62 42 -62 6
0 33 24 60 53 l50 52 -6 -35 c-11 -71 -19 -179 -13 -194 10 -24 35 -8 60 38
19 36 22 55 21 159 -1 121 1 126 41 111 9 -4 25 -24 36 -45 10 -21 31 -46 44
-55 24 -16 27 -15 45 1 10 9 22 34 25 56 4 21 11 39 15 39 5 0 26 -22 47 -48
42 -54 99 -102 120 -102 10 0 12 9 7 35 -6 32 -4 35 22 40 107 24 137 38 181
81 42 43 45 48 39 85 -5 31 -3 41 10 46 22 8 47 -25 39 -52 -3 -11 -8 -39 -11
-62 -9 -58 9 -57 77 4 99 90 133 159 89 183 -11 6 -46 14 -78 18 l-57 8 60 18
c33 10 79 28 102 42 52 30 114 31 203 4 72 -22 155 -26 166 -8 7 11 -12 30
-68 69 -20 15 -21 18 -8 34 12 15 26 17 90 12 82 -5 181 -34 188 -55 2 -7 -25
-41 -60 -75 -81 -78 -102 -109 -94 -142 7 -27 52 -55 89 -55 13 0 36 9 51 21
32 25 40 20 70 -40 33 -64 49 -75 102 -72 46 2 45 3 117 -77 23 -25 37 -32 66
-32 46 0 72 25 80 76 7 42 33 66 52 47 7 -7 15 -49 19 -95 7 -85 22 -124 52
-134 31 -9 39 6 36 69 l-3 62 40 0 c39 0 40 0 37 34 -1 19 -18 80 -37 135 -19
54 -33 101 -30 104 2 2 27 -13 56 -34 60 -44 74 -40 96 26 15 46 48 90 67 90
28 0 98 45 117 76 25 40 21 48 -48 95 -53 37 -68 62 -53 89 14 26 32 25 67 -4
69 -57 100 -55 110 7 6 37 14 49 57 85 20 16 20 55 1 155 -8 43 -15 83 -15 88
0 11 116 -121 163 -187 56 -77 100 -175 155 -339 27 -83 80 -226 117 -320 119
-301 165 -456 204 -690 38 -228 46 -326 46 -605 0 -355 -23 -556 -101 -885
-39 -167 -74 -324 -74 -337 0 -4 232 -8 515 -8 283 0 515 1 515 3 0 1 -11 56
-24 122 -46 228 -63 694 -46 1300 20 744 55 1138 126 1420 47 185 77 224 239
306 121 61 179 72 223 40 37 -26 52 -27 52 -2 0 62 133 66 190 6 30 -32 34
-31 79 4 63 50 122 53 69 4 -43 -39 -90 -56 -153 -55 -79 1 -92 -4 -98 -36 -8
-43 17 -78 78 -106 30 -15 55 -29 55 -32 0 -3 -9 -18 -21 -33 -24 -32 -22 -69
4 -85 15 -9 26 -2 73 47 48 50 59 57 94 57 50 0 76 -31 85 -103 11 -89 15
-102 45 -137 37 -43 49 -95 27 -117 -13 -14 -17 -13 -35 5 -16 16 -20 29 -15
54 3 24 0 38 -11 47 -47 39 -64 -52 -23 -129 26 -50 75 -80 130 -80 31 0 46 7
71 32 27 28 37 52 60 145 16 62 34 118 42 124 11 9 23 2 57 -35 36 -38 49 -46
80 -46 26 0 40 6 51 22 29 41 15 96 -42 163 -49 58 -62 125 -26 125 8 0 33
-14 56 -30 22 -17 51 -30 62 -30 49 0 96 63 96 129 0 16 4 32 9 35 5 3 33 -23
62 -59 30 -35 71 -74 92 -86 36 -20 40 -20 55 -5 14 14 13 22 -17 95 -46 112
-37 134 18 43 43 -72 100 -132 125 -132 24 0 26 14 4 37 -45 48 -23 108 113
308 81 121 172 223 204 231 43 11 63 -4 85 -64 25 -65 45 -92 71 -92 25 0 49
38 49 77 0 18 4 33 9 33 15 0 89 -86 111 -130 15 -29 20 -53 16 -72 -4 -20 -1
-30 8 -34 18 -7 65 17 90 45 25 28 44 27 51 -4 3 -14 7 -36 10 -50 12 -58 62
-37 71 31 9 62 25 94 50 100 30 8 30 10 -5 63 -33 49 -32 61 3 61 37 0 37 10
-5 62 -21 27 -39 54 -39 59 0 15 47 29 93 29 48 0 87 22 87 49 0 28 21 40 88
49 66 9 102 32 102 64 0 31 -52 76 -96 83 -77 12 -141 35 -165 61 l-24 27 40
-9 c67 -13 94 -9 126 22 l31 29 16 -24 c10 -14 37 -46 62 -71 37 -37 60 -51
120 -69 41 -13 96 -30 122 -38 26 -8 64 -28 84 -44 45 -35 74 -34 92 4 12 24
11 31 -8 62 -11 18 -52 54 -90 79 -86 57 -92 66 -42 66 31 0 50 -8 82 -35 50
-42 69 -43 100 -10 18 19 25 40 28 84 4 53 2 61 -27 93 -37 42 -37 45 -10 67
21 17 21 20 9 72 -25 106 -112 252 -163 274 l-30 13 42 41 c48 48 67 86 77
160 4 32 18 68 35 94 31 45 35 80 19 139 -18 65 -87 128 -140 128 -28 0 -25
-19 11 -68 17 -24 29 -46 26 -49 -3 -3 -23 -2 -44 2 -51 9 -117 78 -172 180
-72 134 -138 183 -151 111 -3 -16 -11 -31 -18 -34 -19 -6 -66 50 -99 120 -37
77 -67 107 -91 92 -27 -17 -25 -36 9 -87 17 -26 29 -51 25 -54 -8 -8 -98 52
-229 156 -179 142 -239 173 -254 136 -7 -21 -56 -45 -90 -45 -41 0 -76 -22
-83 -50 -15 -64 -147 -21 -275 90 -97 85 -140 108 -210 116 -152 17 -117 62
67 88 57 8 111 18 120 21 12 5 38 -13 88 -60 90 -84 105 -77 59 26 l-32 74 28
50 c50 94 13 119 -95 65 -34 -17 -64 -29 -67 -26 -14 14 139 186 189 212 25
13 28 12 38 -5 5 -11 10 -36 10 -56 0 -39 21 -98 40 -110 20 -13 33 12 41 80
5 36 11 70 14 75 4 6 22 10 40 10 66 0 77 87 25 199 -36 77 -75 121 -106 121
-30 0 -54 25 -54 56 0 37 24 39 77 8 48 -28 159 -133 178 -168 9 -16 14 -17
33 -7 28 15 37 66 23 143 -6 34 -9 63 -7 65 6 7 42 -50 54 -86 7 -19 12 -48
13 -65 1 -75 13 -72 58 13 23 44 48 81 55 81 18 0 78 -69 71 -81 -4 -5 -19 -9
-34 -9 -39 0 -64 -21 -59 -51 2 -16 10 -25 25 -27 31 -5 39 -41 24 -119 -13
-74 -9 -86 26 -77 30 8 43 -7 43 -53 0 -17 4 -34 9 -38 5 -3 31 23 58 57 l48
63 9 -60 c5 -33 10 -62 12 -64 6 -7 48 49 76 103 15 28 30 71 34 96 8 58 27
89 75 122 22 16 41 39 45 55 11 45 23 54 73 51 l46 -3 3 35 c2 21 -10 71 -28
122 -37 107 -37 115 -1 89 41 -29 70 -80 77 -135 4 -26 15 -57 25 -69 l19 -22
21 25 c30 35 20 83 -27 131 -47 48 -44 74 11 74 65 0 68 6 62 104 -7 120 -23
177 -62 214 -41 40 -115 129 -115 139 0 4 22 4 50 1 40 -5 51 -3 56 11 13 33
-16 75 -72 102 -63 31 -78 46 -69 73 8 27 -20 40 -103 48 -81 7 -109 18 -70
28 35 9 59 36 67 77 l7 33 64 1 c66 0 136 25 125 44 -3 5 -45 22 -92 36 -78
25 -89 26 -112 13 -17 -10 -28 -26 -31 -50 -10 -59 -3 -56 -175 -75 -57 -7
-103 7 -111 33 -5 16 -20 51 -32 75 -2 4 18 1 45 -7 190 -56 195 -55 186 40
-8 92 2 132 40 155 36 22 78 26 110 9 32 -17 38 -30 32 -70 -4 -25 -2 -39 9
-48 20 -17 52 1 60 34 9 35 19 32 50 -15 26 -40 79 -76 96 -65 6 3 10 24 10
45 0 46 9 54 67 51 62 -2 126 -35 177 -92 24 -26 46 -45 50 -42 3 3 6 26 6 49
0 24 5 46 11 49 5 4 27 -5 48 -19 51 -36 61 -33 61 14 0 50 -17 91 -64 161
-29 41 -36 61 -34 88 3 39 22 53 95 71 38 10 43 14 43 40 0 18 -7 33 -19 39
-24 14 -30 29 -47 134 -17 103 -32 139 -68 155 -28 12 -34 36 -14 48 7 5 40 7
74 6 109 -4 105 48 -8 89 -76 28 -117 70 -143 144 -12 37 -29 65 -48 79 -27
19 -28 24 -23 68 8 59 12 57 -178 61 -126 2 -140 4 -152 22 -11 16 -11 25 -1
45 11 21 22 26 72 31 33 4 80 16 105 28 64 30 86 27 106 -11 24 -49 44 -68 70
-68 36 0 72 48 95 124 24 80 52 112 105 121 54 8 69 18 72 47 2 18 -5 33 -26
50 -44 37 -54 61 -36 86 9 13 26 22 42 22 38 0 54 13 50 41 -1 13 2 23 7 23 6
-1 24 -5 40 -8 80 -16 68 46 -17 86 -62 30 -81 49 -97 100 -8 25 -32 55 -73
90 -34 29 -69 70 -79 93 -34 73 -19 192 26 209 26 10 27 9 20 -49 -8 -63 3
-85 44 -85 44 0 55 13 48 59 -4 30 0 47 13 64 18 22 18 25 1 63 -24 53 -90
110 -143 124 -24 6 -54 15 -68 20 -14 5 -80 25 -147 44 -133 38 -170 57 -179
92 -8 30 -70 87 -168 153 -94 64 -156 118 -156 137 0 40 179 -7 241 -63 68
-62 100 -15 55 83 -14 31 -26 59 -26 63 0 4 24 7 53 6 51 0 52 1 55 31 2 25
-3 37 -28 58 -54 45 -105 47 -112 5 -5 -33 -24 -34 -54 -2 -29 30 -85 143 -77
155 2 4 16 -1 31 -12 58 -42 246 -68 258 -35 17 42 -118 176 -306 303 -74 50
-143 98 -152 105 -33 26 -20 33 40 23 72 -12 124 -2 159 30 l28 24 -35 30
c-19 17 -53 35 -75 41 -68 18 -70 20 -70 90 0 35 -4 70 -8 77 -11 17 -43 6
-87 -29 -19 -16 -40 -29 -46 -29 -18 0 -26 52 -19 123 8 80 -11 112 -89 153
-52 27 -70 44 -46 44 21 0 9 29 -22 56 -44 37 -102 60 -168 68 -31 4 -70 17
-90 30 -52 34 -73 38 -140 26 -70 -13 -100 -7 -100 20 0 34 -32 41 -162 34
-126 -7 -184 1 -223 30 -19 14 -19 15 7 25 33 12 54 46 36 58 -22 14 -197 6
-313 -14 -60 -10 -144 -18 -186 -18 -67 0 -81 4 -124 30 -59 37 -71 58 -25 45
52 -15 89 8 124 77 20 40 20 59 1 67 -28 10 -74 -6 -112 -40 -28 -25 -48 -34
-73 -34 -74 -1 -259 -86 -274 -126 -4 -10 6 -27 26 -47 18 -17 25 -28 16 -24
-9 3 -43 9 -76 13 -81 9 -106 -5 -233 -127 -109 -105 -141 -120 -147 -69 -9
81 -16 85 -118 64 -42 -9 -78 -13 -81 -10 -4 3 17 33 45 65 29 33 52 66 52 75
0 29 -134 78 -199 73 -20 -2 -26 5 -38 41 -10 28 -31 56 -64 85 -27 23 -49 45
-49 49 0 4 23 10 50 14 55 7 59 15 30 59 -42 63 -21 95 72 106 66 8 93 26 84
56 -16 50 -85 49 -257 -2 -108 -33 -130 -32 -197 10 -86 52 -179 66 -289 44z
m-3711 -1841 c21 -21 21 -21 2 -35 -18 -13 -78 -12 -92 2 -8 8 39 55 55 55 7
0 23 -10 35 -22z m7926 -1535 c15 -21 16 -69 1 -79 -11 -6 -64 38 -80 69 -6 9
-7 22 -3 28 9 15 66 3 82 -18z m-79 -173 c52 -23 89 -55 77 -67 -8 -8 -164 22
-201 39 -26 12 -39 34 -29 50 10 15 94 3 153 -22z m-498 -220 c22 -13 52 -67
44 -80 -21 -34 -75 11 -75 62 0 31 3 33 31 18z m-2605 -162 c8 -13 -43 -61
-60 -55 -16 5 -20 36 -6 52 15 18 56 20 66 3z m-1208 -121 c13 -12 28 -30 34
-40 17 -33 -1 -31 -37 3 -32 31 -37 33 -70 23 -31 -10 -35 -9 -35 7 0 44 65
47 108 7z m4326 -333 c30 -12 16 -24 -28 -24 -43 0 -63 10 -49 24 8 8 56 8 77
0z m-11 -170 c51 -26 77 -55 77 -86 0 -20 -5 -28 -18 -28 -27 0 -112 95 -112
124 0 10 20 6 53 -10z m-7683 -123 c0 -24 -84 -101 -110 -101 -21 0 -21 0 -3
31 17 30 86 89 105 89 4 0 8 -8 8 -19z m-295 -54 c95 -47 106 -84 45 -151 -62
-67 -116 -72 -146 -15 -16 33 -11 69 11 69 27 0 26 21 -5 68 -28 42 -29 47
-13 53 23 9 57 1 108 -24z m-585 -59 c11 -18 20 -44 20 -57 l0 -24 -24 22
c-25 24 -41 65 -31 81 9 15 14 12 35 -22z m408 -44 c3 -45 -17 -80 -42 -71
-21 8 -20 37 1 82 21 44 37 40 41 -11z m8002 19 c23 -29 22 -46 -4 -51 -23 -5
-46 16 -46 43 0 42 20 46 50 8z m277 -79 c12 -8 27 -23 34 -35 10 -19 9 -20
-11 -14 -12 4 -47 18 -78 32 -48 22 -54 27 -37 33 24 10 62 3 92 -16z m-5527
-97 c13 -24 13 -29 1 -37 -29 -18 -70 22 -57 56 9 23 38 13 56 -19z m520 -92
c0 -61 -48 -191 -84 -230 l-34 -35 -69 6 c-109 10 -183 -27 -183 -93 0 -36
-24 -38 -91 -9 -33 14 -65 26 -71 26 -6 0 -34 -25 -63 -55 -41 -44 -57 -55
-82 -55 -63 0 -111 96 -78 159 23 46 49 38 55 -18 11 -99 64 -72 130 66 22 46
46 86 54 89 7 3 51 -2 97 -11 104 -19 286 -23 316 -7 16 9 24 25 28 60 10 73
22 113 41 133 22 25 34 15 34 -26z m-156 19 c23 -23 20 -43 -9 -50 -34 -8 -75
3 -75 21 0 15 37 45 57 45 6 0 19 -7 27 -16z m-985 -213 c13 -62 14 -81 3 -81
-24 0 -72 176 -56 202 9 15 38 -49 53 -121z m341 13 c0 -17 -41 -19 -58 -2
-16 16 -15 41 1 57 10 10 16 7 35 -14 12 -14 22 -33 22 -41z m1079 -88 c18
-21 3 -43 -42 -65 -66 -31 -97 -36 -97 -16 0 24 19 57 44 77 25 21 79 23 95 4z
m4207 -821 c17 -13 15 -14 -33 -15 -49 0 -63 7 -46 23 12 12 59 7 79 -8z
m-186 -102 c0 -39 -9 -65 -21 -57 -10 6 -12 97 -2 107 11 11 23 -15 23 -50z
m-67 -155 c25 -29 17 -42 -27 -46 -58 -5 -85 28 -50 63 19 19 52 12 77 -17z
m-853 13 c0 -5 -9 -12 -19 -16 -25 -8 -35 -38 -21 -65 24 -45 -37 -10 -64 37
-4 7 -2 22 4 33 8 15 21 20 55 20 25 0 45 -4 45 -9z m-1170 -469 c0 -19 -69
-111 -127 -169 -74 -74 -127 -96 -168 -69 -35 23 -45 54 -45 142 0 70 12 96
25 55 3 -11 24 -36 45 -55 63 -57 120 -48 161 24 29 52 109 104 109 72z m-690
-62 c12 -7 11 -13 -10 -34 -26 -29 -48 -33 -56 -12 -14 37 30 69 66 46z m130
-85 c0 -27 -4 -56 -9 -64 -14 -21 -24 40 -15 95 8 59 24 39 24 -31z m-5220 36
c15 -30 12 -78 -7 -96 -16 -16 -18 -16 -35 5 -22 27 -23 58 -2 88 19 27 30 28
44 3z m4604 -50 c16 -25 -28 -66 -58 -55 -20 8 -20 23 1 46 17 19 48 24 57 9z
m-3835 -44 c8 -10 5 -19 -10 -36 l-22 -23 -20 20 c-11 12 -17 27 -14 36 8 19
50 21 66 3z m4221 -20 c14 -7 26 -22 28 -34 4 -30 -31 -38 -111 -24 -96 17
-114 14 -143 -18 -15 -17 -43 -34 -69 -40 -55 -14 -162 -14 -170 -1 -11 18 48
66 109 89 96 36 307 53 356 28z m-4805 -91 c18 -13 18 -15 2 -40 -10 -14 -20
-26 -24 -26 -3 0 -28 14 -55 31 -36 23 -46 34 -36 40 21 14 92 10 113 -5z
m169 4 c20 -7 26 -16 26 -40 0 -16 -4 -30 -8 -30 -15 0 -102 60 -102 70 0 13
51 13 84 0z m295 -74 c28 -30 51 -59 51 -65 0 -27 -102 -12 -137 21 -37 35
-26 98 18 98 9 0 39 -24 68 -54z m3149 -30 c81 -41 91 -76 19 -62 -38 7 -137
62 -137 76 0 19 71 10 118 -14z m580 -5 c31 -16 15 -36 -36 -46 -20 -3 -49
-18 -64 -32 l-27 -25 -26 27 c-32 35 -43 74 -24 87 19 12 148 4 177 -11z
m-1018 -27 c0 -19 -46 -48 -65 -40 -21 8 -19 32 6 49 23 17 59 11 59 -9z m775
-54 c-5 -21 0 -40 19 -73 31 -52 32 -57 8 -57 -26 0 -59 38 -77 90 -19 55 -14
70 25 70 30 0 31 -2 25 -30z m-525 -5 c12 -33 32 -40 71 -26 18 6 34 9 37 7 2
-3 -6 -21 -18 -40 -14 -23 -20 -48 -18 -68 l3 -33 -57 -3 -57 -3 -12 43 c-19
73 -2 147 34 148 4 0 12 -11 17 -25z m4742 -1000 c10 -22 9 -29 -10 -47 -18
-19 -25 -20 -47 -10 -18 8 -25 19 -25 40 0 36 6 42 42 42 21 0 32 -7 40 -25z
m-8431 -15 c22 -13 52 -67 44 -80 -20 -33 -75 14 -75 65 0 28 3 29 31 15z
m959 -235 c0 -23 -28 -18 -44 8 -8 12 -18 36 -21 52 l-7 30 36 -37 c20 -21 36
-45 36 -53z m7440 31 c15 -19 9 -61 -9 -61 -19 0 -55 50 -47 64 10 16 41 14
56 -3z m-3969 -196 c135 -43 169 -66 169 -117 0 -24 -10 -30 -75 -49 -24 -7
-33 -18 -44 -52 l-13 -43 -52 3 -51 3 -6 -110 c-4 -60 -7 -111 -8 -112 0 -1
-19 -23 -41 -48 -43 -50 -43 -61 2 -101 37 -34 52 -34 118 -3 35 16 65 28 67
26 2 -3 -26 -77 -61 -165 -36 -88 -93 -247 -126 -354 -103 -323 -99 -316 -153
-268 -97 85 -265 560 -255 723 3 46 6 53 38 71 27 16 59 22 135 26 l100 5 -1
55 c0 30 -2 87 -5 126 -2 48 1 77 9 87 7 8 58 34 112 57 118 50 131 62 102 93
-26 28 -102 158 -102 174 0 17 -4 18 141 -27z m-3256 -64 c27 -27 24 -56 -5
-56 -26 0 -70 38 -70 61 0 28 45 25 75 -5z m6539 -328 c9 -12 16 -31 16 -41 0
-27 -30 -79 -43 -74 -17 5 -40 83 -33 112 8 32 39 33 60 3z m-2539 -178 c0
-27 -53 -70 -86 -70 -29 0 -23 37 11 71 37 37 75 37 75 -1z m1443 -62 c13 -13
16 -50 6 -61 -16 -16 -71 43 -59 63 8 14 39 12 53 -2z m-3706 -378 c102 -77
137 -125 99 -138 -14 -5 -151 131 -171 168 -16 31 -1 24 72 -30z m-382 -250
c0 -82 -35 -127 -69 -86 -13 15 3 65 35 114 23 35 34 26 34 -28z"/>
<path d="M4487 3335 c-9 -9 -17 -20 -17 -24 0 -14 29 -35 94 -66 40 -20 66
-40 74 -57 9 -19 21 -28 36 -28 27 0 36 17 36 65 0 79 -41 116 -140 123 -53 3
-69 1 -83 -13z"/>
<path d="M806 10778 c-23 -32 -21 -68 3 -68 23 0 61 45 61 71 0 27 -45 25 -64
-3z"/>
<path d="M97 8193 c-27 -26 23 -103 66 -103 31 0 51 23 42 49 -13 41 -85 77
-108 54z"/>
<path d="M8944 7725 c-10 -25 16 -83 49 -111 49 -41 94 -57 143 -49 41 6 44 5
49 -22 14 -67 37 -77 65 -31 24 40 27 119 5 138 -11 9 -26 9 -63 1 -65 -14
-113 0 -176 50 -53 43 -64 46 -72 24z"/>
<path d="M530 7681 c-15 -30 -12 -62 10 -98 33 -55 80 -39 80 28 0 67 -64 117
-90 70z"/>
<path d="M346 7284 c-31 -30 -8 -69 36 -62 26 3 37 41 18 64 -16 18 -35 18
-54 -2z"/>
<path d="M8590 6330 c-15 -15 -20 -31 -18 -53 4 -40 28 -46 57 -16 26 29 27
65 1 79 -16 8 -24 6 -40 -10z"/>
<path d="M8740 5354 c0 -45 56 -84 120 -84 45 0 37 23 -23 64 -55 38 -97 47
-97 20z"/>
<path d="M9115 4399 c-18 -28 28 -110 75 -134 80 -41 77 42 -5 114 -37 32 -59
39 -70 20z"/>
<path d="M250 4290 c0 -39 29 -80 55 -80 27 0 31 10 14 43 -12 23 -48 56 -61
57 -5 0 -8 -9 -8 -20z"/>
<path d="M8798 3789 c-20 -11 -24 -59 -8 -90 6 -10 24 -26 41 -35 28 -14 32
-14 50 2 36 32 16 95 -38 123 -26 13 -23 13 -45 0z"/>
<path d="M6271 2884 c-40 -50 -49 -134 -15 -134 37 0 88 105 68 138 -17 26
-30 25 -53 -4z"/>
</g>
</svg>
