<?xml version="1.0" encoding="UTF-8" standalone="no"?>
<!-- Uploaded to: SVG Repo, www.svgrepo.com, Generator: SVG Repo Mixer Tools -->

<svg
   width="640"
   height="800"
   viewBox="0 0 80 100"
   aria-hidden="true"
   role="img"
   class="iconify iconify--gis"
   preserveAspectRatio="xMidYMid"
   version="1.1"
   id="svg1300"
   xmlns="http://www.w3.org/2000/svg"
   xmlns:svg="http://www.w3.org/2000/svg">
  <defs
     id="defs1304" />
  <path
     id="path1298"
     d="M 24.006,69.057 C 9.88,71.053 0,75.828 0,82.857 0,92.325 16.508,100 40,100 63.492,100 80,92.325 80,82.857 80,75.828 70.121,71.053 55.996,69.057 l -1.957,3.332 C 64.685,73.866 72,76.97 72,80.572 c 0,5.05 -14.327,9.143 -32,9.143 -17.673,0 -32,-4.093 -32,-9.143 -0.001,-3.59 7.266,-6.691 17.945,-8.174 -0.645,-1.114 -1.294,-2.226 -1.94,-3.341 z m 34.907,-20.149 -0.048,0.126 c 0.015,-0.038 0.027,-0.077 0.042,-0.115 z M 40.001,0 C 23.65,0 10.25,13.36 10.25,29.666 c 0,6.318 2.018,12.19 5.433,17.016 L 36.37,82.445 c 2.897,3.785 4.823,3.066 7.232,-0.2 L 66.42,43.415 c 0.46,-0.834 0.822,-1.722 1.137,-2.629 a 29.28,29.28 0 0 0 2.192,-11.12 C 69.75,13.36 56.354,0 40.001,0 Z m 0,13.9 c 8.806,0 15.808,6.986 15.808,15.766 0,8.78 -7.002,15.763 -15.808,15.763 -8.805,0 -15.81,-6.982 -15.81,-15.763 0,-8.78 7.005,-15.765 15.81,-15.765 z" />
</svg>
