<?xml version="1.0" encoding="UTF-8"?>
<svg width="576.45" height="577.45" version="1.1" viewBox="0 0 576.45 577.45" xmlns="http://www.w3.org/2000/svg">
 <path d="m64.57 0.064453c-41.335 0-64.57 21.37-64.57 65.035v450.12c0 40.844 20.893 62.229 62.191 62.229h452.03c41.307 0 62.229-20.316 62.229-62.229v-450.12c0-42.601-20.923-65.035-63.521-65.035-3e-3 0-448.5-0.143-448.35 0zm-4.0391 60.953h245.22c35.032 0 140.13 26.275 140.13 131.37v87.578c0 70.064 17.516 105.1 17.516 105.1-35.032 0-87.58-35.034-87.58-105.1v-87.578c0-50.796-31.774-61.307-70.064-61.307 12.296 15.484 39.817 29.278 38.535 61.307l-3.502 87.578c0 70.064 17.516 105.1 17.516 105.1-35.032 0-87.58-35.034-87.58-105.1v-87.578c0-50.796-31.775-61.307-70.1-61.307 12.331 15.484 35.066 29.252 35.066 61.307v87.578c0 70.064 17.518 105.1 17.518 105.1-35.032 0-87.58-35.034-87.58-105.1l0.0332-87.578c0-50.796-31.773-61.307-70.098-61.307h-35.016l-0.017578-70.064zm35.033 350.32c22.455 0 64.073 35.031 84.076 35.031 18.742 0 62.882-35.031 84.076-35.031 21.194 0 65.371 35.031 84.078 35.031 22.491 0 63.933-35.031 84.041-35.031 22.455-1.0159 66.632 35.031 84.078 35.031v70.064c-21.159 0-64.11-35.031-84.078-35.031-19.933 0-62.882 35.031-84.041 35.031-20.108 0-62.884-35.031-84.078-35.031-21.334 0-64.073 35.031-84.076 35.031-22.42 0-62.847-35.031-84.076-35.031v-70.064z" stroke-width="35.032"/>
</svg>
