<?xml version="1.0" encoding="UTF-8"?>
<!-- Created with Inkscape (http://www.inkscape.org/) -->
<svg width="35.433" height="35.433" version="1.1" xmlns="http://www.w3.org/2000/svg" xmlns:cc="http://creativecommons.org/ns#" xmlns:dc="http://purl.org/dc/elements/1.1/" xmlns:rdf="http://www.w3.org/1999/02/22-rdf-syntax-ns#">
 <metadata>
  <rdf:RDF>
   <cc:Work rdf:about="">
    <dc:format>image/svg+xml</dc:format>
    <dc:type rdf:resource="http://purl.org/dc/dcmitype/StillImage"/>
   </cc:Work>
  </rdf:RDF>
 </metadata>
 <path transform="matrix(.78386 0 0 .78386 22.576 10.045)" d="m-4.8432 9.1089a0.67805 0.67805 0 1 1-1.3561 0 0.67805 0.67805 0 1 1 1.3561 0zm13.478-13.382a0.67805 0.67805 0 1 1-1.3561 0 0.67805 0.67805 0 1 1 1.3561 0zm-28.288 7.6397a0.67805 0.67805 0 1 1-1.3561 0 0.67805 0.67805 0 1 1 1.3561 0zm-7.7913 28.344a0.67805 0.67805 0 1 1-1.3561 0 0.67805 0.67805 0 1 1 1.3561 0z"/>
</svg>
