<?xml version="1.0" encoding="UTF-8"?>
<svg width="580" height="580" enable-background="new 0 0 580 580" version="1.1" viewBox="0 0 580 580" xmlns="http://www.w3.org/2000/svg">
 <path d="m186.09 179.55c-1.1649-2.2919-4.475-1.5273-6.5611-1.9797-14.545-1.1264-29.149-1.1134-43.729-1.0821-17.011 0.24953-34.087 0.30275-51.038 1.5421-1.5995 0.25781-2.396 2.6307-0.64452 3.3036 8.4716 1.9028 17.32 1.4984 25.979 1.9478 23.788 0.50438 47.634 0.74031 71.377-0.94667 1.6775-0.33527 4.9746-0.37252 4.6151-2.785zm-131.07-60.425c-9.5401-3.6608-0.54163-0.6256 3.7897 11.397 3.3959 9.4272 4.4685 17.98 4.4685 23.213 0 5.2336 2.367 9.5152 5.2602 9.5152 6.6977 0 7.7857-5.2726 0.79471-25.327-3.0955-8.879-10.176-17.21-14.313-18.799zm29.3 28.688c0 8.4911 2.367 15.438 5.2602 15.438 15.299 0-3.1646-67.214-22.965-83.601-13.487-11.161 0.748 1.1051 6.9129 18.428 5.9864 16.821 10.792 29.417 10.792 49.734zm107.93 49.727c-7.9081-1.7307-16.125-1.4103-24.184-1.3233-6.936 0.28619-14.013 0.23238-20.811 1.635-1.7065 0.98688-0.70424 3.6968 1.1844 3.6525 10.347 2.3824 21.138 1.6308 31.701 1.6237 4.53-0.20577 9.2592-0.29801 13.514-1.8922 1.6888-1.1252 0.53927-3.824-1.4044-3.6956zm-35.188-34.289c2.8932 0 5.2602-4.2816 5.2602-9.5152 0-5.2336 1.0726-13.786 4.4685-23.213 4.3313-12.023 13.33-15.058 3.7897-11.397-4.1374 1.5876-11.218 9.9191-14.313 18.799-6.9916 20.055-5.903 25.327 0.79471 25.327zm-21.042 0c2.8932 0 5.2602-6.9472 5.2602-15.438 0-20.317 4.8055-32.914 10.792-49.734 6.1649-17.323 20.4-29.589 6.9129-18.428-19.8 16.386-38.264 83.6-22.965 83.6zm-21.859 0c12.914 0 5.1621-104.81-3.1032-109.07-2.0702-1.0697-0.50261 14.502-0.0851 23.464 0.5913 12.649-0.23534 17.785-0.0213 46.052h-2e-3c-2.1606 28.567-1.2684 39.559 3.212 39.559z" stroke-width=".5913"/>
 <path d="m492.44 227.4c-1.1649-2.2919-4.475-1.5273-6.5611-1.9797-14.545-1.1264-29.149-1.1134-43.729-1.0821-17.011 0.24953-34.087 0.30275-51.038 1.5421-1.5995 0.25781-2.396 2.6307-0.64452 3.3036 8.4716 1.9028 17.32 1.4984 25.979 1.9478 23.788 0.50438 47.634 0.74031 71.377-0.94667 1.6775-0.33527 4.9746-0.37252 4.6151-2.785zm-131.07-60.425c-9.5401-3.6608-0.54163-0.6256 3.7897 11.397 3.3959 9.4272 4.4685 17.98 4.4685 23.213 0 5.2336 2.367 9.5152 5.2602 9.5152 6.6977 0 7.7857-5.2726 0.79471-25.327-3.0955-8.879-10.176-17.21-14.313-18.799zm29.3 28.688c0 8.4911 2.367 15.438 5.2602 15.438 15.299 0-3.1646-67.214-22.965-83.601-13.487-11.161 0.748 1.1051 6.9129 18.428 5.9864 16.821 10.792 29.417 10.792 49.734zm107.93 49.727c-7.9081-1.7307-16.125-1.4103-24.184-1.3233-6.936 0.28619-14.013 0.23238-20.811 1.635-1.7065 0.98688-0.70425 3.6968 1.1844 3.6525 10.347 2.3824 21.138 1.6308 31.701 1.6237 4.53-0.20577 9.2592-0.29801 13.514-1.8922 1.6888-1.1252 0.53927-3.824-1.4044-3.6956zm-35.188-34.289c2.8932 0 5.2602-4.2816 5.2602-9.5152 0-5.2336 1.0726-13.786 4.4685-23.213 4.3313-12.023 13.33-15.058 3.7897-11.397-4.1374 1.5876-11.218 9.9191-14.313 18.799-6.9916 20.055-5.903 25.327 0.79472 25.327zm-21.042 0c2.8932 0 5.2602-6.9472 5.2602-15.438 0-20.317 4.8055-32.914 10.792-49.734 6.1649-17.323 20.4-29.589 6.9129-18.428-19.8 16.386-38.264 83.6-22.965 83.6zm-21.859 0c12.914 0 5.1621-104.81-3.1032-109.07-2.0702-1.0697-0.50261 14.502-0.0851 23.464 0.59129 12.649-0.23535 17.785-0.0213 46.052h-2e-3c-2.1606 28.567-1.2683 39.559 3.212 39.559z" stroke-width=".5913"/>
 <path d="m342.7 486.36c-1.1649-2.2919-4.475-1.5273-6.5611-1.9797-14.545-1.1264-29.149-1.1134-43.729-1.0821-17.011 0.24953-34.087 0.30275-51.038 1.5421-1.5995 0.25781-2.396 2.6307-0.64452 3.3036 8.4716 1.9028 17.32 1.4984 25.979 1.9478 23.788 0.50438 47.634 0.74031 71.377-0.94667 1.6775-0.33527 4.9746-0.37252 4.6151-2.785zm-131.07-60.425c-9.5401-3.6608-0.54164-0.6256 3.7897 11.397 3.3958 9.4272 4.4685 17.98 4.4685 23.213 0 5.2336 2.367 9.5152 5.2602 9.5152 6.6977 0 7.7857-5.2726 0.79472-25.327-3.0955-8.879-10.176-17.21-14.313-18.799zm29.3 28.688c0 8.4911 2.367 15.438 5.2602 15.438 15.299 0-3.1646-67.214-22.965-83.601-13.487-11.161 0.74799 1.1051 6.9129 18.428 5.9864 16.821 10.792 29.417 10.792 49.734zm107.93 49.727c-7.9081-1.7307-16.125-1.4103-24.184-1.3233-6.936 0.28619-14.013 0.23238-20.811 1.635-1.7065 0.98688-0.70424 3.6968 1.1844 3.6525 10.347 2.3824 21.138 1.6308 31.701 1.6237 4.53-0.20577 9.2592-0.29801 13.514-1.8922 1.6888-1.1252 0.53927-3.824-1.4044-3.6956zm-35.188-34.289c2.8932 0 5.2602-4.2816 5.2602-9.5152 0-5.2336 1.0726-13.786 4.4685-23.213 4.3313-12.023 13.33-15.058 3.7897-11.397-4.1374 1.5876-11.218 9.9191-14.313 18.799-6.9916 20.055-5.903 25.327 0.79471 25.327zm-21.042 0c2.8932 0 5.2602-6.9472 5.2602-15.438 0-20.317 4.8055-32.914 10.792-49.734 6.1649-17.323 20.4-29.589 6.9129-18.428-19.8 16.386-38.264 83.6-22.965 83.6zm-21.859 0c12.914 0 5.1621-104.81-3.1032-109.07-2.0702-1.0697-0.50261 14.502-0.0851 23.464 0.5913 12.649-0.23534 17.785-0.0213 46.052h-2e-3c-2.1606 28.567-1.2684 39.559 3.212 39.559z" stroke-width=".5913"/>
</svg>
