<svg xmlns="http://www.w3.org/2000/svg" width="580" height="580">
  <path fill="param(fill)" fill-opacity="param(fill-opacity)" d="M 577.105469 47.621094 L 576.152344 45.386719 C 568.386719 27.304688 547.359375 18.910156 529.269531 26.671875 L 528.894531 26.828125 L 481.179688 47.3125 L 461.328125 55.832031 L 414.851562 75.785156 L 394.992188 84.304688 L 357.175781 100.542969 L 327.285156 113.375 L 288.96875 129.820312 L 259.078125 142.648438 L 192.738281 171.128906 L 190.578125 172.0625 L 168.515625 181.53125 L 168.140625 181.683594 C 159.375 185.449219 152.910156 192.339844 149.433594 200.5 C 139.941406 176.996094 116.945312 160.394531 90.039062 160.394531 C 54.648438 160.394531 25.960938 189.082031 25.960938 224.472656 L 25.960938 354.253906 C 25.960938 370.820312 32.296875 385.871094 42.621094 397.246094 L 21.90625 397.246094 L 21.90625 520.535156 L 0 520.535156 L 0 556.222656 L 183.316406 556.222656 L 183.316406 520.535156 L 158.167969 520.535156 L 158.167969 397.257812 L 137.453125 397.257812 C 147.777344 385.875 154.113281 370.835938 154.113281 354.265625 L 154.113281 237.3125 C 159.765625 245.277344 168.332031 250.46875 177.695312 251.945312 L 177.738281 251.738281 C 184.246094 252.824219 191.125 252.152344 197.632812 249.359375 L 206.378906 245.601562 L 242.835938 229.957031 L 272.71875 217.125 L 311.03125 200.679688 L 340.921875 187.851562 L 378.742188 171.609375 L 408.632812 158.78125 L 445.078125 143.140625 L 474.96875 130.308594 L 513.289062 113.863281 L 543.179688 101.035156 L 558.023438 94.65625 L 558.398438 94.496094 C 576.480469 86.730469 584.871094 65.699219 577.105469 47.621094 Z M 178.933594 245.355469 C 169.398438 243.804688 160.8125 237.597656 156.722656 228.082031 L 155.765625 225.847656 C 154.847656 223.714844 154.246094 221.539062 153.859375 219.34375 C 153.765625 218.167969 153.628906 217.003906 153.472656 215.847656 C 152.859375 203.996094 159.546875 192.445312 171.082031 187.488281 L 189.152344 179.734375 L 191.320312 178.800781 Z M 244.261719 222.28125 L 207.8125 237.925781 L 221.210938 165.980469 L 257.65625 150.335938 Z M 312.464844 193 L 274.152344 209.445312 L 287.535156 137.492188 L 325.855469 121.042969 Z M 380.179688 163.933594 L 342.351562 180.171875 L 355.730469 108.21875 L 393.566406 91.976562 Z M 446.511719 135.460938 L 410.054688 151.105469 L 423.457031 79.148438 L 459.890625 63.503906 Z M 514.710938 106.175781 L 476.398438 122.625 L 489.785156 50.671875 L 528.101562 34.222656 Z M 555.460938 88.691406 L 544.597656 93.351562 L 555.761719 33.402344 C 548.382812 29.820312 539.5625 29.308594 531.464844 32.789062 L 531.835938 32.628906 C 539.828125 29.199219 548.507812 29.65625 555.820312 33.105469 L 555.761719 33.402344 C 561.84375 36.363281 566.941406 41.414062 569.816406 48.097656 L 570.777344 50.335938 C 577.121094 65.132812 570.257812 82.34375 555.460938 88.691406 Z M 555.460938 88.691406 " stroke="param(outline)" stroke-opacity="param(outline-opacity)" stroke-width="param(outline-width)"/>
</svg>
