<svg xmlns="http://www.w3.org/2000/svg" width="580" height="580">
  <path fill="param(fill)" fill-opacity="param(fill-opacity)" d="M21.210938 0C9.5.00390625.00390625 5.140625 0 11.480469.00390625 17.816406 9.5 22.953125 21.210938 22.957031L318.460938 22.957031C330.171875 22.953125 339.664062 17.816406 339.667969 11.480469 339.664062 5.140625 330.171875.00390625 318.460938 0ZM27.402344 572.09375C12.273438 572.097656.0078125 573.863281 0 576.039062.0078125 578.21875 12.273438 579.984375 27.402344 579.984375L411.464844 579.984375C426.59375 579.984375 438.859375 578.21875 438.867188 576.039062 438.859375 573.863281 426.59375 572.097656 411.464844 572.09375ZM261.535156 282.902344C249.824219 282.902344 240.332031 285.730469 240.324219 289.21875 240.332031 292.707031 249.824219 295.53125 261.535156 295.535156L558.785156 295.535156C570.496094 295.53125 579.988281 292.707031 579.992188 289.21875 579.988281 285.730469 570.496094 282.902344 558.785156 282.902344ZM261.535156 282.902344" stroke="param(outline)" stroke-opacity="param(outline-opacity)" stroke-width="param(outline-width)"/>
</svg>
