<svg xmlns="http://www.w3.org/2000/svg" width="580" height="580">
  <path fill="param(fill)" fill-opacity="param(fill-opacity)" d="M 570.332031 275.5 L 537.890625 275.5 L 492.246094 175.074219 C 492.246094 175.074219 492.238281 175.074219 492.238281 175.0625 L 492.128906 174.832031 C 491.683594 173.84375 491.046875 172.992188 490.320312 172.230469 C 490.128906 172.015625 489.898438 171.851562 489.675781 171.660156 C 489.035156 171.101562 488.339844 170.625 487.574219 170.25 C 487.285156 170.105469 487.007812 169.960938 486.695312 169.84375 C 485.632812 169.445312 484.511719 169.167969 483.332031 169.167969 L 96.667969 169.167969 C 95.488281 169.167969 94.375 169.445312 93.3125 169.84375 C 93.003906 169.960938 92.722656 170.105469 92.421875 170.25 C 91.660156 170.625 90.972656 171.101562 90.335938 171.660156 C 90.113281 171.855469 89.878906 172.019531 89.679688 172.230469 C 88.953125 172.992188 88.324219 173.84375 87.871094 174.832031 L 87.761719 175.0625 L 87.761719 175.074219 L 42.117188 275.5 L 9.667969 275.5 C 4.332031 275.5 0 279.832031 0 285.167969 C 0 290.5 4.332031 294.832031 9.667969 294.832031 L 87 294.832031 L 87 352.832031 L 77.332031 352.832031 C 72 352.832031 67.667969 357.164062 67.667969 362.5 L 67.667969 401.164062 C 67.667969 406.5 72 410.832031 77.332031 410.832031 L 116 410.832031 C 121.347656 410.832031 125.667969 406.5 125.667969 401.164062 L 125.667969 362.5 C 125.667969 357.164062 121.347656 352.832031 116 352.832031 L 106.332031 352.832031 L 106.332031 294.832031 L 473.667969 294.832031 L 473.667969 352.832031 L 464 352.832031 C 458.664062 352.832031 454.332031 357.164062 454.332031 362.5 L 454.332031 401.167969 C 454.332031 406.5 458.664062 410.832031 464 410.832031 L 502.667969 410.832031 C 508.011719 410.832031 512.332031 406.5 512.332031 401.167969 L 512.332031 362.5 C 512.332031 357.164062 508.011719 352.832031 502.667969 352.832031 L 493 352.832031 L 493 294.832031 L 570.332031 294.832031 C 575.679688 294.832031 580 290.503906 580 285.167969 C 580 279.832031 575.679688 275.5 570.332031 275.5 Z M 145 261.8125 L 111.679688 188.5 L 178.332031 188.5 Z M 241.667969 261.8125 L 208.347656 188.5 L 274.996094 188.5 Z M 338.332031 261.8125 L 305.011719 188.5 L 371.664062 188.5 Z M 435 261.8125 L 401.679688 188.5 L 468.332031 188.5 Z M 435 261.8125 " stroke="param(outline)" stroke-opacity="param(outline-opacity)" stroke-width="param(outline-width)"/>
</svg>
