<svg xmlns="http://www.w3.org/2000/svg" width="580" height="580">
  <path fill="param(fill)" fill-opacity="param(fill-opacity)" d="M 64.96875 0.0664062 C 23.378906 0.0664062 0 21.527344 0 65.386719 L 0 517.496094 C 0 558.519531 21.023438 580 62.574219 580 L 517.386719 580 C 558.949219 580 580 559.59375 580 517.496094 L 580 65.386719 C 580 22.597656 558.949219 0.0664062 516.085938 0.0664062 C 516.082031 0.0664062 64.824219 -0.078125 64.96875 0.0664062 Z M 244.386719 27.398438 L 331.140625 27.398438 C 336.695312 27.398438 341.199219 31.894531 341.199219 37.441406 C 341.207031 54.691406 341.203125 71.945312 341.199219 89.195312 C 341.191406 116.8125 341.1875 145.363281 341.230469 173.445312 C 341.402344 175.808594 341.265625 178.085938 341.132812 180.292969 C 341.058594 181.464844 340.960938 183.148438 340.988281 184.441406 C 355.59375 184.566406 371.277344 184.621094 391.070312 184.621094 C 401.375 184.621094 411.679688 184.605469 421.984375 184.59375 C 439.566406 184.566406 457.15625 184.542969 474.730469 184.589844 C 476.117188 184.59375 477.4375 184.878906 478.640625 185.390625 C 478.640625 185.390625 478.640625 185.386719 478.640625 185.390625 C 478.941406 185.515625 479.234375 185.65625 479.515625 185.8125 C 480.085938 186.121094 480.621094 186.484375 481.117188 186.894531 C 482.355469 187.917969 483.34375 189.230469 483.980469 190.734375 C 484.234375 191.332031 484.429688 191.964844 484.5625 192.617188 C 484.699219 193.269531 484.769531 193.945312 484.769531 194.636719 L 484.769531 271.976562 C 484.769531 277.523438 480.265625 282.015625 474.710938 282.019531 C 468.210938 282.023438 461.714844 282.023438 455.214844 282.023438 L 400.496094 282.015625 C 384.453125 282.015625 368.40625 282.023438 352.363281 282.050781 C 351.628906 282.105469 350.859375 282.128906 350.023438 282.128906 C 348.46875 282.128906 346.960938 282.039062 345.503906 281.953125 C 344.222656 281.875 343.015625 281.800781 341.941406 281.800781 C 341.730469 281.800781 341.539062 281.804688 341.367188 281.808594 C 341.117188 334.863281 341.160156 388.75 341.199219 440.910156 C 341.222656 473.945312 341.25 508.109375 341.199219 541.707031 C 341.199219 542.398438 341.128906 543.074219 340.996094 543.726562 C 340.996094 543.726562 340.996094 543.726562 340.996094 543.730469 C 340.050781 548.300781 335.996094 551.738281 331.140625 551.738281 L 244.386719 551.738281 C 243 551.738281 241.675781 551.457031 240.472656 550.949219 C 239.570312 550.566406 238.734375 550.058594 237.988281 549.445312 C 237.742188 549.238281 237.503906 549.023438 237.273438 548.792969 C 235.910156 547.429688 234.933594 545.679688 234.53125 543.71875 C 234.523438 543.675781 234.519531 543.628906 234.511719 543.585938 C 234.394531 542.972656 234.328125 542.34375 234.328125 541.695312 C 234.320312 509.851562 234.324219 478.007812 234.328125 446.164062 C 234.332031 396.011719 234.339844 344.164062 234.296875 293.160156 C 234.125 290.800781 234.261719 288.519531 234.394531 286.316406 C 234.464844 285.140625 234.566406 283.460938 234.539062 282.164062 C 220.476562 282.042969 205.371094 281.988281 186.320312 281.988281 C 176.363281 281.988281 166.40625 282.003906 156.449219 282.019531 C 139.4375 282.042969 122.421875 282.070312 105.414062 282.019531 C 103.683594 282.015625 102.050781 281.574219 100.628906 280.796875 C 100.0625 280.488281 99.527344 280.125 99.03125 279.71875 C 97.050781 278.078125 95.707031 275.699219 95.433594 273.003906 C 95.433594 273 95.433594 273 95.433594 273 C 95.398438 272.664062 95.382812 272.324219 95.382812 271.976562 L 95.382812 194.636719 C 95.382812 194.289062 95.398438 193.949219 95.433594 193.613281 C 95.5 192.9375 95.636719 192.285156 95.832031 191.65625 C 96.320312 190.089844 97.183594 188.683594 98.316406 187.546875 C 98.542969 187.320312 98.777344 187.105469 99.027344 186.898438 C 100.757812 185.464844 102.980469 184.601562 105.40625 184.59375 C 120.722656 184.535156 136.035156 184.566406 151.355469 184.59375 C 160.316406 184.613281 169.277344 184.628906 178.242188 184.628906 C 197.195312 184.628906 211.804688 184.550781 225.613281 184.371094 C 225.953125 184.371094 226.292969 184.378906 226.632812 184.410156 L 228.015625 184.539062 C 229.734375 184.703125 231.511719 184.871094 233.113281 184.871094 C 233.589844 184.871094 233.992188 184.859375 234.328125 184.832031 L 234.328125 37.445312 C 234.328125 31.894531 238.832031 27.398438 244.386719 27.398438 Z M 244.386719 27.398438 " stroke="param(outline)" stroke-opacity="param(outline-opacity)" stroke-width="param(outline-width)"/>
</svg>
