<svg xmlns="http://www.w3.org/2000/svg" width="580" height="580">
  <path fill="param(fill)" fill-opacity="param(fill-opacity)" d="M 76.316406 137.367188 C 67.15625 137.367188 61.050781 143.472656 61.050781 152.632812 L 61.050781 442.632812 C 61.050781 451.789062 67.15625 457.894531 76.316406 457.894531 C 85.472656 457.894531 91.578125 451.789062 91.578125 442.632812 L 91.578125 396.84375 L 488.421875 396.84375 L 488.421875 442.632812 C 488.421875 451.789062 494.527344 457.894531 503.683594 457.894531 C 512.84375 457.894531 518.949219 451.789062 518.949219 442.632812 L 518.949219 381.578125 C 518.949219 372.421875 512.84375 366.316406 503.683594 366.316406 L 91.578125 366.316406 L 91.578125 152.632812 C 91.578125 143.472656 85.472656 137.367188 76.316406 137.367188 Z M 167.894531 152.632812 C 143.472656 152.632812 122.105469 174 122.105469 198.421875 C 122.105469 222.84375 143.472656 244.210938 167.894531 244.210938 C 192.316406 244.210938 213.683594 222.84375 213.683594 198.421875 C 213.683594 174 192.316406 152.632812 167.894531 152.632812 Z M 274.738281 183.15625 C 228.949219 183.15625 228.949219 228.949219 228.949219 228.949219 L 228.949219 274.738281 L 137.367188 274.738281 C 128.210938 274.738281 122.105469 280.84375 122.105469 290 L 122.105469 320.527344 C 122.105469 329.683594 128.210938 335.789062 137.367188 335.789062 L 518.949219 335.789062 L 518.949219 259.472656 C 518.949219 183.15625 442.632812 183.15625 442.632812 183.15625 Z M 274.738281 183.15625 " stroke="param(outline)" stroke-opacity="param(outline-opacity)" stroke-width="param(outline-width)"/>
</svg>
