<svg xmlns="http://www.w3.org/2000/svg" width="580" height="580">
  <path fill="param(fill)" fill-opacity="param(fill-opacity)" d="M 290 91.578125 C 265.578125 91.578125 244.210938 112.949219 244.210938 137.367188 C 244.210938 161.789062 265.578125 183.15625 290 183.15625 C 314.421875 183.15625 335.789062 161.789062 335.789062 137.367188 C 335.789062 112.949219 314.421875 91.578125 290 91.578125 Z M 183.15625 213.683594 L 183.15625 244.210938 C 183.15625 244.210938 244.210938 244.210938 244.210938 305.261719 L 244.210938 366.316406 C 244.210938 427.367188 183.15625 427.367188 183.15625 427.367188 L 183.15625 457.894531 L 396.84375 457.894531 L 396.84375 427.367188 C 396.84375 427.367188 335.789062 427.367188 335.789062 366.316406 L 335.789062 244.210938 C 335.789062 228.949219 320.527344 213.683594 305.261719 213.683594 Z M 183.15625 213.683594 " stroke="param(outline)" stroke-opacity="param(outline-opacity)" stroke-width="param(outline-width)"/>
</svg>
