<svg xmlns="http://www.w3.org/2000/svg" width="580" height="580">
  <path fill="param(fill)" fill-opacity="param(fill-opacity)" d="M335.539062 172.414062 479.632812 172.414062C481.21875 172.414062 482.804688 171.734375 483.9375 170.601562L514.070312 142.734375C515.429688 141.601562 516.109375 139.789062 516.109375 137.976562 516.109375 136.164062 515.429688 134.578125 514.070312 133.21875L484.164062 105.351562C483.03125 104.21875 481.445312 103.539062 479.859375 103.539062L335.765625 103.539062C332.140625 103.539062 329.421875 106.484375 329.421875 109.882812L329.421875 165.84375C329.195312 169.695312 331.914062 172.414062 335.539062 172.414062ZM483.9375 229.054688C482.804688 227.921875 481.21875 227.242188 479.632812 227.242188L335.539062 227.242188C331.914062 227.242188 329.195312 230.1875 329.195312 233.585938L329.195312 289.546875C329.195312 293.171875 332.140625 295.890625 335.539062 295.890625L479.632812 295.890625C481.21875 295.890625 482.804688 295.210938 483.9375 294.078125L513.84375 266.210938C515.203125 265.078125 515.882812 263.265625 515.882812 261.453125 515.882812 259.640625 515.203125 258.054688 513.84375 256.695312ZM250.804688 232.679688 250.804688 176.71875C250.804688 173.09375 247.859375 170.375 244.460938 170.375L100.367188 170.375C98.78125 170.375 97.195312 171.054688 96.0625 172.1875L65.929688 200.054688C64.570312 201.1875 63.890625 203 63.890625 204.8125 63.890625 206.625 64.570312 208.210938 65.929688 209.570312L95.835938 237.4375C96.96875 238.570312 98.554688 239.25 100.140625 239.25L244.234375 239.25C248.085938 239.023438 250.804688 236.078125 250.804688 232.679688ZM250.804688 232.679688" stroke="param(outline)" stroke-opacity="param(outline-opacity)" stroke-width="param(outline-width)"/>
  <path fill="param(fill)" fill-opacity="param(fill-opacity)" d="M 333.046875 518.828125 L 310.617188 518.828125 L 310.617188 67.515625 C 310.617188 66.835938 310.617188 66.15625 310.390625 65.703125 L 294.757812 25.828125 C 294.078125 23.789062 292.039062 22.65625 290 22.65625 C 287.960938 22.65625 285.921875 24.015625 285.242188 25.828125 L 269.609375 65.703125 C 269.382812 66.382812 269.382812 66.835938 269.382812 67.515625 L 269.382812 518.828125 L 246.953125 518.828125 C 236.304688 518.828125 227.695312 527.4375 227.695312 538.085938 C 227.695312 548.734375 236.304688 557.34375 246.953125 557.34375 L 333.046875 557.34375 C 343.695312 557.34375 352.304688 548.734375 352.304688 538.085938 C 352.304688 527.4375 343.695312 518.828125 333.046875 518.828125 Z M 333.046875 518.828125 " stroke="param(outline)" stroke-opacity="param(outline-opacity)" stroke-width="param(outline-width)"/>
</svg>
