<svg xmlns="http://www.w3.org/2000/svg" width="580" height="580">
  <path fill="param(fill)" fill-opacity="param(fill-opacity)" d="M 290.003906 0 C 195.171875 0 117.449219 77.488281 117.449219 172.0625 C 117.449219 208.707031 129.15625 242.765625 148.960938 270.753906 L 268.945312 478.179688 C 285.75 500.132812 296.917969 495.964844 310.890625 477.019531 L 443.234375 251.808594 C 445.902344 246.96875 448.003906 241.820312 449.832031 236.558594 C 458.230469 216.09375 462.546875 194.183594 462.542969 172.0625 C 462.550781 77.488281 384.851562 0 290.003906 0 Z M 290.003906 80.621094 C 341.082031 80.621094 381.691406 121.140625 381.691406 172.0625 C 381.691406 222.988281 341.082031 263.488281 290.003906 263.488281 C 238.9375 263.488281 198.308594 222.992188 198.308594 172.0625 C 198.308594 121.140625 238.9375 80.625 290.003906 80.625 Z M 290.003906 80.621094 " stroke="param(outline)" stroke-opacity="param(outline-opacity)" stroke-width="param(outline-width)"/>
  <path fill="param(fill)" fill-opacity="param(fill-opacity)" d="M399.695312 283.667969 399.417969 284.398438C399.503906 284.175781 399.574219 283.949219 399.660156 283.730469ZM197.234375 400.53125C115.304688 412.105469 58 439.800781 58 480.570312 58 535.484375 153.746094 580 290 580 426.253906 580 522 535.484375 522 480.570312 522 439.800781 464.703125 412.105469 382.777344 400.53125L371.425781 419.855469C433.171875 428.421875 475.601562 446.425781 475.601562 467.316406 475.601562 496.609375 392.503906 520.347656 290 520.347656 187.496094 520.347656 104.398438 496.609375 104.398438 467.316406 104.394531 446.496094 146.542969 428.511719 208.480469 419.910156 204.738281 413.445312 200.976562 406.996094 197.230469 400.53125ZM197.234375 400.53125" stroke="param(outline)" stroke-opacity="param(outline-opacity)" stroke-width="param(outline-width)"/>
</svg>
