<svg xmlns="http://www.w3.org/2000/svg" width="580" height="580">
  <path fill="param(fill)" fill-opacity="param(fill-opacity)" d="M 486.589844 509.179688 C 484.304688 515.101562 478.589844 518.992188 472.242188 518.949219 C 470.425781 519.273438 468.5625 519.273438 466.746094 518.949219 L 290 444.464844 L 112.949219 518.949219 C 105.097656 522.015625 96.242188 518.136719 93.179688 510.285156 C 93.152344 510.21875 93.128906 510.160156 93.105469 510.09375 C 89.164062 502.644531 92.011719 493.40625 99.46875 489.46875 C 100.265625 489.046875 101.097656 488.695312 101.957031 488.421875 L 250.011719 427.367188 L 101.957031 366.316406 C 93.894531 363.863281 89.339844 355.339844 91.792969 347.273438 C 94.242188 339.207031 102.769531 334.65625 110.835938 337.109375 C 111.558594 337.328125 112.261719 337.601562 112.949219 337.925781 L 290 411.496094 L 467.050781 337.925781 C 474.664062 334.308594 483.773438 337.546875 487.390625 345.160156 C 491.007812 352.773438 487.769531 361.878906 480.15625 365.496094 C 479.472656 365.824219 478.765625 366.097656 478.042969 366.316406 L 329.683594 427.367188 L 477.738281 488.421875 C 485.695312 491.199219 489.894531 499.902344 487.121094 507.859375 C 486.964844 508.308594 486.789062 508.75 486.589844 509.179688 Z M 427.367188 190.179688 L 427.367188 203.914062 C 427.304688 210.414062 425.164062 216.726562 421.261719 221.925781 C 404.210938 240.800781 385.847656 258.449219 366.316406 274.738281 L 366.316406 310.148438 C 366.363281 316.496094 362.46875 322.207031 356.546875 324.496094 L 290.609375 351.050781 L 288.472656 351.050781 L 222.230469 324.496094 C 216.785156 321.832031 213.429688 316.203125 213.683594 310.148438 L 213.683594 274.738281 C 193.925781 258.480469 175.363281 240.832031 158.125 221.925781 C 154.441406 216.652344 152.519531 210.347656 152.632812 203.914062 L 152.632812 190.179688 C 157.726562 122.460938 210.550781 68.09375 278.09375 61.050781 L 300.988281 61.050781 C 368.945312 67.558594 422.324219 122.097656 427.367188 190.179688 Z M 244.210938 183.15625 C 244.210938 166.296875 230.542969 152.632812 213.683594 152.632812 C 196.824219 152.632812 183.15625 166.296875 183.15625 183.15625 C 183.15625 200.019531 196.824219 213.683594 213.683594 213.683594 C 230.542969 213.683594 244.210938 200.019531 244.210938 183.15625 Z M 274.738281 274.738281 C 274.738281 266.308594 267.902344 259.472656 259.472656 259.472656 C 251.046875 259.472656 244.210938 266.308594 244.210938 274.738281 L 244.210938 290 C 244.210938 298.429688 251.046875 305.261719 259.472656 305.261719 C 267.902344 305.261719 274.738281 298.429688 274.738281 290 Z M 335.789062 274.738281 C 335.789062 266.308594 328.953125 259.472656 320.527344 259.472656 C 312.097656 259.472656 305.261719 266.308594 305.261719 274.738281 L 305.261719 290 C 305.261719 298.429688 312.097656 305.261719 320.527344 305.261719 C 328.953125 305.261719 335.789062 298.429688 335.789062 290 Z M 396.84375 183.15625 C 396.84375 166.296875 383.175781 152.632812 366.316406 152.632812 C 349.457031 152.632812 335.789062 166.296875 335.789062 183.15625 C 335.789062 200.019531 349.457031 213.683594 366.316406 213.683594 C 383.175781 213.683594 396.84375 200.019531 396.84375 183.15625 Z M 396.84375 183.15625 " stroke="param(outline)" stroke-opacity="param(outline-opacity)" stroke-width="param(outline-width)"/>
</svg>
