<svg xmlns="http://www.w3.org/2000/svg" width="580" height="580">
  <path fill="param(fill)" fill-opacity="param(fill-opacity)" d="M 64.96875 0.0664062 C 23.378906 0.0664062 0 21.527344 0 65.386719 L 0 517.496094 C 0 558.519531 21.023438 580 62.574219 580 L 517.386719 580 C 558.949219 580 580 559.59375 580 517.496094 L 580 65.386719 C 580 22.597656 558.949219 0.0664062 516.085938 0.0664062 C 516.082031 0.0664062 64.824219 -0.078125 64.96875 0.0664062 Z M 295.527344 40.929688 C 338.199219 40.929688 419 67.863281 435.359375 87.539062 C 443.722656 97.601562 435.945312 97.941406 394.730469 89.320312 C 361.75 82.421875 350.808594 81.789062 325.308594 85.285156 C 251.878906 95.355469 185.824219 150.59375 159.425781 224.003906 C 146.972656 258.636719 146.921875 320.914062 159.324219 355.324219 C 184.996094 426.558594 250.03125 482.269531 321.859375 494.550781 C 344.148438 498.363281 354.371094 497.75 390.949219 490.414062 C 414.5625 485.675781 435.414062 483.273438 437.289062 485.074219 C 441.65625 489.269531 422.019531 503.21875 393.226562 516.378906 C 350.710938 535.808594 288.714844 543.371094 244.265625 534.546875 C 235.175781 532.742188 217.511719 527.679688 205.011719 523.296875 C 140.953125 500.820312 79.097656 437.527344 56.015625 370.839844 C 47.960938 347.574219 42.765625 322.238281 43.074219 288.128906 C 43.371094 253.988281 47.960938 232.089844 56.015625 208.824219 C 78.023438 145.246094 133.683594 85.480469 195.0625 59.527344 C 217.359375 50.097656 266.894531 40.929688 295.527344 40.929688 Z M 439.152344 190.914062 C 440.28125 190.882812 441.363281 191.445312 442.21875 192.132812 C 455.734375 210.703125 459.5 234.558594 467.75 255.800781 C 485.167969 256.003906 502.617188 255.285156 520.011719 256.398438 C 525.449219 257.722656 538.003906 255.660156 537.03125 264.195312 C 521.902344 281.203125 500.832031 291.429688 484.96875 307.722656 C 487.847656 324.945312 496.703125 342.164062 499.886719 359.84375 C 500.910156 365.339844 503.40625 377.484375 494.78125 377.234375 C 475.476562 366.601562 459.046875 350.875 439.714844 340.554688 C 424.59375 347.445312 411.46875 359.574219 397.429688 368.828125 C 392.289062 372.71875 381.0625 380.800781 377.390625 370.9375 C 378.613281 348.71875 389.410156 328.085938 395.261719 306.773438 C 381.503906 295.765625 366.675781 286.285156 353.0625 275.136719 C 349.449219 271.019531 338.457031 266.050781 343.851562 259.699219 C 365.210938 252.777344 388.757812 255.691406 410.980469 253.800781 C 415.105469 242.203125 419.023438 230.519531 423.246094 218.96875 C 427.886719 209.722656 429.578125 197.347656 438.363281 191.035156 C 438.628906 190.960938 438.890625 190.921875 439.152344 190.914062 Z M 439.152344 190.914062 " stroke="param(outline)" stroke-opacity="param(outline-opacity)" stroke-width="param(outline-width)"/>
</svg>
