<svg xmlns="http://www.w3.org/2000/svg" width="580" height="580">
  <path fill="param(fill)" fill-opacity="param(fill-opacity)" d="M 307.402344 281.300781 C 307.402344 286.105469 303.507812 290 298.703125 290 C 293.898438 290 290 286.105469 290 281.300781 C 290 276.496094 293.898438 272.601562 298.703125 272.601562 C 303.507812 272.601562 307.402344 276.496094 307.402344 281.300781 Z M 480.335938 109.597656 C 480.335938 114.402344 476.441406 118.296875 471.636719 118.296875 C 466.832031 118.296875 462.9375 114.402344 462.9375 109.597656 C 462.9375 104.792969 466.832031 100.898438 471.636719 100.898438 C 476.441406 100.898438 480.335938 104.792969 480.335938 109.597656 Z M 117.375 207.621094 C 117.375 212.425781 113.480469 216.324219 108.675781 216.324219 C 103.871094 216.324219 99.976562 212.425781 99.976562 207.621094 C 99.976562 202.816406 103.871094 198.921875 108.675781 198.921875 C 113.480469 198.921875 117.375 202.816406 117.375 207.621094 Z M 17.40625 571.304688 C 17.40625 576.109375 13.511719 580.003906 8.707031 580.003906 C 3.902344 580.003906 0.0078125 576.109375 0.0078125 571.304688 C 0.0078125 566.496094 3.902344 562.601562 8.707031 562.601562 C 13.511719 562.601562 17.40625 566.496094 17.40625 571.304688 Z M 17.40625 571.304688 " stroke="param(outline)" stroke-opacity="param(outline-opacity)" stroke-width="param(outline-width)"/>
</svg>
