<svg xmlns="http://www.w3.org/2000/svg" width="580" height="580">
  <path fill="param(fill)" fill-opacity="param(fill-opacity)" d="M 513.167969 39.78125 C 439.179688 92.582031 298.210938 86.246094 271.246094 181.863281 C 208.902344 114.878906 111.722656 94.058594 24.664062 71.605469 C 32.0625 229.179688 105.523438 238.621094 242.660156 291.988281 C 269.519531 321.199219 276.402344 348.550781 264.472656 385.679688 C 317.039062 391.457031 345.472656 403.199219 385.40625 417.105469 C 384.601562 335.917969 356.925781 293.710938 299.855469 218.824219 C 312.382812 223.617188 350.808594 260.761719 363.949219 285.214844 C 487.898438 237.160156 531.199219 158.253906 513.167969 39.78125 Z M 204.109375 400.902344 C 135.132812 400.628906 74.929688 422.980469 24.640625 484.980469 C 213.90625 429.652344 355.425781 470.015625 559.207031 493.925781 C 424.476562 450.027344 304.921875 401.300781 204.109375 400.902344 Z M 315.171875 489.085938 C 202.707031 489.375 81.425781 510.3125 24.191406 560.609375 C 214.507812 530.464844 428.378906 528.429688 557.519531 554.984375 C 558.769531 514.953125 442.632812 488.757812 315.171875 489.085938 Z M 315.171875 489.085938 " stroke="param(outline)" stroke-opacity="param(outline-opacity)" stroke-width="param(outline-width)"/>
</svg>
