<svg xmlns="http://www.w3.org/2000/svg" width="580" height="580">
  <path fill="param(fill)" fill-opacity="param(fill-opacity)" d="M 221.1875 291.902344 C 208.222656 295.574219 194.921875 305.550781 187.347656 317.25 C 182.070312 325.390625 168.882812 338.355469 161.429688 342.828125 C 149.960938 349.59375 142.734375 351.542969 130.003906 351.660156 C 120.597656 351.660156 117.617188 351.203125 113.144531 349.136719 C 106.722656 346.15625 98.578125 338.355469 95.824219 332.507812 C 92.152344 324.824219 85.273438 322.417969 80.339844 327.003906 C 74.949219 332.050781 78.617188 342.601562 89.855469 354.074219 C 109.699219 374.261719 140.898438 375.753906 170.945312 357.96875 C 180.347656 352.351562 195.261719 338.011719 201.113281 328.835938 C 206.042969 321.035156 213.152344 314.847656 221.070312 311.175781 C 226.117188 308.886719 229.214844 308.195312 236.207031 308.195312 C 243.894531 308.195312 246.074219 308.769531 252.609375 311.980469 C 258.113281 314.621094 261.554688 317.371094 264.765625 321.5 C 267.289062 324.597656 269.355469 327.578125 269.355469 328.152344 C 269.355469 329.527344 275.890625 337.445312 284.265625 345.929688 C 293.441406 355.332031 301.703125 360.609375 313.972656 364.972656 C 338.289062 373.570312 361.226562 371.625 383.941406 359.007812 C 394.265625 353.273438 408.828125 339.507812 416.28125 328.617188 C 424.65625 316.117188 432.226562 310.839844 445.070312 308.660156 C 457.800781 306.363281 469.960938 310.605469 478.5625 320.125 C 480.742188 322.53125 483.722656 326.660156 484.980469 329.300781 C 490.027344 339.277344 502.183594 337.21875 502.183594 326.320312 C 502.183594 318.976562 487.847656 301.546875 477.414062 296.269531 C 461.359375 288.125 439.5625 288.351562 423.847656 296.84375 C 415.589844 301.433594 409.054688 307.625 401.253906 318.410156 C 377.855469 350.753906 345.515625 360.613281 313.050781 345.136719 C 303.875 340.777344 290.34375 327.816406 283.234375 316.460938 C 275.207031 303.613281 262.933594 294.554688 249.746094 291.570312 C 242.976562 289.953125 227.496094 290.179688 221.1875 291.902344 Z M 229.214844 210.128906 C 212.695312 211.851562 198.820312 220.453125 188.382812 235.246094 C 163.71875 270.574219 124.957031 282.382812 103.277344 261.285156 C 100.523438 258.644531 97.082031 254.058594 95.59375 251.191406 C 92.613281 245.457031 91.121094 244.421875 85.726562 244.421875 C 81.253906 244.421875 77.816406 248.09375 77.816406 252.683594 C 77.816406 257.503906 83.4375 267.363281 89.855469 273.671875 C 100.863281 284.679688 112.796875 289.386719 129.425781 289.269531 C 135.386719 289.269531 143.417969 288.46875 147.199219 287.4375 C 156.71875 284.914062 171.171875 277.917969 179.316406 271.609375 C 186.660156 265.988281 197.324219 254.519531 201.453125 247.753906 C 205.125 241.789062 214.644531 233.183594 220.953125 230.316406 C 228.523438 226.878906 243.660156 226.878906 251.121094 230.203125 C 258.347656 233.527344 264.425781 239.144531 268.4375 246.488281 C 270.386719 249.816406 276.925781 257.730469 283.003906 263.921875 C 292.636719 273.789062 295.273438 275.738281 304.910156 280.441406 C 318.441406 286.863281 328.652344 289.386719 342.757812 289.386719 C 360.535156 289.386719 374.183594 285.140625 389.785156 274.820312 C 398.386719 269.085938 410.886719 256.238281 416.738281 247.292969 C 421.441406 239.953125 427.636719 234.5625 435.664062 230.78125 C 444.265625 226.769531 457.570312 226.535156 466.054688 230.441406 C 473.167969 233.769531 480.851562 241.105469 484.40625 247.992188 C 487.386719 253.722656 488.878906 254.757812 494.273438 254.757812 C 498.746094 254.757812 502.183594 251.085938 502.183594 246.382812 C 502.183594 241.453125 496.679688 232.164062 489.335938 224.820312 C 471.675781 207.160156 440.136719 204.519531 419.144531 219.082031 C 413.757812 222.980469 406.304688 230.554688 402.402344 236.402344 C 379.921875 269.777344 345.398438 280.332031 312.136719 263.929688 C 304.335938 260.03125 301.46875 257.851562 294.359375 249.824219 C 289.65625 244.660156 284.492188 238.125 282.890625 235.257812 C 278.535156 227.691406 268.210938 218.398438 259.726562 214.617188 C 251.121094 210.703125 239.878906 209.097656 229.214844 210.128906 Z M 229.214844 210.128906 " stroke="param(outline)" stroke-opacity="param(outline-opacity)" stroke-width="param(outline-width)"/>
</svg>
