<svg xmlns="http://www.w3.org/2000/svg" width="580" height="580">
  <path fill="param(fill)" stroke-width="param(outline-width)" stroke-linecap="round" stroke-linejoin="round" stroke="param(outline)" stroke-opacity="param(outline-opacity)" d="M 12.755856 3.366011 C 12.756266 3.953351 12.280261 4.429618 11.692838 4.429585 C 11.105677 4.429732 10.629591 3.953464 10.629886 3.366221 C 10.629739 2.77906 11.105744 2.302794 11.692904 2.302647 C 12.280328 2.302679 12.756152 2.778768 12.755856 3.366011 Z M 12.755856 3.366011 " transform="rotate(235.635 244.277 268.432)scale(12.27667)" fill-opacity="param(fill-opacity)"/>
  <path fill="param(fill)" fill-opacity="param(fill-opacity)" d="M160.715 530.293C161.203 536.684 156.422 542.258 150.031 542.746 143.641 543.234 138.066 538.449 137.582 532.059 137.09 525.672 141.875 520.094 148.266 519.605 154.652 519.117 160.227 523.902 160.715 530.293ZM61.648 484.629C62.137 491.016 57.355 496.594 50.965 497.082 44.574 497.57 39 492.785 38.516 486.395 38.027 480.004 42.809 474.43 49.199 473.941 55.59 473.453 61.164 478.238 61.648 484.629ZM126.797 408.461C127.285 414.852 122.504 420.426 116.113 420.914 109.723 421.402 104.148 416.617 103.664 410.227 103.176 403.836 107.957 398.262 114.348 397.773 120.738 397.285 126.313 402.07 126.797 408.461ZM126.797 408.461" stroke="param(outline)" stroke-opacity="param(outline-opacity)" stroke-width="param(outline-width)"/>
  <path fill="param(fill)" fill-opacity="param(fill-opacity)" stroke-width="param(outline-width)" stroke-linecap="round" stroke-linejoin="round" stroke="param(outline)" stroke-opacity="param(outline-opacity)" d="M 6.745717 1071.396926 C 6.745717 1071.396926 6.994617 1069.891116 7.100095 1068.916754 C 7.205573 1067.942392 7.379064 1067.499479 7.379064 1066.790722 C 7.379064 1066.082204 6.745717 1066.082204 6.745717 1066.082204 C 6.745717 1066.082204 6.11237 1066.082204 6.11237 1066.790722 C 6.11237 1067.499479 6.28586 1067.942392 6.391338 1068.916754 C 6.497055 1069.891116 6.745717 1071.396926 6.745717 1071.396926 Z M 6.745717 1071.396926 " transform="translate(86.01 -16994.835)scale(16.36889)"/>
  <path fill="param(fill)" stroke-width="param(outline-width)" stroke-linecap="round" stroke-linejoin="round" stroke="param(outline)" stroke-opacity="param(outline-opacity)" d="M 12.756043 3.36605 C 12.756011 3.953473 12.280185 4.429477 11.693025 4.429624 C 11.105602 4.429592 10.629778 3.953503 10.62981 3.36608 C 10.629663 2.77892 11.105668 2.302654 11.693091 2.302686 C 12.280072 2.302802 12.756159 2.77907 12.756043 3.36605 Z M 12.756043 3.36605 " transform="rotate(235.635 349.052 109.673)scale(12.27667)" fill-opacity="param(fill-opacity)"/>
  <path fill="param(fill)" fill-opacity="param(fill-opacity)" d="M455.68 368.41C456.168 374.797 451.387 380.375 444.996 380.863 438.605 381.352 433.031 376.566 432.547 370.176 432.059 363.785 436.84 358.211 443.23 357.723 449.621 357.234 455.195 362.02 455.68 368.41ZM356.613 322.742C357.105 329.133 352.32 334.707 345.93 335.195 339.543 335.684 333.969 330.898 333.48 324.508 332.992 318.121 337.777 312.543 344.164 312.055 350.555 311.57 356.129 316.355 356.613 322.742ZM421.762 246.574C422.254 252.965 417.469 258.543 411.078 259.027 404.691 259.516 399.113 254.73 398.629 248.34 398.141 241.953 402.922 236.375 409.313 235.887 415.703 235.402 421.277 240.188 421.762 246.574ZM421.762 246.574" stroke="param(outline)" stroke-opacity="param(outline-opacity)" stroke-width="param(outline-width)"/>
  <path fill="param(fill)" fill-opacity="param(fill-opacity)" stroke-width="param(outline-width)" stroke-linecap="round" stroke-linejoin="round" stroke="param(outline)" stroke-opacity="param(outline-opacity)" d="M 6.745662 1071.397032 C 6.745662 1071.397032 6.994562 1069.891222 7.10004 1068.916622 C 7.205518 1067.94226 7.379009 1067.499346 7.379009 1066.79059 C 7.379009 1066.082071 6.745662 1066.082071 6.745662 1066.082071 C 6.745662 1066.082071 6.112553 1066.082071 6.112553 1066.79059 C 6.112553 1067.499346 6.285805 1067.94226 6.391522 1068.916622 C 6.497 1069.891222 6.745662 1071.397032 6.745662 1071.397032 Z M 6.745662 1071.397032 " transform="translate(380.976 -17156.72)scale(16.36889)"/>
  <path fill="param(fill)" stroke-width="param(outline-width)" stroke-linecap="round" stroke-linejoin="round" stroke="param(outline)" stroke-opacity="param(outline-opacity)" d="M 12.755786 3.366232 C 12.756196 3.953572 12.28037 4.429576 11.692947 4.429543 C 11.105524 4.429511 10.6297 3.953423 10.629995 3.366179 C 10.629586 2.778839 11.105591 2.302573 11.693014 2.302605 C 12.279995 2.302721 12.756082 2.778989 12.755786 3.366232 Z M 12.755786 3.366232 " transform="rotate(235.635 183.208 82.91)scale(12.27667)" fill-opacity="param(fill-opacity)"/>
  <path fill="param(fill)" fill-opacity="param(fill-opacity)" d="M218.316 189.641C218.805 196.031 214.023 201.609 207.633 202.094 201.242 202.582 195.668 197.797 195.184 191.406 194.695 185.02 199.477 179.441 205.867 178.953 212.258 178.469 217.832 183.254 218.316 189.641ZM119.25 143.977C119.742 150.367 114.957 155.941 108.566 156.43 102.18 156.918 96.605 152.133 96.117 145.742 95.629 139.352 100.414 133.777 106.801 133.289 113.191 132.801 118.766 137.586 119.25 143.977ZM184.398 67.809C184.891 74.199 180.105 79.773 173.715 80.262 167.328 80.75 161.754 75.965 161.266 69.574 160.777 63.184 165.559 57.609 171.949 57.121 178.34 56.633 183.914 61.418 184.398 67.809ZM184.398 67.809" stroke="param(outline)" stroke-opacity="param(outline-opacity)" stroke-width="param(outline-width)"/>
  <path fill="param(fill)" fill-opacity="param(fill-opacity)" stroke-width="param(outline-width)" stroke-linecap="round" stroke-linejoin="round" stroke="param(outline)" stroke-opacity="param(outline-opacity)" d="M 6.745644 1071.397114 C 6.745644 1071.397114 6.994545 1069.891304 7.100023 1068.916704 C 7.20574 1067.942342 7.378991 1067.499428 7.378991 1066.790672 C 7.378991 1066.082153 6.745644 1066.082153 6.745644 1066.082153 C 6.745644 1066.082153 6.112536 1066.082153 6.112536 1066.790672 C 6.112536 1067.499428 6.285788 1067.942342 6.391505 1068.916704 C 6.496983 1069.891304 6.745644 1071.397114 6.745644 1071.397114 Z M 6.745644 1071.397114 " transform="translate(143.613 -17335.486)scale(16.36889)"/>
</svg>
