<svg xmlns="http://www.w3.org/2000/svg" width="580" height="580">
  <path fill="param(fill)" fill-opacity="param(fill-opacity)" d="M140.512 136.156C150.863 136.156 159.641 132.555 166.852 125.352 174.059 118.148 177.664 109.594 177.664 99.684 177.664 89.32 174.059 80.539 166.852 73.336 159.641 66.133 150.863 62.531 140.512 62.531 130.602 62.531 122.043 66.133 114.836 73.336 107.625 80.539 104.02 89.32 104.02 99.684 104.02 109.594 107.625 118.148 114.836 125.352 122.043 132.555 130.602 136.156 140.512 136.156ZM456.527 135.496C466.438 135.496 474.996 131.891 482.207 124.684 489.414 117.473 493.02 108.914 493.02 99.004 493.02 88.656 489.414 79.988 482.207 73.008 474.996 66.023 466.438 62.531 456.527 62.531 446.617 62.531 438.063 66.023 430.859 73.008 423.656 79.988 420.055 88.656 420.055 99.004 420.055 108.914 423.656 117.473 430.859 124.684 438.063 131.891 446.617 135.496 456.527 135.496ZM538.625 157.441C529.844 147.762 518.469 142.918 504.504 142.918L407.895 142.918C394.836 142.918 383.688 147.539 374.453 156.773 365.215 166.012 360.598 177.383 360.598 190.895L360.598 303.031C360.598 313.848 365.555 319.258 375.465 319.258 384.918 319.258 389.648 313.848 389.648 303.031L389.648 193.594 407.215 193.594 407.215 490.852C407.215 504.363 413.969 511.117 427.48 511.117 440.992 511.117 447.746 504.363 447.746 490.852L447.746 318.574 465.313 318.574 465.313 490.852C465.313 504.363 472.066 511.117 485.578 511.117 499.543 511.117 506.523 504.363 506.527 490.852L506.527 193.594 523.41 193.594 523.41 303.031C523.41 314.285 528.141 319.914 537.598 319.914 547.066 319.914 551.801 314.285 551.801 303.031L551.801 191.555C551.801 178.496 547.406 167.129 538.625 157.441ZM222.918 176.711C220.664 169.492 215.488 162.512 207.395 155.762 197.484 147.652 186.676 143.598 174.965 143.598L102.68 143.598C91.41 143.598 81.273 147.652 72.27 155.762 65.508 162.059 61.008 169.039 58.766 176.711L27.676 280.063C26.781 282.316 26.336 284.344 26.336 286.145 26.336 296.508 31.512 301.691 41.863 301.691 49.078 301.691 53.813 297.637 56.066 289.527L84.438 194.934 99.961 194.934 53.344 363.148 98.617 363.148 98.617 494.211C98.617 505.922 104.246 511.777 115.504 511.777 126.762 511.777 132.391 505.922 132.391 494.211L132.391 362.488 149.297 362.488 149.297 494.891C149.297 506.148 154.922 511.777 166.18 511.777 177.438 511.777 183.066 506.148 183.066 494.891L183.066 363.148 228.32 363.148 181.043 194.934 197.25 194.934 225.617 289.527C227.871 297.637 232.602 301.691 239.805 301.691 250.164 301.691 255.348 296.508 255.348 286.145 255.348 283.891 254.902 281.863 254.008 280.063ZM282.645 61.172 318.457 61.172 318.457 512.457 282.645 512.457ZM282.645 61.172" stroke="param(outline)" stroke-opacity="param(outline-opacity)" stroke-width="param(outline-width)"/>
</svg>
