<?xml version="1.0" standalone="no"?>
<!DOCTYPE svg PUBLIC "-//W3C//DTD SVG 1.1//EN" "http://www.w3.org/Graphics/SVG/1.1/DTD/svg11.dtd">
<svg xmlns="http://www.w3.org/2000/svg" xmlns:inkscape="http://www.inkscape.org/namespaces/inkscape" xmlns:xlink="http://www.w3.org/1999/xlink" viewBox = "0 0 1411 957" version = "1.1">
<!-- svg generated using QGIS www.qgis.org -->
<g id="lines" inkscape:groupmode="layer" inkscape:label="lines">
<g stroke="rgb(255,158,23)" fill="none" stroke-linejoin="round" stroke-width="0.40">
<g id="lines_1" inkscape:label="NULL">
<path d="M 1183,618 L 1183,610 L 1191,608 L 1199,610 L 1199,618 L 1191,621 L 1183,618 "/>
</g>
<g id="lines_2" inkscape:label="NULL">
<path d="M 1191,594 L 1199,590 L 1207,594 L 1199,598 L 1191,594 "/>
</g>
<g id="lines_3" inkscape:label="NULL">
<path d="M 960,356 L 968,348 L 976,356 L 968,358 L 960,356 "/>
</g>
<g id="lines_4" inkscape:label="NULL">
<path d="M 968,348 L 976,340 L 984,348 L 976,356 L 968,348 "/>
</g>
<g id="lines_5" inkscape:label="NULL">
<path d="M 976,356 L 984,348 L 988,356 L 984,360 L 976,356 "/>
</g>
<g id="lines_6" inkscape:label="NULL">
<path d="M 1018,356 L 1020,348 L 1016,340 L 1024,337 L 1032,340 L 1032,348 L 1032,356 L 1024,364 L 1018,356 "/>
</g>
<g id="lines_7" inkscape:label="NULL">
<path d="M 1030,372 L 1032,364 L 1040,360 L 1048,364 L 1056,372 L 1048,377 L 1040,374 L 1032,373 L 1030,372 "/>
</g>
<g id="lines_8" inkscape:label="NULL">
<path d="M 1056,372 L 1060,364 L 1064,360 L 1071,364 L 1071,372 L 1064,373 L 1056,372 "/>
</g>
<g id="lines_9" inkscape:label="NULL">
<path d="M 1071,276 L 1071,268 L 1079,266 L 1082,268 L 1083,276 L 1079,280 L 1071,276 "/>
</g>
<g id="lines_10" inkscape:label="NULL">
<path d="M 1103,356 L 1111,348 L 1119,356 L 1111,358 L 1103,356 "/>
</g>
<g id="lines_11" inkscape:label="NULL">
<path d="M 1107,340 L 1111,332 L 1115,340 L 1111,348 L 1107,340 "/>
</g>
<g id="lines_12" inkscape:label="NULL">
<path d="M 1111,348 L 1119,344 L 1127,340 L 1135,348 L 1127,352 L 1119,356 L 1111,348 "/>
</g>
<g id="lines_13" inkscape:label="NULL">
<path d="M 1146,379 L 1147,372 L 1151,364 L 1159,361 L 1167,361 L 1175,364 L 1167,372 L 1175,379 L 1167,387 L 1159,387 L 1151,385 L 1146,379 "/>
</g>
<g id="lines_14" inkscape:label="NULL">
<path d="M 1143,324 L 1151,320 L 1159,316 L 1167,316 L 1175,316 L 1178,324 L 1183,332 L 1175,334 L 1167,334 L 1159,334 L 1156,332 L 1151,326 L 1143,324 "/>
</g>
<g id="lines_15" inkscape:label="NULL">
<path d="M 1147,308 L 1148,300 L 1151,292 L 1154,300 L 1159,305 L 1163,308 L 1159,316 L 1151,312 L 1147,308 "/>
</g>
<g id="lines_16" inkscape:label="NULL">
<path d="M 1175,586 L 1183,583 L 1191,578 L 1197,570 L 1197,563 L 1197,555 L 1199,552 L 1207,547 L 1215,548 L 1217,547 L 1223,543 L 1228,539 L 1231,535 L 1233,515 L 1231,512 L 1228,515 L 1227,523 L 1223,528 L 1219,531 L 1215,533 L 1207,536 L 1199,539 L 1191,534 L 1183,535 L 1175,535 L 1167,539 L 1164,547 L 1163,555 L 1163,563 L 1162,570 L 1167,578 L 1175,586 "/>
</g>
<g id="lines_17" inkscape:label="NULL">
<path d="M 1163,395 L 1167,387 L 1175,379 L 1179,387 L 1183,395 L 1175,403 L 1167,403 L 1163,395 "/>
</g>
<g id="lines_18" inkscape:label="NULL">
<path d="M 1159,292 L 1167,284 L 1175,276 L 1183,273 L 1188,276 L 1191,284 L 1194,292 L 1191,300 L 1183,304 L 1175,308 L 1167,300 L 1159,292 "/>
</g>
<g id="lines_19" inkscape:label="NULL">
<path d="M 1179,491 L 1183,488 L 1191,491 L 1183,499 L 1179,491 "/>
</g>
<g id="lines_20" inkscape:label="NULL">
<path d="M 1175,316 L 1183,312 L 1191,316 L 1183,318 L 1175,316 "/>
</g>
<g id="lines_21" inkscape:label="NULL">
</g>
<g id="lines_22" inkscape:label="NULL">
<path d="M 1191,316 L 1195,308 L 1199,300 L 1207,304 L 1215,308 L 1207,313 L 1203,316 L 1199,320 L 1191,316 "/>
</g>
<g id="lines_23" inkscape:label="NULL">
<path d="M 822,769 L 825,767 L 833,769 L 825,771 L 822,769 "/>
</g>
<g id="lines_24" inkscape:label="NULL">
<path d="M 900,133 L 904,130 L 912,133 L 904,134 L 900,133 "/>
</g>
<g id="lines_25" inkscape:label="NULL">
<path d="M 936,125 L 944,123 L 949,125 L 944,133 L 936,125 "/>
</g>
<g id="lines_26" inkscape:label="NULL">
<path d="M 956,141 L 960,137 L 968,137 L 973,141 L 968,146 L 960,144 L 956,141 "/>
</g>
<g id="lines_27" inkscape:label="NULL">
<path d="M 968,165 L 968,157 L 976,149 L 984,145 L 988,149 L 992,151 L 996,149 L 1000,146 L 1004,149 L 1008,153 L 1012,157 L 1016,161 L 1020,165 L 1024,173 L 1016,181 L 1010,188 L 1008,192 L 1003,188 L 1000,187 L 992,182 L 988,181 L 992,177 L 996,173 L 996,165 L 992,162 L 988,165 L 984,173 L 976,173 L 968,165 "/>
</g>
<g id="lines_28" inkscape:label="NULL">
<path d="M 1004,403 L 1008,395 L 1012,403 L 1008,411 L 1004,403 "/>
</g>
<g id="lines_29" inkscape:label="NULL">
<path d="M 1008,395 L 1016,394 L 1020,395 L 1016,399 L 1008,395 "/>
</g>
<g id="lines_30" inkscape:label="NULL">
<path d="M 1024,173 L 1026,165 L 1032,159 L 1034,157 L 1032,149 L 1030,141 L 1032,137 L 1034,133 L 1036,125 L 1040,122 L 1048,122 L 1056,125 L 1052,133 L 1056,141 L 1064,147 L 1068,149 L 1071,151 L 1075,149 L 1079,148 L 1083,149 L 1083,157 L 1081,165 L 1079,166 L 1071,171 L 1069,173 L 1064,174 L 1056,176 L 1048,181 L 1040,183 L 1032,181 L 1024,173 "/>
</g>
<g id="lines_31" inkscape:label="NULL">
<path d="M 1052,570 L 1056,563 L 1064,570 L 1056,578 L 1052,570 "/>
</g>
<g id="lines_32" inkscape:label="NULL">
<path d="M 1064,390 L 1071,391 L 1074,387 L 1073,379 L 1071,378 L 1068,379 L 1064,382 L 1060,387 L 1064,390 "/>
</g>
<g id="lines_33" inkscape:label="NULL">
<path d="M 1060,276 L 1056,268 L 1060,260 L 1056,252 L 1064,244 L 1071,236 L 1075,244 L 1079,252 L 1083,260 L 1087,262 L 1095,268 L 1103,273 L 1105,276 L 1103,279 L 1095,284 L 1095,292 L 1087,296 L 1079,297 L 1071,292 L 1069,284 L 1064,280 L 1060,276 "/>
</g>
<g id="lines_34" inkscape:label="NULL">
<path d="M 1079,340 L 1079,332 L 1079,340 L 1079,348 L 1079,340 "/>
</g>
<g id="lines_35" inkscape:label="NULL">
<path d="M 1125,674 L 1127,670 L 1135,666 L 1137,674 L 1135,678 L 1127,678 L 1125,674 "/>
</g>
<g id="lines_36" inkscape:label="NULL">
<path d="M 1131,451 L 1133,443 L 1133,435 L 1135,427 L 1143,435 L 1143,443 L 1140,451 L 1135,456 L 1131,451 "/>
</g>
<g id="lines_37" inkscape:label="NULL">
<path d="M 1151,352 L 1159,348 L 1151,340 L 1146,348 L 1151,352 "/>
</g>
<g id="lines_38" inkscape:label="NULL">
<path d="M 1175,565 L 1183,570 L 1191,570 L 1187,563 L 1189,555 L 1191,552 L 1194,547 L 1191,543 L 1183,543 L 1175,547 L 1171,555 L 1167,563 L 1175,565 "/>
</g>
<g id="lines_39" inkscape:label="NULL">
<path d="M 1166,443 L 1167,439 L 1171,443 L 1167,444 L 1166,443 "/>
</g>
<g id="lines_40" inkscape:label="NULL">
<path d="M 1188,674 L 1191,666 L 1199,674 L 1191,678 L 1188,674 "/>
</g>
<g id="lines_41" inkscape:label="NULL">
<path d="M 1199,260 L 1207,252 L 1215,252 L 1217,260 L 1215,268 L 1207,265 L 1199,260 "/>
</g>
<g id="lines_42" inkscape:label="NULL">
<path d="M 1223,411 L 1223,419 L 1223,427 L 1231,435 L 1223,427 L 1223,419 L 1223,411 L 1215,403 L 1223,411 "/>
</g>
<g id="lines_43" inkscape:label="NULL">
<path d="M 541,523 L 546,517 L 554,523 L 546,531 L 541,523 "/>
</g>
<g id="lines_44" inkscape:label="NULL">
<path d="M 607,793 L 610,785 L 613,793 L 610,795 L 607,793 "/>
</g>
<g id="lines_45" inkscape:label="NULL">
<path d="M 624,769 L 626,765 L 634,769 L 626,773 L 624,769 "/>
</g>
<g id="lines_46" inkscape:label="NULL">
<path d="M 630,777 L 634,769 L 642,777 L 634,785 L 630,777 "/>
</g>
<g id="lines_47" inkscape:label="NULL">
<path d="M 630,761 L 634,759 L 642,761 L 634,769 L 630,761 "/>
</g>
<g id="lines_48" inkscape:label="NULL">
<path d="M 634,769 L 642,761 L 650,769 L 642,777 L 634,769 "/>
</g>
<g id="lines_49" inkscape:label="NULL">
<path d="M 642,777 L 650,769 L 653,777 L 650,781 L 642,777 "/>
</g>
<g id="lines_50" inkscape:label="NULL">
<path d="M 650,730 L 658,722 L 666,730 L 658,738 L 650,730 "/>
</g>
<g id="lines_51" inkscape:label="NULL">
<path d="M 662,769 L 666,767 L 674,764 L 682,769 L 682,777 L 674,785 L 666,777 L 662,769 "/>
</g>
<g id="lines_52" inkscape:label="NULL">
<path d="M 682,722 L 689,714 L 697,722 L 689,730 L 682,722 "/>
</g>
<g id="lines_53" inkscape:label="NULL">
<path d="M 689,626 L 689,624 L 695,618 L 697,617 L 701,618 L 701,626 L 697,630 L 689,628 L 689,626 "/>
</g>
<g id="lines_54" inkscape:label="NULL">
<path d="M 721,777 L 721,785 L 721,777 "/>
</g>
<g id="lines_55" inkscape:label="NULL">
<path d="M 719,586 L 721,584 L 729,586 L 721,590 L 719,586 "/>
</g>
<g id="lines_56" inkscape:label="NULL">
<path d="M 727,578 L 729,577 L 730,578 L 729,586 L 727,578 "/>
</g>
<g id="lines_57" inkscape:label="NULL">
<path d="M 733,634 L 737,632 L 745,634 L 737,638 L 733,634 "/>
</g>
<g id="lines_58" inkscape:label="NULL">
<path d="M 757,706 L 761,698 L 769,702 L 773,706 L 769,714 L 761,710 L 757,706 "/>
</g>
<g id="lines_59" inkscape:label="NULL">
<path d="M 841,785 L 849,793 L 841,785 L 833,785 L 841,785 "/>
</g>
<g id="lines_60" inkscape:label="NULL">
<path d="M 825,364 L 833,361 L 837,364 L 833,368 L 825,364 "/>
</g>
<g id="lines_61" inkscape:label="NULL">
<path d="M 846,372 L 843,364 L 843,356 L 841,348 L 849,344 L 857,340 L 865,334 L 873,340 L 878,348 L 876,356 L 875,364 L 873,368 L 865,364 L 865,356 L 865,364 L 857,372 L 849,379 L 846,372 "/>
</g>
<g id="lines_62" inkscape:label="NULL">
<path d="M 849,754 L 857,752 L 857,754 L 857,756 L 849,754 "/>
</g>
<g id="lines_63" inkscape:label="NULL">
<path d="M 894,133 L 896,125 L 904,123 L 912,122 L 920,122 L 928,117 L 936,118 L 944,118 L 952,117 L 960,121 L 968,125 L 976,125 L 984,133 L 992,130 L 997,125 L 1000,121 L 1008,125 L 1012,133 L 1016,141 L 1024,138 L 1026,133 L 1029,125 L 1032,120 L 1034,117 L 1040,114 L 1048,113 L 1056,109 L 1064,113 L 1065,117 L 1064,125 L 1064,133 L 1068,141 L 1071,143 L 1079,143 L 1087,142 L 1094,149 L 1095,157 L 1091,165 L 1087,166 L 1079,171 L 1077,173 L 1071,179 L 1064,179 L 1060,181 L 1056,184 L 1048,188 L 1040,194 L 1032,193 L 1024,191 L 1020,188 L 1016,187 L 1015,188 L 1013,196 L 1016,200 L 1018,204 L 1016,212 L 1008,208 L 1000,207 L 996,204 L 995,196 L 992,188 L 984,188 L 976,183 L 973,181 L 968,177 L 964,173 L 960,169 L 956,165 L 955,157 L 956,149 L 952,146 L 944,146 L 936,143 L 934,141 L 928,137 L 920,137 L 912,138 L 904,138 L 896,137 L 894,133 "/>
</g>
<g id="lines_64" inkscape:label="NULL">
<path d="M 934,443 L 936,435 L 944,443 L 936,451 L 934,443 "/>
</g>
<g id="lines_65" inkscape:label="NULL">
<path d="M 948,173 L 952,170 L 955,173 L 952,177 L 948,173 "/>
</g>
<g id="lines_66" inkscape:label="NULL">
<path d="M 956,260 L 960,257 L 962,260 L 960,268 L 956,260 "/>
</g>
<g id="lines_67" inkscape:label="NULL">
<path d="M 973,252 L 976,248 L 980,252 L 976,260 L 973,252 "/>
</g>
<g id="lines_68" inkscape:label="NULL">
</g>
<g id="lines_69" inkscape:label="NULL">
<path d="M 981,292 L 984,284 L 992,280 L 995,284 L 1000,289 L 1003,292 L 1000,296 L 992,294 L 984,294 L 981,292 "/>
</g>
<g id="lines_70" inkscape:label="NULL">
<path d="M 976,125 L 984,120 L 988,125 L 984,133 L 976,125 "/>
</g>
<g id="lines_71" inkscape:label="NULL">
<path d="M 981,101 L 996,101 L 992,109 L 984,105 L 981,101 "/>
</g>
<g id="lines_72" inkscape:label="NULL">
<path d="M 1004,475 L 1008,467 L 1009,475 L 1008,477 L 1004,475 "/>
</g>
<g id="lines_73" inkscape:label="NULL">
<path d="M 1012,244 L 1016,236 L 1024,244 L 1016,252 L 1012,244 "/>
</g>
<g id="lines_74" inkscape:label="NULL">
<path d="M 1038,475 L 1040,472 L 1048,475 L 1040,483 L 1038,475 "/>
</g>
<g id="lines_75" inkscape:label="NULL">
<path d="M 1056,443 L 1064,435 L 1071,443 L 1064,451 L 1056,443 "/>
</g>
<g id="lines_76" inkscape:label="NULL">
<path d="M 1103,405 L 1111,411 L 1115,411 L 1119,413 L 1127,417 L 1135,419 L 1143,417 L 1147,419 L 1151,421 L 1153,419 L 1151,415 L 1149,411 L 1145,403 L 1143,402 L 1135,396 L 1127,395 L 1119,389 L 1111,387 L 1103,394 L 1102,395 L 1102,403 L 1103,405 "/>
</g>
<g id="lines_77" inkscape:label="NULL">
</g>
<g id="lines_78" inkscape:label="NULL">
<path d="M 232,642 L 236,634 L 244,642 L 236,645 L 232,642 "/>
</g>
<g id="lines_79" inkscape:label="NULL">
<path d="M 228,626 L 236,618 L 244,626 L 236,634 L 228,626 "/>
</g>
<g id="lines_80" inkscape:label="NULL">
<path d="M 241,650 L 244,642 L 248,650 L 244,651 L 241,650 "/>
</g>
<g id="lines_81" inkscape:label="NULL">
<path d="M 244,642 L 252,634 L 260,634 L 268,642 L 260,648 L 252,646 L 244,642 "/>
</g>
<g id="lines_82" inkscape:label="NULL">
<path d="M 264,650 L 268,642 L 272,650 L 268,653 L 264,650 "/>
</g>
<g id="lines_83" inkscape:label="NULL">
<path d="M 266,570 L 268,568 L 276,570 L 268,574 L 266,570 "/>
</g>
<g id="lines_84" inkscape:label="NULL">
<path d="M 272,586 L 276,578 L 284,582 L 286,586 L 284,594 L 276,594 L 272,586 "/>
</g>
<g id="lines_85" inkscape:label="NULL">
<path d="M 276,634 L 284,630 L 286,634 L 284,638 L 276,634 "/>
</g>
<g id="lines_86" inkscape:label="NULL">
<path d="M 296,658 L 300,654 L 304,658 L 300,666 L 296,658 "/>
</g>
<g id="lines_87" inkscape:label="NULL">
<path d="M 300,682 L 304,674 L 307,672 L 311,674 L 315,682 L 307,685 L 300,682 "/>
</g>
<g id="lines_88" inkscape:label="NULL">
<path d="M 304,634 L 304,626 L 307,624 L 311,626 L 310,634 L 307,638 L 304,634 "/>
</g>
<g id="lines_89" inkscape:label="NULL">
<path d="M 313,690 L 315,682 L 323,686 L 331,686 L 339,690 L 331,693 L 323,695 L 315,692 L 313,690 "/>
</g>
<g id="lines_90" inkscape:label="NULL">
<path d="M 315,650 L 323,642 L 327,650 L 323,658 L 315,650 "/>
</g>
<g id="lines_91" inkscape:label="NULL">
<path d="M 329,674 L 331,672 L 335,674 L 331,678 L 329,674 "/>
</g>
<g id="lines_92" inkscape:label="NULL">
<path d="M 323,642 L 331,634 L 335,642 L 331,646 L 323,642 "/>
</g>
<g id="lines_93" inkscape:label="NULL">
<path d="M 334,650 L 339,645 L 347,644 L 355,650 L 347,655 L 339,658 L 334,650 "/>
</g>
<g id="lines_94" inkscape:label="NULL">
<path d="M 331,634 L 339,626 L 340,634 L 339,638 L 331,634 "/>
</g>
<g id="lines_95" inkscape:label="NULL">
<path d="M 339,690 L 347,686 L 351,682 L 355,680 L 363,682 L 359,690 L 355,694 L 347,692 L 339,690 "/>
</g>
<g id="lines_96" inkscape:label="NULL">
<path d="M 355,650 L 363,646 L 371,646 L 379,650 L 371,654 L 363,656 L 355,650 "/>
</g>
<g id="lines_97" inkscape:label="NULL">
<path d="M 383,690 L 382,682 L 382,674 L 387,669 L 395,671 L 403,666 L 407,674 L 403,682 L 395,678 L 392,682 L 391,690 L 387,694 L 383,690 "/>
</g>
<g id="lines_98" inkscape:label="NULL">
<path d="M 400,706 L 403,698 L 411,706 L 403,708 L 400,706 "/>
</g>
<g id="lines_99" inkscape:label="NULL">
<path d="M 403,682 L 411,678 L 414,682 L 411,690 L 403,682 "/>
</g>
<g id="lines_100" inkscape:label="NULL">
<path d="M 411,690 L 419,687 L 420,690 L 419,698 L 411,690 "/>
</g>
<g id="lines_101" inkscape:label="NULL">
<path d="M 432,403 L 435,401 L 437,403 L 435,407 L 432,403 "/>
</g>
<g id="lines_102" inkscape:label="NULL">
<path d="M 457,570 L 459,563 L 467,555 L 475,557 L 477,555 L 475,551 L 471,547 L 475,539 L 480,531 L 477,523 L 477,515 L 475,512 L 471,507 L 471,499 L 470,491 L 473,483 L 475,480 L 483,475 L 491,473 L 498,469 L 506,472 L 509,475 L 514,480 L 516,483 L 522,491 L 530,499 L 538,503 L 540,499 L 546,493 L 548,491 L 549,483 L 548,475 L 546,471 L 544,467 L 538,461 L 537,459 L 538,451 L 542,443 L 546,442 L 554,441 L 562,435 L 570,427 L 578,427 L 586,435 L 591,443 L 594,446 L 599,451 L 600,459 L 596,467 L 602,474 L 610,475 L 611,483 L 611,491 L 610,499 L 610,507 L 614,515 L 610,519 L 607,523 L 605,531 L 610,539 L 612,547 L 612,555 L 613,563 L 616,570 L 618,574 L 620,578 L 618,582 L 615,586 L 610,590 L 602,588 L 594,588 L 592,586 L 586,582 L 578,581 L 570,581 L 562,581 L 554,581 L 546,582 L 538,580 L 530,582 L 522,581 L 514,582 L 506,581 L 498,580 L 491,580 L 487,578 L 483,572 L 477,578 L 475,579 L 471,578 L 467,576 L 459,572 L 457,570 "/>
</g>
<g id="lines_103" inkscape:label="NULL">
<path d="M 567,785 L 570,781 L 578,785 L 570,788 L 567,785 "/>
</g>
<g id="lines_104" inkscape:label="NULL">
<path d="M 687,292 L 689,284 L 692,292 L 689,300 L 687,292 "/>
</g>
<g id="lines_105" inkscape:label="NULL">
</g>
<g id="lines_106" inkscape:label="NULL">
<path d="M 719,738 L 718,746 L 721,750 L 729,748 L 731,746 L 729,743 L 724,738 L 721,734 L 713,730 L 719,738 "/>
</g>
<g id="lines_107" inkscape:label="NULL">
<path d="M 729,701 L 737,698 L 729,690 L 726,698 L 729,701 "/>
</g>
<g id="lines_108" inkscape:label="NULL">
<path d="M 724,196 L 729,191 L 737,196 L 729,198 L 724,196 "/>
</g>
<g id="lines_109" inkscape:label="NULL">
<path d="M 745,769 L 737,769 L 745,769 "/>
</g>
<g id="lines_110" inkscape:label="NULL">
<path d="M 745,732 L 748,730 L 748,722 L 745,719 L 741,722 L 737,730 L 745,732 "/>
</g>
<g id="lines_111" inkscape:label="NULL">
<path d="M 745,236 L 750,228 L 753,226 L 761,228 L 761,220 L 769,216 L 775,220 L 777,224 L 779,228 L 777,232 L 775,236 L 773,244 L 769,248 L 761,248 L 753,244 L 745,236 "/>
</g>
<g id="lines_112" inkscape:label="NULL">
<path d="M 760,395 L 761,393 L 765,387 L 769,382 L 773,379 L 777,376 L 781,372 L 785,364 L 789,372 L 793,376 L 797,379 L 793,387 L 785,389 L 777,395 L 769,400 L 761,399 L 760,395 "/>
</g>
<g id="lines_113" inkscape:label="NULL">
<path d="M 757,188 L 761,181 L 764,188 L 761,190 L 757,188 "/>
</g>
<g id="lines_114" inkscape:label="NULL">
<path d="M 807,443 L 809,435 L 813,443 L 809,444 L 807,443 "/>
</g>
<g id="lines_115" inkscape:label="NULL">
<path d="M 809,101 L 825,101 L 817,105 L 809,101 "/>
</g>
<g id="lines_116" inkscape:label="NULL">
<path d="M 837,260 L 841,257 L 845,260 L 841,262 L 837,260 "/>
</g>
<g id="lines_117" inkscape:label="NULL">
<path d="M 870,443 L 873,441 L 880,443 L 873,445 L 870,443 "/>
</g>
<g id="lines_118" inkscape:label="NULL">
<path d="M 878,499 L 880,496 L 884,499 L 880,502 L 878,499 "/>
</g>
<g id="lines_119" inkscape:label="NULL">
<path d="M 877,475 L 880,467 L 888,475 L 880,479 L 877,475 "/>
</g>
<g id="lines_120" inkscape:label="NULL">
<path d="M 886,507 L 888,503 L 896,507 L 888,509 L 886,507 "/>
</g>
<g id="lines_121" inkscape:label="NULL">
<path d="M 880,443 L 888,441 L 896,443 L 888,447 L 880,443 "/>
</g>
<g id="lines_122" inkscape:label="NULL">
<path d="M 892,499 L 896,495 L 900,499 L 896,507 L 892,499 "/>
</g>
<g id="lines_123" inkscape:label="NULL">
<path d="M 908,491 L 912,487 L 920,491 L 912,499 L 908,491 "/>
</g>
<g id="lines_124" inkscape:label="NULL">
<path d="M 912,531 L 912,523 L 918,515 L 916,507 L 912,499 L 920,491 L 928,499 L 928,507 L 932,515 L 928,523 L 923,531 L 920,533 L 912,531 "/>
</g>
<g id="lines_125" inkscape:label="NULL">
<path d="M 936,268 L 944,268 L 936,268 L 928,268 L 936,268 "/>
</g>
<g id="lines_126" inkscape:label="NULL">
<path d="M 936,257 L 944,258 L 952,255 L 955,252 L 960,250 L 967,244 L 968,242 L 971,236 L 968,228 L 968,220 L 968,212 L 960,212 L 952,212 L 944,220 L 946,228 L 944,230 L 936,235 L 935,236 L 931,244 L 930,252 L 936,257 "/>
</g>
<g id="lines_127" inkscape:label="NULL">
<path d="M 936,169 L 938,165 L 936,162 L 935,165 L 936,169 "/>
</g>
<g id="lines_128" inkscape:label="NULL">
</g>
<g id="lines_129" inkscape:label="NULL">
<path d="M 940,539 L 944,535 L 947,539 L 944,541 L 940,539 "/>
</g>
<g id="lines_130" inkscape:label="NULL">
</g>
<g id="lines_131" inkscape:label="NULL">
<path d="M 944,220 L 952,212 L 955,220 L 952,222 L 944,220 "/>
</g>
<g id="lines_132" inkscape:label="NULL">
<path d="M 960,105 L 965,101 L 960,97 L 955,101 L 960,105 "/>
</g>
<g id="lines_133" inkscape:label="NULL">
<path d="M 984,385 L 992,383 L 998,379 L 1000,376 L 1004,379 L 1008,381 L 1010,379 L 1009,372 L 1008,371 L 1000,371 L 992,370 L 986,372 L 984,373 L 977,379 L 984,385 "/>
</g>
<g id="lines_134" inkscape:label="NULL">
</g>
<g id="lines_135" inkscape:label="NULL">
</g>
<g id="lines_136" inkscape:label="NULL">
<path d="M 1103,478 L 1111,479 L 1115,475 L 1111,472 L 1103,471 L 1099,475 L 1103,478 "/>
</g>
<g id="lines_137" inkscape:label="NULL">
<path d="M 1111,763 L 1118,769 L 1119,771 L 1122,777 L 1127,784 L 1129,785 L 1135,791 L 1143,785 L 1151,793 L 1215,793 L 1223,793 L 1231,791 L 1236,785 L 1235,754 L 1231,758 L 1223,754 L 1215,746 L 1212,738 L 1211,730 L 1212,722 L 1207,716 L 1203,714 L 1199,711 L 1191,711 L 1183,706 L 1175,702 L 1172,698 L 1167,690 L 1159,694 L 1151,695 L 1143,698 L 1135,698 L 1133,706 L 1127,714 L 1126,722 L 1127,730 L 1126,738 L 1127,742 L 1131,746 L 1127,750 L 1119,754 L 1111,759 L 1110,761 L 1111,763 "/>
</g>
<g id="lines_138" inkscape:label="NULL">
<path d="M 1111,407 L 1119,407 L 1125,411 L 1127,413 L 1135,415 L 1141,411 L 1141,403 L 1135,399 L 1127,400 L 1124,395 L 1119,392 L 1111,390 L 1106,395 L 1107,403 L 1111,407 "/>
</g>
<g id="lines_139" inkscape:label="NULL">
<path d="M 1150,483 L 1151,484 L 1159,483 L 1152,475 L 1157,467 L 1159,465 L 1162,467 L 1167,469 L 1169,467 L 1172,459 L 1168,451 L 1167,450 L 1159,444 L 1154,451 L 1154,459 L 1151,463 L 1143,461 L 1137,467 L 1143,475 L 1150,483 "/>
</g>
<g id="lines_140" inkscape:label="NULL">
</g>
<g id="lines_141" inkscape:label="NULL">
<path d="M 170,698 L 170,690 L 172,686 L 180,690 L 176,698 L 172,702 L 170,698 "/>
</g>
<g id="lines_142" inkscape:label="NULL">
<path d="M 183,570 L 186,563 L 188,559 L 192,563 L 193,570 L 188,578 L 183,570 "/>
</g>
<g id="lines_143" inkscape:label="NULL">
<path d="M 204,650 L 212,650 L 220,650 L 212,642 L 204,650 L 196,650 L 204,650 "/>
</g>
<g id="lines_144" inkscape:label="NULL">
</g>
<g id="lines_145" inkscape:label="NULL">
<path d="M 223,682 L 220,679 L 217,682 L 220,690 L 223,682 "/>
</g>
<g id="lines_146" inkscape:label="NULL">
<path d="M 212,228 L 212,220 L 220,212 L 228,220 L 236,226 L 244,224 L 252,228 L 252,236 L 244,244 L 236,242 L 228,236 L 220,232 L 212,228 "/>
</g>
<g id="lines_147" inkscape:label="NULL">
<path d="M 236,660 L 244,658 L 236,656 L 232,658 L 236,660 "/>
</g>
<g id="lines_148" inkscape:label="NULL">
<path d="M 236,260 L 244,256 L 252,260 L 244,268 L 236,260 "/>
</g>
<g id="lines_149" inkscape:label="NULL">
<path d="M 288,706 L 292,698 L 296,706 L 292,707 L 288,706 "/>
</g>
<g id="lines_150" inkscape:label="NULL">
<path d="M 284,244 L 292,236 L 294,244 L 292,248 L 284,244 "/>
</g>
<g id="lines_151" inkscape:label="NULL">
<path d="M 296,252 L 300,250 L 304,252 L 300,256 L 296,252 "/>
</g>
<g id="lines_152" inkscape:label="NULL">
<path d="M 323,669 L 329,666 L 323,664 L 318,666 L 323,669 "/>
</g>
<g id="lines_153" inkscape:label="NULL">
<path d="M 315,260 L 323,252 L 331,260 L 323,264 L 315,260 "/>
</g>
<g id="lines_154" inkscape:label="NULL">
<path d="M 331,292 L 339,288 L 347,292 L 339,300 L 331,292 "/>
</g>
<g id="lines_155" inkscape:label="NULL">
<path d="M 331,268 L 339,264 L 347,268 L 339,273 L 331,268 "/>
</g>
<g id="lines_156" inkscape:label="NULL">
<path d="M 335,252 L 339,244 L 347,252 L 339,255 L 335,252 "/>
</g>
<g id="lines_157" inkscape:label="NULL">
<path d="M 345,228 L 343,220 L 347,218 L 355,220 L 358,228 L 355,232 L 347,236 L 345,228 "/>
</g>
<g id="lines_158" inkscape:label="NULL">
<path d="M 351,244 L 355,240 L 363,242 L 367,244 L 364,252 L 363,256 L 355,252 L 351,244 "/>
</g>
<g id="lines_159" inkscape:label="NULL">
<path d="M 355,594 L 355,586 L 363,584 L 368,586 L 371,590 L 373,594 L 371,596 L 363,600 L 355,594 "/>
</g>
<g id="lines_160" inkscape:label="NULL">
<path d="M 355,220 L 363,218 L 371,220 L 363,223 L 355,220 "/>
</g>
<g id="lines_161" inkscape:label="NULL">
<path d="M 384,570 L 387,563 L 395,555 L 400,563 L 403,565 L 411,563 L 415,570 L 419,578 L 411,583 L 403,582 L 397,578 L 395,577 L 387,574 L 384,570 "/>
</g>
<g id="lines_162" inkscape:label="NULL">
<path d="M 391,268 L 394,260 L 395,256 L 403,260 L 397,268 L 395,276 L 391,268 "/>
</g>
<g id="lines_163" inkscape:label="NULL">
<path d="M 398,252 L 403,247 L 411,252 L 403,260 L 398,252 "/>
</g>
<g id="lines_164" inkscape:label="NULL">
<path d="M 406,754 L 407,746 L 411,738 L 419,746 L 415,754 L 411,761 L 406,754 "/>
</g>
<g id="lines_165" inkscape:label="NULL">
<path d="M 409,419 L 411,417 L 419,413 L 422,411 L 419,407 L 416,403 L 411,398 L 409,395 L 411,391 L 415,387 L 419,383 L 427,379 L 431,387 L 435,391 L 443,394 L 444,395 L 451,402 L 459,402 L 460,403 L 467,411 L 464,419 L 463,427 L 459,431 L 451,433 L 447,435 L 443,439 L 439,435 L 435,434 L 428,427 L 427,426 L 419,427 L 411,421 L 409,419 "/>
</g>
<g id="lines_166" inkscape:label="NULL">
<path d="M 417,117 L 419,109 L 427,117 L 419,125 L 417,117 "/>
</g>
<g id="lines_167" inkscape:label="NULL">
<path d="M 423,634 L 427,633 L 435,632 L 443,634 L 440,642 L 443,644 L 451,642 L 459,650 L 457,658 L 459,666 L 453,674 L 451,677 L 443,677 L 439,674 L 443,666 L 435,661 L 427,658 L 428,650 L 430,642 L 427,638 L 423,634 "/>
</g>
<g id="lines_168" inkscape:label="NULL">
<path d="M 433,539 L 435,536 L 443,531 L 451,536 L 459,539 L 451,547 L 443,547 L 435,543 L 433,539 "/>
</g>
<g id="lines_169" inkscape:label="NULL">
<path d="M 431,252 L 435,247 L 439,244 L 442,236 L 441,228 L 443,226 L 451,228 L 451,236 L 451,244 L 451,252 L 445,260 L 443,268 L 435,260 L 431,252 "/>
</g>
<g id="lines_170" inkscape:label="NULL">
<path d="M 442,212 L 443,210 L 447,204 L 451,199 L 453,196 L 459,188 L 467,196 L 475,200 L 477,196 L 475,194 L 467,196 L 459,188 L 467,181 L 475,177 L 483,175 L 485,173 L 487,165 L 491,163 L 493,165 L 493,173 L 498,177 L 501,181 L 502,188 L 506,193 L 514,191 L 522,194 L 530,196 L 538,201 L 546,202 L 552,204 L 546,212 L 538,216 L 530,212 L 522,220 L 520,212 L 514,207 L 506,204 L 501,212 L 506,220 L 504,228 L 506,231 L 514,230 L 520,236 L 522,240 L 525,244 L 522,248 L 514,247 L 506,244 L 498,244 L 491,240 L 483,244 L 475,236 L 481,228 L 480,220 L 475,215 L 469,220 L 467,223 L 459,220 L 451,220 L 443,215 L 442,212 "/>
</g>
<g id="lines_171" inkscape:label="NULL">
<path d="M 443,451 L 451,443 L 459,443 L 467,443 L 475,451 L 483,443 L 487,451 L 491,455 L 496,459 L 498,461 L 506,466 L 508,467 L 514,473 L 516,475 L 521,483 L 522,485 L 527,491 L 530,494 L 538,496 L 543,491 L 544,483 L 541,475 L 538,471 L 536,467 L 530,460 L 529,459 L 522,453 L 521,451 L 522,443 L 525,435 L 530,427 L 538,433 L 546,433 L 552,427 L 554,425 L 562,419 L 562,411 L 570,403 L 574,411 L 578,415 L 586,419 L 594,425 L 602,427 L 594,435 L 600,443 L 602,445 L 608,451 L 608,459 L 602,467 L 610,463 L 613,467 L 618,472 L 621,475 L 622,483 L 618,491 L 616,499 L 617,507 L 618,509 L 624,515 L 618,520 L 615,523 L 612,531 L 618,537 L 622,539 L 621,547 L 618,552 L 617,555 L 618,563 L 622,570 L 626,575 L 631,578 L 630,586 L 628,594 L 631,602 L 634,605 L 637,610 L 634,616 L 630,618 L 628,626 L 634,634 L 642,630 L 650,634 L 650,642 L 642,650 L 634,655 L 631,650 L 626,646 L 618,646 L 614,642 L 610,638 L 602,638 L 594,634 L 598,626 L 594,624 L 589,618 L 586,610 L 578,608 L 570,610 L 562,608 L 554,605 L 546,602 L 538,594 L 530,590 L 522,589 L 514,588 L 510,586 L 506,586 L 498,585 L 491,584 L 483,582 L 475,584 L 467,583 L 459,584 L 453,578 L 451,570 L 452,563 L 452,555 L 451,547 L 459,539 L 467,537 L 471,531 L 468,523 L 467,519 L 463,515 L 459,511 L 451,507 L 451,499 L 453,491 L 459,486 L 467,483 L 467,475 L 463,467 L 459,459 L 451,454 L 443,451 "/>
</g>
<g id="lines_172" inkscape:label="NULL">
<path d="M 451,642 L 459,639 L 463,642 L 459,650 L 451,642 "/>
</g>
<g id="lines_173" inkscape:label="NULL">
<path d="M 451,626 L 459,620 L 463,618 L 467,617 L 475,617 L 483,617 L 491,614 L 493,618 L 498,622 L 506,622 L 514,626 L 522,631 L 526,634 L 522,637 L 514,638 L 506,636 L 504,634 L 498,631 L 493,634 L 491,638 L 483,634 L 475,642 L 467,638 L 464,634 L 459,631 L 451,626 "/>
</g>
<g id="lines_174" inkscape:label="NULL">
<path d="M 459,666 L 467,660 L 475,666 L 467,672 L 459,666 "/>
</g>
<g id="lines_175" inkscape:label="NULL">
<path d="M 459,236 L 467,232 L 475,236 L 467,244 L 459,236 "/>
</g>
<g id="lines_176" inkscape:label="NULL">
<path d="M 467,706 L 467,698 L 467,690 L 469,682 L 471,674 L 475,666 L 479,674 L 483,678 L 491,678 L 498,682 L 491,686 L 487,690 L 483,693 L 477,698 L 478,706 L 475,709 L 467,706 "/>
</g>
<g id="lines_177" inkscape:label="NULL">
<path d="M 467,650 L 475,642 L 479,650 L 475,654 L 467,650 "/>
</g>
<g id="lines_178" inkscape:label="NULL">
<path d="M 467,244 L 475,236 L 483,244 L 475,247 L 467,244 "/>
</g>
<g id="lines_179" inkscape:label="NULL">
<path d="M 475,642 L 483,634 L 487,642 L 483,645 L 475,642 "/>
</g>
<g id="lines_180" inkscape:label="NULL">
</g>
<g id="lines_181" inkscape:label="NULL">
<path d="M 495,674 L 498,672 L 506,669 L 508,666 L 514,662 L 522,658 L 530,666 L 526,674 L 522,682 L 514,682 L 506,682 L 498,682 L 495,674 "/>
</g>
<g id="lines_182" inkscape:label="NULL">
<path d="M 504,260 L 501,252 L 506,244 L 510,252 L 514,257 L 517,260 L 514,263 L 506,268 L 504,260 "/>
</g>
<g id="lines_183" inkscape:label="NULL">
<path d="M 520,722 L 518,714 L 514,706 L 522,702 L 530,706 L 530,714 L 525,722 L 522,730 L 520,722 "/>
</g>
<g id="lines_184" inkscape:label="NULL">
<path d="M 528,690 L 522,682 L 530,678 L 532,682 L 533,690 L 530,698 L 528,690 "/>
</g>
<g id="lines_185" inkscape:label="NULL">
<path d="M 522,658 L 524,650 L 530,642 L 536,650 L 538,658 L 530,666 L 522,658 "/>
</g>
<g id="lines_186" inkscape:label="NULL">
<path d="M 536,276 L 538,268 L 546,276 L 538,284 L 536,276 "/>
</g>
<g id="lines_187" inkscape:label="NULL">
<path d="M 538,284 L 546,276 L 554,279 L 558,284 L 554,292 L 546,289 L 538,284 "/>
</g>
<g id="lines_188" inkscape:label="NULL">
<path d="M 554,730 L 562,727 L 566,730 L 562,738 L 554,730 "/>
</g>
<g id="lines_189" inkscape:label="NULL">
<path d="M 570,586 L 562,586 L 570,586 "/>
</g>
<g id="lines_190" inkscape:label="NULL">
<path d="M 560,308 L 562,305 L 570,308 L 562,316 L 560,308 "/>
</g>
<g id="lines_191" inkscape:label="NULL">
<path d="M 566,698 L 570,694 L 574,698 L 570,700 L 566,698 "/>
</g>
<g id="lines_192" inkscape:label="NULL">
<path d="M 570,403 L 578,399 L 586,403 L 578,407 L 570,403 "/>
</g>
<g id="lines_193" inkscape:label="NULL">
<path d="M 584,714 L 586,706 L 594,709 L 602,712 L 606,714 L 602,718 L 594,719 L 586,716 L 584,714 "/>
</g>
<g id="lines_194" inkscape:label="NULL">
<path d="M 586,597 L 590,594 L 586,592 L 584,594 L 586,597 "/>
</g>
<g id="lines_195" inkscape:label="NULL">
<path d="M 578,292 L 586,290 L 594,290 L 597,292 L 594,300 L 586,295 L 578,292 "/>
</g>
<g id="lines_196" inkscape:label="NULL">
<path d="M 610,606 L 613,602 L 610,600 L 607,602 L 602,610 L 610,606 "/>
</g>
<g id="lines_197" inkscape:label="NULL">
<path d="M 597,348 L 597,340 L 599,332 L 602,326 L 606,324 L 602,322 L 594,316 L 594,308 L 602,300 L 610,308 L 618,304 L 621,300 L 625,292 L 626,289 L 634,292 L 642,300 L 650,298 L 658,297 L 662,300 L 666,303 L 668,300 L 674,292 L 668,284 L 671,276 L 674,275 L 682,273 L 689,268 L 697,272 L 701,276 L 702,284 L 702,292 L 704,300 L 705,302 L 709,308 L 713,316 L 721,320 L 727,324 L 721,332 L 716,340 L 713,348 L 709,340 L 705,332 L 697,328 L 695,324 L 689,318 L 686,316 L 682,313 L 674,316 L 666,316 L 668,324 L 670,332 L 666,340 L 663,332 L 658,326 L 654,324 L 650,316 L 642,318 L 634,324 L 630,316 L 626,312 L 623,316 L 618,322 L 614,324 L 613,332 L 610,340 L 616,348 L 610,352 L 602,353 L 597,348 "/>
</g>
<g id="lines_198" inkscape:label="NULL">
<path d="M 599,228 L 602,224 L 606,228 L 602,231 L 599,228 "/>
</g>
<g id="lines_199" inkscape:label="NULL">
<path d="M 606,722 L 610,718 L 618,722 L 610,730 L 606,722 "/>
</g>
<g id="lines_200" inkscape:label="NULL">
<path d="M 614,419 L 618,415 L 622,419 L 618,423 L 614,419 "/>
</g>
<g id="lines_201" inkscape:label="NULL">
<path d="M 624,236 L 626,235 L 634,232 L 642,234 L 643,236 L 642,238 L 634,240 L 626,238 L 624,236 "/>
</g>
<g id="lines_202" inkscape:label="NULL">
<path d="M 630,483 L 634,479 L 642,481 L 643,483 L 642,486 L 634,491 L 630,483 "/>
</g>
<g id="lines_203" inkscape:label="NULL">
<path d="M 630,276 L 634,272 L 642,272 L 646,276 L 644,284 L 642,287 L 638,284 L 634,280 L 630,276 "/>
</g>
<g id="lines_204" inkscape:label="NULL">
<path d="M 628,133 L 634,130 L 642,133 L 634,138 L 628,133 "/>
</g>
<g id="lines_205" inkscape:label="NULL">
<path d="M 636,149 L 638,141 L 642,133 L 650,133 L 655,141 L 658,149 L 650,152 L 642,152 L 636,149 "/>
</g>
<g id="lines_206" inkscape:label="NULL">
<path d="M 645,220 L 650,216 L 658,216 L 663,212 L 666,210 L 674,204 L 679,212 L 675,220 L 674,224 L 670,228 L 666,230 L 658,232 L 650,228 L 645,220 "/>
</g>
<g id="lines_207" inkscape:label="NULL">
<path d="M 674,204 L 682,199 L 686,196 L 689,194 L 697,192 L 705,194 L 713,196 L 705,200 L 697,202 L 693,204 L 689,206 L 682,210 L 674,204 "/>
</g>
<g id="lines_208" inkscape:label="NULL">
<path d="M 680,181 L 682,179 L 684,181 L 682,183 L 680,181 "/>
</g>
<g id="lines_209" inkscape:label="NULL">
<path d="M 688,260 L 689,256 L 692,260 L 689,268 L 688,260 "/>
</g>
<g id="lines_210" inkscape:label="NULL">
<path d="M 687,173 L 689,169 L 693,173 L 689,175 L 687,173 "/>
</g>
<g id="lines_211" inkscape:label="NULL">
<path d="M 695,547 L 697,543 L 705,547 L 697,548 L 695,547 "/>
</g>
<g id="lines_212" inkscape:label="NULL">
<path d="M 697,181 L 705,177 L 708,181 L 705,183 L 697,181 "/>
</g>
<g id="lines_213" inkscape:label="NULL">
<path d="M 705,252 L 713,248 L 721,252 L 713,260 L 705,252 "/>
</g>
<g id="lines_214" inkscape:label="NULL">
<path d="M 711,157 L 713,149 L 717,157 L 713,165 L 711,157 "/>
</g>
<g id="lines_215" inkscape:label="NULL">
<path d="M 721,411 L 729,407 L 737,411 L 729,414 L 721,411 "/>
</g>
<g id="lines_216" inkscape:label="NULL">
<path d="M 721,149 L 721,141 L 729,137 L 737,141 L 737,149 L 729,151 L 721,149 "/>
</g>
<g id="lines_217" inkscape:label="NULL">
<path d="M 741,555 L 745,551 L 753,551 L 761,552 L 769,555 L 769,563 L 777,570 L 769,576 L 761,578 L 758,570 L 753,563 L 745,563 L 741,555 "/>
</g>
<g id="lines_218" inkscape:label="NULL">
<path d="M 737,149 L 745,141 L 749,149 L 745,157 L 737,149 "/>
</g>
<g id="lines_219" inkscape:label="NULL">
<path d="M 745,133 L 753,129 L 761,133 L 753,141 L 745,133 "/>
</g>
<g id="lines_220" inkscape:label="NULL">
<path d="M 777,276 L 785,284 L 793,286 L 796,284 L 801,276 L 809,271 L 813,268 L 817,264 L 820,260 L 825,255 L 830,252 L 825,244 L 817,244 L 809,244 L 809,252 L 801,255 L 797,260 L 793,263 L 785,264 L 777,265 L 775,268 L 769,276 L 777,276 "/>
</g>
<g id="lines_221" inkscape:label="NULL">
<path d="M 789,459 L 793,451 L 801,459 L 793,462 L 789,459 "/>
</g>
<g id="lines_222" inkscape:label="NULL">
</g>
<g id="lines_223" inkscape:label="NULL">
<path d="M 841,125 L 833,125 L 841,125 "/>
</g>
<g id="lines_224" inkscape:label="NULL">
<path d="M 845,157 L 841,149 L 849,143 L 857,149 L 861,157 L 857,165 L 849,165 L 845,157 "/>
</g>
<g id="lines_225" inkscape:label="NULL">
<path d="M 873,431 L 880,427 L 884,419 L 888,415 L 892,419 L 896,422 L 904,427 L 912,422 L 916,419 L 912,411 L 904,403 L 904,395 L 912,387 L 904,387 L 904,395 L 904,403 L 900,411 L 896,415 L 892,411 L 888,409 L 880,409 L 873,403 L 865,405 L 860,411 L 863,419 L 865,427 L 873,431 "/>
</g>
<g id="lines_226" inkscape:label="NULL">
<path d="M 865,119 L 867,117 L 865,115 L 861,117 L 865,119 "/>
</g>
<g id="lines_227" inkscape:label="NULL">
<path d="M 888,220 L 890,212 L 888,210 L 884,212 L 880,216 L 878,220 L 880,228 L 888,220 "/>
</g>
<g id="lines_228" inkscape:label="NULL">
<path d="M 920,771 L 928,771 L 936,769 L 928,767 L 920,768 L 918,769 L 920,771 "/>
</g>
<g id="lines_229" inkscape:label="NULL">
<path d="M 928,206 L 930,204 L 928,202 L 927,204 L 928,206 "/>
</g>
<g id="lines_230" inkscape:label="NULL">
<path d="M 944,250 L 952,250 L 960,247 L 964,244 L 966,236 L 964,228 L 960,224 L 954,228 L 952,229 L 945,236 L 944,238 L 936,244 L 944,250 "/>
</g>
<g id="lines_231" inkscape:label="NULL">
<path d="M 952,778 L 953,777 L 952,776 L 948,777 L 952,778 "/>
</g>
<g id="lines_232" inkscape:label="NULL">
</g>
<g id="lines_233" inkscape:label="NULL">
<path d="M 992,581 L 1000,578 L 1002,570 L 1000,568 L 996,570 L 992,574 L 988,578 L 992,581 "/>
</g>
<g id="lines_234" inkscape:label="NULL">
</g>
<g id="lines_235" inkscape:label="NULL">
<path d="M 1016,717 L 1018,714 L 1016,711 L 1013,714 L 1016,717 "/>
</g>
<g id="lines_236" inkscape:label="NULL">
<path d="M 1016,105 L 1024,105 L 1026,101 L 1014,101 L 1016,105 "/>
</g>
<g id="lines_237" inkscape:label="NULL">
<path d="M 1061,714 L 1064,713 L 1068,714 L 1064,718 L 1061,714 "/>
</g>
<g id="lines_238" inkscape:label="NULL">
<path d="M 1074,722 L 1079,720 L 1085,722 L 1079,727 L 1074,722 "/>
</g>
<g id="lines_239" inkscape:label="NULL">
<path d="M 1111,402 L 1119,401 L 1121,395 L 1119,394 L 1111,393 L 1109,395 L 1111,402 "/>
</g>
<g id="lines_240" inkscape:label="NULL">
<path d="M 1127,779 L 1135,785 L 1140,777 L 1143,769 L 1151,764 L 1159,764 L 1164,769 L 1162,777 L 1159,781 L 1157,785 L 1159,793 L 1186,793 L 1183,785 L 1187,777 L 1191,775 L 1199,777 L 1207,783 L 1215,783 L 1223,780 L 1231,779 L 1232,777 L 1231,769 L 1223,773 L 1219,769 L 1215,765 L 1212,761 L 1208,754 L 1207,746 L 1201,738 L 1199,734 L 1196,730 L 1199,722 L 1191,720 L 1183,718 L 1175,718 L 1170,714 L 1167,710 L 1163,706 L 1159,704 L 1151,706 L 1143,706 L 1138,714 L 1137,722 L 1135,730 L 1134,738 L 1135,739 L 1143,746 L 1141,754 L 1143,761 L 1135,769 L 1127,769 L 1126,777 L 1127,779 "/>
</g>
<g id="lines_241" inkscape:label="NULL">
<path d="M 1138,403 L 1135,401 L 1130,403 L 1135,411 L 1138,403 "/>
</g>
<g id="lines_242" inkscape:label="NULL">
<path d="M 1143,471 L 1148,467 L 1143,464 L 1140,467 L 1143,471 "/>
</g>
<g id="lines_243" inkscape:label="NULL">
<path d="M 1159,457 L 1160,459 L 1167,465 L 1170,459 L 1167,453 L 1163,451 L 1159,448 L 1157,451 L 1159,457 "/>
</g>
<g id="lines_244" inkscape:label="NULL">
<path d="M 1207,229 L 1208,228 L 1207,226 L 1203,228 L 1207,229 "/>
</g>
<g id="lines_245" inkscape:label="NULL">
<path d="M 139,141 L 139,133 L 140,117 L 146,125 L 148,129 L 156,133 L 156,141 L 148,149 L 140,145 L 139,141 "/>
</g>
<g id="lines_246" inkscape:label="NULL">
<path d="M 151,793 L 148,785 L 156,781 L 159,785 L 160,793 L 156,797 L 151,793 "/>
</g>
<g id="lines_247" inkscape:label="NULL">
<path d="M 148,149 L 156,141 L 159,149 L 156,157 L 148,149 "/>
</g>
<g id="lines_248" inkscape:label="NULL">
<path d="M 152,125 L 148,117 L 148,109 L 156,106 L 164,108 L 166,109 L 168,117 L 168,125 L 172,133 L 164,135 L 156,133 L 152,125 "/>
</g>
<g id="lines_249" inkscape:label="NULL">
<path d="M 156,188 L 156,181 L 159,173 L 164,167 L 172,173 L 172,181 L 172,188 L 164,191 L 156,188 "/>
</g>
<g id="lines_250" inkscape:label="NULL">
<path d="M 156,157 L 164,154 L 168,157 L 164,161 L 156,157 "/>
</g>
<g id="lines_251" inkscape:label="NULL">
<path d="M 176,157 L 172,149 L 180,141 L 188,143 L 192,141 L 196,133 L 204,138 L 207,141 L 207,149 L 204,157 L 196,161 L 188,163 L 180,161 L 176,157 "/>
</g>
<g id="lines_252" inkscape:label="NULL">
<path d="M 193,324 L 196,321 L 198,324 L 196,332 L 193,324 "/>
</g>
<g id="lines_253" inkscape:label="NULL">
</g>
<g id="lines_254" inkscape:label="NULL">
<path d="M 228,196 L 236,192 L 244,196 L 236,199 L 228,196 "/>
</g>
<g id="lines_255" inkscape:label="NULL">
<path d="M 233,181 L 236,173 L 244,171 L 248,173 L 252,177 L 254,181 L 260,186 L 262,188 L 260,192 L 252,192 L 244,196 L 239,188 L 236,185 L 233,181 "/>
</g>
<g id="lines_256" inkscape:label="NULL">
<path d="M 282,173 L 284,169 L 292,165 L 300,173 L 296,181 L 292,185 L 286,181 L 284,177 L 282,173 "/>
</g>
<g id="lines_257" inkscape:label="NULL">
<path d="M 292,165 L 296,157 L 300,149 L 302,157 L 307,163 L 309,165 L 307,173 L 300,173 L 292,165 "/>
</g>
<g id="lines_258" inkscape:label="NULL">
<path d="M 321,746 L 323,738 L 325,746 L 323,750 L 321,746 "/>
</g>
<g id="lines_259" inkscape:label="NULL">
<path d="M 321,483 L 323,479 L 324,483 L 323,491 L 321,483 "/>
</g>
<g id="lines_260" inkscape:label="NULL">
</g>
<g id="lines_261" inkscape:label="NULL">
<path d="M 339,612 L 347,614 L 355,618 L 350,626 L 353,634 L 355,635 L 363,634 L 371,634 L 379,632 L 381,634 L 387,639 L 395,635 L 403,634 L 411,642 L 419,642 L 411,642 L 403,634 L 411,628 L 419,628 L 427,627 L 431,626 L 435,618 L 432,610 L 427,602 L 435,598 L 443,598 L 451,594 L 455,602 L 459,606 L 467,608 L 469,610 L 475,613 L 481,610 L 483,608 L 489,602 L 491,600 L 498,594 L 506,602 L 498,605 L 496,610 L 498,614 L 506,616 L 514,618 L 522,621 L 530,626 L 538,630 L 540,634 L 538,642 L 546,648 L 549,650 L 553,658 L 554,661 L 562,666 L 564,674 L 570,682 L 578,685 L 586,685 L 590,690 L 592,698 L 594,700 L 597,698 L 597,690 L 597,682 L 602,674 L 610,672 L 618,666 L 610,662 L 602,658 L 594,653 L 586,654 L 582,650 L 578,648 L 570,642 L 574,634 L 570,630 L 567,626 L 566,618 L 562,617 L 559,618 L 554,626 L 546,622 L 538,618 L 538,610 L 538,602 L 530,600 L 526,602 L 522,606 L 518,602 L 514,594 L 506,593 L 498,594 L 491,589 L 483,592 L 475,590 L 467,592 L 459,594 L 451,594 L 443,592 L 435,592 L 427,586 L 419,594 L 411,588 L 403,589 L 395,586 L 390,594 L 387,602 L 379,608 L 373,602 L 371,601 L 369,602 L 363,608 L 357,602 L 355,601 L 347,598 L 345,602 L 339,608 L 337,610 L 339,612 "/>
</g>
<g id="lines_262" inkscape:label="NULL">
<path d="M 375,276 L 379,268 L 387,263 L 389,260 L 391,252 L 392,244 L 395,240 L 397,236 L 403,228 L 411,236 L 414,244 L 418,252 L 416,260 L 414,268 L 411,270 L 403,272 L 401,276 L 403,284 L 395,292 L 387,288 L 379,284 L 375,276 "/>
</g>
<g id="lines_263" inkscape:label="NULL">
<path d="M 390,793 L 387,785 L 391,777 L 395,774 L 400,777 L 403,779 L 411,779 L 419,785 L 413,793 L 390,793 "/>
</g>
<g id="lines_264" inkscape:label="NULL">
<path d="M 395,196 L 403,193 L 411,188 L 412,196 L 411,197 L 403,201 L 395,196 "/>
</g>
<g id="lines_265" inkscape:label="NULL">
<path d="M 409,181 L 411,177 L 414,173 L 416,165 L 419,159 L 427,165 L 435,173 L 443,177 L 451,181 L 443,182 L 435,182 L 428,188 L 427,189 L 419,192 L 411,188 L 409,181 "/>
</g>
<g id="lines_266" inkscape:label="NULL">
<path d="M 408,133 L 409,125 L 409,117 L 409,109 L 407,101 L 419,96 L 427,97 L 432,101 L 435,109 L 443,106 L 445,109 L 451,117 L 443,125 L 435,133 L 427,134 L 419,138 L 411,141 L 408,133 "/>
</g>
<g id="lines_267" inkscape:label="NULL">
<path d="M 414,220 L 419,219 L 423,220 L 419,228 L 414,220 "/>
</g>
<g id="lines_268" inkscape:label="NULL">
<path d="M 419,785 L 427,781 L 435,785 L 427,788 L 419,785 "/>
</g>
<g id="lines_269" inkscape:label="NULL">
<path d="M 432,356 L 435,348 L 443,356 L 435,360 L 432,356 "/>
</g>
<g id="lines_270" inkscape:label="NULL">
<path d="M 435,133 L 443,125 L 451,130 L 455,133 L 451,141 L 443,141 L 435,133 "/>
</g>
<g id="lines_271" inkscape:label="NULL">
<path d="M 447,722 L 451,718 L 459,722 L 451,730 L 447,722 "/>
</g>
<g id="lines_272" inkscape:label="NULL">
</g>
<g id="lines_273" inkscape:label="NULL">
<path d="M 456,125 L 459,121 L 467,125 L 459,129 L 456,125 "/>
</g>
<g id="lines_274" inkscape:label="NULL">
<path d="M 459,141 L 463,133 L 467,125 L 469,133 L 475,138 L 476,141 L 475,143 L 467,145 L 459,141 "/>
</g>
<g id="lines_275" inkscape:label="NULL">
</g>
<g id="lines_276" inkscape:label="NULL">
<path d="M 538,780 L 546,777 L 538,773 L 530,777 L 530,785 L 538,780 "/>
</g>
<g id="lines_277" inkscape:label="NULL">
<path d="M 530,239 L 534,244 L 538,252 L 546,256 L 552,252 L 554,250 L 562,252 L 565,260 L 570,265 L 578,260 L 583,268 L 586,276 L 594,273 L 598,268 L 602,260 L 610,260 L 618,260 L 626,255 L 628,252 L 626,248 L 622,244 L 618,240 L 610,240 L 602,238 L 598,236 L 594,234 L 591,228 L 586,224 L 578,224 L 573,220 L 570,218 L 562,219 L 554,212 L 546,219 L 544,220 L 538,223 L 530,226 L 528,228 L 528,236 L 530,239 "/>
</g>
<g id="lines_278" inkscape:label="NULL">
<path d="M 554,706 L 554,714 L 554,706 L 554,698 L 546,698 L 554,706 "/>
</g>
<g id="lines_279" inkscape:label="NULL">
<path d="M 546,686 L 548,682 L 546,680 L 542,682 L 546,686 "/>
</g>
<g id="lines_280" inkscape:label="NULL">
<path d="M 545,379 L 546,377 L 554,379 L 546,382 L 545,379 "/>
</g>
<g id="lines_281" inkscape:label="NULL">
<path d="M 544,157 L 546,153 L 548,157 L 546,159 L 544,157 "/>
</g>
<g id="lines_282" inkscape:label="NULL">
<path d="M 550,220 L 554,212 L 558,220 L 554,223 L 550,220 "/>
</g>
<g id="lines_283" inkscape:label="NULL">
<path d="M 570,284 L 562,292 L 570,284 "/>
</g>
<g id="lines_284" inkscape:label="NULL">
<path d="M 570,724 L 576,730 L 578,732 L 582,738 L 586,740 L 594,739 L 595,738 L 596,730 L 594,726 L 586,726 L 578,722 L 574,714 L 570,712 L 567,714 L 567,722 L 570,724 "/>
</g>
<g id="lines_285" inkscape:label="NULL">
<path d="M 568,157 L 570,155 L 574,157 L 570,165 L 568,157 "/>
</g>
<g id="lines_286" inkscape:label="NULL">
<path d="M 566,133 L 570,130 L 578,130 L 581,133 L 582,141 L 586,146 L 588,149 L 594,155 L 597,157 L 594,165 L 594,173 L 586,179 L 578,178 L 575,173 L 578,169 L 583,165 L 582,157 L 578,153 L 576,149 L 573,141 L 570,137 L 566,133 "/>
</g>
<g id="lines_287" inkscape:label="NULL">
<path d="M 566,109 L 570,107 L 571,109 L 570,112 L 566,109 "/>
</g>
<g id="lines_288" inkscape:label="NULL">
<path d="M 581,666 L 586,661 L 590,666 L 586,671 L 581,666 "/>
</g>
<g id="lines_289" inkscape:label="NULL">
<path d="M 610,395 L 618,399 L 626,403 L 634,403 L 640,395 L 642,394 L 646,395 L 650,403 L 647,411 L 650,415 L 654,411 L 658,403 L 666,407 L 670,411 L 666,415 L 662,419 L 658,421 L 650,422 L 642,427 L 634,435 L 628,443 L 626,451 L 630,459 L 634,463 L 642,465 L 648,459 L 650,457 L 652,459 L 658,464 L 666,467 L 658,470 L 652,475 L 652,483 L 650,491 L 658,496 L 663,499 L 662,507 L 662,515 L 658,520 L 650,520 L 642,515 L 634,523 L 634,531 L 642,536 L 646,539 L 650,541 L 654,547 L 650,549 L 642,553 L 639,555 L 634,560 L 628,555 L 626,552 L 624,555 L 624,563 L 626,565 L 631,570 L 634,572 L 638,578 L 640,586 L 642,590 L 644,594 L 646,602 L 646,610 L 648,618 L 650,620 L 656,626 L 658,629 L 666,633 L 670,634 L 674,636 L 676,634 L 677,626 L 674,618 L 668,610 L 668,602 L 674,597 L 678,594 L 682,586 L 682,578 L 682,570 L 689,565 L 697,566 L 701,563 L 697,557 L 695,555 L 689,551 L 687,547 L 682,539 L 689,535 L 697,532 L 701,531 L 705,529 L 713,528 L 721,531 L 729,523 L 737,523 L 745,523 L 747,515 L 753,508 L 761,512 L 766,515 L 769,517 L 777,520 L 780,523 L 777,527 L 769,531 L 766,539 L 769,543 L 771,547 L 777,553 L 785,553 L 787,555 L 788,563 L 793,570 L 801,576 L 809,577 L 813,578 L 817,582 L 825,586 L 825,594 L 817,598 L 809,596 L 801,602 L 793,598 L 790,594 L 793,586 L 785,586 L 777,590 L 769,590 L 765,594 L 761,602 L 764,610 L 767,618 L 769,626 L 777,624 L 780,626 L 785,631 L 788,634 L 785,642 L 777,642 L 775,650 L 777,653 L 785,650 L 793,645 L 797,642 L 801,639 L 805,642 L 809,645 L 817,650 L 825,653 L 833,655 L 841,658 L 849,661 L 853,658 L 857,655 L 862,650 L 865,649 L 873,650 L 880,650 L 884,658 L 880,662 L 878,666 L 875,674 L 880,680 L 888,679 L 896,677 L 904,682 L 904,690 L 904,682 L 908,674 L 912,666 L 908,658 L 904,650 L 912,647 L 920,647 L 928,647 L 936,650 L 944,656 L 952,654 L 960,657 L 962,658 L 966,666 L 968,669 L 976,669 L 984,668 L 992,674 L 992,682 L 1000,685 L 1008,682 L 1014,690 L 1016,691 L 1024,690 L 1032,682 L 1037,690 L 1040,694 L 1044,698 L 1048,701 L 1056,705 L 1060,706 L 1064,707 L 1071,711 L 1078,714 L 1079,715 L 1087,719 L 1093,722 L 1095,723 L 1097,722 L 1096,714 L 1095,713 L 1090,706 L 1087,702 L 1082,698 L 1079,695 L 1074,690 L 1071,687 L 1064,682 L 1062,674 L 1056,671 L 1048,672 L 1040,671 L 1032,669 L 1030,666 L 1024,662 L 1020,658 L 1016,653 L 1014,650 L 1008,645 L 1002,642 L 1000,639 L 995,634 L 996,626 L 992,622 L 984,624 L 976,626 L 968,626 L 960,625 L 952,624 L 944,622 L 942,626 L 936,634 L 931,626 L 928,621 L 920,625 L 912,618 L 916,610 L 920,604 L 928,602 L 936,602 L 932,594 L 936,592 L 944,590 L 949,586 L 952,578 L 955,570 L 952,569 L 944,567 L 936,570 L 934,578 L 930,586 L 928,590 L 920,586 L 923,578 L 920,574 L 918,570 L 920,563 L 912,561 L 908,563 L 908,570 L 908,578 L 904,582 L 902,586 L 896,592 L 888,589 L 886,586 L 888,578 L 880,570 L 888,563 L 880,560 L 873,563 L 865,555 L 857,559 L 853,563 L 849,565 L 846,563 L 842,555 L 841,551 L 833,547 L 833,539 L 838,531 L 833,523 L 833,515 L 841,508 L 843,507 L 841,499 L 837,507 L 833,515 L 825,509 L 817,512 L 809,511 L 801,512 L 793,513 L 785,512 L 781,507 L 777,501 L 776,499 L 777,496 L 785,494 L 793,491 L 799,483 L 801,479 L 804,475 L 809,467 L 817,467 L 817,459 L 809,467 L 801,473 L 793,472 L 785,471 L 777,467 L 777,459 L 780,451 L 785,443 L 777,439 L 772,435 L 777,430 L 778,427 L 777,423 L 769,425 L 766,427 L 761,430 L 756,427 L 753,425 L 745,419 L 743,427 L 737,435 L 729,431 L 727,427 L 721,419 L 715,411 L 717,403 L 721,399 L 729,398 L 735,395 L 737,393 L 743,387 L 741,379 L 737,376 L 729,372 L 721,366 L 718,372 L 719,379 L 713,387 L 705,382 L 701,379 L 705,376 L 707,372 L 705,370 L 697,368 L 689,364 L 686,356 L 689,352 L 697,350 L 699,348 L 697,345 L 689,344 L 682,344 L 674,344 L 669,348 L 668,356 L 666,360 L 658,356 L 658,348 L 651,340 L 650,336 L 642,336 L 638,340 L 634,342 L 628,348 L 626,356 L 618,357 L 610,364 L 602,368 L 599,372 L 597,379 L 599,387 L 602,395 L 610,395 "/>
</g>
<g id="lines_290" inkscape:label="NULL">
<path d="M 594,188 L 602,186 L 610,188 L 602,191 L 594,188 "/>
</g>
<g id="lines_291" inkscape:label="NULL">
<path d="M 610,297 L 618,294 L 619,292 L 618,291 L 610,287 L 606,292 L 610,297 "/>
</g>
<g id="lines_292" inkscape:label="NULL">
<path d="M 632,698 L 634,700 L 642,706 L 642,698 L 634,694 L 626,690 L 626,682 L 626,690 L 632,698 "/>
</g>
<g id="lines_293" inkscape:label="NULL">
<path d="M 642,196 L 650,204 L 658,210 L 666,205 L 667,204 L 670,196 L 666,188 L 668,181 L 674,175 L 676,173 L 674,165 L 666,173 L 662,181 L 658,185 L 650,185 L 642,181 L 650,173 L 652,165 L 650,161 L 642,165 L 642,173 L 634,177 L 630,181 L 634,188 L 642,196 "/>
</g>
<g id="lines_294" inkscape:label="NULL">
<path d="M 650,250 L 652,252 L 658,258 L 666,260 L 666,268 L 674,270 L 679,268 L 674,260 L 667,252 L 670,244 L 666,240 L 658,242 L 650,239 L 644,244 L 642,252 L 650,250 "/>
</g>
<g id="lines_295" inkscape:label="NULL">
<path d="M 682,232 L 689,228 L 697,230 L 703,236 L 705,239 L 713,238 L 717,236 L 721,228 L 721,220 L 727,212 L 721,210 L 716,212 L 713,216 L 709,212 L 705,211 L 697,212 L 689,220 L 682,219 L 680,220 L 679,228 L 682,232 "/>
</g>
<g id="lines_296" inkscape:label="NULL">
<path d="M 701,228 L 705,220 L 713,224 L 721,228 L 713,232 L 705,232 L 701,228 "/>
</g>
<g id="lines_297" inkscape:label="NULL">
<path d="M 712,499 L 713,491 L 721,483 L 724,491 L 725,499 L 721,507 L 713,502 L 712,499 "/>
</g>
<g id="lines_298" inkscape:label="NULL">
<path d="M 713,296 L 719,300 L 717,308 L 721,311 L 729,312 L 737,316 L 735,308 L 729,303 L 725,300 L 729,296 L 731,292 L 729,289 L 721,288 L 713,284 L 710,292 L 713,296 "/>
</g>
<g id="lines_299" inkscape:label="NULL">
<path d="M 729,181 L 732,173 L 729,170 L 721,173 L 721,181 L 729,181 "/>
</g>
<g id="lines_300" inkscape:label="NULL">
<path d="M 721,515 L 721,507 L 729,504 L 737,505 L 741,507 L 741,515 L 737,523 L 729,523 L 721,515 "/>
</g>
<g id="lines_301" inkscape:label="NULL">
<path d="M 737,217 L 742,212 L 737,206 L 731,212 L 737,217 "/>
</g>
<g id="lines_302" inkscape:label="NULL">
<path d="M 761,309 L 764,308 L 761,300 L 757,308 L 761,309 "/>
</g>
<g id="lines_303" inkscape:label="NULL">
<path d="M 769,174 L 777,173 L 781,165 L 777,161 L 774,165 L 769,171 L 767,173 L 769,174 "/>
</g>
<g id="lines_304" inkscape:label="NULL">
<path d="M 822,539 L 825,531 L 833,539 L 825,541 L 822,539 "/>
</g>
<g id="lines_305" inkscape:label="NULL">
<path d="M 880,650 L 888,648 L 891,650 L 888,653 L 880,650 "/>
</g>
<g id="lines_306" inkscape:label="NULL">
</g>
<g id="lines_307" inkscape:label="NULL">
<path d="M 899,722 L 904,727 L 912,722 L 914,714 L 912,712 L 904,709 L 896,714 L 899,722 "/>
</g>
<g id="lines_308" inkscape:label="NULL">
<path d="M 952,247 L 960,244 L 963,236 L 960,230 L 952,234 L 950,236 L 946,244 L 952,247 "/>
</g>
<g id="lines_309" inkscape:label="NULL">
</g>
<g id="lines_310" inkscape:label="NULL">
</g>
<g id="lines_311" inkscape:label="NULL">
<path d="M 1119,210 L 1125,204 L 1119,196 L 1111,204 L 1119,210 "/>
</g>
<g id="lines_312" inkscape:label="NULL">
</g>
<g id="lines_313" inkscape:label="NULL">
<path d="M 1159,751 L 1167,751 L 1170,754 L 1175,759 L 1183,760 L 1191,754 L 1199,761 L 1191,754 L 1191,746 L 1188,738 L 1183,730 L 1175,728 L 1167,722 L 1159,716 L 1151,714 L 1145,722 L 1151,730 L 1146,738 L 1151,746 L 1159,751 "/>
</g>
<g id="lines_314" inkscape:label="NULL">
<path d="M 1175,785 L 1167,785 L 1175,785 "/>
</g>
<g id="lines_315" inkscape:label="NULL">
<path d="M 1167,461 L 1168,459 L 1167,457 L 1164,459 L 1167,461 "/>
</g>
<g id="lines_316" inkscape:label="NULL">
</g>
<g id="lines_317" inkscape:label="NULL">
<path d="M 140,507 L 148,504 L 150,507 L 148,509 L 140,507 "/>
</g>
<g id="lines_318" inkscape:label="NULL">
<path d="M 177,372 L 180,364 L 188,372 L 180,374 L 177,372 "/>
</g>
<g id="lines_319" inkscape:label="NULL">
</g>
<g id="lines_320" inkscape:label="NULL">
<path d="M 204,467 L 212,464 L 220,464 L 225,467 L 220,472 L 212,475 L 204,467 "/>
</g>
<g id="lines_321" inkscape:label="NULL">
<path d="M 204,117 L 212,115 L 215,117 L 212,120 L 204,117 "/>
</g>
<g id="lines_322" inkscape:label="NULL">
<path d="M 228,570 L 228,563 L 236,557 L 238,555 L 236,547 L 236,539 L 237,531 L 240,523 L 244,520 L 252,516 L 253,515 L 252,513 L 244,509 L 240,507 L 236,505 L 232,507 L 228,509 L 220,515 L 225,523 L 228,528 L 232,531 L 236,539 L 228,547 L 223,555 L 228,563 L 220,570 L 228,570 "/>
</g>
<g id="lines_323" inkscape:label="NULL">
</g>
<g id="lines_324" inkscape:label="NULL">
<path d="M 276,154 L 278,157 L 284,159 L 287,157 L 286,149 L 284,141 L 276,145 L 272,149 L 276,154 "/>
</g>
<g id="lines_325" inkscape:label="NULL">
</g>
<g id="lines_326" inkscape:label="NULL">
<path d="M 353,133 L 355,125 L 358,133 L 355,134 L 353,133 "/>
</g>
<g id="lines_327" inkscape:label="NULL">
<path d="M 379,252 L 379,260 L 379,252 "/>
</g>
<g id="lines_328" inkscape:label="NULL">
</g>
<g id="lines_329" inkscape:label="NULL">
<path d="M 403,214 L 411,216 L 419,214 L 427,214 L 428,212 L 432,204 L 435,196 L 427,193 L 419,196 L 411,202 L 406,204 L 403,210 L 401,212 L 403,214 "/>
</g>
<g id="lines_330" inkscape:label="NULL">
</g>
<g id="lines_331" inkscape:label="NULL">
</g>
<g id="lines_332" inkscape:label="NULL">
</g>
<g id="lines_333" inkscape:label="NULL">
</g>
<g id="lines_334" inkscape:label="NULL">
<path d="M 427,154 L 431,157 L 433,165 L 435,166 L 443,168 L 451,165 L 459,166 L 467,166 L 471,165 L 475,162 L 480,157 L 475,153 L 467,155 L 459,157 L 451,155 L 443,153 L 435,153 L 432,149 L 427,141 L 424,149 L 427,154 "/>
</g>
<g id="lines_335" inkscape:label="NULL">
</g>
<g id="lines_336" inkscape:label="NULL">
<path d="M 467,751 L 475,750 L 483,746 L 488,738 L 483,730 L 477,738 L 475,740 L 467,742 L 461,746 L 467,751 "/>
</g>
<g id="lines_337" inkscape:label="NULL">
<path d="M 491,151 L 493,149 L 491,141 L 498,137 L 506,141 L 502,133 L 500,125 L 498,121 L 495,125 L 491,133 L 491,141 L 488,149 L 491,151 "/>
</g>
<g id="lines_338" inkscape:label="NULL">
</g>
<g id="lines_339" inkscape:label="NULL">
</g>
<g id="lines_340" inkscape:label="NULL">
<path d="M 506,174 L 509,173 L 513,165 L 508,157 L 506,153 L 504,157 L 503,165 L 505,173 L 506,174 "/>
</g>
<g id="lines_341" inkscape:label="NULL">
<path d="M 522,182 L 530,188 L 538,188 L 546,185 L 550,181 L 554,173 L 546,173 L 538,171 L 530,173 L 522,177 L 520,181 L 522,182 "/>
</g>
<g id="lines_342" inkscape:label="NULL">
<path d="M 529,364 L 530,362 L 534,364 L 530,366 L 529,364 "/>
</g>
<g id="lines_343" inkscape:label="NULL">
<path d="M 538,242 L 546,236 L 538,231 L 535,236 L 538,242 "/>
</g>
<g id="lines_344" inkscape:label="NULL">
<path d="M 552,642 L 554,644 L 557,642 L 554,634 L 546,634 L 552,642 "/>
</g>
<g id="lines_345" inkscape:label="NULL">
<path d="M 562,149 L 554,157 L 562,149 "/>
</g>
<g id="lines_346" inkscape:label="NULL">
<path d="M 578,236 L 586,244 L 583,252 L 586,256 L 594,252 L 586,244 L 578,236 L 570,228 L 578,236 "/>
</g>
<g id="lines_347" inkscape:label="NULL">
</g>
<g id="lines_348" inkscape:label="NULL">
<path d="M 602,151 L 606,149 L 602,141 L 599,149 L 602,151 "/>
</g>
<g id="lines_349" inkscape:label="NULL">
<path d="M 618,389 L 626,391 L 634,387 L 642,387 L 650,390 L 658,393 L 666,392 L 674,392 L 682,395 L 684,387 L 687,379 L 682,372 L 674,368 L 670,372 L 666,374 L 658,372 L 650,366 L 642,364 L 634,372 L 626,374 L 618,372 L 612,379 L 616,387 L 618,389 "/>
</g>
<g id="lines_350" inkscape:label="NULL">
<path d="M 642,574 L 645,578 L 650,586 L 658,588 L 666,594 L 658,602 L 666,594 L 672,586 L 674,578 L 674,570 L 672,563 L 674,561 L 682,560 L 687,555 L 682,548 L 678,547 L 674,543 L 666,539 L 674,531 L 678,523 L 682,521 L 686,523 L 689,525 L 697,526 L 705,523 L 709,515 L 707,507 L 705,499 L 700,491 L 705,486 L 707,483 L 711,475 L 713,473 L 721,472 L 725,475 L 728,483 L 729,487 L 732,491 L 737,496 L 745,495 L 753,499 L 761,504 L 769,499 L 761,491 L 769,486 L 777,485 L 785,486 L 789,483 L 785,480 L 780,475 L 777,473 L 769,469 L 767,467 L 765,459 L 761,451 L 753,455 L 749,451 L 747,443 L 745,441 L 737,441 L 729,443 L 723,435 L 721,433 L 718,427 L 713,422 L 705,421 L 701,427 L 697,433 L 689,430 L 682,429 L 680,427 L 674,423 L 666,426 L 663,427 L 666,431 L 667,435 L 666,437 L 658,437 L 654,435 L 650,433 L 647,435 L 644,443 L 650,448 L 658,451 L 666,457 L 668,459 L 674,462 L 678,467 L 682,475 L 674,479 L 666,483 L 674,491 L 680,499 L 674,503 L 669,507 L 670,515 L 671,523 L 666,528 L 658,529 L 650,531 L 658,533 L 666,539 L 666,547 L 658,555 L 650,555 L 642,561 L 640,563 L 639,570 L 642,574 "/>
</g>
<g id="lines_351" inkscape:label="NULL">
</g>
<g id="lines_352" inkscape:label="NULL">
</g>
<g id="lines_353" inkscape:label="NULL">
</g>
<g id="lines_354" inkscape:label="NULL">
</g>
<g id="lines_355" inkscape:label="NULL">
<path d="M 753,483 L 761,482 L 765,483 L 761,491 L 753,483 "/>
</g>
<g id="lines_356" inkscape:label="NULL">
<path d="M 769,605 L 772,610 L 777,616 L 780,618 L 785,622 L 793,626 L 801,626 L 803,634 L 809,639 L 814,642 L 817,644 L 825,642 L 833,644 L 841,649 L 849,649 L 857,648 L 865,645 L 873,644 L 880,643 L 884,642 L 888,641 L 896,638 L 904,634 L 912,634 L 907,626 L 904,618 L 904,610 L 904,602 L 912,598 L 915,594 L 912,592 L 910,594 L 904,602 L 896,602 L 888,602 L 880,594 L 873,591 L 865,594 L 859,586 L 865,578 L 857,578 L 849,586 L 846,578 L 841,570 L 835,563 L 833,561 L 827,555 L 825,551 L 821,547 L 817,543 L 815,539 L 813,531 L 809,523 L 801,519 L 795,523 L 796,531 L 793,534 L 785,537 L 781,539 L 785,547 L 793,553 L 795,555 L 801,561 L 804,563 L 805,570 L 809,572 L 817,572 L 825,570 L 833,574 L 835,578 L 841,584 L 849,586 L 845,594 L 841,596 L 833,602 L 825,610 L 817,605 L 809,608 L 807,610 L 801,617 L 795,610 L 793,608 L 785,606 L 777,602 L 769,600 L 768,602 L 769,605 "/>
</g>
<g id="lines_357" inkscape:label="NULL">
<path d="M 896,668 L 899,666 L 896,662 L 888,662 L 884,666 L 888,674 L 896,668 "/>
</g>
<g id="lines_358" inkscape:label="NULL">
<path d="M 944,647 L 952,647 L 957,650 L 960,651 L 968,657 L 972,658 L 976,660 L 984,662 L 992,662 L 1000,666 L 1008,673 L 1016,666 L 1015,658 L 1009,650 L 1008,649 L 1000,647 L 992,642 L 984,642 L 976,639 L 968,639 L 960,639 L 952,636 L 944,638 L 941,642 L 944,647 "/>
</g>
<g id="lines_359" inkscape:label="NULL">
</g>
<g id="lines_360" inkscape:label="NULL">
<path d="M 1040,684 L 1042,690 L 1048,695 L 1054,698 L 1056,699 L 1064,703 L 1069,706 L 1071,707 L 1079,707 L 1085,714 L 1087,715 L 1090,714 L 1087,708 L 1083,706 L 1079,704 L 1077,698 L 1071,692 L 1069,690 L 1064,685 L 1060,682 L 1056,676 L 1048,676 L 1040,680 L 1038,682 L 1040,684 "/>
</g>
<g id="lines_361" inkscape:label="NULL">
</g>
<g id="lines_362" inkscape:label="NULL">
<path d="M 1167,738 L 1159,730 L 1167,738 "/>
</g>
<g id="lines_363" inkscape:label="NULL">
<path d="M 1167,157 L 1167,165 L 1167,157 "/>
</g>
<g id="lines_364" inkscape:label="NULL">
<path d="M 1207,161 L 1209,157 L 1207,155 L 1205,157 L 1207,161 "/>
</g>
<g id="lines_365" inkscape:label="NULL">
<path d="M 1223,188 L 1215,181 L 1215,188 L 1223,188 "/>
</g>
<g id="lines_366" inkscape:label="NULL">
<path d="M 220,332 L 223,324 L 220,322 L 212,324 L 220,332 "/>
</g>
<g id="lines_367" inkscape:label="NULL">
<path d="M 228,756 L 229,754 L 233,746 L 228,741 L 220,744 L 218,746 L 220,754 L 228,756 "/>
</g>
<g id="lines_368" inkscape:label="NULL">
<path d="M 238,125 L 236,121 L 233,125 L 236,133 L 238,125 "/>
</g>
<g id="lines_369" inkscape:label="NULL">
<path d="M 254,133 L 252,131 L 250,133 L 252,141 L 254,133 "/>
</g>
<g id="lines_370" inkscape:label="NULL">
<path d="M 339,791 L 347,793 L 358,793 L 355,791 L 347,793 L 345,785 L 347,781 L 355,777 L 350,769 L 347,765 L 339,765 L 337,769 L 339,777 L 334,785 L 339,791 "/>
</g>
<g id="lines_371" inkscape:label="NULL">
<path d="M 339,543 L 347,547 L 343,539 L 347,531 L 342,523 L 339,520 L 338,523 L 336,531 L 338,539 L 339,543 "/>
</g>
<g id="lines_372" inkscape:label="NULL">
</g>
<g id="lines_373" inkscape:label="NULL">
</g>
<g id="lines_374" inkscape:label="NULL">
<path d="M 395,517 L 403,523 L 399,515 L 395,511 L 394,515 L 395,517 "/>
</g>
<g id="lines_375" inkscape:label="NULL">
<path d="M 395,325 L 403,327 L 411,330 L 415,332 L 419,333 L 422,332 L 427,324 L 419,319 L 411,319 L 406,316 L 403,314 L 395,312 L 389,316 L 393,324 L 395,325 "/>
</g>
<g id="lines_376" inkscape:label="NULL">
<path d="M 419,206 L 422,204 L 419,203 L 416,204 L 419,206 "/>
</g>
<g id="lines_377" inkscape:label="NULL">
<path d="M 451,320 L 455,324 L 459,325 L 465,332 L 467,334 L 472,340 L 467,345 L 465,348 L 467,356 L 475,350 L 483,352 L 487,356 L 485,364 L 488,372 L 491,379 L 491,387 L 491,379 L 498,375 L 506,372 L 514,368 L 522,364 L 530,356 L 530,348 L 522,345 L 519,340 L 514,332 L 506,330 L 498,331 L 496,332 L 491,336 L 487,332 L 483,324 L 477,316 L 476,308 L 475,306 L 467,304 L 459,306 L 457,308 L 451,314 L 449,316 L 451,320 "/>
</g>
<g id="lines_378" inkscape:label="NULL">
<path d="M 594,113 L 597,109 L 594,106 L 586,109 L 594,113 "/>
</g>
<g id="lines_379" inkscape:label="NULL">
<path d="M 650,379 L 642,379 L 650,379 "/>
</g>
<g id="lines_380" inkscape:label="NULL">
<path d="M 650,575 L 658,576 L 662,570 L 658,565 L 656,563 L 650,559 L 646,563 L 646,570 L 650,575 "/>
</g>
<g id="lines_381" inkscape:label="NULL">
<path d="M 669,451 L 674,456 L 679,459 L 682,462 L 687,467 L 689,475 L 689,483 L 684,491 L 688,499 L 682,507 L 689,515 L 697,507 L 697,499 L 692,491 L 689,483 L 697,480 L 701,475 L 701,467 L 705,462 L 708,459 L 709,451 L 707,443 L 705,439 L 701,443 L 697,451 L 693,443 L 689,441 L 682,438 L 674,437 L 666,443 L 669,451 "/>
</g>
<g id="lines_382" inkscape:label="NULL">
<path d="M 682,555 L 682,553 L 674,555 L 682,555 "/>
</g>
<g id="lines_383" inkscape:label="NULL">
<path d="M 729,472 L 732,475 L 736,483 L 737,485 L 741,483 L 745,475 L 753,475 L 761,475 L 757,467 L 753,465 L 745,467 L 741,459 L 737,453 L 733,451 L 729,450 L 728,451 L 723,459 L 725,467 L 729,472 "/>
</g>
<g id="lines_384" inkscape:label="NULL">
<path d="M 793,620 L 795,618 L 793,617 L 791,618 L 793,620 "/>
</g>
<g id="lines_385" inkscape:label="NULL">
<path d="M 801,549 L 809,555 L 810,547 L 809,544 L 801,539 L 798,547 L 801,549 "/>
</g>
<g id="lines_386" inkscape:label="NULL">
<path d="M 809,635 L 817,639 L 825,637 L 833,639 L 841,642 L 849,643 L 857,644 L 861,642 L 865,641 L 873,640 L 880,639 L 888,637 L 893,634 L 895,626 L 896,618 L 888,617 L 884,618 L 880,619 L 878,618 L 873,610 L 865,610 L 857,605 L 853,602 L 849,601 L 845,602 L 841,605 L 833,610 L 825,614 L 817,611 L 809,618 L 804,626 L 808,634 L 809,635 "/>
</g>
<g id="lines_387" inkscape:label="NULL">
<path d="M 968,651 L 976,650 L 984,657 L 992,655 L 994,658 L 1000,662 L 1006,666 L 1008,667 L 1009,666 L 1013,658 L 1008,653 L 1000,653 L 996,650 L 992,647 L 984,646 L 976,650 L 968,648 L 966,650 L 968,651 "/>
</g>
<g id="lines_388" inkscape:label="NULL">
<path d="M 1048,691 L 1056,696 L 1062,698 L 1064,699 L 1071,701 L 1073,698 L 1071,696 L 1066,690 L 1064,688 L 1057,682 L 1056,680 L 1048,679 L 1043,682 L 1046,690 L 1048,691 "/>
</g>
<g id="lines_389" inkscape:label="NULL">
</g>
<g id="lines_390" inkscape:label="NULL">
<path d="M 220,431 L 228,432 L 236,435 L 244,431 L 248,427 L 252,419 L 260,419 L 262,411 L 263,403 L 268,395 L 260,390 L 252,391 L 244,390 L 236,395 L 228,403 L 220,409 L 218,411 L 216,419 L 217,427 L 220,431 "/>
</g>
<g id="lines_391" inkscape:label="NULL">
<path d="M 228,747 L 229,746 L 228,745 L 226,746 L 228,747 "/>
</g>
<g id="lines_392" inkscape:label="NULL">
<path d="M 244,379 L 246,372 L 244,369 L 236,364 L 240,372 L 236,379 L 244,379 "/>
</g>
<g id="lines_393" inkscape:label="NULL">
<path d="M 284,399 L 292,400 L 300,403 L 307,411 L 313,419 L 313,427 L 315,431 L 323,435 L 328,443 L 329,451 L 331,455 L 336,459 L 339,464 L 341,467 L 344,475 L 342,483 L 343,491 L 339,499 L 347,501 L 355,499 L 355,491 L 359,483 L 363,480 L 365,475 L 363,470 L 361,467 L 363,463 L 367,459 L 365,451 L 363,450 L 359,451 L 355,454 L 354,451 L 349,443 L 347,439 L 345,435 L 339,427 L 333,419 L 331,418 L 323,413 L 319,411 L 315,403 L 318,395 L 323,391 L 329,387 L 331,379 L 339,387 L 347,387 L 355,390 L 357,387 L 355,379 L 347,377 L 339,379 L 331,379 L 329,372 L 325,364 L 323,362 L 319,364 L 315,366 L 312,372 L 307,376 L 302,379 L 307,387 L 300,389 L 296,387 L 292,386 L 284,385 L 278,387 L 278,395 L 284,399 "/>
</g>
<g id="lines_394" inkscape:label="NULL">
</g>
<g id="lines_395" inkscape:label="NULL">
</g>
<g id="lines_396" inkscape:label="NULL">
<path d="M 315,147 L 323,149 L 329,157 L 331,158 L 339,162 L 345,165 L 343,173 L 347,177 L 349,181 L 355,187 L 357,188 L 363,193 L 369,196 L 371,197 L 379,200 L 383,196 L 387,194 L 392,188 L 394,181 L 395,175 L 396,173 L 395,171 L 389,165 L 387,162 L 379,158 L 376,157 L 371,149 L 363,143 L 355,145 L 351,149 L 347,155 L 339,150 L 331,154 L 323,149 L 331,143 L 333,141 L 339,137 L 342,133 L 340,125 L 339,124 L 331,121 L 327,125 L 323,127 L 315,129 L 314,133 L 312,141 L 315,147 "/>
</g>
<g id="lines_397" inkscape:label="NULL">
<path d="M 387,477 L 389,475 L 387,467 L 385,475 L 387,477 "/>
</g>
<g id="lines_398" inkscape:label="NULL">
<path d="M 498,362 L 506,360 L 510,356 L 510,348 L 509,340 L 506,338 L 502,340 L 498,342 L 495,348 L 495,356 L 498,362 "/>
</g>
<g id="lines_399" inkscape:label="NULL">
</g>
<g id="lines_400" inkscape:label="NULL">
</g>
<g id="lines_401" inkscape:label="NULL">
<path d="M 809,629 L 815,634 L 817,635 L 819,634 L 825,632 L 829,634 L 833,636 L 841,638 L 849,639 L 857,639 L 865,637 L 873,636 L 880,636 L 886,634 L 888,630 L 890,626 L 888,625 L 880,623 L 873,623 L 865,619 L 864,618 L 857,613 L 849,613 L 841,614 L 833,617 L 825,618 L 817,615 L 813,618 L 809,624 L 808,626 L 809,629 "/>
</g>
<g id="lines_402" inkscape:label="NULL">
</g>
<g id="lines_403" inkscape:label="NULL">
<path d="M 1000,659 L 1008,662 L 1010,658 L 1008,656 L 1000,657 L 999,658 L 1000,659 "/>
</g>
<g id="lines_404" inkscape:label="NULL">
<path d="M 1051,690 L 1056,693 L 1062,690 L 1056,685 L 1048,682 L 1051,690 "/>
</g>
<g id="lines_405" inkscape:label="NULL">
<path d="M 148,470 L 150,467 L 148,464 L 147,467 L 148,470 "/>
</g>
<g id="lines_406" inkscape:label="NULL">
<path d="M 156,443 L 159,435 L 164,427 L 156,433 L 148,433 L 144,435 L 148,439 L 156,443 L 148,451 L 156,443 "/>
</g>
<g id="lines_407" inkscape:label="NULL">
<path d="M 188,423 L 190,419 L 191,411 L 188,410 L 180,411 L 180,419 L 188,423 "/>
</g>
<g id="lines_408" inkscape:label="NULL">
<path d="M 252,411 L 252,403 L 244,403 L 244,411 L 252,411 "/>
</g>
<g id="lines_409" inkscape:label="NULL">
<path d="M 330,435 L 331,439 L 339,443 L 339,451 L 347,451 L 339,443 L 333,435 L 331,427 L 323,427 L 330,435 "/>
</g>
<g id="lines_410" inkscape:label="NULL">
<path d="M 323,137 L 331,138 L 338,133 L 331,126 L 323,132 L 322,133 L 323,137 "/>
</g>
<g id="lines_411" inkscape:label="NULL">
</g>
<g id="lines_412" inkscape:label="NULL">
<path d="M 347,173 L 352,181 L 355,184 L 360,188 L 363,191 L 371,195 L 377,196 L 379,197 L 380,196 L 387,191 L 390,188 L 392,181 L 391,173 L 387,168 L 383,165 L 379,162 L 371,157 L 370,157 L 363,150 L 355,150 L 349,157 L 349,165 L 347,171 L 347,173 "/>
</g>
<g id="lines_413" inkscape:label="NULL">
<path d="M 817,631 L 825,627 L 833,631 L 841,634 L 849,635 L 857,635 L 859,634 L 865,629 L 867,626 L 865,625 L 859,618 L 857,617 L 849,617 L 845,618 L 841,620 L 833,622 L 825,625 L 817,618 L 811,626 L 817,631 "/>
</g>
<g id="lines_414" inkscape:label="NULL">
</g>
<g id="lines_415" inkscape:label="NULL">
</g>
<g id="lines_416" inkscape:label="NULL">
<path d="M 331,135 L 334,133 L 331,130 L 328,133 L 331,135 "/>
</g>
<g id="lines_417" inkscape:label="NULL">
<path d="M 355,182 L 363,188 L 363,189 L 371,194 L 379,195 L 387,189 L 387,188 L 390,181 L 387,173 L 379,166 L 377,165 L 371,161 L 364,157 L 363,156 L 355,152 L 351,157 L 350,165 L 349,173 L 354,181 L 355,182 "/>
</g>
<g id="lines_418" inkscape:label="NULL">
<path d="M 817,628 L 819,626 L 817,624 L 815,626 L 817,628 "/>
</g>
<g id="lines_419" inkscape:label="NULL">
<path d="M 841,628 L 849,630 L 857,631 L 861,626 L 857,621 L 849,622 L 841,625 L 833,626 L 841,628 "/>
</g>
<g id="lines_420" inkscape:label="NULL">
<path d="M 355,179 L 357,181 L 363,187 L 365,188 L 371,192 L 379,193 L 385,188 L 387,183 L 388,181 L 387,178 L 385,173 L 379,168 L 371,165 L 363,159 L 359,157 L 355,155 L 353,157 L 352,165 L 351,173 L 355,179 "/>
</g>
<g id="lines_421" inkscape:label="NULL">
<path d="M 857,627 L 857,626 L 857,625 L 854,626 L 857,627 "/>
</g>
<g id="lines_422" inkscape:label="NULL">
<path d="M 355,175 L 359,181 L 363,185 L 368,188 L 371,190 L 379,192 L 383,188 L 386,181 L 382,173 L 379,170 L 371,166 L 368,165 L 363,161 L 355,158 L 354,165 L 353,173 L 355,175 "/>
</g>
<g id="lines_423" inkscape:label="NULL">
<path d="M 356,173 L 361,181 L 363,182 L 371,188 L 371,189 L 379,190 L 381,188 L 385,181 L 380,173 L 379,172 L 371,168 L 365,165 L 363,164 L 355,165 L 356,173 "/>
</g>
<g id="lines_424" inkscape:label="NULL">
<path d="M 363,180 L 364,181 L 371,186 L 379,188 L 383,181 L 379,174 L 376,173 L 371,170 L 363,166 L 358,173 L 363,180 "/>
</g>
<g id="lines_425" inkscape:label="NULL">
<path d="M 363,176 L 368,181 L 371,183 L 379,185 L 382,181 L 379,177 L 373,173 L 371,172 L 363,170 L 361,173 L 363,176 "/>
</g>
<g id="lines_426" inkscape:label="NULL">
</g>
<g id="lines_427" inkscape:label="NULL">
<path d="M 379,183 L 380,181 L 379,179 L 373,181 L 379,183 "/>
</g>
</g>
</g>
<!-- QGIS extent for clipping, eg in Inkscape -->
<g id="qgisviewbox" inkscape:groupmode="layer" inkscape:label="qgisviewbox" stroke="rgb(255,0,0)" stroke-width="1" fill="none" >
<path d="M 0,954 L 1409,954 L 1409,0 L 0,0 L 0,954 " />
</g></svg>