<svg width="580" height="580">
  <path fill="param(fill)" fill-opacity="param(fill-opacity)" d="M 570.636719 277.335938 L 302.929688 9.628906 C 295.609375 2.308594 283.742188 2.308594 276.421875 9.628906 L 8.710938 277.335938 C -3.097656 289.148438 5.269531 309.335938 21.96875 309.335938 L 62.300781 309.335938 C 72.652344 309.335938 81.042969 317.726562 81.042969 328.078125 L 81.042969 531 C 81.042969 541.351562 89.433594 549.742188 99.785156 549.742188 L 222.332031 549.742188 L 222.332031 396.699219 C 222.332031 384.160156 232.5 374 245.035156 374 L 357.019531 374 L 357.019531 549.742188 L 479.566406 549.742188 C 489.917969 549.742188 498.308594 541.351562 498.308594 531 L 498.308594 328.078125 C 498.308594 317.726562 506.699219 309.335938 517.050781 309.335938 L 557.382812 309.335938 C 574.082031 309.335938 582.441406 289.148438 570.636719 277.335938 Z M 570.636719 277.335938 " stroke="param(outline)" stroke-opacity="param(outline-opacity)" stroke-width="param(outline-width)"/>
  <path fill="param(fill)" fill-opacity="param(fill-opacity)" d="M 357.019531 374 L 286.289062 392.664062 C 271.109375 396.667969 260.535156 410.394531 260.535156 426.09375 L 260.535156 575.207031 L 357.019531 549.742188 Z M 357.019531 374 " stroke="param(outline)" stroke-opacity="param(outline-opacity)" stroke-width="param(outline-width)"/>
</svg>
