<svg width="580" height="580">
  <path fill="param(fill)" fill-opacity="param(fill-opacity)" d="M 504.910156 519.519531 L 505.625 519.515625 L 494.695312 500.230469 L 304.523438 139.546875 L 340.128906 72.289062 L 316.902344 59.992188 L 289.6875 111.40625 L 261.320312 57.601562 L 238.074219 69.859375 L 274.078125 138.152344 C 258.585938 170.226562 152.589844 368.40625 81.253906 500.96875 L 70.8125 520.371094 L 165.050781 520.214844 L 188.460938 520.394531 L 188.574219 520.175781 L 391.175781 519.839844 L 391.464844 520.394531 L 483.234375 519.6875 L 504.980469 519.652344 Z M 289.960938 285.859375 C 311.617188 358.847656 357.277344 453.109375 377.648438 493.582031 L 202.128906 493.871094 C 222.425781 453.5625 268.253906 359.023438 289.960938 285.859375 Z M 289.960938 285.859375 " stroke="param(outline)" stroke-opacity="param(outline-opacity)" stroke-width="param(outline-width)"/>
</svg>
