<svg xmlns="http://www.w3.org/2000/svg" width="580" height="580">
  <path fill="param(fill)" fill-opacity="param(fill-opacity)" d="M 66.273438 1.769531 C 24.941406 1.769531 1.703125 23.140625 1.703125 66.804688 L 1.703125 516.925781 C 1.703125 557.769531 22.597656 579.152344 63.894531 579.152344 L 515.914062 579.152344 C 557.222656 579.152344 578.144531 558.839844 578.144531 516.925781 L 578.144531 66.804688 C 578.144531 24.203125 557.222656 1.769531 514.625 1.769531 C 514.621094 1.769531 66.125 1.625 66.273438 1.769531 Z M 305.40625 27.277344 L 325.003906 46.628906 C 335.78125 57.273438 343.710938 67.828125 342.625 70.085938 C 341.542969 72.34375 332.75 81.296875 323.089844 89.980469 L 305.523438 105.769531 L 287.652344 86.949219 C 277.824219 76.601562 269.320312 66.871094 268.757812 65.328125 C 268.191406 63.785156 276.207031 54.589844 286.566406 44.898438 Z M 369.257812 83.394531 C 372.183594 83.394531 411.332031 115.601562 416.109375 121.945312 C 420.71875 128.058594 382.550781 159.925781 360.929688 168.011719 C 337.550781 176.761719 309.191406 177.226562 286.355469 169.238281 C 277.261719 166.054688 262.921875 158.707031 254.492188 152.902344 C 237.65625 141.320312 205.390625 106.238281 205.390625 99.515625 C 205.390625 97.183594 209.628906 92.5 214.808594 89.105469 C 224.03125 83.0625 224.546875 83.21875 239.132812 96.398438 C 258.464844 113.863281 276.285156 121.144531 299.835938 121.195312 C 320.941406 121.242188 346.351562 109.011719 359.265625 92.59375 C 363.246094 87.53125 367.742188 83.390625 369.257812 83.390625 Z M 183.988281 149.84375 C 200.429688 149.878906 205.726562 152.039062 220.042969 159.5625 C 244.03125 172.175781 261.867188 194.015625 269.6875 220.355469 C 276.070312 241.839844 276.988281 269.808594 271.761719 283.546875 C 266.199219 298.179688 273.277344 298.289062 292.164062 283.871094 C 312.800781 268.117188 326.761719 261.945312 349.4375 258.546875 C 365.785156 256.09375 366.59375 255.382812 371.058594 239.425781 C 381.722656 201.347656 409.960938 178.867188 447.816406 178.328125 C 476.074219 177.929688 491.960938 183.738281 508.265625 200.4375 C 529.789062 222.480469 537.5 249.089844 539.378906 307.828125 C 541.707031 380.738281 531.914062 420.144531 503.398438 452.625 C 478.816406 480.621094 440.148438 490.96875 409.980469 477.625 C 384.519531 466.363281 377.804688 448.886719 374.878906 386.296875 C 373.003906 346.085938 371.4375 336.527344 365.703125 330.183594 C 356.824219 320.378906 351.375 320.601562 327.371094 331.777344 L 307.691406 340.9375 L 315.585938 352.898438 C 366.890625 430.59375 356.265625 515.199219 291.617188 543.789062 C 271.257812 552.792969 227.320312 555.585938 203.550781 549.382812 C 172.632812 541.316406 145.902344 525.164062 120.765625 499.355469 C 80.730469 458.253906 58.863281 414.261719 45.914062 348.777344 C 38.527344 311.425781 38.515625 310.519531 45.316406 305.546875 C 59.25 295.355469 64.757812 299.03125 69.429688 321.625 C 93.789062 439.363281 170.089844 515.902344 244.320312 497.0625 C 266.460938 491.441406 287.578125 470.1875 293.933594 447.140625 C 302.125 417.417969 287.695312 366.058594 262.605469 335.660156 L 253.691406 324.855469 L 238.621094 340.382812 C 222.683594 356.804688 203.042969 370.339844 195.121094 370.363281 C 190.355469 370.375 168.597656 326.371094 168.597656 316.71875 C 168.597656 313.894531 178.949219 306.851562 191.59375 301.066406 C 227.089844 284.839844 242.1875 266.5625 242.1875 239.820312 C 242.1875 222.417969 239.117188 216.347656 227.207031 210.1875 C 211.867188 202.257812 186.328125 203.613281 155.371094 214.003906 C 140.300781 219.0625 127.109375 223.199219 126.054688 223.199219 C 123.34375 223.199219 102.371094 175.742188 102.371094 169.601562 C 102.371094 159.074219 125.117188 151.875 163.078125 150.390625 C 171.785156 150.050781 178.503906 149.828125 183.984375 149.839844 Z M 446.46875 233.945312 C 430.113281 233.648438 413.269531 240.65625 400.589844 254.230469 L 391.574219 263.878906 L 398.644531 275.734375 C 404.53125 285.601562 405.910156 296.242188 406.886719 339.105469 C 408.25 399.285156 408.808594 402.839844 418.984375 415.773438 C 428.683594 428.105469 451.433594 429.199219 469.464844 418.203125 C 495.988281 402.03125 513.554688 356.574219 509.699219 314.074219 C 507.179688 286.292969 491.007812 253.542969 474.363281 242.523438 C 465.914062 236.929688 456.277344 234.121094 446.46875 233.945312 Z M 446.46875 233.945312 " stroke="param(outline)" stroke-opacity="param(outline-opacity)" stroke-width="param(outline-width)"/>
</svg>
