<svg xmlns="http://www.w3.org/2000/svg" width="580" height="580">
  <path fill="param(fill)" fill-opacity="param(fill-opacity)" d="M335.539 172.414 479.633 172.414C481.219 172.414 482.805 171.734 483.938 170.602L514.07 142.734C515.43 141.602 516.109 139.789 516.109 137.977 516.109 136.164 515.43 134.578 514.07 133.219L484.164 105.352C483.031 104.219 481.445 103.539 479.859 103.539L335.766 103.539C332.141 103.539 329.422 106.484 329.422 109.883L329.422 165.844C329.195 169.695 331.914 172.414 335.539 172.414ZM483.938 229.055C482.805 227.922 481.219 227.242 479.633 227.242L335.539 227.242C331.914 227.242 329.195 230.188 329.195 233.586L329.195 289.547C329.195 293.172 332.141 295.891 335.539 295.891L479.633 295.891C481.219 295.891 482.805 295.211 483.938 294.078L513.844 266.211C515.203 265.078 515.883 263.266 515.883 261.453 515.883 259.641 515.203 258.055 513.844 256.695ZM250.805 232.68 250.805 176.719C250.805 173.094 247.859 170.375 244.461 170.375L100.367 170.375C98.781 170.375 97.195 171.055 96.063 172.188L65.93 200.055C64.57 201.188 63.891 203 63.891 204.813 63.891 206.625 64.57 208.211 65.93 209.57L95.836 237.438C96.969 238.57 98.555 239.25 100.141 239.25L244.234 239.25C248.086 239.023 250.805 236.078 250.805 232.68ZM250.805 232.68" stroke="param(outline)" stroke-opacity="param(outline-opacity)" stroke-width="param(outline-width)"/>
  <path fill="param(fill)" fill-opacity="param(fill-opacity)" d="M 333.046875 518.828125 L 310.617188 518.828125 L 310.617188 67.515625 C 310.617188 66.835938 310.617188 66.15625 310.390625 65.703125 L 294.757812 25.828125 C 294.078125 23.789062 292.039062 22.65625 290 22.65625 C 287.960938 22.65625 285.921875 24.015625 285.242188 25.828125 L 269.609375 65.703125 C 269.382812 66.382812 269.382812 66.835938 269.382812 67.515625 L 269.382812 518.828125 L 246.953125 518.828125 C 236.304688 518.828125 227.695312 527.4375 227.695312 538.085938 C 227.695312 548.734375 236.304688 557.34375 246.953125 557.34375 L 333.046875 557.34375 C 343.695312 557.34375 352.304688 548.734375 352.304688 538.085938 C 352.304688 527.4375 343.695312 518.828125 333.046875 518.828125 Z M 333.046875 518.828125 " stroke="param(outline)" stroke-opacity="param(outline-opacity)" stroke-width="param(outline-width)"/>
</svg>
