<svg width="580" height="580">
  <path fill="param(fill)" stroke-width="param(outline-width)" stroke-linecap="round" stroke-linejoin="round" stroke="param(outline)" stroke-opacity="param(outline-opacity)" d="M 31.88804 1022.199967 L 31.889339 1034.60194 M 3.543452 1027.515316 L 3.544751 1047.003476 M 7.086688 1022.200403 L 7.087987 1031.058519 M 7.092749 1052.068592 L 7.091234 1043.210258 M 28.352164 1052.064883 L 28.350865 1044.978259 M 28.346752 1021.946242 L 28.347618 1027.261155 M 24.808495 1050.293172 L 24.807196 1043.206331 M 21.265476 1052.065319 L 21.263527 1041.435275 M 10.635552 1050.295572 L 10.634037 1041.437238 M 14.178571 1048.739408 L 14.177922 1044.980005 M 24.802867 1020.174968 L 24.804815 1030.804794 M 21.260281 1023.718825 L 21.261579 1030.805448 M 14.173376 1021.948423 L 14.175108 1032.578468 M 10.629707 1020.177586 L 10.630573 1027.515098 M 17.720508 1043.208076 L 17.721807 1050.2947 M 17.716612 1021.948641 L 17.717911 1029.035265 M 0.248929 1032.830884 L 0.250444 1045.232857 M 31.888473 1039.917944 L 31.889339 1050.547988 " transform="matrix(18.046049, 0, 0, 17.905102, 0, -18263.204136)" fill-opacity="param(fill-opacity)"/>
</svg>
