<svg width="580" height="580">
  <path fill="param(fill)" fill-opacity="param(fill-opacity)" d="M 290 122.105469 C 280.84375 122.105469 277.789062 128.210938 271.683594 134.316406 L 94.632812 424.316406 C 91.578125 427.367188 91.578125 433.472656 91.578125 436.527344 C 91.578125 451.789062 103.789062 457.894531 112.949219 457.894531 L 467.050781 457.894531 C 479.261719 457.894531 488.421875 451.789062 488.421875 436.527344 C 488.421875 430.421875 488.421875 430.421875 485.367188 424.316406 L 311.367188 134.316406 C 305.261719 128.210938 299.15625 122.105469 290 122.105469 Z M 290 167.894531 L 390.738281 335.789062 L 366.316406 335.789062 L 320.527344 290 L 290 335.789062 L 259.472656 290 L 213.683594 335.789062 L 186.210938 335.789062 Z M 290 167.894531 " stroke="param(outline)" stroke-opacity="param(outline-opacity)" stroke-width="param(outline-width)"/>
</svg>
