<svg width="580" height="580">
  <path fill="param(fill)" fill-opacity="param(fill-opacity)" d="M 64.96875 0.0625 C 23.378906 0.0625 0 21.527344 0 65.386719 L 0 517.492188 C 0 558.519531 21.023438 579.996094 62.574219 579.996094 L 517.386719 579.996094 C 558.949219 579.996094 580 559.59375 580 517.492188 L 580 65.386719 C 580 22.597656 558.949219 0.0625 516.085938 0.0625 C 516.085938 0.0625 64.824219 -0.078125 64.976562 0.0625 Z M 289.996094 90.398438 C 300.902344 90.398438 308.171875 97.65625 315.441406 104.914062 L 522.660156 449.679688 C 526.296875 456.9375 526.296875 456.9375 526.296875 464.199219 C 526.296875 482.34375 515.390625 489.601562 500.847656 489.601562 L 79.136719 489.601562 C 68.230469 489.601562 53.691406 482.34375 53.691406 464.199219 C 53.691406 460.566406 53.691406 453.308594 57.328125 449.679688 L 268.175781 104.914062 C 275.449219 97.65625 279.082031 90.398438 289.992188 90.398438 Z M 289.996094 144.835938 L 166.386719 344.433594 L 199.109375 344.433594 L 253.640625 290 L 289.992188 344.433594 L 326.347656 290 L 380.878906 344.433594 L 409.960938 344.433594 Z M 289.996094 144.835938 " stroke="param(outline)" stroke-opacity="param(outline-opacity)" stroke-width="param(outline-width)"/>
</svg>
