<svg width="580" height="580">
  <path fill="param(fill)" fill-opacity="param(fill-opacity)" d="M514.769531 287.386719C514.570312 282.574219 513.5625 277.515625 512.519531 273.519531 526.921875 272.339844 541.820312 262.140625 545.90625 250.023438 546.945312 246.898438 545.261719 243.539062 542.085938 242.492188 538.960938 241.445312 535.539062 243.128906 534.511719 246.257812 531.75 254.414062 519.996094 261.863281 509.824219 261.863281L494.429688 261.863281C484.824219 258.964844 472.339844 251.613281 465.859375 232.914062 464.785156 229.800781 461.359375 228.132812 458.234375 229.214844 455.09375 230.277344 453.425781 233.652344 454.5 236.761719 458.484375 248.304688 464.503906 256.246094 470.800781 261.863281L451.421875 261.863281C434.953125 261.863281 410.101562 247.847656 410.101562 226.742188 410.101562 223.449219 407.421875 220.78125 404.101562 220.78125 400.777344 220.78125 398.082031 223.449219 398.082031 226.742188 398.082031 255.871094 429.152344 273.75 451.421875 273.75L506.371094 273.75C507.410156 277.546875 508.550781 282.707031 508.800781 287.386719 491.15625 287.386719 470.933594 287.386719 464.585938 287.386719 463.890625 304.105469 492.746094 310.113281 492.746094 310.113281L459.128906 359.53125C459.128906 359.53125 328.714844 359.53125 321.738281 359.53125 314.792969 359.53125 309.371094 361.871094 306.742188 364.65625 304.078125 367.453125 274.5625 397.941406 274.5625 397.941406L285.363281 410.453125 286.089844 427.5625 298.125 444.671875 272.597656 470.9375 272.597656 577.757812 289.910156 577.757812 289.910156 488.539062 305.632812 476.632812 349.1875 577.757812 367.722656 577.757812 330.386719 469.953125 340.160156 448.09375C366.546875 448.09375 426.371094 448.09375 447.886719 448.09375L423.511719 577.757812 440.527344 577.757812 463.179688 467.890625 494.664062 578.019531 513.230469 578.019531 476.820312 445.410156C485.964844 439.105469 493.007812 422.46875 496.316406 413.859375 501.195312 401.085938 529.320312 331.285156 529.320312 331.285156L580 300.632812 580 287.386719C580 287.386719 539.738281 287.386719 514.769531 287.386719M165.203125 348.003906C159.515625 329.535156 144.003906 306.445312 127.933594 286.847656 138.710938 292.839844 151.195312 296.441406 165.203125 296.441406 179.207031 296.441406 191.675781 292.839844 202.457031 286.847656 186.398438 306.445312 170.875 329.535156 165.203125 348.003906ZM330.386719 115.007812C330.386719 80.28125 306.890625 40.65625 243.296875 40.65625 240.039062 40.65625 236.863281 40.820312 233.707031 41.113281 226.546875 15.867188 203.363281 0 165.203125 0 127.023438 0 103.875 15.867188 96.679688 41.113281 93.539062 40.820312 90.332031 40.65625 87.089844 40.65625 23.464844 40.65625 0 80.28125 0 115.007812 0 132.660156 7.226562 148.851562 19.28125 161.589844 7.226562 174.34375 0 190.554688 0 208.207031 0 249.269531 38.972656 282.558594 87.089844 282.558594 89.207031 282.558594 91.207031 282.230469 93.273438 282.117188 108.949219 303.1875 129.140625 333.398438 137.160156 355.945312L137.160156 580 193.246094 580 193.246094 355.945312C201.265625 333.398438 221.4375 303.1875 237.097656 282.117188 239.179688 282.230469 241.179688 282.558594 243.296875 282.558594 291.382812 282.558594 330.386719 249.269531 330.386719 208.207031 330.386719 190.554688 323.160156 174.34375 311.125 161.589844 323.160156 148.851562 330.386719 132.660156 330.386719 115.007812" stroke="param(outline)" stroke-opacity="param(outline-opacity)" stroke-width="param(outline-width)"/>
</svg>
