<svg width="580" height="580">
  <path fill="param(fill)" fill-opacity="param(fill-opacity)" d="M 411.800781 378.933594 C 429.199219 363.464844 444.667969 344.132812 444.667969 320.933594 L 444.667969 52.199219 C 444.667969 38.667969 421.464844 0 402.132812 0 L 328.667969 0 L 328.667969 27.066406 L 251.332031 27.066406 L 251.332031 0 L 177.867188 0 C 158.535156 0 135.332031 38.667969 135.332031 52.199219 L 135.332031 319 C 135.332031 342.199219 152.734375 361.535156 168.199219 377 L 67.667969 580 L 112.132812 580 L 131.464844 541.332031 L 446.601562 541.332031 L 465.933594 580 L 510.398438 580 Z M 338.332031 319 L 338.332031 261 L 396.332031 261 L 396.332031 319 Z M 390.535156 425.332031 L 189.464844 425.332031 L 208.800781 386.667969 L 369.265625 386.667969 Z M 303.535156 58 L 377 58 C 386.667969 58 396.332031 67.667969 396.332031 77.332031 L 396.332031 135.332031 C 396.332031 145 386.667969 154.667969 377 154.667969 L 303.535156 154.667969 Z M 183.667969 77.332031 C 183.667969 67.667969 193.332031 58 203 58 L 276.464844 58 L 276.464844 154.667969 L 203 154.667969 C 193.332031 154.667969 183.667969 145 183.667969 135.332031 Z M 183.667969 261 L 241.667969 261 L 241.667969 319 L 183.667969 319 Z M 150.800781 502.667969 L 170.132812 464 L 407.933594 464 L 427.265625 502.667969 Z M 150.800781 502.667969 " stroke="param(outline)" stroke-opacity="param(outline-opacity)" stroke-width="param(outline-width)"/>
</svg>
