<svg width="580" height="580">
  <path fill="param(fill)" fill-opacity="param(fill-opacity)" d="M184.59375 135.511719C183.453125 127.082031 176.445312 122.214844 170.816406 118.300781 169.667969 117.5 168.578125 116.746094 167.59375 116 167.28125 115.765625 166.941406 115.574219 166.582031 115.429688 165.257812 114.898438 163.527344 114.359375 161.597656 114.585938 161.414062 114.605469 161.230469 114.640625 161.054688 114.683594 159.210938 115.136719 156.933594 115.175781 154.761719 115.175781L152.597656 115.171875C147.667969 115.171875 140.214844 115.171875 135.332031 121.371094 134.929688 121.882812 134.648438 122.476562 134.503906 123.113281 133.457031 127.792969 134.734375 132.820312 138.003906 136.902344 141.296875 141.015625 146.144531 143.472656 150.964844 143.472656 152.160156 143.472656 153.351562 143.324219 154.511719 143.03125 156.199219 143.113281 157.984375 143.300781 159.863281 143.5 162.589844 143.789062 165.40625 144.089844 168.257812 144.089844 172.160156 144.089844 177.9375 143.609375 183.027344 139.46875 184.203125 138.511719 184.796875 137.011719 184.59375 135.511719ZM168.257812 135.390625C165.867188 135.390625 163.28125 135.113281 160.78125 134.847656 158.597656 134.617188 156.335938 134.378906 154.136719 134.308594 154.089844 134.308594 154.046875 134.308594 154 134.308594 153.558594 134.308594 153.121094 134.375 152.703125 134.503906 150.019531 135.34375 146.894531 134.089844 144.796875 131.464844 143.457031 129.792969 142.769531 127.816406 142.859375 126.003906 144.8125 124.222656 147.792969 123.871094 152.597656 123.871094L154.761719 123.875C157.300781 123.875 159.988281 123.824219 162.613281 123.25 162.671875 123.265625 162.75 123.289062 162.863281 123.324219 163.839844 124.046875 164.859375 124.753906 165.851562 125.445312 169.632812 128.074219 173.519531 130.773438 175.191406 134.167969 173.335938 135.003906 171.097656 135.390625 168.257812 135.390625ZM221.816406 306.300781C220.667969 305.5 219.578125 304.746094 218.59375 304 218.28125 303.765625 217.941406 303.574219 217.582031 303.429688 216.257812 302.902344 214.523438 302.363281 212.597656 302.585938 212.414062 302.605469 212.230469 302.640625 212.054688 302.683594 210.210938 303.136719 207.933594 303.175781 205.761719 303.175781L203.601562 303.171875C198.667969 303.171875 191.214844 303.171875 186.332031 309.371094 185.929688 309.882812 185.648438 310.476562 185.503906 311.113281 184.457031 315.792969 185.734375 320.816406 189.003906 324.902344 192.300781 329.015625 197.144531 331.46875 201.964844 331.46875 203.160156 331.46875 204.351562 331.320312 205.511719 331.03125 207.199219 331.109375 208.984375 331.300781 210.863281 331.5 213.589844 331.789062 216.40625 332.089844 219.257812 332.089844 223.160156 332.089844 228.9375 331.609375 234.027344 327.46875 235.203125 326.511719 235.796875 325.011719 235.59375 323.511719 234.453125 315.082031 227.445312 310.214844 221.816406 306.300781ZM219.257812 323.390625C216.867188 323.390625 214.28125 323.113281 211.78125 322.847656 209.597656 322.617188 207.335938 322.378906 205.136719 322.308594 205.089844 322.308594 205.046875 322.308594 205 322.308594 204.558594 322.308594 204.121094 322.371094 203.703125 322.503906 201.019531 323.339844 197.894531 322.089844 195.796875 319.464844 194.457031 317.792969 193.769531 315.816406 193.859375 314.003906 195.8125 312.222656 198.796875 311.871094 203.601562 311.871094L205.757812 311.875C208.296875 311.875 210.984375 311.824219 213.613281 311.25 213.671875 311.265625 213.75 311.289062 213.863281 311.324219 214.839844 312.046875 215.859375 312.753906 216.851562 313.445312 220.632812 316.070312 224.519531 318.773438 226.191406 322.167969 224.335938 323.003906 222.097656 323.390625 219.257812 323.390625ZM336.605469 236.570312C338.140625 235.441406 338.765625 233.441406 338.140625 231.640625 335.15625 223.011719 326.507812 218.246094 320.785156 215.09375 320.324219 214.84375 319.824219 214.675781 319.308594 214.601562 319.046875 214.539062 318.652344 214.46875 318.175781 214.46875 317.449219 214.46875 316.746094 214.632812 316.113281 214.941406 314.808594 215.167969 313.394531 215.199219 312.257812 215.199219 311.507812 215.199219 310.75 215.183594 309.992188 215.167969 309.179688 215.152344 308.363281 215.136719 307.554688 215.136719 302.910156 215.136719 297.605469 215.710938 293.472656 219.96875 292.828125 220.628906 292.414062 221.476562 292.285156 222.386719 291.695312 226.539062 292.953125 230.648438 295.828125 233.957031 298.859375 237.449219 303.34375 239.535156 307.824219 239.535156 309.074219 239.535156 310.308594 239.375 311.507812 239.058594 313.0625 239.136719 314.722656 239.328125 316.472656 239.527344 319.007812 239.816406 321.628906 240.113281 324.285156 240.113281 329.324219 240.117188 333.355469 238.957031 336.605469 236.570312ZM311.09375 230.339844C311.054688 230.339844 311.011719 230.335938 310.96875 230.335938 310.507812 230.335938 310.050781 230.410156 309.609375 230.554688 307.21875 231.339844 304.214844 230.347656 302.398438 228.257812 301.871094 227.648438 301.097656 226.539062 300.898438 225.078125 302.546875 224.0625 304.679688 223.835938 307.558594 223.835938 308.308594 223.835938 309.0625 223.851562 309.820312 223.867188 310.632812 223.882812 311.449219 223.898438 312.257812 223.898438 313.84375 223.898438 315.863281 223.84375 317.921875 223.457031 321.972656 225.734375 325.691406 228.105469 328.015625 231.066406 326.9375 231.304688 325.710938 231.414062 324.285156 231.414062 322.128906 231.414062 319.753906 231.144531 317.457031 230.886719 315.363281 230.644531 313.203125 230.398438 311.09375 230.339844ZM187.785156 224.449219C188.773438 224.398438 189.703125 224.351562 190.605469 224.351562 192.105469 224.351562 193.207031 224.488281 194.167969 224.796875 194.257812 224.824219 194.347656 224.851562 194.4375 224.875 195.589844 225.164062 196.492188 225.300781 197.28125 225.300781 200.152344 225.300781 201.683594 223.441406 202.117188 221.847656 203.167969 218.003906 199.167969 215.488281 197.617188 214.566406 194.433594 212.351562 191.046875 212.0625 188.4375 212.0625 187.398438 212.0625 186.382812 212.113281 185.398438 212.164062 183.535156 212.257812 181.804688 212.304688 180.589844 212.109375 180.519531 212.101562 180.449219 212.089844 180.378906 212.082031 180.027344 212.042969 179.691406 212.027344 179.375 212.027344 175.699219 212.027344 173.59375 214.304688 173.136719 216.566406 172.710938 218.671875 173.527344 221.6875 177.234375 223.253906 179.992188 224.425781 182.726562 224.5625 184.546875 224.5625 185.65625 224.5625 186.738281 224.503906 187.785156 224.449219ZM380.144531 348.523438C381.019531 335.691406 369.460938 328.632812 361.023438 323.480469L359.59375 322.609375C359.261719 322.402344 358.902344 322.242188 358.523438 322.132812 356.765625 321.625 355.082031 321.429688 353.4375 321.570312 353.320312 321.582031 353.203125 321.597656 353.085938 321.617188 350.988281 321.972656 348.519531 322.035156 345.90625 322.105469 338.035156 322.3125 328.238281 322.570312 323.1875 331.78125 323.03125 332.0625 322.90625 332.363281 322.816406 332.675781 321.195312 338.339844 322.484375 344.535156 326.359375 349.679688 330.546875 355.238281 336.882812 358.554688 343.304688 358.554688 344.652344 358.554688 345.988281 358.40625 347.292969 358.113281 348.363281 358.203125 349.472656 358.320312 350.609375 358.4375 353.722656 358.761719 356.941406 359.097656 360.238281 359.097656 360.246094 359.097656 360.253906 359.097656 360.261719 359.097656 363.566406 359.097656 373.519531 359.074219 379.367188 350.71875 379.824219 350.070312 380.09375 349.3125 380.144531 348.523438ZM360.238281 350.394531C357.394531 350.394531 354.402344 350.085938 351.507812 349.785156 350.046875 349.632812 348.625 349.484375 347.273438 349.382812 347.160156 349.371094 347.050781 349.367188 346.9375 349.367188 346.550781 349.367188 346.160156 349.421875 345.785156 349.523438 341.523438 350.695312 336.40625 348.554688 333.308594 344.445312 331.207031 341.65625 330.402344 338.4375 331.0625 335.542969 333.609375 331.433594 338.503906 331.003906 346.136719 330.804688 348.863281 330.734375 351.675781 330.65625 354.320312 330.230469 354.714844 330.214844 355.128906 330.257812 355.59375 330.359375L356.488281 330.910156C364.742188 335.945312 371.136719 340.363281 371.476562 346.695312 369.175781 349.246094 365.644531 350.394531 360.238281 350.394531ZM284.398438 287.164062C282.539062 287.257812 280.804688 287.304688 279.59375 287.109375 279.523438 287.101562 279.449219 287.089844 279.382812 287.082031 279.027344 287.042969 278.691406 287.027344 278.375 287.027344 274.699219 287.027344 272.59375 289.304688 272.136719 291.566406 271.710938 293.671875 272.527344 296.6875 276.234375 298.253906 278.992188 299.425781 281.726562 299.5625 283.546875 299.5625 284.65625 299.5625 285.738281 299.507812 286.785156 299.453125 287.773438 299.402344 288.703125 299.351562 289.605469 299.351562 291.105469 299.351562 292.207031 299.488281 293.167969 299.800781 293.257812 299.828125 293.347656 299.851562 293.4375 299.875 294.589844 300.164062 295.496094 300.300781 296.28125 300.300781 299.15625 300.300781 300.683594 298.441406 301.121094 296.847656 302.171875 293.003906 298.171875 290.488281 296.617188 289.566406 293.433594 287.351562 290.046875 287.066406 287.4375 287.066406 286.398438 287.0625 285.382812 287.113281 284.398438 287.164062ZM103.59375 269.589844C105.007812 269.589844 106.457031 269.4375 107.824219 269.148438 108.953125 269.203125 110.308594 269.394531 111.738281 269.597656 113.804688 269.886719 115.945312 270.1875 118.035156 270.1875 120.660156 270.1875 122.765625 269.691406 124.476562 268.675781 125.578125 268.019531 126.332031 266.910156 126.539062 265.648438 126.75 264.386719 126.394531 263.097656 125.5625 262.121094 122.425781 258.429688 117.429688 253.859375 111.4375 253.035156 110.90625 252.960938 110.367188 252.988281 109.84375 253.109375 108.695312 253.382812 106.769531 253.3125 104.683594 253.171875 103.527344 253.097656 102.335938 253.015625 101.117188 253.015625 98.519531 253.015625 94.710938 253.351562 91.625 256.226562 90.523438 257.253906 90.03125 258.78125 90.328125 260.257812 91.476562 266.011719 96.558594 269.589844 103.59375 269.589844ZM126.4375 399.035156C125.90625 398.960938 125.367188 398.988281 124.847656 399.109375 123.695312 399.382812 121.769531 399.3125 119.683594 399.171875 118.527344 399.09375 117.335938 399.015625 116.121094 399.015625 113.519531 399.015625 109.710938 399.347656 106.625 402.226562 105.523438 403.253906 105.03125 404.78125 105.328125 406.257812 106.476562 412.011719 111.558594 415.589844 118.59375 415.589844 120.007812 415.589844 121.457031 415.4375 122.824219 415.148438 123.953125 415.203125 125.3125 415.394531 126.738281 415.597656 128.808594 415.886719 130.945312 416.1875 133.035156 416.1875 135.660156 416.1875 137.765625 415.695312 139.476562 414.675781 140.574219 414.019531 141.328125 412.910156 141.539062 411.648438 141.75 410.386719 141.390625 409.097656 140.5625 408.121094 137.425781 404.429688 132.429688 399.859375 126.4375 399.035156ZM89.816406 509.300781C88.667969 508.5 87.578125 507.746094 86.59375 507 86.28125 506.765625 85.941406 506.574219 85.582031 506.429688 84.257812 505.902344 82.523438 505.363281 80.597656 505.585938 80.414062 505.605469 80.230469 505.640625 80.054688 505.683594 78.210938 506.136719 75.933594 506.175781 73.761719 506.175781L71.601562 506.171875C66.667969 506.171875 59.214844 506.171875 54.332031 512.371094 53.929688 512.882812 53.648438 513.476562 53.503906 514.113281 52.457031 518.792969 53.734375 523.816406 57.003906 527.902344 60.300781 532.015625 65.144531 534.46875 69.964844 534.46875 71.160156 534.46875 72.351562 534.320312 73.511719 534.03125 75.199219 534.109375 76.984375 534.300781 78.863281 534.5 81.589844 534.789062 84.40625 535.089844 87.257812 535.089844 91.160156 535.089844 96.9375 534.609375 102.027344 530.46875 103.203125 529.511719 103.796875 528.011719 103.59375 526.511719 102.453125 518.082031 95.445312 513.214844 89.816406 509.300781ZM87.257812 526.390625C84.867188 526.390625 82.28125 526.113281 79.78125 525.847656 77.597656 525.617188 75.335938 525.378906 73.136719 525.308594 73.089844 525.308594 73.046875 525.308594 73 525.308594 72.558594 525.308594 72.121094 525.371094 71.703125 525.503906 69.019531 526.339844 65.898438 525.089844 63.796875 522.464844 62.457031 520.792969 61.769531 518.816406 61.859375 517.003906 63.8125 515.222656 66.796875 514.871094 71.601562 514.871094L73.757812 514.875C76.296875 514.875 78.984375 514.824219 81.613281 514.25 81.671875 514.265625 81.75 514.289062 81.863281 514.324219 82.839844 515.046875 83.859375 515.753906 84.851562 516.445312 88.632812 519.070312 92.519531 521.773438 94.191406 525.167969 92.335938 526.003906 90.097656 526.390625 87.257812 526.390625ZM202.617188 490.5625C199.433594 488.351562 196.046875 488.0625 193.4375 488.0625 192.398438 488.0625 191.382812 488.113281 190.398438 488.164062 188.539062 488.261719 186.804688 488.304688 185.59375 488.109375 185.523438 488.097656 185.449219 488.089844 185.382812 488.082031 185.027344 488.042969 184.691406 488.027344 184.375 488.027344 180.699219 488.027344 178.59375 490.304688 178.136719 492.566406 177.710938 494.671875 178.527344 497.6875 182.234375 499.253906 184.992188 500.425781 187.726562 500.5625 189.546875 500.5625 190.65625 500.5625 191.738281 500.503906 192.785156 500.449219 193.773438 500.398438 194.703125 500.351562 195.605469 500.351562 197.105469 500.351562 198.207031 500.488281 199.167969 500.796875 199.257812 500.824219 199.347656 500.851562 199.4375 500.875 200.589844 501.164062 201.492188 501.300781 202.28125 501.300781 205.15625 501.300781 206.683594 499.441406 207.117188 497.84375 208.167969 494.003906 204.167969 491.488281 202.617188 490.5625ZM61.285156 339.390625C60.699219 343.539062 61.953125 347.652344 64.828125 350.960938 67.859375 354.453125 72.347656 356.535156 76.824219 356.535156 78.074219 356.535156 79.3125 356.378906 80.507812 356.0625 82.0625 356.140625 83.726562 356.328125 85.472656 356.527344 88.011719 356.816406 90.632812 357.117188 93.285156 357.117188 98.324219 357.117188 102.355469 355.957031 105.605469 353.570312 107.144531 352.441406 107.765625 350.441406 107.144531 348.640625 104.160156 340.007812 95.511719 335.246094 89.785156 332.09375 89.328125 331.839844 88.824219 331.675781 88.308594 331.601562 88.050781 331.539062 87.65625 331.46875 87.179688 331.46875 86.453125 331.46875 85.75 331.632812 85.117188 331.941406 83.8125 332.167969 82.394531 332.199219 81.257812 332.199219 80.507812 332.199219 79.753906 332.183594 78.996094 332.171875 78.183594 332.152344 77.367188 332.136719 76.558594 332.136719 71.910156 332.136719 66.605469 332.710938 62.472656 336.972656 61.832031 337.632812 61.414062 338.476562 61.285156 339.390625ZM76.558594 340.835938C77.308594 340.835938 78.0625 340.851562 78.820312 340.867188 79.632812 340.886719 80.449219 340.898438 81.257812 340.898438 82.84375 340.898438 84.863281 340.84375 86.921875 340.457031 90.972656 342.734375 94.691406 345.105469 97.015625 348.066406 95.9375 348.300781 94.710938 348.414062 93.285156 348.414062 91.125 348.414062 88.753906 348.144531 86.457031 347.886719 84.367188 347.648438 82.203125 347.402344 80.09375 347.339844 80.054688 347.339844 80.011719 347.339844 79.96875 347.339844 79.507812 347.339844 79.050781 347.410156 78.609375 347.554688 76.21875 348.339844 73.214844 347.347656 71.398438 345.257812 70.871094 344.648438 70.097656 343.539062 69.898438 342.078125 71.546875 341.0625 73.679688 340.835938 76.558594 340.835938ZM489.59375 298.511719C488.453125 290.082031 481.445312 285.214844 475.820312 281.300781 474.667969 280.503906 473.578125 279.746094 472.59375 279 472.28125 278.765625 471.941406 278.574219 471.582031 278.429688 470.257812 277.902344 468.519531 277.363281 466.597656 277.585938 466.410156 277.605469 466.230469 277.640625 466.050781 277.683594 464.210938 278.140625 461.933594 278.175781 459.761719 278.175781L457.597656 278.171875C452.664062 278.171875 445.214844 278.171875 440.332031 284.371094 439.929688 284.882812 439.648438 285.480469 439.503906 286.113281 438.457031 290.792969 439.734375 295.820312 443.003906 299.90625 446.300781 304.015625 451.144531 306.472656 455.964844 306.472656 457.160156 306.472656 458.351562 306.324219 459.511719 306.03125 461.199219 306.113281 462.984375 306.304688 464.863281 306.503906 467.589844 306.789062 470.40625 307.089844 473.257812 307.089844 477.160156 307.089844 482.941406 306.613281 488.027344 302.46875 489.203125 301.511719 489.796875 300.011719 489.59375 298.511719ZM473.257812 298.390625C470.867188 298.390625 468.28125 298.113281 465.78125 297.847656 463.59375 297.617188 461.335938 297.378906 459.136719 297.308594 459.089844 297.308594 459.042969 297.308594 459 297.308594 458.558594 297.308594 458.121094 297.371094 457.699219 297.503906 455.019531 298.339844 451.894531 297.089844 449.796875 294.464844 448.457031 292.792969 447.769531 290.816406 447.859375 289.003906 449.8125 287.222656 452.792969 286.871094 457.597656 286.871094L459.761719 286.875C462.296875 286.875 464.984375 286.824219 467.609375 286.253906 467.667969 286.265625 467.75 286.289062 467.863281 286.324219 468.835938 287.046875 469.859375 287.757812 470.851562 288.445312 474.632812 291.074219 478.515625 293.773438 480.1875 297.167969 478.335938 298.003906 476.097656 298.390625 473.257812 298.390625ZM53.273438 185.097656C56.585938 185.097656 66.527344 185.070312 72.367188 176.722656 72.824219 176.074219 73.089844 175.3125 73.144531 174.523438 74.019531 161.691406 62.460938 154.636719 54.019531 149.480469L52.59375 148.609375C52.261719 148.402344 51.902344 148.242188 51.523438 148.132812 49.765625 147.625 48.082031 147.429688 46.441406 147.570312 46.320312 147.582031 46.203125 147.597656 46.085938 147.617188 43.988281 147.972656 41.523438 148.035156 38.910156 148.105469 31.035156 148.3125 21.238281 148.570312 16.1875 157.78125 16.03125 158.066406 15.910156 158.363281 15.820312 158.675781 14.195312 164.339844 15.484375 170.535156 19.359375 175.679688 23.550781 181.234375 29.882812 184.554688 36.304688 184.554688 37.652344 184.554688 38.992188 184.40625 40.296875 184.109375 41.363281 184.203125 42.476562 184.316406 43.609375 184.4375 46.726562 184.761719 49.945312 185.09375 53.238281 185.09375 53.25 185.097656 53.261719 185.097656 53.273438 185.097656ZM40.273438 175.382812C40.160156 175.371094 40.050781 175.367188 39.9375 175.367188 39.546875 175.367188 39.160156 175.421875 38.785156 175.523438 34.519531 176.695312 29.40625 174.554688 26.308594 170.445312 24.207031 167.65625 23.398438 164.441406 24.058594 161.546875 26.609375 157.433594 31.503906 157.003906 39.136719 156.804688 41.859375 156.734375 44.675781 156.660156 47.316406 156.234375 47.710938 156.214844 48.125 156.261719 48.59375 156.363281L49.488281 156.910156C57.738281 161.945312 64.136719 166.363281 64.476562 172.699219 62.175781 175.246094 58.644531 176.398438 53.238281 176.398438 50.394531 176.398438 47.402344 176.085938 44.507812 175.785156 43.046875 175.632812 41.625 175.484375 40.273438 175.382812ZM528.019531 502.480469 526.59375 501.609375C526.261719 501.402344 525.902344 501.242188 525.523438 501.132812 523.761719 500.621094 522.082031 500.429688 520.4375 500.570312 520.320312 500.582031 520.203125 500.597656 520.085938 500.617188 517.988281 500.972656 515.519531 501.035156 512.90625 501.105469 505.035156 501.3125 495.238281 501.570312 490.183594 510.78125 490.03125 511.0625 489.90625 511.363281 489.816406 511.675781 488.191406 517.339844 489.484375 523.535156 493.359375 528.679688 497.546875 534.238281 503.882812 537.554688 510.304688 537.554688 511.652344 537.554688 512.988281 537.40625 514.292969 537.113281 515.363281 537.203125 516.472656 537.320312 517.609375 537.4375 520.734375 537.761719 523.953125 538.140625 527.277344 538.097656 530.597656 538.097656 540.527344 538.0625 546.367188 529.71875 546.820312 529.070312 547.089844 528.3125 547.144531 527.523438 548.019531 514.691406 536.460938 507.636719 528.019531 502.480469ZM527.242188 529.394531C527.242188 529.394531 527.242188 529.394531 527.238281 529.394531 524.394531 529.394531 521.402344 529.085938 518.511719 528.785156 517.046875 528.632812 515.625 528.484375 514.273438 528.382812 514.160156 528.371094 514.050781 528.367188 513.9375 528.367188 513.550781 528.367188 513.160156 528.421875 512.785156 528.523438 508.527344 529.695312 503.40625 527.554688 500.308594 523.445312 498.207031 520.652344 497.402344 517.4375 498.0625 514.542969 500.609375 510.433594 505.507812 510.003906 513.136719 509.804688 515.863281 509.730469 518.675781 509.65625 521.320312 509.230469 521.710938 509.21875 522.128906 509.257812 522.59375 509.359375L523.488281 509.910156C531.742188 514.945312 538.136719 519.363281 538.476562 525.695312 536.175781 528.246094 532.644531 529.394531 527.242188 529.394531ZM505.4375 455.0625C504.398438 455.0625 503.382812 455.113281 502.398438 455.164062 500.542969 455.261719 498.808594 455.304688 497.59375 455.109375 497.523438 455.097656 497.449219 455.089844 497.382812 455.082031 497.027344 455.042969 496.691406 455.027344 496.375 455.027344 492.699219 455.027344 490.59375 457.304688 490.136719 459.566406 489.710938 461.671875 490.53125 464.6875 494.234375 466.253906 496.992188 467.425781 499.726562 467.5625 501.546875 467.5625 502.65625 467.5625 503.738281 467.503906 504.785156 467.449219 505.773438 467.398438 506.707031 467.351562 507.605469 467.351562 509.109375 467.351562 510.207031 467.488281 511.167969 467.796875 511.257812 467.824219 511.347656 467.851562 511.4375 467.875 512.589844 468.164062 513.496094 468.300781 514.28125 468.300781 517.15625 468.300781 518.683594 466.4375 519.121094 464.84375 520.171875 461.003906 516.171875 458.488281 514.617188 457.566406 511.433594 455.351562 508.046875 455.0625 505.4375 455.0625ZM398.4375 510.035156C397.902344 509.960938 397.367188 509.984375 396.84375 510.109375 395.691406 510.382812 393.769531 510.3125 391.679688 510.171875 390.527344 510.09375 389.335938 510.015625 388.117188 510.015625 385.519531 510.015625 381.710938 510.347656 378.625 513.226562 377.523438 514.253906 377.03125 515.78125 377.328125 517.257812 378.476562 523.015625 383.558594 526.589844 390.59375 526.589844 392.007812 526.589844 393.457031 526.4375 394.824219 526.148438 395.953125 526.203125 397.308594 526.394531 398.734375 526.597656 400.804688 526.886719 402.941406 527.1875 405.035156 527.191406 407.660156 527.191406 409.765625 526.695312 411.476562 525.675781 412.578125 525.019531 413.332031 523.910156 413.539062 522.648438 413.75 521.386719 413.394531 520.097656 412.5625 519.121094 409.425781 515.429688 404.429688 510.859375 398.4375 510.035156ZM410.785156 414.097656C410.324219 413.84375 409.824219 413.675781 409.308594 413.601562 409.046875 413.539062 408.652344 413.46875 408.175781 413.46875 407.449219 413.46875 406.746094 413.632812 406.113281 413.941406 404.8125 414.167969 403.394531 414.199219 402.257812 414.199219 401.507812 414.199219 400.75 414.183594 399.992188 414.171875 399.179688 414.152344 398.363281 414.140625 397.554688 414.140625 392.910156 414.140625 387.605469 414.714844 383.472656 418.972656 382.828125 419.632812 382.414062 420.480469 382.285156 421.390625 381.695312 425.542969 382.953125 429.652344 385.828125 432.960938 388.859375 436.453125 393.34375 438.539062 397.824219 438.539062 399.074219 438.539062 400.308594 438.378906 401.507812 438.0625 403.058594 438.140625 404.722656 438.332031 406.46875 438.527344 409.007812 438.816406 411.628906 439.117188 414.28125 439.117188 419.320312 439.117188 423.351562 437.957031 426.605469 435.570312 428.140625 434.441406 428.765625 432.445312 428.140625 430.640625 425.15625 422.011719 416.507812 417.246094 410.785156 414.097656ZM414.285156 430.414062C412.125 430.414062 409.75 430.144531 407.453125 429.886719 405.363281 429.648438 403.203125 429.402344 401.097656 429.339844 401.054688 429.339844 401.011719 429.339844 400.96875 429.339844 400.507812 429.339844 400.050781 429.410156 399.609375 429.554688 397.21875 430.339844 394.214844 429.347656 392.398438 427.257812 391.871094 426.648438 391.097656 425.539062 390.898438 424.078125 392.546875 423.0625 394.679688 422.835938 397.558594 422.835938 398.308594 422.835938 399.0625 422.851562 399.820312 422.867188 400.632812 422.886719 401.449219 422.898438 402.257812 422.898438 403.84375 422.898438 405.863281 422.84375 407.921875 422.457031 411.972656 424.734375 415.691406 427.105469 418.015625 430.0625 416.9375 430.304688 415.707031 430.414062 414.285156 430.414062ZM292.816406 450.300781C291.667969 449.5 290.578125 448.746094 289.59375 448 289.28125 447.765625 288.941406 447.574219 288.582031 447.429688 287.257812 446.902344 285.523438 446.363281 283.597656 446.585938 283.414062 446.605469 283.230469 446.640625 283.054688 446.683594 281.210938 447.136719 278.933594 447.175781 276.761719 447.175781L274.601562 447.171875C269.667969 447.171875 262.214844 447.171875 257.332031 453.371094 256.929688 453.882812 256.648438 454.476562 256.503906 455.113281 255.457031 459.792969 256.734375 464.816406 260.003906 468.902344 263.300781 473.015625 268.144531 475.46875 272.964844 475.46875 274.160156 475.46875 275.351562 475.320312 276.511719 475.03125 278.199219 475.109375 279.984375 475.300781 281.863281 475.5 284.589844 475.789062 287.40625 476.089844 290.257812 476.089844 294.160156 476.089844 299.9375 475.609375 305.027344 471.46875 306.203125 470.511719 306.796875 469.011719 306.589844 467.511719 305.453125 459.082031 298.445312 454.214844 292.816406 450.300781ZM290.257812 467.390625C287.867188 467.390625 285.28125 467.113281 282.78125 466.847656 280.597656 466.617188 278.335938 466.378906 276.136719 466.308594 276.089844 466.308594 276.046875 466.308594 276 466.308594 275.558594 466.308594 275.121094 466.371094 274.703125 466.503906 272.019531 467.339844 268.898438 466.089844 266.796875 463.464844 265.457031 461.792969 264.769531 459.816406 264.859375 458.003906 266.8125 456.222656 269.796875 455.871094 274.601562 455.871094L276.757812 455.875C279.296875 455.875 281.984375 455.824219 284.613281 455.25 284.671875 455.265625 284.75 455.289062 284.863281 455.324219 285.839844 456.046875 286.859375 456.753906 287.851562 457.445312 291.632812 460.070312 295.519531 462.773438 297.191406 466.167969 295.335938 467.003906 293.097656 467.390625 290.257812 467.390625ZM472.332031 136.371094C471.929688 136.882812 471.648438 137.476562 471.503906 138.113281 470.457031 142.792969 471.734375 147.820312 475.003906 151.902344 478.300781 156.015625 483.144531 158.472656 487.964844 158.472656 489.160156 158.472656 490.351562 158.324219 491.511719 158.03125 493.199219 158.113281 494.984375 158.300781 496.863281 158.5 499.589844 158.789062 502.40625 159.089844 505.257812 159.089844 509.160156 159.089844 514.9375 158.609375 520.027344 154.46875 521.203125 153.511719 521.796875 152.011719 521.59375 150.511719 520.453125 142.082031 513.449219 137.210938 507.820312 133.300781 506.667969 132.5 505.582031 131.742188 504.59375 130.996094 504.28125 130.765625 503.945312 130.570312 503.582031 130.429688 502.472656 129.984375 501.121094 129.53125 499.523438 129.53125 499.214844 129.53125 498.90625 129.546875 498.597656 129.585938 498.410156 129.605469 498.230469 129.636719 498.050781 129.683594 496.210938 130.136719 493.933594 130.175781 491.761719 130.175781L489.597656 130.171875C484.664062 130.171875 477.214844 130.171875 472.332031 136.371094ZM489.597656 138.871094 491.761719 138.875C494.300781 138.875 496.988281 138.824219 499.613281 138.253906 499.671875 138.265625 499.753906 138.289062 499.863281 138.324219 500.839844 139.046875 501.859375 139.757812 502.855469 140.445312 506.632812 143.074219 510.519531 145.773438 512.191406 149.167969 510.335938 150.003906 508.097656 150.390625 505.257812 150.390625 502.867188 150.390625 500.28125 150.113281 497.78125 149.847656 495.597656 149.617188 493.335938 149.378906 491.136719 149.308594 491.089844 149.308594 491.046875 149.308594 491 149.308594 490.5625 149.308594 490.121094 149.375 489.703125 149.503906 487.019531 150.34375 483.894531 149.089844 481.796875 146.464844 480.457031 144.792969 479.769531 142.816406 479.859375 141.003906 481.8125 139.222656 484.792969 138.871094 489.597656 138.871094ZM454.234375 96.253906C456.992188 97.425781 459.726562 97.5625 461.546875 97.5625 462.65625 97.5625 463.738281 97.503906 464.785156 97.449219 465.773438 97.398438 466.703125 97.347656 467.605469 97.347656 469.105469 97.347656 470.207031 97.488281 471.167969 97.796875 471.257812 97.824219 471.347656 97.851562 471.4375 97.871094 472.589844 98.164062 473.492188 98.300781 474.28125 98.300781 477.15625 98.300781 478.683594 96.4375 479.117188 94.84375 480.171875 91.003906 476.171875 88.488281 474.617188 87.5625 471.433594 85.351562 468.046875 85.0625 465.4375 85.0625 464.398438 85.0625 463.382812 85.113281 462.398438 85.164062 460.539062 85.257812 458.804688 85.304688 457.589844 85.109375 457.519531 85.097656 457.449219 85.089844 457.378906 85.082031 457.027344 85.042969 456.691406 85.023438 456.375 85.023438 452.699219 85.023438 450.59375 87.304688 450.136719 89.566406 449.710938 91.671875 450.53125 94.6875 454.234375 96.253906ZM380.59375 186.589844C382.007812 186.589844 383.457031 186.4375 384.824219 186.148438 385.953125 186.203125 387.3125 186.394531 388.738281 186.597656 390.804688 186.886719 392.945312 187.1875 395.035156 187.1875 395.035156 187.1875 395.035156 187.1875 395.039062 187.1875 397.660156 187.1875 399.765625 186.691406 401.476562 185.675781 402.578125 185.019531 403.332031 183.910156 403.539062 182.648438 403.75 181.386719 403.394531 180.097656 402.5625 179.121094 399.425781 175.429688 394.429688 170.859375 388.433594 170.035156 387.902344 169.960938 387.363281 169.988281 386.84375 170.109375 385.695312 170.382812 383.769531 170.3125 381.679688 170.171875 380.527344 170.097656 379.332031 170.015625 378.117188 170.015625 375.519531 170.015625 371.707031 170.351562 368.625 173.226562 367.523438 174.253906 367.03125 175.78125 367.324219 177.257812 368.476562 183.011719 373.558594 186.589844 380.59375 186.589844ZM267.367188 46.722656C267.824219 46.074219 268.089844 45.3125 268.144531 44.523438 269.019531 31.691406 257.460938 24.636719 249.019531 19.480469L247.59375 18.609375C247.261719 18.402344 246.902344 18.242188 246.523438 18.132812 244.765625 17.625 243.082031 17.429688 241.441406 17.570312 241.320312 17.582031 241.203125 17.597656 241.085938 17.617188 238.988281 17.972656 236.523438 18.035156 233.910156 18.105469 226.035156 18.3125 216.238281 18.570312 211.1875 27.78125 211.03125 28.066406 210.910156 28.363281 210.820312 28.675781 209.195312 34.339844 210.484375 40.535156 214.359375 45.679688 218.550781 51.234375 224.882812 54.554688 231.304688 54.554688 232.652344 54.554688 233.992188 54.40625 235.296875 54.109375 236.363281 54.203125 237.476562 54.316406 238.609375 54.4375 241.726562 54.761719 244.945312 55.09375 248.238281 55.09375 248.25 55.09375 248.261719 55.09375 248.273438 55.09375 251.585938 55.097656 261.527344 55.070312 267.367188 46.722656ZM248.238281 46.398438C245.394531 46.398438 242.402344 46.085938 239.507812 45.785156 238.046875 45.632812 236.625 45.484375 235.273438 45.382812 235.160156 45.371094 235.050781 45.367188 234.9375 45.367188 234.546875 45.367188 234.160156 45.421875 233.785156 45.523438 229.519531 46.699219 224.40625 44.554688 221.308594 40.445312 219.207031 37.65625 218.398438 34.441406 219.058594 31.546875 221.609375 27.433594 226.503906 27.003906 234.136719 26.804688 236.859375 26.734375 239.675781 26.660156 242.316406 26.234375 242.710938 26.21875 243.125 26.261719 243.59375 26.363281L244.488281 26.910156C252.738281 31.945312 259.136719 36.363281 259.476562 42.699219 257.175781 45.246094 253.644531 46.398438 248.238281 46.398438ZM264.136719 73.566406C263.710938 75.671875 264.53125 78.6875 268.234375 80.253906 270.992188 81.425781 273.726562 81.5625 275.546875 81.5625 276.65625 81.5625 277.738281 81.507812 278.785156 81.449219 279.773438 81.398438 280.703125 81.351562 281.605469 81.351562 283.105469 81.351562 284.207031 81.488281 285.167969 81.796875 285.257812 81.824219 285.347656 81.851562 285.4375 81.875 286.589844 82.164062 287.492188 82.300781 288.28125 82.300781 291.152344 82.300781 292.683594 80.441406 293.117188 78.847656 294.167969 75.003906 290.167969 72.488281 288.617188 71.566406 285.433594 69.351562 282.046875 69.0625 279.4375 69.0625 278.398438 69.0625 277.382812 69.113281 276.398438 69.164062 274.535156 69.257812 272.804688 69.304688 271.589844 69.109375 271.519531 69.101562 271.449219 69.089844 271.378906 69.082031 271.027344 69.042969 270.691406 69.027344 270.375 69.027344 266.699219 69.027344 264.59375 71.304688 264.136719 73.566406ZM156.59375 62.589844C158.007812 62.589844 159.457031 62.4375 160.824219 62.148438 161.953125 62.203125 163.308594 62.394531 164.738281 62.597656 166.804688 62.886719 168.945312 63.1875 171.035156 63.1875 173.660156 63.1875 175.765625 62.691406 177.476562 61.675781 178.578125 61.019531 179.332031 59.910156 179.539062 58.648438 179.75 57.386719 179.394531 56.097656 178.5625 55.121094 175.425781 51.429688 170.429688 46.859375 164.4375 46.035156 163.90625 45.960938 163.367188 45.988281 162.84375 46.109375 161.695312 46.382812 159.769531 46.3125 157.683594 46.171875 156.527344 46.097656 155.335938 46.015625 154.117188 46.015625 151.519531 46.015625 147.710938 46.351562 144.625 49.226562 143.523438 50.253906 143.03125 51.78125 143.328125 53.257812 144.476562 59.011719 149.558594 62.589844 156.59375 62.589844ZM568.5625 176.121094C565.425781 172.429688 560.429688 167.859375 554.4375 167.035156 553.902344 166.960938 553.363281 166.988281 552.84375 167.109375 551.695312 167.382812 549.769531 167.3125 547.679688 167.171875 546.527344 167.09375 545.335938 167.015625 544.117188 167.015625 541.519531 167.015625 537.710938 167.347656 534.625 170.226562 533.523438 171.253906 533.03125 172.78125 533.328125 174.257812 534.476562 180.011719 539.558594 183.589844 546.59375 183.589844 548.003906 183.589844 549.453125 183.4375 550.824219 183.148438 551.953125 183.203125 553.308594 183.394531 554.738281 183.597656 556.804688 183.886719 558.941406 184.1875 561.035156 184.1875 563.660156 184.1875 565.765625 183.691406 567.476562 182.675781 568.574219 182.019531 569.328125 180.910156 569.539062 179.648438 569.75 178.386719 569.394531 177.097656 568.5625 176.121094ZM568.5625 176.121094" stroke="param(outline)" stroke-opacity="param(outline-opacity)" stroke-width="param(outline-width)"/>
</svg>
