<svg width="580" height="580">
  <path fill="param(fill)" fill-opacity="param(fill-opacity)" d="M468.644531 448.746094 91.847656 448.746094C88.535156 448.746094 85.847656 451.433594 85.847656 454.746094 85.847656 458.058594 88.535156 460.746094 91.847656 460.746094L468.644531 460.746094C471.957031 460.746094 474.644531 458.058594 474.644531 454.746094 474.644531 451.433594 471.957031 448.746094 468.644531 448.746094ZM211.59375 329.863281C211.605469 329.863281 211.613281 329.863281 211.625 329.863281 215.910156 329.863281 219.394531 326.394531 219.410156 322.105469L219.742188 238.710938C219.757812 234.410156 216.285156 230.910156 211.984375 230.890625 211.976562 230.890625 211.964844 230.890625 211.953125 230.890625 207.667969 230.890625 204.183594 234.359375 204.167969 238.648438L203.839844 322.046875C203.820312 326.347656 207.292969 329.847656 211.59375 329.863281ZM231.230469 329.1875C232.328125 329.722656 233.492188 329.976562 234.636719 329.976562 237.519531 329.976562 240.292969 328.371094 241.640625 325.605469L268.011719 271.542969C269.898438 267.679688 268.292969 263.015625 264.429688 261.132812 260.5625 259.246094 255.902344 260.851562 254.015625 264.714844L227.644531 318.773438C225.757812 322.640625 227.363281 327.304688 231.230469 329.1875ZM256.28125 327.636719C257.796875 329.121094 259.761719 329.863281 261.730469 329.863281 263.75 329.863281 265.765625 329.082031 267.292969 327.527344L299.597656 294.5625C302.605469 291.492188 302.558594 286.5625 299.484375 283.554688 296.414062 280.539062 291.480469 280.59375 288.476562 283.664062L256.171875 316.628906C253.160156 319.695312 253.207031 324.628906 256.28125 327.636719ZM182.183594 325.105469C183.40625 328.136719 186.324219 329.980469 189.40625 329.980469 190.375 329.980469 191.363281 329.796875 192.316406 329.410156 196.304688 327.800781 198.234375 323.265625 196.625 319.277344L173.878906 262.910156C172.269531 258.921875 167.730469 256.992188 163.746094 258.601562 159.757812 260.210938 157.828125 264.746094 159.4375 268.734375ZM156.8125 327.582031C158.332031 329.101562 160.324219 329.863281 162.316406 329.863281 164.3125 329.863281 166.304688 329.101562 167.824219 327.582031 170.863281 324.539062 170.863281 319.609375 167.824219 316.570312L135.847656 284.597656C132.808594 281.554688 127.878906 281.554688 124.835938 284.597656 121.796875 287.636719 121.796875 292.566406 124.835938 295.609375ZM411.59375 233.863281C411.605469 233.863281 411.613281 233.863281 411.625 233.863281 415.910156 233.863281 419.394531 230.398438 419.410156 226.105469L419.742188 142.710938C419.757812 138.410156 416.285156 134.910156 411.984375 134.890625 411.976562 134.890625 411.964844 134.890625 411.953125 134.890625 407.667969 134.890625 404.183594 138.359375 404.167969 142.648438L403.839844 226.046875C403.820312 230.347656 407.292969 233.847656 411.59375 233.863281ZM431.230469 233.1875C432.328125 233.722656 433.492188 233.976562 434.636719 233.976562 437.519531 233.976562 440.292969 232.367188 441.640625 229.601562L468.011719 175.542969C469.898438 171.679688 468.292969 167.015625 464.425781 165.132812 460.558594 163.246094 455.898438 164.851562 454.015625 168.714844L427.644531 222.777344C425.761719 226.640625 427.363281 231.304688 431.230469 233.1875ZM456.277344 231.636719C457.796875 233.121094 459.761719 233.863281 461.726562 233.863281 463.746094 233.863281 465.765625 233.082031 467.289062 231.527344L499.597656 198.566406C502.605469 195.492188 502.554688 190.5625 499.484375 187.554688 496.414062 184.542969 491.484375 184.59375 488.472656 187.664062L456.167969 220.628906C453.15625 223.699219 453.207031 228.628906 456.277344 231.636719ZM382.183594 229.105469C383.40625 232.136719 386.324219 233.980469 389.40625 233.980469 390.378906 233.980469 391.363281 233.796875 392.320312 233.410156 396.304688 231.800781 398.234375 227.265625 396.625 223.277344L373.882812 166.910156C372.273438 162.921875 367.734375 160.992188 363.746094 162.601562 359.757812 164.210938 357.828125 168.746094 359.4375 172.734375ZM356.8125 231.582031C358.332031 233.105469 360.324219 233.863281 362.316406 233.863281 364.3125 233.863281 366.304688 233.105469 367.824219 231.582031 370.863281 228.542969 370.863281 223.613281 367.824219 220.570312L335.847656 188.597656C332.808594 185.554688 327.878906 185.554688 324.835938 188.597656 321.796875 191.636719 321.796875 196.566406 324.835938 199.609375ZM516.070312 388.746094 346.421875 388.746094C343.105469 388.746094 340.421875 391.433594 340.421875 394.746094 340.421875 398.058594 343.105469 400.746094 346.421875 400.746094L516.070312 400.746094C519.382812 400.746094 522.070312 398.058594 522.070312 394.746094 522.070312 391.433594 519.386719 388.746094 516.070312 388.746094ZM516.070312 388.746094" stroke="param(outline)" stroke-opacity="param(outline-opacity)" stroke-width="param(outline-width)"/>
</svg>
