<svg width="580" height="580">
  <path fill="param(fill)" fill-opacity="param(fill-opacity)" d="M506.046875 75.632812C495.453125 66.839844 482.601562 63.0625 469.890625 63.203125 457.179688 63.34375 444.148438 66.890625 433.734375 75.632812 423.316406 84.386719 416.785156 98.160156 416.785156 114.046875L416.785156 136.644531 60.871094 185.230469 41.664062 187.488281 46.183594 207.828125 87.992188 376.179688 91.378906 389.738281 416.789062 389.738281 416.789062 430.417969 103.738281 430.417969 112.8125 466.574219 452.941406 466.574219 452.941406 114.046875C452.941406 107.9375 454.496094 106.386719 457.460938 103.878906 460.425781 101.371094 464.734375 99.429688 469.890625 99.359375 475.042969 99.304688 480.625 100.398438 483.449219 102.75 486.273438 105.113281 487.96875 107.375 487.96875 114.046875L524.125 114.046875C524.125 97.929688 516.605469 84.421875 506.046875 75.632812ZM98.160156 268.839844 85.730469 219.125 162.5625 207.828125 170.46875 262.0625ZM119.625 353.582031 107.195312 303.867188 176.121094 298.21875 185.160156 353.582031ZM198.71875 203.308594 291.367188 190.878906 295.886719 249.632812 207.757812 258.671875ZM221.316406 353.582031 212.277344 294.828125 298.148438 285.789062 303.796875 353.582031ZM416.785156 353.582031 339.953125 353.582031 334.304688 282.398438 416.785156 274.488281ZM416.785156 238.332031 332.042969 246.242188 327.523438 185.230469 416.785156 172.800781ZM158.234375 469.605469C139.75 469.605469 124.78125 484.578125 124.78125 503.078125 124.78125 521.546875 139.75 536.554688 158.234375 536.554688 176.71875 536.554688 191.691406 521.546875 191.691406 503.078125 191.691406 484.578125 176.722656 469.605469 158.234375 469.605469ZM417.984375 468.476562C399.519531 468.476562 384.511719 483.449219 384.511719 501.949219 384.511719 520.417969 399.519531 535.390625 417.984375 535.390625 436.488281 535.390625 451.457031 520.417969 451.457031 501.949219 451.457031 483.449219 436.488281 468.476562 417.984375 468.476562ZM417.984375 468.476562" stroke="param(outline)" stroke-opacity="param(outline-opacity)" stroke-width="param(outline-width)"/>
</svg>
